M48
; DRILL file {KiCad (5.1.4)-1} date 10/10/2022 15:45:07
; FORMAT={-:-/ absolute / inch / decimal}
; #@! TF.CreationDate,2022-10-10T15:45:07+02:00
; #@! TF.GenerationSoftware,Kicad,Pcbnew,(5.1.4)-1
; #@! TF.FileFunction,Plated,1,2,PTH
FMAT,2
INCH
T1C0.0157
T2C0.0394
T3C0.0402
T4C0.0433
%
G90
G05
T1
X5.59Y-2.9
X5.6573Y-2.9925
X5.8Y-2.9
X5.815Y-2.805
X5.9246Y-2.9336
X5.925Y-3.1
X6.785Y-3.29
X6.94Y-3.445
X7.3Y-3.075
T2
X6.15Y-2.85
X6.15Y-2.95
X6.15Y-3.05
X6.15Y-3.15
X6.15Y-3.25
X6.15Y-3.35
X6.15Y-3.45
T3
X6.35Y-2.85
X6.35Y-3.55
X6.3591Y-3.1
X6.3591Y-3.2
X6.3591Y-3.3
X6.45Y-2.85
X6.45Y-3.55
X6.55Y-2.85
X6.55Y-3.55
X6.65Y-2.85
X6.65Y-3.55
X6.75Y-2.85
X6.75Y-3.55
X6.85Y-2.85
X6.85Y-3.55
X6.95Y-2.85
X6.95Y-3.55
X7.05Y-2.85
X7.05Y-3.55
X7.15Y-2.85
X7.15Y-3.55
X7.25Y-2.85
X7.25Y-3.55
X7.35Y-2.85
X7.35Y-3.55
X7.45Y-2.85
X7.45Y-3.55
X7.55Y-2.85
X7.55Y-3.55
X7.65Y-2.85
X7.65Y-3.55
X7.75Y-2.85
X7.75Y-3.55
X7.85Y-2.85
X7.85Y-3.55
X7.95Y-2.85
X7.95Y-3.55
X8.05Y-2.85
X8.05Y-3.55
X8.15Y-2.85
X8.15Y-3.55
X8.25Y-2.85
X8.25Y-3.55
T4
X5.7093Y-3.249
X5.7093Y-3.4754
T0
M30
