G04 #@! TF.GenerationSoftware,KiCad,Pcbnew,(5.1.4)-1*
G04 #@! TF.CreationDate,2022-10-10T15:45:04+02:00*
G04 #@! TF.ProjectId,PiPico_BCU_Connector,50695069-636f-45f4-9243-555f436f6e6e,V00.03*
G04 #@! TF.SameCoordinates,Original*
G04 #@! TF.FileFunction,Paste,Bot*
G04 #@! TF.FilePolarity,Positive*
%FSLAX46Y46*%
G04 Gerber Fmt 4.6, Leading zero omitted, Abs format (unit mm)*
G04 Created by KiCad (PCBNEW (5.1.4)-1) date 2022-10-10 15:45:04*
%MOMM*%
%LPD*%
G04 APERTURE LIST*
%ADD10R,1.050000X1.600000*%
%ADD11C,0.100000*%
%ADD12C,1.150000*%
G04 APERTURE END LIST*
D10*
X183955000Y-78840000D03*
X181805000Y-78840000D03*
X183955000Y-83540000D03*
X181805000Y-83540000D03*
X195512000Y-78803000D03*
X193362000Y-78803000D03*
X195512000Y-83503000D03*
X193362000Y-83503000D03*
D11*
G36*
X179417505Y-85922204D02*
G01*
X179441773Y-85925804D01*
X179465572Y-85931765D01*
X179488671Y-85940030D01*
X179510850Y-85950520D01*
X179531893Y-85963132D01*
X179551599Y-85977747D01*
X179569777Y-85994223D01*
X179586253Y-86012401D01*
X179600868Y-86032107D01*
X179613480Y-86053150D01*
X179623970Y-86075329D01*
X179632235Y-86098428D01*
X179638196Y-86122227D01*
X179641796Y-86146495D01*
X179643000Y-86170999D01*
X179643000Y-86821001D01*
X179641796Y-86845505D01*
X179638196Y-86869773D01*
X179632235Y-86893572D01*
X179623970Y-86916671D01*
X179613480Y-86938850D01*
X179600868Y-86959893D01*
X179586253Y-86979599D01*
X179569777Y-86997777D01*
X179551599Y-87014253D01*
X179531893Y-87028868D01*
X179510850Y-87041480D01*
X179488671Y-87051970D01*
X179465572Y-87060235D01*
X179441773Y-87066196D01*
X179417505Y-87069796D01*
X179393001Y-87071000D01*
X178492999Y-87071000D01*
X178468495Y-87069796D01*
X178444227Y-87066196D01*
X178420428Y-87060235D01*
X178397329Y-87051970D01*
X178375150Y-87041480D01*
X178354107Y-87028868D01*
X178334401Y-87014253D01*
X178316223Y-86997777D01*
X178299747Y-86979599D01*
X178285132Y-86959893D01*
X178272520Y-86938850D01*
X178262030Y-86916671D01*
X178253765Y-86893572D01*
X178247804Y-86869773D01*
X178244204Y-86845505D01*
X178243000Y-86821001D01*
X178243000Y-86170999D01*
X178244204Y-86146495D01*
X178247804Y-86122227D01*
X178253765Y-86098428D01*
X178262030Y-86075329D01*
X178272520Y-86053150D01*
X178285132Y-86032107D01*
X178299747Y-86012401D01*
X178316223Y-85994223D01*
X178334401Y-85977747D01*
X178354107Y-85963132D01*
X178375150Y-85950520D01*
X178397329Y-85940030D01*
X178420428Y-85931765D01*
X178444227Y-85925804D01*
X178468495Y-85922204D01*
X178492999Y-85921000D01*
X179393001Y-85921000D01*
X179417505Y-85922204D01*
X179417505Y-85922204D01*
G37*
D12*
X178943000Y-86496000D03*
D11*
G36*
X179417505Y-83872204D02*
G01*
X179441773Y-83875804D01*
X179465572Y-83881765D01*
X179488671Y-83890030D01*
X179510850Y-83900520D01*
X179531893Y-83913132D01*
X179551599Y-83927747D01*
X179569777Y-83944223D01*
X179586253Y-83962401D01*
X179600868Y-83982107D01*
X179613480Y-84003150D01*
X179623970Y-84025329D01*
X179632235Y-84048428D01*
X179638196Y-84072227D01*
X179641796Y-84096495D01*
X179643000Y-84120999D01*
X179643000Y-84771001D01*
X179641796Y-84795505D01*
X179638196Y-84819773D01*
X179632235Y-84843572D01*
X179623970Y-84866671D01*
X179613480Y-84888850D01*
X179600868Y-84909893D01*
X179586253Y-84929599D01*
X179569777Y-84947777D01*
X179551599Y-84964253D01*
X179531893Y-84978868D01*
X179510850Y-84991480D01*
X179488671Y-85001970D01*
X179465572Y-85010235D01*
X179441773Y-85016196D01*
X179417505Y-85019796D01*
X179393001Y-85021000D01*
X178492999Y-85021000D01*
X178468495Y-85019796D01*
X178444227Y-85016196D01*
X178420428Y-85010235D01*
X178397329Y-85001970D01*
X178375150Y-84991480D01*
X178354107Y-84978868D01*
X178334401Y-84964253D01*
X178316223Y-84947777D01*
X178299747Y-84929599D01*
X178285132Y-84909893D01*
X178272520Y-84888850D01*
X178262030Y-84866671D01*
X178253765Y-84843572D01*
X178247804Y-84819773D01*
X178244204Y-84795505D01*
X178243000Y-84771001D01*
X178243000Y-84120999D01*
X178244204Y-84096495D01*
X178247804Y-84072227D01*
X178253765Y-84048428D01*
X178262030Y-84025329D01*
X178272520Y-84003150D01*
X178285132Y-83982107D01*
X178299747Y-83962401D01*
X178316223Y-83944223D01*
X178334401Y-83927747D01*
X178354107Y-83913132D01*
X178375150Y-83900520D01*
X178397329Y-83890030D01*
X178420428Y-83881765D01*
X178444227Y-83875804D01*
X178468495Y-83872204D01*
X178492999Y-83871000D01*
X179393001Y-83871000D01*
X179417505Y-83872204D01*
X179417505Y-83872204D01*
G37*
D12*
X178943000Y-84446000D03*
D11*
G36*
X187919505Y-83375204D02*
G01*
X187943773Y-83378804D01*
X187967572Y-83384765D01*
X187990671Y-83393030D01*
X188012850Y-83403520D01*
X188033893Y-83416132D01*
X188053599Y-83430747D01*
X188071777Y-83447223D01*
X188088253Y-83465401D01*
X188102868Y-83485107D01*
X188115480Y-83506150D01*
X188125970Y-83528329D01*
X188134235Y-83551428D01*
X188140196Y-83575227D01*
X188143796Y-83599495D01*
X188145000Y-83623999D01*
X188145000Y-84524001D01*
X188143796Y-84548505D01*
X188140196Y-84572773D01*
X188134235Y-84596572D01*
X188125970Y-84619671D01*
X188115480Y-84641850D01*
X188102868Y-84662893D01*
X188088253Y-84682599D01*
X188071777Y-84700777D01*
X188053599Y-84717253D01*
X188033893Y-84731868D01*
X188012850Y-84744480D01*
X187990671Y-84754970D01*
X187967572Y-84763235D01*
X187943773Y-84769196D01*
X187919505Y-84772796D01*
X187895001Y-84774000D01*
X187244999Y-84774000D01*
X187220495Y-84772796D01*
X187196227Y-84769196D01*
X187172428Y-84763235D01*
X187149329Y-84754970D01*
X187127150Y-84744480D01*
X187106107Y-84731868D01*
X187086401Y-84717253D01*
X187068223Y-84700777D01*
X187051747Y-84682599D01*
X187037132Y-84662893D01*
X187024520Y-84641850D01*
X187014030Y-84619671D01*
X187005765Y-84596572D01*
X186999804Y-84572773D01*
X186996204Y-84548505D01*
X186995000Y-84524001D01*
X186995000Y-83623999D01*
X186996204Y-83599495D01*
X186999804Y-83575227D01*
X187005765Y-83551428D01*
X187014030Y-83528329D01*
X187024520Y-83506150D01*
X187037132Y-83485107D01*
X187051747Y-83465401D01*
X187068223Y-83447223D01*
X187086401Y-83430747D01*
X187106107Y-83416132D01*
X187127150Y-83403520D01*
X187149329Y-83393030D01*
X187172428Y-83384765D01*
X187196227Y-83378804D01*
X187220495Y-83375204D01*
X187244999Y-83374000D01*
X187895001Y-83374000D01*
X187919505Y-83375204D01*
X187919505Y-83375204D01*
G37*
D12*
X187570000Y-84074000D03*
D11*
G36*
X189969505Y-83375204D02*
G01*
X189993773Y-83378804D01*
X190017572Y-83384765D01*
X190040671Y-83393030D01*
X190062850Y-83403520D01*
X190083893Y-83416132D01*
X190103599Y-83430747D01*
X190121777Y-83447223D01*
X190138253Y-83465401D01*
X190152868Y-83485107D01*
X190165480Y-83506150D01*
X190175970Y-83528329D01*
X190184235Y-83551428D01*
X190190196Y-83575227D01*
X190193796Y-83599495D01*
X190195000Y-83623999D01*
X190195000Y-84524001D01*
X190193796Y-84548505D01*
X190190196Y-84572773D01*
X190184235Y-84596572D01*
X190175970Y-84619671D01*
X190165480Y-84641850D01*
X190152868Y-84662893D01*
X190138253Y-84682599D01*
X190121777Y-84700777D01*
X190103599Y-84717253D01*
X190083893Y-84731868D01*
X190062850Y-84744480D01*
X190040671Y-84754970D01*
X190017572Y-84763235D01*
X189993773Y-84769196D01*
X189969505Y-84772796D01*
X189945001Y-84774000D01*
X189294999Y-84774000D01*
X189270495Y-84772796D01*
X189246227Y-84769196D01*
X189222428Y-84763235D01*
X189199329Y-84754970D01*
X189177150Y-84744480D01*
X189156107Y-84731868D01*
X189136401Y-84717253D01*
X189118223Y-84700777D01*
X189101747Y-84682599D01*
X189087132Y-84662893D01*
X189074520Y-84641850D01*
X189064030Y-84619671D01*
X189055765Y-84596572D01*
X189049804Y-84572773D01*
X189046204Y-84548505D01*
X189045000Y-84524001D01*
X189045000Y-83623999D01*
X189046204Y-83599495D01*
X189049804Y-83575227D01*
X189055765Y-83551428D01*
X189064030Y-83528329D01*
X189074520Y-83506150D01*
X189087132Y-83485107D01*
X189101747Y-83465401D01*
X189118223Y-83447223D01*
X189136401Y-83430747D01*
X189156107Y-83416132D01*
X189177150Y-83403520D01*
X189199329Y-83393030D01*
X189222428Y-83384765D01*
X189246227Y-83378804D01*
X189270495Y-83375204D01*
X189294999Y-83374000D01*
X189945001Y-83374000D01*
X189969505Y-83375204D01*
X189969505Y-83375204D01*
G37*
D12*
X189620000Y-84074000D03*
D11*
G36*
X187919505Y-78930204D02*
G01*
X187943773Y-78933804D01*
X187967572Y-78939765D01*
X187990671Y-78948030D01*
X188012850Y-78958520D01*
X188033893Y-78971132D01*
X188053599Y-78985747D01*
X188071777Y-79002223D01*
X188088253Y-79020401D01*
X188102868Y-79040107D01*
X188115480Y-79061150D01*
X188125970Y-79083329D01*
X188134235Y-79106428D01*
X188140196Y-79130227D01*
X188143796Y-79154495D01*
X188145000Y-79178999D01*
X188145000Y-80079001D01*
X188143796Y-80103505D01*
X188140196Y-80127773D01*
X188134235Y-80151572D01*
X188125970Y-80174671D01*
X188115480Y-80196850D01*
X188102868Y-80217893D01*
X188088253Y-80237599D01*
X188071777Y-80255777D01*
X188053599Y-80272253D01*
X188033893Y-80286868D01*
X188012850Y-80299480D01*
X187990671Y-80309970D01*
X187967572Y-80318235D01*
X187943773Y-80324196D01*
X187919505Y-80327796D01*
X187895001Y-80329000D01*
X187244999Y-80329000D01*
X187220495Y-80327796D01*
X187196227Y-80324196D01*
X187172428Y-80318235D01*
X187149329Y-80309970D01*
X187127150Y-80299480D01*
X187106107Y-80286868D01*
X187086401Y-80272253D01*
X187068223Y-80255777D01*
X187051747Y-80237599D01*
X187037132Y-80217893D01*
X187024520Y-80196850D01*
X187014030Y-80174671D01*
X187005765Y-80151572D01*
X186999804Y-80127773D01*
X186996204Y-80103505D01*
X186995000Y-80079001D01*
X186995000Y-79178999D01*
X186996204Y-79154495D01*
X186999804Y-79130227D01*
X187005765Y-79106428D01*
X187014030Y-79083329D01*
X187024520Y-79061150D01*
X187037132Y-79040107D01*
X187051747Y-79020401D01*
X187068223Y-79002223D01*
X187086401Y-78985747D01*
X187106107Y-78971132D01*
X187127150Y-78958520D01*
X187149329Y-78948030D01*
X187172428Y-78939765D01*
X187196227Y-78933804D01*
X187220495Y-78930204D01*
X187244999Y-78929000D01*
X187895001Y-78929000D01*
X187919505Y-78930204D01*
X187919505Y-78930204D01*
G37*
D12*
X187570000Y-79629000D03*
D11*
G36*
X189969505Y-78930204D02*
G01*
X189993773Y-78933804D01*
X190017572Y-78939765D01*
X190040671Y-78948030D01*
X190062850Y-78958520D01*
X190083893Y-78971132D01*
X190103599Y-78985747D01*
X190121777Y-79002223D01*
X190138253Y-79020401D01*
X190152868Y-79040107D01*
X190165480Y-79061150D01*
X190175970Y-79083329D01*
X190184235Y-79106428D01*
X190190196Y-79130227D01*
X190193796Y-79154495D01*
X190195000Y-79178999D01*
X190195000Y-80079001D01*
X190193796Y-80103505D01*
X190190196Y-80127773D01*
X190184235Y-80151572D01*
X190175970Y-80174671D01*
X190165480Y-80196850D01*
X190152868Y-80217893D01*
X190138253Y-80237599D01*
X190121777Y-80255777D01*
X190103599Y-80272253D01*
X190083893Y-80286868D01*
X190062850Y-80299480D01*
X190040671Y-80309970D01*
X190017572Y-80318235D01*
X189993773Y-80324196D01*
X189969505Y-80327796D01*
X189945001Y-80329000D01*
X189294999Y-80329000D01*
X189270495Y-80327796D01*
X189246227Y-80324196D01*
X189222428Y-80318235D01*
X189199329Y-80309970D01*
X189177150Y-80299480D01*
X189156107Y-80286868D01*
X189136401Y-80272253D01*
X189118223Y-80255777D01*
X189101747Y-80237599D01*
X189087132Y-80217893D01*
X189074520Y-80196850D01*
X189064030Y-80174671D01*
X189055765Y-80151572D01*
X189049804Y-80127773D01*
X189046204Y-80103505D01*
X189045000Y-80079001D01*
X189045000Y-79178999D01*
X189046204Y-79154495D01*
X189049804Y-79130227D01*
X189055765Y-79106428D01*
X189064030Y-79083329D01*
X189074520Y-79061150D01*
X189087132Y-79040107D01*
X189101747Y-79020401D01*
X189118223Y-79002223D01*
X189136401Y-78985747D01*
X189156107Y-78971132D01*
X189177150Y-78958520D01*
X189199329Y-78948030D01*
X189222428Y-78939765D01*
X189246227Y-78933804D01*
X189270495Y-78930204D01*
X189294999Y-78929000D01*
X189945001Y-78929000D01*
X189969505Y-78930204D01*
X189969505Y-78930204D01*
G37*
D12*
X189620000Y-79629000D03*
D11*
G36*
X179417505Y-81604204D02*
G01*
X179441773Y-81607804D01*
X179465572Y-81613765D01*
X179488671Y-81622030D01*
X179510850Y-81632520D01*
X179531893Y-81645132D01*
X179551599Y-81659747D01*
X179569777Y-81676223D01*
X179586253Y-81694401D01*
X179600868Y-81714107D01*
X179613480Y-81735150D01*
X179623970Y-81757329D01*
X179632235Y-81780428D01*
X179638196Y-81804227D01*
X179641796Y-81828495D01*
X179643000Y-81852999D01*
X179643000Y-82503001D01*
X179641796Y-82527505D01*
X179638196Y-82551773D01*
X179632235Y-82575572D01*
X179623970Y-82598671D01*
X179613480Y-82620850D01*
X179600868Y-82641893D01*
X179586253Y-82661599D01*
X179569777Y-82679777D01*
X179551599Y-82696253D01*
X179531893Y-82710868D01*
X179510850Y-82723480D01*
X179488671Y-82733970D01*
X179465572Y-82742235D01*
X179441773Y-82748196D01*
X179417505Y-82751796D01*
X179393001Y-82753000D01*
X178492999Y-82753000D01*
X178468495Y-82751796D01*
X178444227Y-82748196D01*
X178420428Y-82742235D01*
X178397329Y-82733970D01*
X178375150Y-82723480D01*
X178354107Y-82710868D01*
X178334401Y-82696253D01*
X178316223Y-82679777D01*
X178299747Y-82661599D01*
X178285132Y-82641893D01*
X178272520Y-82620850D01*
X178262030Y-82598671D01*
X178253765Y-82575572D01*
X178247804Y-82551773D01*
X178244204Y-82527505D01*
X178243000Y-82503001D01*
X178243000Y-81852999D01*
X178244204Y-81828495D01*
X178247804Y-81804227D01*
X178253765Y-81780428D01*
X178262030Y-81757329D01*
X178272520Y-81735150D01*
X178285132Y-81714107D01*
X178299747Y-81694401D01*
X178316223Y-81676223D01*
X178334401Y-81659747D01*
X178354107Y-81645132D01*
X178375150Y-81632520D01*
X178397329Y-81622030D01*
X178420428Y-81613765D01*
X178444227Y-81607804D01*
X178468495Y-81604204D01*
X178492999Y-81603000D01*
X179393001Y-81603000D01*
X179417505Y-81604204D01*
X179417505Y-81604204D01*
G37*
D12*
X178943000Y-82178000D03*
D11*
G36*
X179417505Y-79554204D02*
G01*
X179441773Y-79557804D01*
X179465572Y-79563765D01*
X179488671Y-79572030D01*
X179510850Y-79582520D01*
X179531893Y-79595132D01*
X179551599Y-79609747D01*
X179569777Y-79626223D01*
X179586253Y-79644401D01*
X179600868Y-79664107D01*
X179613480Y-79685150D01*
X179623970Y-79707329D01*
X179632235Y-79730428D01*
X179638196Y-79754227D01*
X179641796Y-79778495D01*
X179643000Y-79802999D01*
X179643000Y-80453001D01*
X179641796Y-80477505D01*
X179638196Y-80501773D01*
X179632235Y-80525572D01*
X179623970Y-80548671D01*
X179613480Y-80570850D01*
X179600868Y-80591893D01*
X179586253Y-80611599D01*
X179569777Y-80629777D01*
X179551599Y-80646253D01*
X179531893Y-80660868D01*
X179510850Y-80673480D01*
X179488671Y-80683970D01*
X179465572Y-80692235D01*
X179441773Y-80698196D01*
X179417505Y-80701796D01*
X179393001Y-80703000D01*
X178492999Y-80703000D01*
X178468495Y-80701796D01*
X178444227Y-80698196D01*
X178420428Y-80692235D01*
X178397329Y-80683970D01*
X178375150Y-80673480D01*
X178354107Y-80660868D01*
X178334401Y-80646253D01*
X178316223Y-80629777D01*
X178299747Y-80611599D01*
X178285132Y-80591893D01*
X178272520Y-80570850D01*
X178262030Y-80548671D01*
X178253765Y-80525572D01*
X178247804Y-80501773D01*
X178244204Y-80477505D01*
X178243000Y-80453001D01*
X178243000Y-79802999D01*
X178244204Y-79778495D01*
X178247804Y-79754227D01*
X178253765Y-79730428D01*
X178262030Y-79707329D01*
X178272520Y-79685150D01*
X178285132Y-79664107D01*
X178299747Y-79644401D01*
X178316223Y-79626223D01*
X178334401Y-79609747D01*
X178354107Y-79595132D01*
X178375150Y-79582520D01*
X178397329Y-79572030D01*
X178420428Y-79563765D01*
X178444227Y-79557804D01*
X178468495Y-79554204D01*
X178492999Y-79553000D01*
X179393001Y-79553000D01*
X179417505Y-79554204D01*
X179417505Y-79554204D01*
G37*
D12*
X178943000Y-80128000D03*
D11*
G36*
X187919505Y-81216204D02*
G01*
X187943773Y-81219804D01*
X187967572Y-81225765D01*
X187990671Y-81234030D01*
X188012850Y-81244520D01*
X188033893Y-81257132D01*
X188053599Y-81271747D01*
X188071777Y-81288223D01*
X188088253Y-81306401D01*
X188102868Y-81326107D01*
X188115480Y-81347150D01*
X188125970Y-81369329D01*
X188134235Y-81392428D01*
X188140196Y-81416227D01*
X188143796Y-81440495D01*
X188145000Y-81464999D01*
X188145000Y-82365001D01*
X188143796Y-82389505D01*
X188140196Y-82413773D01*
X188134235Y-82437572D01*
X188125970Y-82460671D01*
X188115480Y-82482850D01*
X188102868Y-82503893D01*
X188088253Y-82523599D01*
X188071777Y-82541777D01*
X188053599Y-82558253D01*
X188033893Y-82572868D01*
X188012850Y-82585480D01*
X187990671Y-82595970D01*
X187967572Y-82604235D01*
X187943773Y-82610196D01*
X187919505Y-82613796D01*
X187895001Y-82615000D01*
X187244999Y-82615000D01*
X187220495Y-82613796D01*
X187196227Y-82610196D01*
X187172428Y-82604235D01*
X187149329Y-82595970D01*
X187127150Y-82585480D01*
X187106107Y-82572868D01*
X187086401Y-82558253D01*
X187068223Y-82541777D01*
X187051747Y-82523599D01*
X187037132Y-82503893D01*
X187024520Y-82482850D01*
X187014030Y-82460671D01*
X187005765Y-82437572D01*
X186999804Y-82413773D01*
X186996204Y-82389505D01*
X186995000Y-82365001D01*
X186995000Y-81464999D01*
X186996204Y-81440495D01*
X186999804Y-81416227D01*
X187005765Y-81392428D01*
X187014030Y-81369329D01*
X187024520Y-81347150D01*
X187037132Y-81326107D01*
X187051747Y-81306401D01*
X187068223Y-81288223D01*
X187086401Y-81271747D01*
X187106107Y-81257132D01*
X187127150Y-81244520D01*
X187149329Y-81234030D01*
X187172428Y-81225765D01*
X187196227Y-81219804D01*
X187220495Y-81216204D01*
X187244999Y-81215000D01*
X187895001Y-81215000D01*
X187919505Y-81216204D01*
X187919505Y-81216204D01*
G37*
D12*
X187570000Y-81915000D03*
D11*
G36*
X189969505Y-81216204D02*
G01*
X189993773Y-81219804D01*
X190017572Y-81225765D01*
X190040671Y-81234030D01*
X190062850Y-81244520D01*
X190083893Y-81257132D01*
X190103599Y-81271747D01*
X190121777Y-81288223D01*
X190138253Y-81306401D01*
X190152868Y-81326107D01*
X190165480Y-81347150D01*
X190175970Y-81369329D01*
X190184235Y-81392428D01*
X190190196Y-81416227D01*
X190193796Y-81440495D01*
X190195000Y-81464999D01*
X190195000Y-82365001D01*
X190193796Y-82389505D01*
X190190196Y-82413773D01*
X190184235Y-82437572D01*
X190175970Y-82460671D01*
X190165480Y-82482850D01*
X190152868Y-82503893D01*
X190138253Y-82523599D01*
X190121777Y-82541777D01*
X190103599Y-82558253D01*
X190083893Y-82572868D01*
X190062850Y-82585480D01*
X190040671Y-82595970D01*
X190017572Y-82604235D01*
X189993773Y-82610196D01*
X189969505Y-82613796D01*
X189945001Y-82615000D01*
X189294999Y-82615000D01*
X189270495Y-82613796D01*
X189246227Y-82610196D01*
X189222428Y-82604235D01*
X189199329Y-82595970D01*
X189177150Y-82585480D01*
X189156107Y-82572868D01*
X189136401Y-82558253D01*
X189118223Y-82541777D01*
X189101747Y-82523599D01*
X189087132Y-82503893D01*
X189074520Y-82482850D01*
X189064030Y-82460671D01*
X189055765Y-82437572D01*
X189049804Y-82413773D01*
X189046204Y-82389505D01*
X189045000Y-82365001D01*
X189045000Y-81464999D01*
X189046204Y-81440495D01*
X189049804Y-81416227D01*
X189055765Y-81392428D01*
X189064030Y-81369329D01*
X189074520Y-81347150D01*
X189087132Y-81326107D01*
X189101747Y-81306401D01*
X189118223Y-81288223D01*
X189136401Y-81271747D01*
X189156107Y-81257132D01*
X189177150Y-81244520D01*
X189199329Y-81234030D01*
X189222428Y-81225765D01*
X189246227Y-81219804D01*
X189270495Y-81216204D01*
X189294999Y-81215000D01*
X189945001Y-81215000D01*
X189969505Y-81216204D01*
X189969505Y-81216204D01*
G37*
D12*
X189620000Y-81915000D03*
M02*
