G04 #@! TF.GenerationSoftware,KiCad,Pcbnew,(5.1.4)-1*
G04 #@! TF.CreationDate,2022-10-10T15:45:04+02:00*
G04 #@! TF.ProjectId,PiPico_BCU_Connector,50695069-636f-45f4-9243-555f436f6e6e,V00.03*
G04 #@! TF.SameCoordinates,Original*
G04 #@! TF.FileFunction,Copper,L1,Top*
G04 #@! TF.FilePolarity,Positive*
%FSLAX46Y46*%
G04 Gerber Fmt 4.6, Leading zero omitted, Abs format (unit mm)*
G04 Created by KiCad (PCBNEW (5.1.4)-1) date 2022-10-10 15:45:04*
%MOMM*%
%LPD*%
G04 APERTURE LIST*
%ADD10O,1.700000X1.700000*%
%ADD11R,3.500000X1.700000*%
%ADD12R,1.700000X1.700000*%
%ADD13R,1.700000X3.500000*%
%ADD14C,0.100000*%
%ADD15C,1.150000*%
%ADD16R,1.050000X1.600000*%
%ADD17C,2.500000*%
%ADD18R,1.800000X2.500000*%
%ADD19C,0.800000*%
%ADD20C,0.250000*%
%ADD21C,0.800000*%
%ADD22C,0.254000*%
G04 APERTURE END LIST*
D10*
X161520000Y-83820000D03*
D11*
X160620000Y-83820000D03*
D12*
X161520000Y-81280000D03*
D11*
X160620000Y-81280000D03*
D10*
X161520000Y-78740000D03*
D11*
X160620000Y-78740000D03*
D13*
X161290000Y-91070000D03*
X163830000Y-91070000D03*
X166370000Y-91070000D03*
X168910000Y-91070000D03*
X171450000Y-91070000D03*
X173990000Y-91070000D03*
X176530000Y-91070000D03*
X179070000Y-91070000D03*
X181610000Y-91070000D03*
X184150000Y-91070000D03*
X186690000Y-91070000D03*
X189230000Y-91070000D03*
X191770000Y-91070000D03*
X194310000Y-91070000D03*
X196850000Y-91070000D03*
X199390000Y-91070000D03*
X201930000Y-91070000D03*
X204470000Y-91070000D03*
X207010000Y-91070000D03*
X209550000Y-91070000D03*
X161290000Y-71490000D03*
X163830000Y-71490000D03*
X166370000Y-71490000D03*
X168910000Y-71490000D03*
X171450000Y-71490000D03*
X173990000Y-71490000D03*
X176530000Y-71490000D03*
X179070000Y-71490000D03*
X181610000Y-71490000D03*
X184150000Y-71490000D03*
X186690000Y-71490000D03*
X189230000Y-71490000D03*
X191770000Y-71490000D03*
X194310000Y-71490000D03*
X196850000Y-71490000D03*
X199390000Y-71490000D03*
X201930000Y-71490000D03*
X204470000Y-71490000D03*
X207010000Y-71490000D03*
X209550000Y-71490000D03*
D10*
X209550000Y-90170000D03*
X207010000Y-90170000D03*
D12*
X204470000Y-90170000D03*
D10*
X201930000Y-90170000D03*
X199390000Y-90170000D03*
X196850000Y-90170000D03*
X194310000Y-90170000D03*
D12*
X191770000Y-90170000D03*
D10*
X189230000Y-90170000D03*
X186690000Y-90170000D03*
X184150000Y-90170000D03*
X181610000Y-90170000D03*
D12*
X179070000Y-90170000D03*
D10*
X176530000Y-90170000D03*
X173990000Y-90170000D03*
X171450000Y-90170000D03*
X168910000Y-90170000D03*
D12*
X166370000Y-90170000D03*
D10*
X163830000Y-90170000D03*
X161290000Y-90170000D03*
X161290000Y-72390000D03*
X163830000Y-72390000D03*
D12*
X166370000Y-72390000D03*
D10*
X168910000Y-72390000D03*
X171450000Y-72390000D03*
X173990000Y-72390000D03*
X176530000Y-72390000D03*
D12*
X179070000Y-72390000D03*
D10*
X181610000Y-72390000D03*
X184150000Y-72390000D03*
X186690000Y-72390000D03*
X189230000Y-72390000D03*
D12*
X191770000Y-72390000D03*
D10*
X194310000Y-72390000D03*
X196850000Y-72390000D03*
X199390000Y-72390000D03*
X201930000Y-72390000D03*
D12*
X204470000Y-72390000D03*
D10*
X207010000Y-72390000D03*
X209550000Y-72390000D03*
D14*
G36*
X143614505Y-77406204D02*
G01*
X143638773Y-77409804D01*
X143662572Y-77415765D01*
X143685671Y-77424030D01*
X143707850Y-77434520D01*
X143728893Y-77447132D01*
X143748599Y-77461747D01*
X143766777Y-77478223D01*
X143783253Y-77496401D01*
X143797868Y-77516107D01*
X143810480Y-77537150D01*
X143820970Y-77559329D01*
X143829235Y-77582428D01*
X143835196Y-77606227D01*
X143838796Y-77630495D01*
X143840000Y-77654999D01*
X143840000Y-78555001D01*
X143838796Y-78579505D01*
X143835196Y-78603773D01*
X143829235Y-78627572D01*
X143820970Y-78650671D01*
X143810480Y-78672850D01*
X143797868Y-78693893D01*
X143783253Y-78713599D01*
X143766777Y-78731777D01*
X143748599Y-78748253D01*
X143728893Y-78762868D01*
X143707850Y-78775480D01*
X143685671Y-78785970D01*
X143662572Y-78794235D01*
X143638773Y-78800196D01*
X143614505Y-78803796D01*
X143590001Y-78805000D01*
X142939999Y-78805000D01*
X142915495Y-78803796D01*
X142891227Y-78800196D01*
X142867428Y-78794235D01*
X142844329Y-78785970D01*
X142822150Y-78775480D01*
X142801107Y-78762868D01*
X142781401Y-78748253D01*
X142763223Y-78731777D01*
X142746747Y-78713599D01*
X142732132Y-78693893D01*
X142719520Y-78672850D01*
X142709030Y-78650671D01*
X142700765Y-78627572D01*
X142694804Y-78603773D01*
X142691204Y-78579505D01*
X142690000Y-78555001D01*
X142690000Y-77654999D01*
X142691204Y-77630495D01*
X142694804Y-77606227D01*
X142700765Y-77582428D01*
X142709030Y-77559329D01*
X142719520Y-77537150D01*
X142732132Y-77516107D01*
X142746747Y-77496401D01*
X142763223Y-77478223D01*
X142781401Y-77461747D01*
X142801107Y-77447132D01*
X142822150Y-77434520D01*
X142844329Y-77424030D01*
X142867428Y-77415765D01*
X142891227Y-77409804D01*
X142915495Y-77406204D01*
X142939999Y-77405000D01*
X143590001Y-77405000D01*
X143614505Y-77406204D01*
X143614505Y-77406204D01*
G37*
D15*
X143265000Y-78105000D03*
D14*
G36*
X141564505Y-77406204D02*
G01*
X141588773Y-77409804D01*
X141612572Y-77415765D01*
X141635671Y-77424030D01*
X141657850Y-77434520D01*
X141678893Y-77447132D01*
X141698599Y-77461747D01*
X141716777Y-77478223D01*
X141733253Y-77496401D01*
X141747868Y-77516107D01*
X141760480Y-77537150D01*
X141770970Y-77559329D01*
X141779235Y-77582428D01*
X141785196Y-77606227D01*
X141788796Y-77630495D01*
X141790000Y-77654999D01*
X141790000Y-78555001D01*
X141788796Y-78579505D01*
X141785196Y-78603773D01*
X141779235Y-78627572D01*
X141770970Y-78650671D01*
X141760480Y-78672850D01*
X141747868Y-78693893D01*
X141733253Y-78713599D01*
X141716777Y-78731777D01*
X141698599Y-78748253D01*
X141678893Y-78762868D01*
X141657850Y-78775480D01*
X141635671Y-78785970D01*
X141612572Y-78794235D01*
X141588773Y-78800196D01*
X141564505Y-78803796D01*
X141540001Y-78805000D01*
X140889999Y-78805000D01*
X140865495Y-78803796D01*
X140841227Y-78800196D01*
X140817428Y-78794235D01*
X140794329Y-78785970D01*
X140772150Y-78775480D01*
X140751107Y-78762868D01*
X140731401Y-78748253D01*
X140713223Y-78731777D01*
X140696747Y-78713599D01*
X140682132Y-78693893D01*
X140669520Y-78672850D01*
X140659030Y-78650671D01*
X140650765Y-78627572D01*
X140644804Y-78603773D01*
X140641204Y-78579505D01*
X140640000Y-78555001D01*
X140640000Y-77654999D01*
X140641204Y-77630495D01*
X140644804Y-77606227D01*
X140650765Y-77582428D01*
X140659030Y-77559329D01*
X140669520Y-77537150D01*
X140682132Y-77516107D01*
X140696747Y-77496401D01*
X140713223Y-77478223D01*
X140731401Y-77461747D01*
X140751107Y-77447132D01*
X140772150Y-77434520D01*
X140794329Y-77424030D01*
X140817428Y-77415765D01*
X140841227Y-77409804D01*
X140865495Y-77406204D01*
X140889999Y-77405000D01*
X141540001Y-77405000D01*
X141564505Y-77406204D01*
X141564505Y-77406204D01*
G37*
D15*
X141215000Y-78105000D03*
D14*
G36*
X148059505Y-77406204D02*
G01*
X148083773Y-77409804D01*
X148107572Y-77415765D01*
X148130671Y-77424030D01*
X148152850Y-77434520D01*
X148173893Y-77447132D01*
X148193599Y-77461747D01*
X148211777Y-77478223D01*
X148228253Y-77496401D01*
X148242868Y-77516107D01*
X148255480Y-77537150D01*
X148265970Y-77559329D01*
X148274235Y-77582428D01*
X148280196Y-77606227D01*
X148283796Y-77630495D01*
X148285000Y-77654999D01*
X148285000Y-78555001D01*
X148283796Y-78579505D01*
X148280196Y-78603773D01*
X148274235Y-78627572D01*
X148265970Y-78650671D01*
X148255480Y-78672850D01*
X148242868Y-78693893D01*
X148228253Y-78713599D01*
X148211777Y-78731777D01*
X148193599Y-78748253D01*
X148173893Y-78762868D01*
X148152850Y-78775480D01*
X148130671Y-78785970D01*
X148107572Y-78794235D01*
X148083773Y-78800196D01*
X148059505Y-78803796D01*
X148035001Y-78805000D01*
X147384999Y-78805000D01*
X147360495Y-78803796D01*
X147336227Y-78800196D01*
X147312428Y-78794235D01*
X147289329Y-78785970D01*
X147267150Y-78775480D01*
X147246107Y-78762868D01*
X147226401Y-78748253D01*
X147208223Y-78731777D01*
X147191747Y-78713599D01*
X147177132Y-78693893D01*
X147164520Y-78672850D01*
X147154030Y-78650671D01*
X147145765Y-78627572D01*
X147139804Y-78603773D01*
X147136204Y-78579505D01*
X147135000Y-78555001D01*
X147135000Y-77654999D01*
X147136204Y-77630495D01*
X147139804Y-77606227D01*
X147145765Y-77582428D01*
X147154030Y-77559329D01*
X147164520Y-77537150D01*
X147177132Y-77516107D01*
X147191747Y-77496401D01*
X147208223Y-77478223D01*
X147226401Y-77461747D01*
X147246107Y-77447132D01*
X147267150Y-77434520D01*
X147289329Y-77424030D01*
X147312428Y-77415765D01*
X147336227Y-77409804D01*
X147360495Y-77406204D01*
X147384999Y-77405000D01*
X148035001Y-77405000D01*
X148059505Y-77406204D01*
X148059505Y-77406204D01*
G37*
D15*
X147710000Y-78105000D03*
D14*
G36*
X146009505Y-77406204D02*
G01*
X146033773Y-77409804D01*
X146057572Y-77415765D01*
X146080671Y-77424030D01*
X146102850Y-77434520D01*
X146123893Y-77447132D01*
X146143599Y-77461747D01*
X146161777Y-77478223D01*
X146178253Y-77496401D01*
X146192868Y-77516107D01*
X146205480Y-77537150D01*
X146215970Y-77559329D01*
X146224235Y-77582428D01*
X146230196Y-77606227D01*
X146233796Y-77630495D01*
X146235000Y-77654999D01*
X146235000Y-78555001D01*
X146233796Y-78579505D01*
X146230196Y-78603773D01*
X146224235Y-78627572D01*
X146215970Y-78650671D01*
X146205480Y-78672850D01*
X146192868Y-78693893D01*
X146178253Y-78713599D01*
X146161777Y-78731777D01*
X146143599Y-78748253D01*
X146123893Y-78762868D01*
X146102850Y-78775480D01*
X146080671Y-78785970D01*
X146057572Y-78794235D01*
X146033773Y-78800196D01*
X146009505Y-78803796D01*
X145985001Y-78805000D01*
X145334999Y-78805000D01*
X145310495Y-78803796D01*
X145286227Y-78800196D01*
X145262428Y-78794235D01*
X145239329Y-78785970D01*
X145217150Y-78775480D01*
X145196107Y-78762868D01*
X145176401Y-78748253D01*
X145158223Y-78731777D01*
X145141747Y-78713599D01*
X145127132Y-78693893D01*
X145114520Y-78672850D01*
X145104030Y-78650671D01*
X145095765Y-78627572D01*
X145089804Y-78603773D01*
X145086204Y-78579505D01*
X145085000Y-78555001D01*
X145085000Y-77654999D01*
X145086204Y-77630495D01*
X145089804Y-77606227D01*
X145095765Y-77582428D01*
X145104030Y-77559329D01*
X145114520Y-77537150D01*
X145127132Y-77516107D01*
X145141747Y-77496401D01*
X145158223Y-77478223D01*
X145176401Y-77461747D01*
X145196107Y-77447132D01*
X145217150Y-77434520D01*
X145239329Y-77424030D01*
X145262428Y-77415765D01*
X145286227Y-77409804D01*
X145310495Y-77406204D01*
X145334999Y-77405000D01*
X145985001Y-77405000D01*
X146009505Y-77406204D01*
X146009505Y-77406204D01*
G37*
D15*
X145660000Y-78105000D03*
D16*
X147760000Y-76010000D03*
X145610000Y-76010000D03*
X147760000Y-71310000D03*
X145610000Y-71310000D03*
D14*
G36*
X152885505Y-71056204D02*
G01*
X152909773Y-71059804D01*
X152933572Y-71065765D01*
X152956671Y-71074030D01*
X152978850Y-71084520D01*
X152999893Y-71097132D01*
X153019599Y-71111747D01*
X153037777Y-71128223D01*
X153054253Y-71146401D01*
X153068868Y-71166107D01*
X153081480Y-71187150D01*
X153091970Y-71209329D01*
X153100235Y-71232428D01*
X153106196Y-71256227D01*
X153109796Y-71280495D01*
X153111000Y-71304999D01*
X153111000Y-72205001D01*
X153109796Y-72229505D01*
X153106196Y-72253773D01*
X153100235Y-72277572D01*
X153091970Y-72300671D01*
X153081480Y-72322850D01*
X153068868Y-72343893D01*
X153054253Y-72363599D01*
X153037777Y-72381777D01*
X153019599Y-72398253D01*
X152999893Y-72412868D01*
X152978850Y-72425480D01*
X152956671Y-72435970D01*
X152933572Y-72444235D01*
X152909773Y-72450196D01*
X152885505Y-72453796D01*
X152861001Y-72455000D01*
X152210999Y-72455000D01*
X152186495Y-72453796D01*
X152162227Y-72450196D01*
X152138428Y-72444235D01*
X152115329Y-72435970D01*
X152093150Y-72425480D01*
X152072107Y-72412868D01*
X152052401Y-72398253D01*
X152034223Y-72381777D01*
X152017747Y-72363599D01*
X152003132Y-72343893D01*
X151990520Y-72322850D01*
X151980030Y-72300671D01*
X151971765Y-72277572D01*
X151965804Y-72253773D01*
X151962204Y-72229505D01*
X151961000Y-72205001D01*
X151961000Y-71304999D01*
X151962204Y-71280495D01*
X151965804Y-71256227D01*
X151971765Y-71232428D01*
X151980030Y-71209329D01*
X151990520Y-71187150D01*
X152003132Y-71166107D01*
X152017747Y-71146401D01*
X152034223Y-71128223D01*
X152052401Y-71111747D01*
X152072107Y-71097132D01*
X152093150Y-71084520D01*
X152115329Y-71074030D01*
X152138428Y-71065765D01*
X152162227Y-71059804D01*
X152186495Y-71056204D01*
X152210999Y-71055000D01*
X152861001Y-71055000D01*
X152885505Y-71056204D01*
X152885505Y-71056204D01*
G37*
D15*
X152536000Y-71755000D03*
D14*
G36*
X150835505Y-71056204D02*
G01*
X150859773Y-71059804D01*
X150883572Y-71065765D01*
X150906671Y-71074030D01*
X150928850Y-71084520D01*
X150949893Y-71097132D01*
X150969599Y-71111747D01*
X150987777Y-71128223D01*
X151004253Y-71146401D01*
X151018868Y-71166107D01*
X151031480Y-71187150D01*
X151041970Y-71209329D01*
X151050235Y-71232428D01*
X151056196Y-71256227D01*
X151059796Y-71280495D01*
X151061000Y-71304999D01*
X151061000Y-72205001D01*
X151059796Y-72229505D01*
X151056196Y-72253773D01*
X151050235Y-72277572D01*
X151041970Y-72300671D01*
X151031480Y-72322850D01*
X151018868Y-72343893D01*
X151004253Y-72363599D01*
X150987777Y-72381777D01*
X150969599Y-72398253D01*
X150949893Y-72412868D01*
X150928850Y-72425480D01*
X150906671Y-72435970D01*
X150883572Y-72444235D01*
X150859773Y-72450196D01*
X150835505Y-72453796D01*
X150811001Y-72455000D01*
X150160999Y-72455000D01*
X150136495Y-72453796D01*
X150112227Y-72450196D01*
X150088428Y-72444235D01*
X150065329Y-72435970D01*
X150043150Y-72425480D01*
X150022107Y-72412868D01*
X150002401Y-72398253D01*
X149984223Y-72381777D01*
X149967747Y-72363599D01*
X149953132Y-72343893D01*
X149940520Y-72322850D01*
X149930030Y-72300671D01*
X149921765Y-72277572D01*
X149915804Y-72253773D01*
X149912204Y-72229505D01*
X149911000Y-72205001D01*
X149911000Y-71304999D01*
X149912204Y-71280495D01*
X149915804Y-71256227D01*
X149921765Y-71232428D01*
X149930030Y-71209329D01*
X149940520Y-71187150D01*
X149953132Y-71166107D01*
X149967747Y-71146401D01*
X149984223Y-71128223D01*
X150002401Y-71111747D01*
X150022107Y-71097132D01*
X150043150Y-71084520D01*
X150065329Y-71074030D01*
X150088428Y-71065765D01*
X150112227Y-71059804D01*
X150136495Y-71056204D01*
X150160999Y-71055000D01*
X150811001Y-71055000D01*
X150835505Y-71056204D01*
X150835505Y-71056204D01*
G37*
D15*
X150486000Y-71755000D03*
D14*
G36*
X152885505Y-76136204D02*
G01*
X152909773Y-76139804D01*
X152933572Y-76145765D01*
X152956671Y-76154030D01*
X152978850Y-76164520D01*
X152999893Y-76177132D01*
X153019599Y-76191747D01*
X153037777Y-76208223D01*
X153054253Y-76226401D01*
X153068868Y-76246107D01*
X153081480Y-76267150D01*
X153091970Y-76289329D01*
X153100235Y-76312428D01*
X153106196Y-76336227D01*
X153109796Y-76360495D01*
X153111000Y-76384999D01*
X153111000Y-77285001D01*
X153109796Y-77309505D01*
X153106196Y-77333773D01*
X153100235Y-77357572D01*
X153091970Y-77380671D01*
X153081480Y-77402850D01*
X153068868Y-77423893D01*
X153054253Y-77443599D01*
X153037777Y-77461777D01*
X153019599Y-77478253D01*
X152999893Y-77492868D01*
X152978850Y-77505480D01*
X152956671Y-77515970D01*
X152933572Y-77524235D01*
X152909773Y-77530196D01*
X152885505Y-77533796D01*
X152861001Y-77535000D01*
X152210999Y-77535000D01*
X152186495Y-77533796D01*
X152162227Y-77530196D01*
X152138428Y-77524235D01*
X152115329Y-77515970D01*
X152093150Y-77505480D01*
X152072107Y-77492868D01*
X152052401Y-77478253D01*
X152034223Y-77461777D01*
X152017747Y-77443599D01*
X152003132Y-77423893D01*
X151990520Y-77402850D01*
X151980030Y-77380671D01*
X151971765Y-77357572D01*
X151965804Y-77333773D01*
X151962204Y-77309505D01*
X151961000Y-77285001D01*
X151961000Y-76384999D01*
X151962204Y-76360495D01*
X151965804Y-76336227D01*
X151971765Y-76312428D01*
X151980030Y-76289329D01*
X151990520Y-76267150D01*
X152003132Y-76246107D01*
X152017747Y-76226401D01*
X152034223Y-76208223D01*
X152052401Y-76191747D01*
X152072107Y-76177132D01*
X152093150Y-76164520D01*
X152115329Y-76154030D01*
X152138428Y-76145765D01*
X152162227Y-76139804D01*
X152186495Y-76136204D01*
X152210999Y-76135000D01*
X152861001Y-76135000D01*
X152885505Y-76136204D01*
X152885505Y-76136204D01*
G37*
D15*
X152536000Y-76835000D03*
D14*
G36*
X150835505Y-76136204D02*
G01*
X150859773Y-76139804D01*
X150883572Y-76145765D01*
X150906671Y-76154030D01*
X150928850Y-76164520D01*
X150949893Y-76177132D01*
X150969599Y-76191747D01*
X150987777Y-76208223D01*
X151004253Y-76226401D01*
X151018868Y-76246107D01*
X151031480Y-76267150D01*
X151041970Y-76289329D01*
X151050235Y-76312428D01*
X151056196Y-76336227D01*
X151059796Y-76360495D01*
X151061000Y-76384999D01*
X151061000Y-77285001D01*
X151059796Y-77309505D01*
X151056196Y-77333773D01*
X151050235Y-77357572D01*
X151041970Y-77380671D01*
X151031480Y-77402850D01*
X151018868Y-77423893D01*
X151004253Y-77443599D01*
X150987777Y-77461777D01*
X150969599Y-77478253D01*
X150949893Y-77492868D01*
X150928850Y-77505480D01*
X150906671Y-77515970D01*
X150883572Y-77524235D01*
X150859773Y-77530196D01*
X150835505Y-77533796D01*
X150811001Y-77535000D01*
X150160999Y-77535000D01*
X150136495Y-77533796D01*
X150112227Y-77530196D01*
X150088428Y-77524235D01*
X150065329Y-77515970D01*
X150043150Y-77505480D01*
X150022107Y-77492868D01*
X150002401Y-77478253D01*
X149984223Y-77461777D01*
X149967747Y-77443599D01*
X149953132Y-77423893D01*
X149940520Y-77402850D01*
X149930030Y-77380671D01*
X149921765Y-77357572D01*
X149915804Y-77333773D01*
X149912204Y-77309505D01*
X149911000Y-77285001D01*
X149911000Y-76384999D01*
X149912204Y-76360495D01*
X149915804Y-76336227D01*
X149921765Y-76312428D01*
X149930030Y-76289329D01*
X149940520Y-76267150D01*
X149953132Y-76246107D01*
X149967747Y-76226401D01*
X149984223Y-76208223D01*
X150002401Y-76191747D01*
X150022107Y-76177132D01*
X150043150Y-76164520D01*
X150065329Y-76154030D01*
X150088428Y-76145765D01*
X150112227Y-76139804D01*
X150136495Y-76136204D01*
X150160999Y-76135000D01*
X150811001Y-76135000D01*
X150835505Y-76136204D01*
X150835505Y-76136204D01*
G37*
D15*
X150486000Y-76835000D03*
D14*
G36*
X152885505Y-73596204D02*
G01*
X152909773Y-73599804D01*
X152933572Y-73605765D01*
X152956671Y-73614030D01*
X152978850Y-73624520D01*
X152999893Y-73637132D01*
X153019599Y-73651747D01*
X153037777Y-73668223D01*
X153054253Y-73686401D01*
X153068868Y-73706107D01*
X153081480Y-73727150D01*
X153091970Y-73749329D01*
X153100235Y-73772428D01*
X153106196Y-73796227D01*
X153109796Y-73820495D01*
X153111000Y-73844999D01*
X153111000Y-74745001D01*
X153109796Y-74769505D01*
X153106196Y-74793773D01*
X153100235Y-74817572D01*
X153091970Y-74840671D01*
X153081480Y-74862850D01*
X153068868Y-74883893D01*
X153054253Y-74903599D01*
X153037777Y-74921777D01*
X153019599Y-74938253D01*
X152999893Y-74952868D01*
X152978850Y-74965480D01*
X152956671Y-74975970D01*
X152933572Y-74984235D01*
X152909773Y-74990196D01*
X152885505Y-74993796D01*
X152861001Y-74995000D01*
X152210999Y-74995000D01*
X152186495Y-74993796D01*
X152162227Y-74990196D01*
X152138428Y-74984235D01*
X152115329Y-74975970D01*
X152093150Y-74965480D01*
X152072107Y-74952868D01*
X152052401Y-74938253D01*
X152034223Y-74921777D01*
X152017747Y-74903599D01*
X152003132Y-74883893D01*
X151990520Y-74862850D01*
X151980030Y-74840671D01*
X151971765Y-74817572D01*
X151965804Y-74793773D01*
X151962204Y-74769505D01*
X151961000Y-74745001D01*
X151961000Y-73844999D01*
X151962204Y-73820495D01*
X151965804Y-73796227D01*
X151971765Y-73772428D01*
X151980030Y-73749329D01*
X151990520Y-73727150D01*
X152003132Y-73706107D01*
X152017747Y-73686401D01*
X152034223Y-73668223D01*
X152052401Y-73651747D01*
X152072107Y-73637132D01*
X152093150Y-73624520D01*
X152115329Y-73614030D01*
X152138428Y-73605765D01*
X152162227Y-73599804D01*
X152186495Y-73596204D01*
X152210999Y-73595000D01*
X152861001Y-73595000D01*
X152885505Y-73596204D01*
X152885505Y-73596204D01*
G37*
D15*
X152536000Y-74295000D03*
D14*
G36*
X150835505Y-73596204D02*
G01*
X150859773Y-73599804D01*
X150883572Y-73605765D01*
X150906671Y-73614030D01*
X150928850Y-73624520D01*
X150949893Y-73637132D01*
X150969599Y-73651747D01*
X150987777Y-73668223D01*
X151004253Y-73686401D01*
X151018868Y-73706107D01*
X151031480Y-73727150D01*
X151041970Y-73749329D01*
X151050235Y-73772428D01*
X151056196Y-73796227D01*
X151059796Y-73820495D01*
X151061000Y-73844999D01*
X151061000Y-74745001D01*
X151059796Y-74769505D01*
X151056196Y-74793773D01*
X151050235Y-74817572D01*
X151041970Y-74840671D01*
X151031480Y-74862850D01*
X151018868Y-74883893D01*
X151004253Y-74903599D01*
X150987777Y-74921777D01*
X150969599Y-74938253D01*
X150949893Y-74952868D01*
X150928850Y-74965480D01*
X150906671Y-74975970D01*
X150883572Y-74984235D01*
X150859773Y-74990196D01*
X150835505Y-74993796D01*
X150811001Y-74995000D01*
X150160999Y-74995000D01*
X150136495Y-74993796D01*
X150112227Y-74990196D01*
X150088428Y-74984235D01*
X150065329Y-74975970D01*
X150043150Y-74965480D01*
X150022107Y-74952868D01*
X150002401Y-74938253D01*
X149984223Y-74921777D01*
X149967747Y-74903599D01*
X149953132Y-74883893D01*
X149940520Y-74862850D01*
X149930030Y-74840671D01*
X149921765Y-74817572D01*
X149915804Y-74793773D01*
X149912204Y-74769505D01*
X149911000Y-74745001D01*
X149911000Y-73844999D01*
X149912204Y-73820495D01*
X149915804Y-73796227D01*
X149921765Y-73772428D01*
X149930030Y-73749329D01*
X149940520Y-73727150D01*
X149953132Y-73706107D01*
X149967747Y-73686401D01*
X149984223Y-73668223D01*
X150002401Y-73651747D01*
X150022107Y-73637132D01*
X150043150Y-73624520D01*
X150065329Y-73614030D01*
X150088428Y-73605765D01*
X150112227Y-73599804D01*
X150136495Y-73596204D01*
X150160999Y-73595000D01*
X150811001Y-73595000D01*
X150835505Y-73596204D01*
X150835505Y-73596204D01*
G37*
D15*
X150486000Y-74295000D03*
D10*
X156210000Y-72390000D03*
X156210000Y-74930000D03*
X156210000Y-77470000D03*
X156210000Y-80010000D03*
X156210000Y-82550000D03*
X156210000Y-85090000D03*
D12*
X156210000Y-87630000D03*
D16*
X141546000Y-71310000D03*
X143696000Y-71310000D03*
X141546000Y-76010000D03*
X143696000Y-76010000D03*
D17*
X145015000Y-82525000D03*
X145015000Y-88275000D03*
D18*
X152400000Y-90900000D03*
X152400000Y-86900000D03*
D19*
X172339000Y-83566000D03*
X176276000Y-87503000D03*
X185420000Y-78105000D03*
X147701000Y-71247000D03*
X141986000Y-73660000D03*
X147320000Y-73660000D03*
X150486000Y-74514000D03*
X150495000Y-78740000D03*
X143696000Y-76010000D03*
D20*
X162535002Y-82550000D02*
X163551002Y-83566000D01*
X156210000Y-82550000D02*
X162535002Y-82550000D01*
X163551002Y-83566000D02*
X172339000Y-83566000D01*
X172339000Y-83566000D02*
X172339000Y-83566000D01*
X173990000Y-89789000D02*
X173990000Y-90170000D01*
X176276000Y-87503000D02*
X173990000Y-89789000D01*
X203200000Y-76200000D02*
X201295000Y-76200000D01*
X207010000Y-72390000D02*
X203200000Y-76200000D01*
X185420000Y-76200000D02*
X201295000Y-76200000D01*
X201295000Y-76200000D02*
X202565000Y-76200000D01*
X157412081Y-77470000D02*
X157812081Y-77070000D01*
X156210000Y-77470000D02*
X157412081Y-77470000D01*
X157812081Y-77070000D02*
X164740000Y-77070000D01*
X165610000Y-76200000D02*
X185420000Y-76200000D01*
X164740000Y-77070000D02*
X165610000Y-76200000D01*
X209550000Y-72390000D02*
X207010000Y-74930000D01*
X207010000Y-74930000D02*
X205740000Y-74930000D01*
X202565000Y-78105000D02*
X185420000Y-78105000D01*
X205740000Y-74930000D02*
X202565000Y-78105000D01*
D21*
X152400000Y-86900000D02*
X150660000Y-86900000D01*
D20*
X152400000Y-86550000D02*
X152400000Y-86900000D01*
X153860000Y-85090000D02*
X152400000Y-86550000D01*
X156210000Y-85090000D02*
X153860000Y-85090000D01*
X141546000Y-77774000D02*
X141215000Y-78105000D01*
X141546000Y-76010000D02*
X141546000Y-77774000D01*
D21*
X149390000Y-86900000D02*
X152400000Y-86900000D01*
X145015000Y-82525000D02*
X149390000Y-86900000D01*
X152400000Y-90900000D02*
X148910000Y-90900000D01*
D20*
X153550000Y-90900000D02*
X152400000Y-90900000D01*
X154040000Y-90900000D02*
X153550000Y-90900000D01*
X156210000Y-88730000D02*
X154040000Y-90900000D01*
X156210000Y-87630000D02*
X156210000Y-88730000D01*
D21*
X147640000Y-90900000D02*
X148910000Y-90900000D01*
X145015000Y-88275000D02*
X147640000Y-90900000D01*
D20*
X150486000Y-74295000D02*
X150486000Y-74514000D01*
X150486000Y-74514000D02*
X150486000Y-76835000D01*
X145610000Y-72360000D02*
X145610000Y-76010000D01*
X145610000Y-71310000D02*
X145610000Y-72360000D01*
X149805999Y-72435001D02*
X150486000Y-71755000D01*
X146460001Y-72435001D02*
X149805999Y-72435001D01*
X145610000Y-71310000D02*
X145610000Y-71585000D01*
X145610000Y-71585000D02*
X146460001Y-72435001D01*
X143265000Y-78105000D02*
X145660000Y-78105000D01*
X148345000Y-78740000D02*
X147710000Y-78105000D01*
X150495000Y-78740000D02*
X148345000Y-78740000D01*
X143696000Y-72360000D02*
X143696000Y-76010000D01*
X143696000Y-71310000D02*
X143696000Y-72360000D01*
X143696000Y-76010000D02*
X143696000Y-76010000D01*
X152536000Y-71755000D02*
X152536000Y-76835000D01*
X180340000Y-86360000D02*
X184150000Y-90170000D01*
X165440000Y-86360000D02*
X180340000Y-86360000D01*
X152536000Y-82178000D02*
X154178000Y-83820000D01*
X152536000Y-76835000D02*
X152536000Y-82178000D01*
X154178000Y-83820000D02*
X157434998Y-83820000D01*
X159154998Y-85540000D02*
X164620000Y-85540000D01*
X157434998Y-83820000D02*
X159154998Y-85540000D01*
X164620000Y-85540000D02*
X165440000Y-86360000D01*
D22*
G36*
X160360187Y-86506836D02*
G01*
X160297849Y-86820232D01*
X160297849Y-87139768D01*
X160360187Y-87453164D01*
X160482468Y-87748377D01*
X160659993Y-88014061D01*
X160885939Y-88240007D01*
X161151623Y-88417532D01*
X161446836Y-88539813D01*
X161760232Y-88602151D01*
X162079768Y-88602151D01*
X162393164Y-88539813D01*
X162688377Y-88417532D01*
X162954061Y-88240007D01*
X163180007Y-88014061D01*
X163357532Y-87748377D01*
X163479813Y-87453164D01*
X163542151Y-87139768D01*
X163542151Y-86820232D01*
X163479813Y-86506836D01*
X163394139Y-86300000D01*
X164305199Y-86300000D01*
X164876201Y-86871002D01*
X164899999Y-86900001D01*
X164928997Y-86923799D01*
X165015723Y-86994974D01*
X165145203Y-87064183D01*
X165147753Y-87065546D01*
X165291014Y-87109003D01*
X165402667Y-87120000D01*
X165402676Y-87120000D01*
X165439999Y-87123676D01*
X165477322Y-87120000D01*
X175314368Y-87120000D01*
X175280774Y-87201102D01*
X175241000Y-87401061D01*
X175241000Y-87463198D01*
X174022271Y-88681928D01*
X173140000Y-88681928D01*
X173015518Y-88694188D01*
X172895820Y-88730498D01*
X172785506Y-88789463D01*
X172720000Y-88843222D01*
X172654494Y-88789463D01*
X172544180Y-88730498D01*
X172424482Y-88694188D01*
X172300000Y-88681928D01*
X170600000Y-88681928D01*
X170475518Y-88694188D01*
X170355820Y-88730498D01*
X170245506Y-88789463D01*
X170180000Y-88843222D01*
X170114494Y-88789463D01*
X170004180Y-88730498D01*
X169884482Y-88694188D01*
X169760000Y-88681928D01*
X168060000Y-88681928D01*
X167935518Y-88694188D01*
X167815820Y-88730498D01*
X167705506Y-88789463D01*
X167640000Y-88843222D01*
X167574494Y-88789463D01*
X167464180Y-88730498D01*
X167344482Y-88694188D01*
X167220000Y-88681928D01*
X166655750Y-88685000D01*
X166497000Y-88843750D01*
X166497000Y-91217000D01*
X166243000Y-91217000D01*
X166243000Y-88843750D01*
X166084250Y-88685000D01*
X165520000Y-88681928D01*
X165395518Y-88694188D01*
X165275820Y-88730498D01*
X165165506Y-88789463D01*
X165100000Y-88843222D01*
X165034494Y-88789463D01*
X164924180Y-88730498D01*
X164804482Y-88694188D01*
X164680000Y-88681928D01*
X162980000Y-88681928D01*
X162855518Y-88694188D01*
X162735820Y-88730498D01*
X162625506Y-88789463D01*
X162560000Y-88843222D01*
X162494494Y-88789463D01*
X162384180Y-88730498D01*
X162264482Y-88694188D01*
X162140000Y-88681928D01*
X160440000Y-88681928D01*
X160315518Y-88694188D01*
X160195820Y-88730498D01*
X160085506Y-88789463D01*
X159988815Y-88868815D01*
X159909463Y-88965506D01*
X159850498Y-89075820D01*
X159814188Y-89195518D01*
X159801928Y-89320000D01*
X159801928Y-90128240D01*
X159797815Y-90170000D01*
X159801928Y-90211760D01*
X159801928Y-92050000D01*
X159512000Y-92050000D01*
X159512000Y-86300000D01*
X160445861Y-86300000D01*
X160360187Y-86506836D01*
X160360187Y-86506836D01*
G37*
X160360187Y-86506836D02*
X160297849Y-86820232D01*
X160297849Y-87139768D01*
X160360187Y-87453164D01*
X160482468Y-87748377D01*
X160659993Y-88014061D01*
X160885939Y-88240007D01*
X161151623Y-88417532D01*
X161446836Y-88539813D01*
X161760232Y-88602151D01*
X162079768Y-88602151D01*
X162393164Y-88539813D01*
X162688377Y-88417532D01*
X162954061Y-88240007D01*
X163180007Y-88014061D01*
X163357532Y-87748377D01*
X163479813Y-87453164D01*
X163542151Y-87139768D01*
X163542151Y-86820232D01*
X163479813Y-86506836D01*
X163394139Y-86300000D01*
X164305199Y-86300000D01*
X164876201Y-86871002D01*
X164899999Y-86900001D01*
X164928997Y-86923799D01*
X165015723Y-86994974D01*
X165145203Y-87064183D01*
X165147753Y-87065546D01*
X165291014Y-87109003D01*
X165402667Y-87120000D01*
X165402676Y-87120000D01*
X165439999Y-87123676D01*
X165477322Y-87120000D01*
X175314368Y-87120000D01*
X175280774Y-87201102D01*
X175241000Y-87401061D01*
X175241000Y-87463198D01*
X174022271Y-88681928D01*
X173140000Y-88681928D01*
X173015518Y-88694188D01*
X172895820Y-88730498D01*
X172785506Y-88789463D01*
X172720000Y-88843222D01*
X172654494Y-88789463D01*
X172544180Y-88730498D01*
X172424482Y-88694188D01*
X172300000Y-88681928D01*
X170600000Y-88681928D01*
X170475518Y-88694188D01*
X170355820Y-88730498D01*
X170245506Y-88789463D01*
X170180000Y-88843222D01*
X170114494Y-88789463D01*
X170004180Y-88730498D01*
X169884482Y-88694188D01*
X169760000Y-88681928D01*
X168060000Y-88681928D01*
X167935518Y-88694188D01*
X167815820Y-88730498D01*
X167705506Y-88789463D01*
X167640000Y-88843222D01*
X167574494Y-88789463D01*
X167464180Y-88730498D01*
X167344482Y-88694188D01*
X167220000Y-88681928D01*
X166655750Y-88685000D01*
X166497000Y-88843750D01*
X166497000Y-91217000D01*
X166243000Y-91217000D01*
X166243000Y-88843750D01*
X166084250Y-88685000D01*
X165520000Y-88681928D01*
X165395518Y-88694188D01*
X165275820Y-88730498D01*
X165165506Y-88789463D01*
X165100000Y-88843222D01*
X165034494Y-88789463D01*
X164924180Y-88730498D01*
X164804482Y-88694188D01*
X164680000Y-88681928D01*
X162980000Y-88681928D01*
X162855518Y-88694188D01*
X162735820Y-88730498D01*
X162625506Y-88789463D01*
X162560000Y-88843222D01*
X162494494Y-88789463D01*
X162384180Y-88730498D01*
X162264482Y-88694188D01*
X162140000Y-88681928D01*
X160440000Y-88681928D01*
X160315518Y-88694188D01*
X160195820Y-88730498D01*
X160085506Y-88789463D01*
X159988815Y-88868815D01*
X159909463Y-88965506D01*
X159850498Y-89075820D01*
X159814188Y-89195518D01*
X159801928Y-89320000D01*
X159801928Y-90128240D01*
X159797815Y-90170000D01*
X159801928Y-90211760D01*
X159801928Y-92050000D01*
X159512000Y-92050000D01*
X159512000Y-86300000D01*
X160445861Y-86300000D01*
X160360187Y-86506836D01*
G36*
X181587127Y-88681928D02*
G01*
X180760000Y-88681928D01*
X180635518Y-88694188D01*
X180515820Y-88730498D01*
X180405506Y-88789463D01*
X180340000Y-88843222D01*
X180274494Y-88789463D01*
X180164180Y-88730498D01*
X180044482Y-88694188D01*
X179920000Y-88681928D01*
X179355750Y-88685000D01*
X179197000Y-88843750D01*
X179197000Y-91217000D01*
X178943000Y-91217000D01*
X178943000Y-88843750D01*
X178784250Y-88685000D01*
X178220000Y-88681928D01*
X178095518Y-88694188D01*
X177975820Y-88730498D01*
X177865506Y-88789463D01*
X177800000Y-88843222D01*
X177734494Y-88789463D01*
X177624180Y-88730498D01*
X177504482Y-88694188D01*
X177380000Y-88681928D01*
X176171874Y-88681928D01*
X176315802Y-88538000D01*
X176377939Y-88538000D01*
X176577898Y-88498226D01*
X176766256Y-88420205D01*
X176935774Y-88306937D01*
X177079937Y-88162774D01*
X177193205Y-87993256D01*
X177271226Y-87804898D01*
X177311000Y-87604939D01*
X177311000Y-87401061D01*
X177271226Y-87201102D01*
X177237632Y-87120000D01*
X180025199Y-87120000D01*
X181587127Y-88681928D01*
X181587127Y-88681928D01*
G37*
X181587127Y-88681928D02*
X180760000Y-88681928D01*
X180635518Y-88694188D01*
X180515820Y-88730498D01*
X180405506Y-88789463D01*
X180340000Y-88843222D01*
X180274494Y-88789463D01*
X180164180Y-88730498D01*
X180044482Y-88694188D01*
X179920000Y-88681928D01*
X179355750Y-88685000D01*
X179197000Y-88843750D01*
X179197000Y-91217000D01*
X178943000Y-91217000D01*
X178943000Y-88843750D01*
X178784250Y-88685000D01*
X178220000Y-88681928D01*
X178095518Y-88694188D01*
X177975820Y-88730498D01*
X177865506Y-88789463D01*
X177800000Y-88843222D01*
X177734494Y-88789463D01*
X177624180Y-88730498D01*
X177504482Y-88694188D01*
X177380000Y-88681928D01*
X176171874Y-88681928D01*
X176315802Y-88538000D01*
X176377939Y-88538000D01*
X176577898Y-88498226D01*
X176766256Y-88420205D01*
X176935774Y-88306937D01*
X177079937Y-88162774D01*
X177193205Y-87993256D01*
X177271226Y-87804898D01*
X177311000Y-87604939D01*
X177311000Y-87401061D01*
X177271226Y-87201102D01*
X177237632Y-87120000D01*
X180025199Y-87120000D01*
X181587127Y-88681928D01*
G36*
X207297849Y-75739768D02*
G01*
X207360187Y-76053164D01*
X207482468Y-76348377D01*
X207659993Y-76614061D01*
X207885939Y-76840007D01*
X208151623Y-77017532D01*
X208446836Y-77139813D01*
X208712489Y-77192654D01*
X208563073Y-77272519D01*
X208329339Y-77464339D01*
X208137519Y-77698073D01*
X207994983Y-77964739D01*
X207907210Y-78254087D01*
X207877573Y-78555000D01*
X207907210Y-78855913D01*
X207994983Y-79145261D01*
X208137519Y-79411927D01*
X208329339Y-79645661D01*
X208563073Y-79837481D01*
X208829739Y-79980017D01*
X209119087Y-80067790D01*
X209344592Y-80090000D01*
X209495408Y-80090000D01*
X209720913Y-80067790D01*
X210010261Y-79980017D01*
X210160001Y-79899980D01*
X210160000Y-82660020D01*
X210010261Y-82579983D01*
X209720913Y-82492210D01*
X209495408Y-82470000D01*
X209344592Y-82470000D01*
X209119087Y-82492210D01*
X208829739Y-82579983D01*
X208563073Y-82722519D01*
X208329339Y-82914339D01*
X208137519Y-83148073D01*
X207994983Y-83414739D01*
X207907210Y-83704087D01*
X207877573Y-84005000D01*
X207907210Y-84305913D01*
X207994983Y-84595261D01*
X208137519Y-84861927D01*
X208329339Y-85095661D01*
X208563073Y-85287481D01*
X208712489Y-85367346D01*
X208446836Y-85420187D01*
X208151623Y-85542468D01*
X207885939Y-85719993D01*
X207659993Y-85945939D01*
X207482468Y-86211623D01*
X207360187Y-86506836D01*
X207297849Y-86820232D01*
X207297849Y-87139768D01*
X207360187Y-87453164D01*
X207482468Y-87748377D01*
X207659993Y-88014061D01*
X207885939Y-88240007D01*
X208151623Y-88417532D01*
X208446836Y-88539813D01*
X208760232Y-88602151D01*
X209079768Y-88602151D01*
X209393164Y-88539813D01*
X209688377Y-88417532D01*
X209954061Y-88240007D01*
X210160000Y-88034068D01*
X210160000Y-88681928D01*
X208700000Y-88681928D01*
X208575518Y-88694188D01*
X208455820Y-88730498D01*
X208345506Y-88789463D01*
X208280000Y-88843222D01*
X208214494Y-88789463D01*
X208104180Y-88730498D01*
X207984482Y-88694188D01*
X207860000Y-88681928D01*
X206160000Y-88681928D01*
X206035518Y-88694188D01*
X205915820Y-88730498D01*
X205805506Y-88789463D01*
X205740000Y-88843222D01*
X205674494Y-88789463D01*
X205564180Y-88730498D01*
X205444482Y-88694188D01*
X205320000Y-88681928D01*
X204755750Y-88685000D01*
X204597000Y-88843750D01*
X204597000Y-91217000D01*
X204343000Y-91217000D01*
X204343000Y-88843750D01*
X204184250Y-88685000D01*
X203620000Y-88681928D01*
X203495518Y-88694188D01*
X203375820Y-88730498D01*
X203265506Y-88789463D01*
X203200000Y-88843222D01*
X203134494Y-88789463D01*
X203024180Y-88730498D01*
X202904482Y-88694188D01*
X202780000Y-88681928D01*
X201080000Y-88681928D01*
X200955518Y-88694188D01*
X200835820Y-88730498D01*
X200725506Y-88789463D01*
X200660000Y-88843222D01*
X200594494Y-88789463D01*
X200484180Y-88730498D01*
X200364482Y-88694188D01*
X200240000Y-88681928D01*
X198540000Y-88681928D01*
X198415518Y-88694188D01*
X198295820Y-88730498D01*
X198185506Y-88789463D01*
X198120000Y-88843222D01*
X198054494Y-88789463D01*
X197944180Y-88730498D01*
X197824482Y-88694188D01*
X197700000Y-88681928D01*
X196000000Y-88681928D01*
X195875518Y-88694188D01*
X195755820Y-88730498D01*
X195645506Y-88789463D01*
X195580000Y-88843222D01*
X195514494Y-88789463D01*
X195404180Y-88730498D01*
X195284482Y-88694188D01*
X195160000Y-88681928D01*
X193460000Y-88681928D01*
X193335518Y-88694188D01*
X193215820Y-88730498D01*
X193105506Y-88789463D01*
X193040000Y-88843222D01*
X192974494Y-88789463D01*
X192864180Y-88730498D01*
X192744482Y-88694188D01*
X192620000Y-88681928D01*
X190920000Y-88681928D01*
X190795518Y-88694188D01*
X190675820Y-88730498D01*
X190565506Y-88789463D01*
X190500000Y-88843222D01*
X190434494Y-88789463D01*
X190324180Y-88730498D01*
X190204482Y-88694188D01*
X190080000Y-88681928D01*
X188380000Y-88681928D01*
X188255518Y-88694188D01*
X188135820Y-88730498D01*
X188025506Y-88789463D01*
X187960000Y-88843222D01*
X187894494Y-88789463D01*
X187784180Y-88730498D01*
X187664482Y-88694188D01*
X187540000Y-88681928D01*
X185840000Y-88681928D01*
X185715518Y-88694188D01*
X185595820Y-88730498D01*
X185485506Y-88789463D01*
X185420000Y-88843222D01*
X185354494Y-88789463D01*
X185244180Y-88730498D01*
X185124482Y-88694188D01*
X185000000Y-88681928D01*
X183736730Y-88681928D01*
X180903804Y-85849003D01*
X180880001Y-85819999D01*
X180764276Y-85725026D01*
X180632247Y-85654454D01*
X180488986Y-85610997D01*
X180377333Y-85600000D01*
X180377322Y-85600000D01*
X180340000Y-85596324D01*
X180302678Y-85600000D01*
X165754802Y-85600000D01*
X165183803Y-85029002D01*
X165160001Y-84999999D01*
X165044276Y-84905026D01*
X164912247Y-84834454D01*
X164768986Y-84790997D01*
X164657333Y-84780000D01*
X164657322Y-84780000D01*
X164620000Y-84776324D01*
X164582678Y-84780000D01*
X162997238Y-84780000D01*
X163008072Y-84670000D01*
X163008072Y-84102432D01*
X163011001Y-84106001D01*
X163039999Y-84129799D01*
X163126725Y-84200974D01*
X163207737Y-84244276D01*
X163258755Y-84271546D01*
X163402016Y-84315003D01*
X163513669Y-84326000D01*
X163513679Y-84326000D01*
X163551002Y-84329676D01*
X163588324Y-84326000D01*
X171635289Y-84326000D01*
X171679226Y-84369937D01*
X171848744Y-84483205D01*
X172037102Y-84561226D01*
X172237061Y-84601000D01*
X172440939Y-84601000D01*
X172640898Y-84561226D01*
X172829256Y-84483205D01*
X172998774Y-84369937D01*
X173142937Y-84225774D01*
X173256205Y-84056256D01*
X173334226Y-83867898D01*
X173366628Y-83705000D01*
X204998299Y-83705000D01*
X205025040Y-83976507D01*
X205104236Y-84237581D01*
X205232843Y-84478188D01*
X205405919Y-84689081D01*
X205616812Y-84862157D01*
X205857419Y-84990764D01*
X206118493Y-85069960D01*
X206321963Y-85090000D01*
X206458037Y-85090000D01*
X206661507Y-85069960D01*
X206922581Y-84990764D01*
X207163188Y-84862157D01*
X207374081Y-84689081D01*
X207547157Y-84478188D01*
X207675764Y-84237581D01*
X207754960Y-83976507D01*
X207781701Y-83705000D01*
X207754960Y-83433493D01*
X207675764Y-83172419D01*
X207547157Y-82931812D01*
X207374081Y-82720919D01*
X207163188Y-82547843D01*
X206922581Y-82419236D01*
X206661507Y-82340040D01*
X206458037Y-82320000D01*
X206321963Y-82320000D01*
X206118493Y-82340040D01*
X205857419Y-82419236D01*
X205616812Y-82547843D01*
X205405919Y-82720919D01*
X205232843Y-82931812D01*
X205104236Y-83172419D01*
X205025040Y-83433493D01*
X204998299Y-83705000D01*
X173366628Y-83705000D01*
X173374000Y-83667939D01*
X173374000Y-83464061D01*
X173334226Y-83264102D01*
X173256205Y-83075744D01*
X173142937Y-82906226D01*
X172998774Y-82762063D01*
X172829256Y-82648795D01*
X172640898Y-82570774D01*
X172440939Y-82531000D01*
X172237061Y-82531000D01*
X172037102Y-82570774D01*
X171848744Y-82648795D01*
X171679226Y-82762063D01*
X171635289Y-82806000D01*
X163865804Y-82806000D01*
X163098806Y-82039002D01*
X163075003Y-82009999D01*
X163007115Y-81954285D01*
X163005000Y-81565750D01*
X162846250Y-81407000D01*
X158393750Y-81407000D01*
X158235000Y-81565750D01*
X158233779Y-81790000D01*
X157487595Y-81790000D01*
X157450706Y-81720986D01*
X157265134Y-81494866D01*
X157039014Y-81309294D01*
X156984209Y-81280000D01*
X157039014Y-81250706D01*
X157265134Y-81065134D01*
X157450706Y-80839014D01*
X157588599Y-80581034D01*
X157673513Y-80301111D01*
X157702185Y-80010000D01*
X157673513Y-79718889D01*
X157588599Y-79438966D01*
X157450706Y-79180986D01*
X157265134Y-78954866D01*
X157039014Y-78769294D01*
X156984209Y-78740000D01*
X157039014Y-78710706D01*
X157265134Y-78525134D01*
X157450706Y-78299014D01*
X157489716Y-78226031D01*
X157561067Y-78219003D01*
X157704328Y-78175546D01*
X157836357Y-78104974D01*
X157952082Y-78010001D01*
X157975884Y-77980998D01*
X158126882Y-77830000D01*
X158237837Y-77830000D01*
X158231928Y-77890000D01*
X158231928Y-79590000D01*
X158244188Y-79714482D01*
X158280498Y-79834180D01*
X158339463Y-79944494D01*
X158393222Y-80010000D01*
X158339463Y-80075506D01*
X158280498Y-80185820D01*
X158244188Y-80305518D01*
X158231928Y-80430000D01*
X158235000Y-80994250D01*
X158393750Y-81153000D01*
X162846250Y-81153000D01*
X163005000Y-80994250D01*
X163008072Y-80430000D01*
X162995812Y-80305518D01*
X162959502Y-80185820D01*
X162900537Y-80075506D01*
X162846778Y-80010000D01*
X162900537Y-79944494D01*
X162959502Y-79834180D01*
X162995812Y-79714482D01*
X163008072Y-79590000D01*
X163008072Y-78781760D01*
X163012185Y-78740000D01*
X163008072Y-78698240D01*
X163008072Y-77890000D01*
X163002163Y-77830000D01*
X164702678Y-77830000D01*
X164740000Y-77833676D01*
X164777322Y-77830000D01*
X164777333Y-77830000D01*
X164888986Y-77819003D01*
X165032247Y-77775546D01*
X165164276Y-77704974D01*
X165280001Y-77610001D01*
X165303803Y-77580998D01*
X165924802Y-76960000D01*
X202635199Y-76960000D01*
X202250199Y-77345000D01*
X186123711Y-77345000D01*
X186079774Y-77301063D01*
X185910256Y-77187795D01*
X185721898Y-77109774D01*
X185521939Y-77070000D01*
X185318061Y-77070000D01*
X185118102Y-77109774D01*
X184929744Y-77187795D01*
X184760226Y-77301063D01*
X184616063Y-77445226D01*
X184502795Y-77614744D01*
X184424774Y-77803102D01*
X184385000Y-78003061D01*
X184385000Y-78206939D01*
X184424774Y-78406898D01*
X184502795Y-78595256D01*
X184616063Y-78764774D01*
X184760226Y-78908937D01*
X184929744Y-79022205D01*
X185118102Y-79100226D01*
X185318061Y-79140000D01*
X185521939Y-79140000D01*
X185721898Y-79100226D01*
X185910256Y-79022205D01*
X186079774Y-78908937D01*
X186123711Y-78865000D01*
X202527678Y-78865000D01*
X202565000Y-78868676D01*
X202602322Y-78865000D01*
X202602333Y-78865000D01*
X202703863Y-78855000D01*
X204998299Y-78855000D01*
X205025040Y-79126507D01*
X205104236Y-79387581D01*
X205232843Y-79628188D01*
X205405919Y-79839081D01*
X205616812Y-80012157D01*
X205857419Y-80140764D01*
X206118493Y-80219960D01*
X206321963Y-80240000D01*
X206458037Y-80240000D01*
X206661507Y-80219960D01*
X206922581Y-80140764D01*
X207163188Y-80012157D01*
X207374081Y-79839081D01*
X207547157Y-79628188D01*
X207675764Y-79387581D01*
X207754960Y-79126507D01*
X207781701Y-78855000D01*
X207754960Y-78583493D01*
X207675764Y-78322419D01*
X207547157Y-78081812D01*
X207374081Y-77870919D01*
X207163188Y-77697843D01*
X206922581Y-77569236D01*
X206661507Y-77490040D01*
X206458037Y-77470000D01*
X206321963Y-77470000D01*
X206118493Y-77490040D01*
X205857419Y-77569236D01*
X205616812Y-77697843D01*
X205405919Y-77870919D01*
X205232843Y-78081812D01*
X205104236Y-78322419D01*
X205025040Y-78583493D01*
X204998299Y-78855000D01*
X202703863Y-78855000D01*
X202713986Y-78854003D01*
X202857247Y-78810546D01*
X202989276Y-78739974D01*
X203105001Y-78645001D01*
X203128804Y-78615997D01*
X206054802Y-75690000D01*
X206972678Y-75690000D01*
X207010000Y-75693676D01*
X207047322Y-75690000D01*
X207047333Y-75690000D01*
X207158986Y-75679003D01*
X207297849Y-75636880D01*
X207297849Y-75739768D01*
X207297849Y-75739768D01*
G37*
X207297849Y-75739768D02*
X207360187Y-76053164D01*
X207482468Y-76348377D01*
X207659993Y-76614061D01*
X207885939Y-76840007D01*
X208151623Y-77017532D01*
X208446836Y-77139813D01*
X208712489Y-77192654D01*
X208563073Y-77272519D01*
X208329339Y-77464339D01*
X208137519Y-77698073D01*
X207994983Y-77964739D01*
X207907210Y-78254087D01*
X207877573Y-78555000D01*
X207907210Y-78855913D01*
X207994983Y-79145261D01*
X208137519Y-79411927D01*
X208329339Y-79645661D01*
X208563073Y-79837481D01*
X208829739Y-79980017D01*
X209119087Y-80067790D01*
X209344592Y-80090000D01*
X209495408Y-80090000D01*
X209720913Y-80067790D01*
X210010261Y-79980017D01*
X210160001Y-79899980D01*
X210160000Y-82660020D01*
X210010261Y-82579983D01*
X209720913Y-82492210D01*
X209495408Y-82470000D01*
X209344592Y-82470000D01*
X209119087Y-82492210D01*
X208829739Y-82579983D01*
X208563073Y-82722519D01*
X208329339Y-82914339D01*
X208137519Y-83148073D01*
X207994983Y-83414739D01*
X207907210Y-83704087D01*
X207877573Y-84005000D01*
X207907210Y-84305913D01*
X207994983Y-84595261D01*
X208137519Y-84861927D01*
X208329339Y-85095661D01*
X208563073Y-85287481D01*
X208712489Y-85367346D01*
X208446836Y-85420187D01*
X208151623Y-85542468D01*
X207885939Y-85719993D01*
X207659993Y-85945939D01*
X207482468Y-86211623D01*
X207360187Y-86506836D01*
X207297849Y-86820232D01*
X207297849Y-87139768D01*
X207360187Y-87453164D01*
X207482468Y-87748377D01*
X207659993Y-88014061D01*
X207885939Y-88240007D01*
X208151623Y-88417532D01*
X208446836Y-88539813D01*
X208760232Y-88602151D01*
X209079768Y-88602151D01*
X209393164Y-88539813D01*
X209688377Y-88417532D01*
X209954061Y-88240007D01*
X210160000Y-88034068D01*
X210160000Y-88681928D01*
X208700000Y-88681928D01*
X208575518Y-88694188D01*
X208455820Y-88730498D01*
X208345506Y-88789463D01*
X208280000Y-88843222D01*
X208214494Y-88789463D01*
X208104180Y-88730498D01*
X207984482Y-88694188D01*
X207860000Y-88681928D01*
X206160000Y-88681928D01*
X206035518Y-88694188D01*
X205915820Y-88730498D01*
X205805506Y-88789463D01*
X205740000Y-88843222D01*
X205674494Y-88789463D01*
X205564180Y-88730498D01*
X205444482Y-88694188D01*
X205320000Y-88681928D01*
X204755750Y-88685000D01*
X204597000Y-88843750D01*
X204597000Y-91217000D01*
X204343000Y-91217000D01*
X204343000Y-88843750D01*
X204184250Y-88685000D01*
X203620000Y-88681928D01*
X203495518Y-88694188D01*
X203375820Y-88730498D01*
X203265506Y-88789463D01*
X203200000Y-88843222D01*
X203134494Y-88789463D01*
X203024180Y-88730498D01*
X202904482Y-88694188D01*
X202780000Y-88681928D01*
X201080000Y-88681928D01*
X200955518Y-88694188D01*
X200835820Y-88730498D01*
X200725506Y-88789463D01*
X200660000Y-88843222D01*
X200594494Y-88789463D01*
X200484180Y-88730498D01*
X200364482Y-88694188D01*
X200240000Y-88681928D01*
X198540000Y-88681928D01*
X198415518Y-88694188D01*
X198295820Y-88730498D01*
X198185506Y-88789463D01*
X198120000Y-88843222D01*
X198054494Y-88789463D01*
X197944180Y-88730498D01*
X197824482Y-88694188D01*
X197700000Y-88681928D01*
X196000000Y-88681928D01*
X195875518Y-88694188D01*
X195755820Y-88730498D01*
X195645506Y-88789463D01*
X195580000Y-88843222D01*
X195514494Y-88789463D01*
X195404180Y-88730498D01*
X195284482Y-88694188D01*
X195160000Y-88681928D01*
X193460000Y-88681928D01*
X193335518Y-88694188D01*
X193215820Y-88730498D01*
X193105506Y-88789463D01*
X193040000Y-88843222D01*
X192974494Y-88789463D01*
X192864180Y-88730498D01*
X192744482Y-88694188D01*
X192620000Y-88681928D01*
X190920000Y-88681928D01*
X190795518Y-88694188D01*
X190675820Y-88730498D01*
X190565506Y-88789463D01*
X190500000Y-88843222D01*
X190434494Y-88789463D01*
X190324180Y-88730498D01*
X190204482Y-88694188D01*
X190080000Y-88681928D01*
X188380000Y-88681928D01*
X188255518Y-88694188D01*
X188135820Y-88730498D01*
X188025506Y-88789463D01*
X187960000Y-88843222D01*
X187894494Y-88789463D01*
X187784180Y-88730498D01*
X187664482Y-88694188D01*
X187540000Y-88681928D01*
X185840000Y-88681928D01*
X185715518Y-88694188D01*
X185595820Y-88730498D01*
X185485506Y-88789463D01*
X185420000Y-88843222D01*
X185354494Y-88789463D01*
X185244180Y-88730498D01*
X185124482Y-88694188D01*
X185000000Y-88681928D01*
X183736730Y-88681928D01*
X180903804Y-85849003D01*
X180880001Y-85819999D01*
X180764276Y-85725026D01*
X180632247Y-85654454D01*
X180488986Y-85610997D01*
X180377333Y-85600000D01*
X180377322Y-85600000D01*
X180340000Y-85596324D01*
X180302678Y-85600000D01*
X165754802Y-85600000D01*
X165183803Y-85029002D01*
X165160001Y-84999999D01*
X165044276Y-84905026D01*
X164912247Y-84834454D01*
X164768986Y-84790997D01*
X164657333Y-84780000D01*
X164657322Y-84780000D01*
X164620000Y-84776324D01*
X164582678Y-84780000D01*
X162997238Y-84780000D01*
X163008072Y-84670000D01*
X163008072Y-84102432D01*
X163011001Y-84106001D01*
X163039999Y-84129799D01*
X163126725Y-84200974D01*
X163207737Y-84244276D01*
X163258755Y-84271546D01*
X163402016Y-84315003D01*
X163513669Y-84326000D01*
X163513679Y-84326000D01*
X163551002Y-84329676D01*
X163588324Y-84326000D01*
X171635289Y-84326000D01*
X171679226Y-84369937D01*
X171848744Y-84483205D01*
X172037102Y-84561226D01*
X172237061Y-84601000D01*
X172440939Y-84601000D01*
X172640898Y-84561226D01*
X172829256Y-84483205D01*
X172998774Y-84369937D01*
X173142937Y-84225774D01*
X173256205Y-84056256D01*
X173334226Y-83867898D01*
X173366628Y-83705000D01*
X204998299Y-83705000D01*
X205025040Y-83976507D01*
X205104236Y-84237581D01*
X205232843Y-84478188D01*
X205405919Y-84689081D01*
X205616812Y-84862157D01*
X205857419Y-84990764D01*
X206118493Y-85069960D01*
X206321963Y-85090000D01*
X206458037Y-85090000D01*
X206661507Y-85069960D01*
X206922581Y-84990764D01*
X207163188Y-84862157D01*
X207374081Y-84689081D01*
X207547157Y-84478188D01*
X207675764Y-84237581D01*
X207754960Y-83976507D01*
X207781701Y-83705000D01*
X207754960Y-83433493D01*
X207675764Y-83172419D01*
X207547157Y-82931812D01*
X207374081Y-82720919D01*
X207163188Y-82547843D01*
X206922581Y-82419236D01*
X206661507Y-82340040D01*
X206458037Y-82320000D01*
X206321963Y-82320000D01*
X206118493Y-82340040D01*
X205857419Y-82419236D01*
X205616812Y-82547843D01*
X205405919Y-82720919D01*
X205232843Y-82931812D01*
X205104236Y-83172419D01*
X205025040Y-83433493D01*
X204998299Y-83705000D01*
X173366628Y-83705000D01*
X173374000Y-83667939D01*
X173374000Y-83464061D01*
X173334226Y-83264102D01*
X173256205Y-83075744D01*
X173142937Y-82906226D01*
X172998774Y-82762063D01*
X172829256Y-82648795D01*
X172640898Y-82570774D01*
X172440939Y-82531000D01*
X172237061Y-82531000D01*
X172037102Y-82570774D01*
X171848744Y-82648795D01*
X171679226Y-82762063D01*
X171635289Y-82806000D01*
X163865804Y-82806000D01*
X163098806Y-82039002D01*
X163075003Y-82009999D01*
X163007115Y-81954285D01*
X163005000Y-81565750D01*
X162846250Y-81407000D01*
X158393750Y-81407000D01*
X158235000Y-81565750D01*
X158233779Y-81790000D01*
X157487595Y-81790000D01*
X157450706Y-81720986D01*
X157265134Y-81494866D01*
X157039014Y-81309294D01*
X156984209Y-81280000D01*
X157039014Y-81250706D01*
X157265134Y-81065134D01*
X157450706Y-80839014D01*
X157588599Y-80581034D01*
X157673513Y-80301111D01*
X157702185Y-80010000D01*
X157673513Y-79718889D01*
X157588599Y-79438966D01*
X157450706Y-79180986D01*
X157265134Y-78954866D01*
X157039014Y-78769294D01*
X156984209Y-78740000D01*
X157039014Y-78710706D01*
X157265134Y-78525134D01*
X157450706Y-78299014D01*
X157489716Y-78226031D01*
X157561067Y-78219003D01*
X157704328Y-78175546D01*
X157836357Y-78104974D01*
X157952082Y-78010001D01*
X157975884Y-77980998D01*
X158126882Y-77830000D01*
X158237837Y-77830000D01*
X158231928Y-77890000D01*
X158231928Y-79590000D01*
X158244188Y-79714482D01*
X158280498Y-79834180D01*
X158339463Y-79944494D01*
X158393222Y-80010000D01*
X158339463Y-80075506D01*
X158280498Y-80185820D01*
X158244188Y-80305518D01*
X158231928Y-80430000D01*
X158235000Y-80994250D01*
X158393750Y-81153000D01*
X162846250Y-81153000D01*
X163005000Y-80994250D01*
X163008072Y-80430000D01*
X162995812Y-80305518D01*
X162959502Y-80185820D01*
X162900537Y-80075506D01*
X162846778Y-80010000D01*
X162900537Y-79944494D01*
X162959502Y-79834180D01*
X162995812Y-79714482D01*
X163008072Y-79590000D01*
X163008072Y-78781760D01*
X163012185Y-78740000D01*
X163008072Y-78698240D01*
X163008072Y-77890000D01*
X163002163Y-77830000D01*
X164702678Y-77830000D01*
X164740000Y-77833676D01*
X164777322Y-77830000D01*
X164777333Y-77830000D01*
X164888986Y-77819003D01*
X165032247Y-77775546D01*
X165164276Y-77704974D01*
X165280001Y-77610001D01*
X165303803Y-77580998D01*
X165924802Y-76960000D01*
X202635199Y-76960000D01*
X202250199Y-77345000D01*
X186123711Y-77345000D01*
X186079774Y-77301063D01*
X185910256Y-77187795D01*
X185721898Y-77109774D01*
X185521939Y-77070000D01*
X185318061Y-77070000D01*
X185118102Y-77109774D01*
X184929744Y-77187795D01*
X184760226Y-77301063D01*
X184616063Y-77445226D01*
X184502795Y-77614744D01*
X184424774Y-77803102D01*
X184385000Y-78003061D01*
X184385000Y-78206939D01*
X184424774Y-78406898D01*
X184502795Y-78595256D01*
X184616063Y-78764774D01*
X184760226Y-78908937D01*
X184929744Y-79022205D01*
X185118102Y-79100226D01*
X185318061Y-79140000D01*
X185521939Y-79140000D01*
X185721898Y-79100226D01*
X185910256Y-79022205D01*
X186079774Y-78908937D01*
X186123711Y-78865000D01*
X202527678Y-78865000D01*
X202565000Y-78868676D01*
X202602322Y-78865000D01*
X202602333Y-78865000D01*
X202703863Y-78855000D01*
X204998299Y-78855000D01*
X205025040Y-79126507D01*
X205104236Y-79387581D01*
X205232843Y-79628188D01*
X205405919Y-79839081D01*
X205616812Y-80012157D01*
X205857419Y-80140764D01*
X206118493Y-80219960D01*
X206321963Y-80240000D01*
X206458037Y-80240000D01*
X206661507Y-80219960D01*
X206922581Y-80140764D01*
X207163188Y-80012157D01*
X207374081Y-79839081D01*
X207547157Y-79628188D01*
X207675764Y-79387581D01*
X207754960Y-79126507D01*
X207781701Y-78855000D01*
X207754960Y-78583493D01*
X207675764Y-78322419D01*
X207547157Y-78081812D01*
X207374081Y-77870919D01*
X207163188Y-77697843D01*
X206922581Y-77569236D01*
X206661507Y-77490040D01*
X206458037Y-77470000D01*
X206321963Y-77470000D01*
X206118493Y-77490040D01*
X205857419Y-77569236D01*
X205616812Y-77697843D01*
X205405919Y-77870919D01*
X205232843Y-78081812D01*
X205104236Y-78322419D01*
X205025040Y-78583493D01*
X204998299Y-78855000D01*
X202703863Y-78855000D01*
X202713986Y-78854003D01*
X202857247Y-78810546D01*
X202989276Y-78739974D01*
X203105001Y-78645001D01*
X203128804Y-78615997D01*
X206054802Y-75690000D01*
X206972678Y-75690000D01*
X207010000Y-75693676D01*
X207047322Y-75690000D01*
X207047333Y-75690000D01*
X207158986Y-75679003D01*
X207297849Y-75636880D01*
X207297849Y-75739768D01*
G36*
X154813175Y-84585901D02*
G01*
X154768524Y-84733110D01*
X154889845Y-84963000D01*
X156083000Y-84963000D01*
X156083000Y-84943000D01*
X156337000Y-84943000D01*
X156337000Y-84963000D01*
X156357000Y-84963000D01*
X156357000Y-85217000D01*
X156337000Y-85217000D01*
X156337000Y-85237000D01*
X156083000Y-85237000D01*
X156083000Y-85217000D01*
X154889845Y-85217000D01*
X154768524Y-85446890D01*
X154813175Y-85594099D01*
X154815033Y-85598000D01*
X154432000Y-85598000D01*
X154432000Y-84580000D01*
X154815986Y-84580000D01*
X154813175Y-84585901D01*
X154813175Y-84585901D01*
G37*
X154813175Y-84585901D02*
X154768524Y-84733110D01*
X154889845Y-84963000D01*
X156083000Y-84963000D01*
X156083000Y-84943000D01*
X156337000Y-84943000D01*
X156337000Y-84963000D01*
X156357000Y-84963000D01*
X156357000Y-85217000D01*
X156337000Y-85217000D01*
X156337000Y-85237000D01*
X156083000Y-85237000D01*
X156083000Y-85217000D01*
X154889845Y-85217000D01*
X154768524Y-85446890D01*
X154813175Y-85594099D01*
X154815033Y-85598000D01*
X154432000Y-85598000D01*
X154432000Y-84580000D01*
X154815986Y-84580000D01*
X154813175Y-84585901D01*
G36*
X159801928Y-72348240D02*
G01*
X159797815Y-72390000D01*
X159801928Y-72431760D01*
X159801928Y-73240000D01*
X159814188Y-73364482D01*
X159850498Y-73484180D01*
X159909463Y-73594494D01*
X159988815Y-73691185D01*
X160085506Y-73770537D01*
X160195820Y-73829502D01*
X160315518Y-73865812D01*
X160440000Y-73878072D01*
X162140000Y-73878072D01*
X162264482Y-73865812D01*
X162384180Y-73829502D01*
X162494494Y-73770537D01*
X162560000Y-73716778D01*
X162625506Y-73770537D01*
X162735820Y-73829502D01*
X162855518Y-73865812D01*
X162980000Y-73878072D01*
X164680000Y-73878072D01*
X164804482Y-73865812D01*
X164924180Y-73829502D01*
X165034494Y-73770537D01*
X165100000Y-73716778D01*
X165165506Y-73770537D01*
X165275820Y-73829502D01*
X165395518Y-73865812D01*
X165520000Y-73878072D01*
X166084250Y-73875000D01*
X166243000Y-73716250D01*
X166243000Y-71343000D01*
X166497000Y-71343000D01*
X166497000Y-73716250D01*
X166655750Y-73875000D01*
X167220000Y-73878072D01*
X167344482Y-73865812D01*
X167464180Y-73829502D01*
X167574494Y-73770537D01*
X167640000Y-73716778D01*
X167705506Y-73770537D01*
X167815820Y-73829502D01*
X167935518Y-73865812D01*
X168060000Y-73878072D01*
X169760000Y-73878072D01*
X169884482Y-73865812D01*
X170004180Y-73829502D01*
X170114494Y-73770537D01*
X170180000Y-73716778D01*
X170245506Y-73770537D01*
X170355820Y-73829502D01*
X170475518Y-73865812D01*
X170600000Y-73878072D01*
X172300000Y-73878072D01*
X172424482Y-73865812D01*
X172544180Y-73829502D01*
X172654494Y-73770537D01*
X172720000Y-73716778D01*
X172785506Y-73770537D01*
X172895820Y-73829502D01*
X173015518Y-73865812D01*
X173140000Y-73878072D01*
X174840000Y-73878072D01*
X174964482Y-73865812D01*
X175084180Y-73829502D01*
X175194494Y-73770537D01*
X175260000Y-73716778D01*
X175325506Y-73770537D01*
X175435820Y-73829502D01*
X175555518Y-73865812D01*
X175680000Y-73878072D01*
X177380000Y-73878072D01*
X177504482Y-73865812D01*
X177624180Y-73829502D01*
X177734494Y-73770537D01*
X177800000Y-73716778D01*
X177865506Y-73770537D01*
X177975820Y-73829502D01*
X178095518Y-73865812D01*
X178220000Y-73878072D01*
X178784250Y-73875000D01*
X178943000Y-73716250D01*
X178943000Y-71343000D01*
X179197000Y-71343000D01*
X179197000Y-73716250D01*
X179355750Y-73875000D01*
X179920000Y-73878072D01*
X180044482Y-73865812D01*
X180164180Y-73829502D01*
X180274494Y-73770537D01*
X180340000Y-73716778D01*
X180405506Y-73770537D01*
X180515820Y-73829502D01*
X180635518Y-73865812D01*
X180760000Y-73878072D01*
X182460000Y-73878072D01*
X182584482Y-73865812D01*
X182704180Y-73829502D01*
X182814494Y-73770537D01*
X182880000Y-73716778D01*
X182945506Y-73770537D01*
X183055820Y-73829502D01*
X183175518Y-73865812D01*
X183300000Y-73878072D01*
X185000000Y-73878072D01*
X185124482Y-73865812D01*
X185244180Y-73829502D01*
X185354494Y-73770537D01*
X185420000Y-73716778D01*
X185485506Y-73770537D01*
X185595820Y-73829502D01*
X185715518Y-73865812D01*
X185840000Y-73878072D01*
X187540000Y-73878072D01*
X187664482Y-73865812D01*
X187784180Y-73829502D01*
X187894494Y-73770537D01*
X187960000Y-73716778D01*
X188025506Y-73770537D01*
X188135820Y-73829502D01*
X188255518Y-73865812D01*
X188380000Y-73878072D01*
X190080000Y-73878072D01*
X190204482Y-73865812D01*
X190324180Y-73829502D01*
X190434494Y-73770537D01*
X190500000Y-73716778D01*
X190565506Y-73770537D01*
X190675820Y-73829502D01*
X190795518Y-73865812D01*
X190920000Y-73878072D01*
X191484250Y-73875000D01*
X191643000Y-73716250D01*
X191643000Y-71343000D01*
X191897000Y-71343000D01*
X191897000Y-73716250D01*
X192055750Y-73875000D01*
X192620000Y-73878072D01*
X192744482Y-73865812D01*
X192864180Y-73829502D01*
X192974494Y-73770537D01*
X193040000Y-73716778D01*
X193105506Y-73770537D01*
X193215820Y-73829502D01*
X193335518Y-73865812D01*
X193460000Y-73878072D01*
X195160000Y-73878072D01*
X195284482Y-73865812D01*
X195404180Y-73829502D01*
X195514494Y-73770537D01*
X195580000Y-73716778D01*
X195645506Y-73770537D01*
X195755820Y-73829502D01*
X195875518Y-73865812D01*
X196000000Y-73878072D01*
X197700000Y-73878072D01*
X197824482Y-73865812D01*
X197944180Y-73829502D01*
X198054494Y-73770537D01*
X198120000Y-73716778D01*
X198185506Y-73770537D01*
X198295820Y-73829502D01*
X198415518Y-73865812D01*
X198540000Y-73878072D01*
X200240000Y-73878072D01*
X200364482Y-73865812D01*
X200484180Y-73829502D01*
X200594494Y-73770537D01*
X200660000Y-73716778D01*
X200725506Y-73770537D01*
X200835820Y-73829502D01*
X200955518Y-73865812D01*
X201080000Y-73878072D01*
X202780000Y-73878072D01*
X202904482Y-73865812D01*
X203024180Y-73829502D01*
X203134494Y-73770537D01*
X203200000Y-73716778D01*
X203265506Y-73770537D01*
X203375820Y-73829502D01*
X203495518Y-73865812D01*
X203620000Y-73878072D01*
X204184250Y-73875000D01*
X204342998Y-73716252D01*
X204342998Y-73875000D01*
X204450198Y-73875000D01*
X202885199Y-75440000D01*
X165647323Y-75440000D01*
X165610000Y-75436324D01*
X165572677Y-75440000D01*
X165572667Y-75440000D01*
X165461014Y-75450997D01*
X165317753Y-75494454D01*
X165185724Y-75565026D01*
X165069999Y-75659999D01*
X165046201Y-75688997D01*
X164425199Y-76310000D01*
X163373428Y-76310000D01*
X163479813Y-76053164D01*
X163542151Y-75739768D01*
X163542151Y-75420232D01*
X163479813Y-75106836D01*
X163357532Y-74811623D01*
X163180007Y-74545939D01*
X162954061Y-74319993D01*
X162688377Y-74142468D01*
X162393164Y-74020187D01*
X162079768Y-73957849D01*
X161760232Y-73957849D01*
X161446836Y-74020187D01*
X161151623Y-74142468D01*
X160885939Y-74319993D01*
X160659993Y-74545939D01*
X160482468Y-74811623D01*
X160360187Y-75106836D01*
X160297849Y-75420232D01*
X160297849Y-75739768D01*
X160360187Y-76053164D01*
X160466572Y-76310000D01*
X157849403Y-76310000D01*
X157812080Y-76306324D01*
X157774757Y-76310000D01*
X157774748Y-76310000D01*
X157663095Y-76320997D01*
X157519834Y-76364454D01*
X157387805Y-76435026D01*
X157324390Y-76487069D01*
X157265134Y-76414866D01*
X157039014Y-76229294D01*
X156984209Y-76200000D01*
X157039014Y-76170706D01*
X157265134Y-75985134D01*
X157450706Y-75759014D01*
X157588599Y-75501034D01*
X157673513Y-75221111D01*
X157702185Y-74930000D01*
X157673513Y-74638889D01*
X157588599Y-74358966D01*
X157450706Y-74100986D01*
X157265134Y-73874866D01*
X157039014Y-73689294D01*
X156984209Y-73660000D01*
X157039014Y-73630706D01*
X157265134Y-73445134D01*
X157450706Y-73219014D01*
X157588599Y-72961034D01*
X157673513Y-72681111D01*
X157702185Y-72390000D01*
X157673513Y-72098889D01*
X157588599Y-71818966D01*
X157450706Y-71560986D01*
X157265134Y-71334866D01*
X157039014Y-71149294D01*
X156781034Y-71011401D01*
X156501111Y-70926487D01*
X156282950Y-70905000D01*
X156137050Y-70905000D01*
X155918889Y-70926487D01*
X155638966Y-71011401D01*
X155380986Y-71149294D01*
X155154866Y-71334866D01*
X154969294Y-71560986D01*
X154831401Y-71818966D01*
X154746487Y-72098889D01*
X154717815Y-72390000D01*
X154746487Y-72681111D01*
X154831401Y-72961034D01*
X154969294Y-73219014D01*
X155154866Y-73445134D01*
X155380986Y-73630706D01*
X155435791Y-73660000D01*
X155380986Y-73689294D01*
X155154866Y-73874866D01*
X154969294Y-74100986D01*
X154831401Y-74358966D01*
X154746487Y-74638889D01*
X154717815Y-74930000D01*
X154746487Y-75221111D01*
X154831401Y-75501034D01*
X154969294Y-75759014D01*
X155154866Y-75985134D01*
X155380986Y-76170706D01*
X155435791Y-76200000D01*
X155380986Y-76229294D01*
X155154866Y-76414866D01*
X154969294Y-76640986D01*
X154831401Y-76898966D01*
X154746487Y-77178889D01*
X154717815Y-77470000D01*
X154746487Y-77761111D01*
X154831401Y-78041034D01*
X154969294Y-78299014D01*
X155154866Y-78525134D01*
X155380986Y-78710706D01*
X155435791Y-78740000D01*
X155380986Y-78769294D01*
X155154866Y-78954866D01*
X154969294Y-79180986D01*
X154831401Y-79438966D01*
X154746487Y-79718889D01*
X154717815Y-80010000D01*
X154746487Y-80301111D01*
X154831401Y-80581034D01*
X154969294Y-80839014D01*
X155154866Y-81065134D01*
X155380986Y-81250706D01*
X155435791Y-81280000D01*
X155380986Y-81309294D01*
X155154866Y-81494866D01*
X154969294Y-81720986D01*
X154831401Y-81978966D01*
X154746487Y-82258889D01*
X154717815Y-82550000D01*
X154746487Y-82841111D01*
X154812886Y-83060000D01*
X154492802Y-83060000D01*
X154432000Y-82999198D01*
X154432000Y-79375000D01*
X154429560Y-79350224D01*
X154422333Y-79326399D01*
X154410597Y-79304443D01*
X154394803Y-79285197D01*
X154375557Y-79269403D01*
X154353601Y-79257667D01*
X154329776Y-79250440D01*
X154305000Y-79248000D01*
X153296000Y-79248000D01*
X153296000Y-78054614D01*
X153354387Y-78023405D01*
X153488962Y-77912962D01*
X153599405Y-77778387D01*
X153681472Y-77624851D01*
X153732008Y-77458255D01*
X153749072Y-77285001D01*
X153749072Y-76384999D01*
X153732008Y-76211745D01*
X153681472Y-76045149D01*
X153599405Y-75891613D01*
X153488962Y-75757038D01*
X153354387Y-75646595D01*
X153296000Y-75615386D01*
X153296000Y-75514614D01*
X153354387Y-75483405D01*
X153488962Y-75372962D01*
X153599405Y-75238387D01*
X153681472Y-75084851D01*
X153732008Y-74918255D01*
X153749072Y-74745001D01*
X153749072Y-73844999D01*
X153732008Y-73671745D01*
X153681472Y-73505149D01*
X153599405Y-73351613D01*
X153488962Y-73217038D01*
X153354387Y-73106595D01*
X153296000Y-73075386D01*
X153296000Y-72974614D01*
X153354387Y-72943405D01*
X153488962Y-72832962D01*
X153599405Y-72698387D01*
X153681472Y-72544851D01*
X153732008Y-72378255D01*
X153749072Y-72205001D01*
X153749072Y-71304999D01*
X153732008Y-71131745D01*
X153681472Y-70965149D01*
X153599405Y-70811613D01*
X153488962Y-70677038D01*
X153354387Y-70566595D01*
X153248506Y-70510000D01*
X159801928Y-70510000D01*
X159801928Y-72348240D01*
X159801928Y-72348240D01*
G37*
X159801928Y-72348240D02*
X159797815Y-72390000D01*
X159801928Y-72431760D01*
X159801928Y-73240000D01*
X159814188Y-73364482D01*
X159850498Y-73484180D01*
X159909463Y-73594494D01*
X159988815Y-73691185D01*
X160085506Y-73770537D01*
X160195820Y-73829502D01*
X160315518Y-73865812D01*
X160440000Y-73878072D01*
X162140000Y-73878072D01*
X162264482Y-73865812D01*
X162384180Y-73829502D01*
X162494494Y-73770537D01*
X162560000Y-73716778D01*
X162625506Y-73770537D01*
X162735820Y-73829502D01*
X162855518Y-73865812D01*
X162980000Y-73878072D01*
X164680000Y-73878072D01*
X164804482Y-73865812D01*
X164924180Y-73829502D01*
X165034494Y-73770537D01*
X165100000Y-73716778D01*
X165165506Y-73770537D01*
X165275820Y-73829502D01*
X165395518Y-73865812D01*
X165520000Y-73878072D01*
X166084250Y-73875000D01*
X166243000Y-73716250D01*
X166243000Y-71343000D01*
X166497000Y-71343000D01*
X166497000Y-73716250D01*
X166655750Y-73875000D01*
X167220000Y-73878072D01*
X167344482Y-73865812D01*
X167464180Y-73829502D01*
X167574494Y-73770537D01*
X167640000Y-73716778D01*
X167705506Y-73770537D01*
X167815820Y-73829502D01*
X167935518Y-73865812D01*
X168060000Y-73878072D01*
X169760000Y-73878072D01*
X169884482Y-73865812D01*
X170004180Y-73829502D01*
X170114494Y-73770537D01*
X170180000Y-73716778D01*
X170245506Y-73770537D01*
X170355820Y-73829502D01*
X170475518Y-73865812D01*
X170600000Y-73878072D01*
X172300000Y-73878072D01*
X172424482Y-73865812D01*
X172544180Y-73829502D01*
X172654494Y-73770537D01*
X172720000Y-73716778D01*
X172785506Y-73770537D01*
X172895820Y-73829502D01*
X173015518Y-73865812D01*
X173140000Y-73878072D01*
X174840000Y-73878072D01*
X174964482Y-73865812D01*
X175084180Y-73829502D01*
X175194494Y-73770537D01*
X175260000Y-73716778D01*
X175325506Y-73770537D01*
X175435820Y-73829502D01*
X175555518Y-73865812D01*
X175680000Y-73878072D01*
X177380000Y-73878072D01*
X177504482Y-73865812D01*
X177624180Y-73829502D01*
X177734494Y-73770537D01*
X177800000Y-73716778D01*
X177865506Y-73770537D01*
X177975820Y-73829502D01*
X178095518Y-73865812D01*
X178220000Y-73878072D01*
X178784250Y-73875000D01*
X178943000Y-73716250D01*
X178943000Y-71343000D01*
X179197000Y-71343000D01*
X179197000Y-73716250D01*
X179355750Y-73875000D01*
X179920000Y-73878072D01*
X180044482Y-73865812D01*
X180164180Y-73829502D01*
X180274494Y-73770537D01*
X180340000Y-73716778D01*
X180405506Y-73770537D01*
X180515820Y-73829502D01*
X180635518Y-73865812D01*
X180760000Y-73878072D01*
X182460000Y-73878072D01*
X182584482Y-73865812D01*
X182704180Y-73829502D01*
X182814494Y-73770537D01*
X182880000Y-73716778D01*
X182945506Y-73770537D01*
X183055820Y-73829502D01*
X183175518Y-73865812D01*
X183300000Y-73878072D01*
X185000000Y-73878072D01*
X185124482Y-73865812D01*
X185244180Y-73829502D01*
X185354494Y-73770537D01*
X185420000Y-73716778D01*
X185485506Y-73770537D01*
X185595820Y-73829502D01*
X185715518Y-73865812D01*
X185840000Y-73878072D01*
X187540000Y-73878072D01*
X187664482Y-73865812D01*
X187784180Y-73829502D01*
X187894494Y-73770537D01*
X187960000Y-73716778D01*
X188025506Y-73770537D01*
X188135820Y-73829502D01*
X188255518Y-73865812D01*
X188380000Y-73878072D01*
X190080000Y-73878072D01*
X190204482Y-73865812D01*
X190324180Y-73829502D01*
X190434494Y-73770537D01*
X190500000Y-73716778D01*
X190565506Y-73770537D01*
X190675820Y-73829502D01*
X190795518Y-73865812D01*
X190920000Y-73878072D01*
X191484250Y-73875000D01*
X191643000Y-73716250D01*
X191643000Y-71343000D01*
X191897000Y-71343000D01*
X191897000Y-73716250D01*
X192055750Y-73875000D01*
X192620000Y-73878072D01*
X192744482Y-73865812D01*
X192864180Y-73829502D01*
X192974494Y-73770537D01*
X193040000Y-73716778D01*
X193105506Y-73770537D01*
X193215820Y-73829502D01*
X193335518Y-73865812D01*
X193460000Y-73878072D01*
X195160000Y-73878072D01*
X195284482Y-73865812D01*
X195404180Y-73829502D01*
X195514494Y-73770537D01*
X195580000Y-73716778D01*
X195645506Y-73770537D01*
X195755820Y-73829502D01*
X195875518Y-73865812D01*
X196000000Y-73878072D01*
X197700000Y-73878072D01*
X197824482Y-73865812D01*
X197944180Y-73829502D01*
X198054494Y-73770537D01*
X198120000Y-73716778D01*
X198185506Y-73770537D01*
X198295820Y-73829502D01*
X198415518Y-73865812D01*
X198540000Y-73878072D01*
X200240000Y-73878072D01*
X200364482Y-73865812D01*
X200484180Y-73829502D01*
X200594494Y-73770537D01*
X200660000Y-73716778D01*
X200725506Y-73770537D01*
X200835820Y-73829502D01*
X200955518Y-73865812D01*
X201080000Y-73878072D01*
X202780000Y-73878072D01*
X202904482Y-73865812D01*
X203024180Y-73829502D01*
X203134494Y-73770537D01*
X203200000Y-73716778D01*
X203265506Y-73770537D01*
X203375820Y-73829502D01*
X203495518Y-73865812D01*
X203620000Y-73878072D01*
X204184250Y-73875000D01*
X204342998Y-73716252D01*
X204342998Y-73875000D01*
X204450198Y-73875000D01*
X202885199Y-75440000D01*
X165647323Y-75440000D01*
X165610000Y-75436324D01*
X165572677Y-75440000D01*
X165572667Y-75440000D01*
X165461014Y-75450997D01*
X165317753Y-75494454D01*
X165185724Y-75565026D01*
X165069999Y-75659999D01*
X165046201Y-75688997D01*
X164425199Y-76310000D01*
X163373428Y-76310000D01*
X163479813Y-76053164D01*
X163542151Y-75739768D01*
X163542151Y-75420232D01*
X163479813Y-75106836D01*
X163357532Y-74811623D01*
X163180007Y-74545939D01*
X162954061Y-74319993D01*
X162688377Y-74142468D01*
X162393164Y-74020187D01*
X162079768Y-73957849D01*
X161760232Y-73957849D01*
X161446836Y-74020187D01*
X161151623Y-74142468D01*
X160885939Y-74319993D01*
X160659993Y-74545939D01*
X160482468Y-74811623D01*
X160360187Y-75106836D01*
X160297849Y-75420232D01*
X160297849Y-75739768D01*
X160360187Y-76053164D01*
X160466572Y-76310000D01*
X157849403Y-76310000D01*
X157812080Y-76306324D01*
X157774757Y-76310000D01*
X157774748Y-76310000D01*
X157663095Y-76320997D01*
X157519834Y-76364454D01*
X157387805Y-76435026D01*
X157324390Y-76487069D01*
X157265134Y-76414866D01*
X157039014Y-76229294D01*
X156984209Y-76200000D01*
X157039014Y-76170706D01*
X157265134Y-75985134D01*
X157450706Y-75759014D01*
X157588599Y-75501034D01*
X157673513Y-75221111D01*
X157702185Y-74930000D01*
X157673513Y-74638889D01*
X157588599Y-74358966D01*
X157450706Y-74100986D01*
X157265134Y-73874866D01*
X157039014Y-73689294D01*
X156984209Y-73660000D01*
X157039014Y-73630706D01*
X157265134Y-73445134D01*
X157450706Y-73219014D01*
X157588599Y-72961034D01*
X157673513Y-72681111D01*
X157702185Y-72390000D01*
X157673513Y-72098889D01*
X157588599Y-71818966D01*
X157450706Y-71560986D01*
X157265134Y-71334866D01*
X157039014Y-71149294D01*
X156781034Y-71011401D01*
X156501111Y-70926487D01*
X156282950Y-70905000D01*
X156137050Y-70905000D01*
X155918889Y-70926487D01*
X155638966Y-71011401D01*
X155380986Y-71149294D01*
X155154866Y-71334866D01*
X154969294Y-71560986D01*
X154831401Y-71818966D01*
X154746487Y-72098889D01*
X154717815Y-72390000D01*
X154746487Y-72681111D01*
X154831401Y-72961034D01*
X154969294Y-73219014D01*
X155154866Y-73445134D01*
X155380986Y-73630706D01*
X155435791Y-73660000D01*
X155380986Y-73689294D01*
X155154866Y-73874866D01*
X154969294Y-74100986D01*
X154831401Y-74358966D01*
X154746487Y-74638889D01*
X154717815Y-74930000D01*
X154746487Y-75221111D01*
X154831401Y-75501034D01*
X154969294Y-75759014D01*
X155154866Y-75985134D01*
X155380986Y-76170706D01*
X155435791Y-76200000D01*
X155380986Y-76229294D01*
X155154866Y-76414866D01*
X154969294Y-76640986D01*
X154831401Y-76898966D01*
X154746487Y-77178889D01*
X154717815Y-77470000D01*
X154746487Y-77761111D01*
X154831401Y-78041034D01*
X154969294Y-78299014D01*
X155154866Y-78525134D01*
X155380986Y-78710706D01*
X155435791Y-78740000D01*
X155380986Y-78769294D01*
X155154866Y-78954866D01*
X154969294Y-79180986D01*
X154831401Y-79438966D01*
X154746487Y-79718889D01*
X154717815Y-80010000D01*
X154746487Y-80301111D01*
X154831401Y-80581034D01*
X154969294Y-80839014D01*
X155154866Y-81065134D01*
X155380986Y-81250706D01*
X155435791Y-81280000D01*
X155380986Y-81309294D01*
X155154866Y-81494866D01*
X154969294Y-81720986D01*
X154831401Y-81978966D01*
X154746487Y-82258889D01*
X154717815Y-82550000D01*
X154746487Y-82841111D01*
X154812886Y-83060000D01*
X154492802Y-83060000D01*
X154432000Y-82999198D01*
X154432000Y-79375000D01*
X154429560Y-79350224D01*
X154422333Y-79326399D01*
X154410597Y-79304443D01*
X154394803Y-79285197D01*
X154375557Y-79269403D01*
X154353601Y-79257667D01*
X154329776Y-79250440D01*
X154305000Y-79248000D01*
X153296000Y-79248000D01*
X153296000Y-78054614D01*
X153354387Y-78023405D01*
X153488962Y-77912962D01*
X153599405Y-77778387D01*
X153681472Y-77624851D01*
X153732008Y-77458255D01*
X153749072Y-77285001D01*
X153749072Y-76384999D01*
X153732008Y-76211745D01*
X153681472Y-76045149D01*
X153599405Y-75891613D01*
X153488962Y-75757038D01*
X153354387Y-75646595D01*
X153296000Y-75615386D01*
X153296000Y-75514614D01*
X153354387Y-75483405D01*
X153488962Y-75372962D01*
X153599405Y-75238387D01*
X153681472Y-75084851D01*
X153732008Y-74918255D01*
X153749072Y-74745001D01*
X153749072Y-73844999D01*
X153732008Y-73671745D01*
X153681472Y-73505149D01*
X153599405Y-73351613D01*
X153488962Y-73217038D01*
X153354387Y-73106595D01*
X153296000Y-73075386D01*
X153296000Y-72974614D01*
X153354387Y-72943405D01*
X153488962Y-72832962D01*
X153599405Y-72698387D01*
X153681472Y-72544851D01*
X153732008Y-72378255D01*
X153749072Y-72205001D01*
X153749072Y-71304999D01*
X153732008Y-71131745D01*
X153681472Y-70965149D01*
X153599405Y-70811613D01*
X153488962Y-70677038D01*
X153354387Y-70566595D01*
X153248506Y-70510000D01*
X159801928Y-70510000D01*
X159801928Y-72348240D01*
G36*
X141342000Y-77978000D02*
G01*
X141362000Y-77978000D01*
X141362000Y-78232000D01*
X141342000Y-78232000D01*
X141342000Y-78252000D01*
X141088000Y-78252000D01*
X141088000Y-78232000D01*
X141068000Y-78232000D01*
X141068000Y-77978000D01*
X141088000Y-77978000D01*
X141088000Y-77958000D01*
X141342000Y-77958000D01*
X141342000Y-77978000D01*
X141342000Y-77978000D01*
G37*
X141342000Y-77978000D02*
X141362000Y-77978000D01*
X141362000Y-78232000D01*
X141342000Y-78232000D01*
X141342000Y-78252000D01*
X141088000Y-78252000D01*
X141088000Y-78232000D01*
X141068000Y-78232000D01*
X141068000Y-77978000D01*
X141088000Y-77978000D01*
X141088000Y-77958000D01*
X141342000Y-77958000D01*
X141342000Y-77978000D01*
G36*
X146422668Y-73195001D02*
G01*
X146422678Y-73195001D01*
X146460001Y-73198677D01*
X146497324Y-73195001D01*
X149559890Y-73195001D01*
X149533038Y-73217038D01*
X149422595Y-73351613D01*
X149340528Y-73505149D01*
X149289992Y-73671745D01*
X149272928Y-73844999D01*
X149272928Y-74745001D01*
X149289992Y-74918255D01*
X149340528Y-75084851D01*
X149422595Y-75238387D01*
X149533038Y-75372962D01*
X149667613Y-75483405D01*
X149726000Y-75514614D01*
X149726000Y-75615386D01*
X149667613Y-75646595D01*
X149533038Y-75757038D01*
X149422595Y-75891613D01*
X149340528Y-76045149D01*
X149289992Y-76211745D01*
X149272928Y-76384999D01*
X149272928Y-77285001D01*
X149289992Y-77458255D01*
X149340528Y-77624851D01*
X149422595Y-77778387D01*
X149533038Y-77912962D01*
X149614724Y-77980000D01*
X148923072Y-77980000D01*
X148923072Y-77654999D01*
X148906008Y-77481745D01*
X148855472Y-77315149D01*
X148790955Y-77194447D01*
X148815537Y-77164494D01*
X148874502Y-77054180D01*
X148910812Y-76934482D01*
X148923072Y-76810000D01*
X148920000Y-76295750D01*
X148761250Y-76137000D01*
X147887000Y-76137000D01*
X147887000Y-76157000D01*
X147633000Y-76157000D01*
X147633000Y-76137000D01*
X147613000Y-76137000D01*
X147613000Y-75883000D01*
X147633000Y-75883000D01*
X147633000Y-74733750D01*
X147887000Y-74733750D01*
X147887000Y-75883000D01*
X148761250Y-75883000D01*
X148920000Y-75724250D01*
X148923072Y-75210000D01*
X148910812Y-75085518D01*
X148874502Y-74965820D01*
X148815537Y-74855506D01*
X148736185Y-74758815D01*
X148639494Y-74679463D01*
X148529180Y-74620498D01*
X148409482Y-74584188D01*
X148285000Y-74571928D01*
X148045750Y-74575000D01*
X147887000Y-74733750D01*
X147633000Y-74733750D01*
X147474250Y-74575000D01*
X147235000Y-74571928D01*
X147110518Y-74584188D01*
X146990820Y-74620498D01*
X146880506Y-74679463D01*
X146783815Y-74758815D01*
X146704463Y-74855506D01*
X146685000Y-74891918D01*
X146665537Y-74855506D01*
X146586185Y-74758815D01*
X146489494Y-74679463D01*
X146379180Y-74620498D01*
X146370000Y-74617713D01*
X146370000Y-73189814D01*
X146422668Y-73195001D01*
X146422668Y-73195001D01*
G37*
X146422668Y-73195001D02*
X146422678Y-73195001D01*
X146460001Y-73198677D01*
X146497324Y-73195001D01*
X149559890Y-73195001D01*
X149533038Y-73217038D01*
X149422595Y-73351613D01*
X149340528Y-73505149D01*
X149289992Y-73671745D01*
X149272928Y-73844999D01*
X149272928Y-74745001D01*
X149289992Y-74918255D01*
X149340528Y-75084851D01*
X149422595Y-75238387D01*
X149533038Y-75372962D01*
X149667613Y-75483405D01*
X149726000Y-75514614D01*
X149726000Y-75615386D01*
X149667613Y-75646595D01*
X149533038Y-75757038D01*
X149422595Y-75891613D01*
X149340528Y-76045149D01*
X149289992Y-76211745D01*
X149272928Y-76384999D01*
X149272928Y-77285001D01*
X149289992Y-77458255D01*
X149340528Y-77624851D01*
X149422595Y-77778387D01*
X149533038Y-77912962D01*
X149614724Y-77980000D01*
X148923072Y-77980000D01*
X148923072Y-77654999D01*
X148906008Y-77481745D01*
X148855472Y-77315149D01*
X148790955Y-77194447D01*
X148815537Y-77164494D01*
X148874502Y-77054180D01*
X148910812Y-76934482D01*
X148923072Y-76810000D01*
X148920000Y-76295750D01*
X148761250Y-76137000D01*
X147887000Y-76137000D01*
X147887000Y-76157000D01*
X147633000Y-76157000D01*
X147633000Y-76137000D01*
X147613000Y-76137000D01*
X147613000Y-75883000D01*
X147633000Y-75883000D01*
X147633000Y-74733750D01*
X147887000Y-74733750D01*
X147887000Y-75883000D01*
X148761250Y-75883000D01*
X148920000Y-75724250D01*
X148923072Y-75210000D01*
X148910812Y-75085518D01*
X148874502Y-74965820D01*
X148815537Y-74855506D01*
X148736185Y-74758815D01*
X148639494Y-74679463D01*
X148529180Y-74620498D01*
X148409482Y-74584188D01*
X148285000Y-74571928D01*
X148045750Y-74575000D01*
X147887000Y-74733750D01*
X147633000Y-74733750D01*
X147474250Y-74575000D01*
X147235000Y-74571928D01*
X147110518Y-74584188D01*
X146990820Y-74620498D01*
X146880506Y-74679463D01*
X146783815Y-74758815D01*
X146704463Y-74855506D01*
X146685000Y-74891918D01*
X146665537Y-74855506D01*
X146586185Y-74758815D01*
X146489494Y-74679463D01*
X146379180Y-74620498D01*
X146370000Y-74617713D01*
X146370000Y-73189814D01*
X146422668Y-73195001D01*
G36*
X140386000Y-71024250D02*
G01*
X140544750Y-71183000D01*
X141419000Y-71183000D01*
X141419000Y-71163000D01*
X141673000Y-71163000D01*
X141673000Y-71183000D01*
X141693000Y-71183000D01*
X141693000Y-71437000D01*
X141673000Y-71437000D01*
X141673000Y-72586250D01*
X141831750Y-72745000D01*
X142071000Y-72748072D01*
X142195482Y-72735812D01*
X142315180Y-72699502D01*
X142425494Y-72640537D01*
X142522185Y-72561185D01*
X142601537Y-72464494D01*
X142621000Y-72428082D01*
X142640463Y-72464494D01*
X142719815Y-72561185D01*
X142816506Y-72640537D01*
X142926820Y-72699502D01*
X142936000Y-72702287D01*
X142936001Y-74617713D01*
X142926820Y-74620498D01*
X142816506Y-74679463D01*
X142719815Y-74758815D01*
X142640463Y-74855506D01*
X142621000Y-74891918D01*
X142601537Y-74855506D01*
X142522185Y-74758815D01*
X142425494Y-74679463D01*
X142315180Y-74620498D01*
X142195482Y-74584188D01*
X142071000Y-74571928D01*
X141831750Y-74575000D01*
X141673000Y-74733750D01*
X141673000Y-75883000D01*
X141693000Y-75883000D01*
X141693000Y-76137000D01*
X141673000Y-76137000D01*
X141673000Y-76157000D01*
X141419000Y-76157000D01*
X141419000Y-76137000D01*
X140544750Y-76137000D01*
X140386000Y-76295750D01*
X140382928Y-76810000D01*
X140384087Y-76821769D01*
X140360000Y-76834644D01*
X140360000Y-75210000D01*
X140382928Y-75210000D01*
X140386000Y-75724250D01*
X140544750Y-75883000D01*
X141419000Y-75883000D01*
X141419000Y-74733750D01*
X141260250Y-74575000D01*
X141021000Y-74571928D01*
X140896518Y-74584188D01*
X140776820Y-74620498D01*
X140666506Y-74679463D01*
X140569815Y-74758815D01*
X140490463Y-74855506D01*
X140431498Y-74965820D01*
X140395188Y-75085518D01*
X140382928Y-75210000D01*
X140360000Y-75210000D01*
X140360000Y-72110000D01*
X140382928Y-72110000D01*
X140395188Y-72234482D01*
X140431498Y-72354180D01*
X140490463Y-72464494D01*
X140569815Y-72561185D01*
X140666506Y-72640537D01*
X140776820Y-72699502D01*
X140896518Y-72735812D01*
X141021000Y-72748072D01*
X141260250Y-72745000D01*
X141419000Y-72586250D01*
X141419000Y-71437000D01*
X140544750Y-71437000D01*
X140386000Y-71595750D01*
X140382928Y-72110000D01*
X140360000Y-72110000D01*
X140360000Y-70510000D01*
X140382928Y-70510000D01*
X140386000Y-71024250D01*
X140386000Y-71024250D01*
G37*
X140386000Y-71024250D02*
X140544750Y-71183000D01*
X141419000Y-71183000D01*
X141419000Y-71163000D01*
X141673000Y-71163000D01*
X141673000Y-71183000D01*
X141693000Y-71183000D01*
X141693000Y-71437000D01*
X141673000Y-71437000D01*
X141673000Y-72586250D01*
X141831750Y-72745000D01*
X142071000Y-72748072D01*
X142195482Y-72735812D01*
X142315180Y-72699502D01*
X142425494Y-72640537D01*
X142522185Y-72561185D01*
X142601537Y-72464494D01*
X142621000Y-72428082D01*
X142640463Y-72464494D01*
X142719815Y-72561185D01*
X142816506Y-72640537D01*
X142926820Y-72699502D01*
X142936000Y-72702287D01*
X142936001Y-74617713D01*
X142926820Y-74620498D01*
X142816506Y-74679463D01*
X142719815Y-74758815D01*
X142640463Y-74855506D01*
X142621000Y-74891918D01*
X142601537Y-74855506D01*
X142522185Y-74758815D01*
X142425494Y-74679463D01*
X142315180Y-74620498D01*
X142195482Y-74584188D01*
X142071000Y-74571928D01*
X141831750Y-74575000D01*
X141673000Y-74733750D01*
X141673000Y-75883000D01*
X141693000Y-75883000D01*
X141693000Y-76137000D01*
X141673000Y-76137000D01*
X141673000Y-76157000D01*
X141419000Y-76157000D01*
X141419000Y-76137000D01*
X140544750Y-76137000D01*
X140386000Y-76295750D01*
X140382928Y-76810000D01*
X140384087Y-76821769D01*
X140360000Y-76834644D01*
X140360000Y-75210000D01*
X140382928Y-75210000D01*
X140386000Y-75724250D01*
X140544750Y-75883000D01*
X141419000Y-75883000D01*
X141419000Y-74733750D01*
X141260250Y-74575000D01*
X141021000Y-74571928D01*
X140896518Y-74584188D01*
X140776820Y-74620498D01*
X140666506Y-74679463D01*
X140569815Y-74758815D01*
X140490463Y-74855506D01*
X140431498Y-74965820D01*
X140395188Y-75085518D01*
X140382928Y-75210000D01*
X140360000Y-75210000D01*
X140360000Y-72110000D01*
X140382928Y-72110000D01*
X140395188Y-72234482D01*
X140431498Y-72354180D01*
X140490463Y-72464494D01*
X140569815Y-72561185D01*
X140666506Y-72640537D01*
X140776820Y-72699502D01*
X140896518Y-72735812D01*
X141021000Y-72748072D01*
X141260250Y-72745000D01*
X141419000Y-72586250D01*
X141419000Y-71437000D01*
X140544750Y-71437000D01*
X140386000Y-71595750D01*
X140382928Y-72110000D01*
X140360000Y-72110000D01*
X140360000Y-70510000D01*
X140382928Y-70510000D01*
X140386000Y-71024250D01*
G36*
X149667613Y-70566595D02*
G01*
X149533038Y-70677038D01*
X149422595Y-70811613D01*
X149340528Y-70965149D01*
X149289992Y-71131745D01*
X149272928Y-71304999D01*
X149272928Y-71675001D01*
X148920473Y-71675001D01*
X148920000Y-71595750D01*
X148761250Y-71437000D01*
X147887000Y-71437000D01*
X147887000Y-71457000D01*
X147633000Y-71457000D01*
X147633000Y-71437000D01*
X147613000Y-71437000D01*
X147613000Y-71183000D01*
X147633000Y-71183000D01*
X147633000Y-71163000D01*
X147887000Y-71163000D01*
X147887000Y-71183000D01*
X148761250Y-71183000D01*
X148920000Y-71024250D01*
X148923072Y-70510000D01*
X149773494Y-70510000D01*
X149667613Y-70566595D01*
X149667613Y-70566595D01*
G37*
X149667613Y-70566595D02*
X149533038Y-70677038D01*
X149422595Y-70811613D01*
X149340528Y-70965149D01*
X149289992Y-71131745D01*
X149272928Y-71304999D01*
X149272928Y-71675001D01*
X148920473Y-71675001D01*
X148920000Y-71595750D01*
X148761250Y-71437000D01*
X147887000Y-71437000D01*
X147887000Y-71457000D01*
X147633000Y-71457000D01*
X147633000Y-71437000D01*
X147613000Y-71437000D01*
X147613000Y-71183000D01*
X147633000Y-71183000D01*
X147633000Y-71163000D01*
X147887000Y-71163000D01*
X147887000Y-71183000D01*
X148761250Y-71183000D01*
X148920000Y-71024250D01*
X148923072Y-70510000D01*
X149773494Y-70510000D01*
X149667613Y-70566595D01*
G36*
X204597000Y-71637000D02*
G01*
X204343000Y-71637000D01*
X204343000Y-71343000D01*
X204597000Y-71343000D01*
X204597000Y-71637000D01*
X204597000Y-71637000D01*
G37*
X204597000Y-71637000D02*
X204343000Y-71637000D01*
X204343000Y-71343000D01*
X204597000Y-71343000D01*
X204597000Y-71637000D01*
M02*
