G04 #@! TF.GenerationSoftware,KiCad,Pcbnew,(5.1.4)-1*
G04 #@! TF.CreationDate,2021-05-25T15:00:13+02:00*
G04 #@! TF.ProjectId,BCU_Breadboard_Adapter,4243555f-4272-4656-9164-626f6172645f,V00.01*
G04 #@! TF.SameCoordinates,Original*
G04 #@! TF.FileFunction,Copper,L2,Bot*
G04 #@! TF.FilePolarity,Positive*
%FSLAX46Y46*%
G04 Gerber Fmt 4.6, Leading zero omitted, Abs format (unit mm)*
G04 Created by KiCad (PCBNEW (5.1.4)-1) date 2021-05-25 15:00:13*
%MOMM*%
%LPD*%
G04 APERTURE LIST*
%ADD10C,2.500000*%
%ADD11O,1.700000X1.700000*%
%ADD12R,1.700000X1.700000*%
%ADD13O,2.080000X3.600000*%
%ADD14C,0.100000*%
%ADD15C,2.080000*%
%ADD16C,0.800000*%
%ADD17C,0.400000*%
%ADD18C,0.600000*%
%ADD19C,0.250000*%
G04 APERTURE END LIST*
D10*
X133314440Y-87482680D03*
X127564440Y-87482680D03*
D11*
X131693920Y-107891580D03*
X131693920Y-105351580D03*
X131693920Y-102811580D03*
D12*
X131693920Y-100271580D03*
D11*
X149473920Y-107891580D03*
X149473920Y-105351580D03*
X149473920Y-102811580D03*
D12*
X149473920Y-100271580D03*
D11*
X162560000Y-83820000D03*
D12*
X162560000Y-81280000D03*
D11*
X162560000Y-129540000D03*
D12*
X162560000Y-127000000D03*
D11*
X120650000Y-129540000D03*
X120650000Y-127000000D03*
X120650000Y-124460000D03*
X120650000Y-121920000D03*
X120650000Y-119380000D03*
X120650000Y-116840000D03*
D12*
X120650000Y-114300000D03*
D11*
X121920000Y-96520000D03*
X121920000Y-99060000D03*
X121920000Y-101600000D03*
X121920000Y-104140000D03*
X121920000Y-106680000D03*
X124460000Y-106680000D03*
X124460000Y-104140000D03*
X124460000Y-101600000D03*
X124460000Y-99060000D03*
D12*
X124460000Y-96520000D03*
D11*
X143510000Y-124460000D03*
X143510000Y-127000000D03*
D12*
X143510000Y-129540000D03*
D11*
X147320000Y-124460000D03*
X147320000Y-127000000D03*
D12*
X147320000Y-129540000D03*
D11*
X142240000Y-115570000D03*
D12*
X139700000Y-115570000D03*
D11*
X142240000Y-111760000D03*
D12*
X139700000Y-111760000D03*
D11*
X142240000Y-97790000D03*
D12*
X139700000Y-97790000D03*
D11*
X142240000Y-93980000D03*
D12*
X139700000Y-93980000D03*
D11*
X160020000Y-93980000D03*
X157480000Y-93980000D03*
X154940000Y-93980000D03*
D12*
X152400000Y-93980000D03*
D11*
X157480000Y-83820000D03*
D12*
X157480000Y-81280000D03*
D11*
X157480000Y-129540000D03*
D12*
X157480000Y-127000000D03*
D13*
X137160000Y-123190000D03*
D14*
G36*
X132894505Y-121391204D02*
G01*
X132918773Y-121394804D01*
X132942572Y-121400765D01*
X132965671Y-121409030D01*
X132987850Y-121419520D01*
X133008893Y-121432132D01*
X133028599Y-121446747D01*
X133046777Y-121463223D01*
X133063253Y-121481401D01*
X133077868Y-121501107D01*
X133090480Y-121522150D01*
X133100970Y-121544329D01*
X133109235Y-121567428D01*
X133115196Y-121591227D01*
X133118796Y-121615495D01*
X133120000Y-121639999D01*
X133120000Y-124740001D01*
X133118796Y-124764505D01*
X133115196Y-124788773D01*
X133109235Y-124812572D01*
X133100970Y-124835671D01*
X133090480Y-124857850D01*
X133077868Y-124878893D01*
X133063253Y-124898599D01*
X133046777Y-124916777D01*
X133028599Y-124933253D01*
X133008893Y-124947868D01*
X132987850Y-124960480D01*
X132965671Y-124970970D01*
X132942572Y-124979235D01*
X132918773Y-124985196D01*
X132894505Y-124988796D01*
X132870001Y-124990000D01*
X131289999Y-124990000D01*
X131265495Y-124988796D01*
X131241227Y-124985196D01*
X131217428Y-124979235D01*
X131194329Y-124970970D01*
X131172150Y-124960480D01*
X131151107Y-124947868D01*
X131131401Y-124933253D01*
X131113223Y-124916777D01*
X131096747Y-124898599D01*
X131082132Y-124878893D01*
X131069520Y-124857850D01*
X131059030Y-124835671D01*
X131050765Y-124812572D01*
X131044804Y-124788773D01*
X131041204Y-124764505D01*
X131040000Y-124740001D01*
X131040000Y-121639999D01*
X131041204Y-121615495D01*
X131044804Y-121591227D01*
X131050765Y-121567428D01*
X131059030Y-121544329D01*
X131069520Y-121522150D01*
X131082132Y-121501107D01*
X131096747Y-121481401D01*
X131113223Y-121463223D01*
X131131401Y-121446747D01*
X131151107Y-121432132D01*
X131172150Y-121419520D01*
X131194329Y-121409030D01*
X131217428Y-121400765D01*
X131241227Y-121394804D01*
X131265495Y-121391204D01*
X131289999Y-121390000D01*
X132870001Y-121390000D01*
X132894505Y-121391204D01*
X132894505Y-121391204D01*
G37*
D15*
X132080000Y-123190000D03*
D13*
X140970000Y-87630000D03*
D14*
G36*
X146864505Y-85831204D02*
G01*
X146888773Y-85834804D01*
X146912572Y-85840765D01*
X146935671Y-85849030D01*
X146957850Y-85859520D01*
X146978893Y-85872132D01*
X146998599Y-85886747D01*
X147016777Y-85903223D01*
X147033253Y-85921401D01*
X147047868Y-85941107D01*
X147060480Y-85962150D01*
X147070970Y-85984329D01*
X147079235Y-86007428D01*
X147085196Y-86031227D01*
X147088796Y-86055495D01*
X147090000Y-86079999D01*
X147090000Y-89180001D01*
X147088796Y-89204505D01*
X147085196Y-89228773D01*
X147079235Y-89252572D01*
X147070970Y-89275671D01*
X147060480Y-89297850D01*
X147047868Y-89318893D01*
X147033253Y-89338599D01*
X147016777Y-89356777D01*
X146998599Y-89373253D01*
X146978893Y-89387868D01*
X146957850Y-89400480D01*
X146935671Y-89410970D01*
X146912572Y-89419235D01*
X146888773Y-89425196D01*
X146864505Y-89428796D01*
X146840001Y-89430000D01*
X145259999Y-89430000D01*
X145235495Y-89428796D01*
X145211227Y-89425196D01*
X145187428Y-89419235D01*
X145164329Y-89410970D01*
X145142150Y-89400480D01*
X145121107Y-89387868D01*
X145101401Y-89373253D01*
X145083223Y-89356777D01*
X145066747Y-89338599D01*
X145052132Y-89318893D01*
X145039520Y-89297850D01*
X145029030Y-89275671D01*
X145020765Y-89252572D01*
X145014804Y-89228773D01*
X145011204Y-89204505D01*
X145010000Y-89180001D01*
X145010000Y-86079999D01*
X145011204Y-86055495D01*
X145014804Y-86031227D01*
X145020765Y-86007428D01*
X145029030Y-85984329D01*
X145039520Y-85962150D01*
X145052132Y-85941107D01*
X145066747Y-85921401D01*
X145083223Y-85903223D01*
X145101401Y-85886747D01*
X145121107Y-85872132D01*
X145142150Y-85859520D01*
X145164329Y-85849030D01*
X145187428Y-85840765D01*
X145211227Y-85834804D01*
X145235495Y-85831204D01*
X145259999Y-85830000D01*
X146840001Y-85830000D01*
X146864505Y-85831204D01*
X146864505Y-85831204D01*
G37*
D15*
X146050000Y-87630000D03*
D11*
X123190000Y-129540000D03*
X123190000Y-127000000D03*
X123190000Y-124460000D03*
X123190000Y-121920000D03*
X123190000Y-119380000D03*
X123190000Y-116840000D03*
D12*
X123190000Y-114300000D03*
D16*
X129189999Y-110185719D03*
X146009360Y-98054160D03*
X129990000Y-113850000D03*
X129098040Y-105349040D03*
X129092960Y-99060000D03*
X149087840Y-91516200D03*
X148260000Y-83740000D03*
X153170000Y-88650000D03*
X153170000Y-88650000D03*
D17*
X131850001Y-89129999D02*
X124460000Y-96520000D01*
X133350000Y-87630000D02*
X131850001Y-89129999D01*
D18*
X120650000Y-116840000D02*
X123190000Y-116840000D01*
D17*
X131693920Y-100271580D02*
X130443920Y-100271580D01*
X130443920Y-100271580D02*
X130205480Y-100510020D01*
X130205480Y-109170238D02*
X129189999Y-110185719D01*
X130205480Y-100510020D02*
X130205480Y-109170238D01*
X127965719Y-110185719D02*
X124460000Y-106680000D01*
X129189999Y-110185719D02*
X127965719Y-110185719D01*
D18*
X120650000Y-127000000D02*
X123190000Y-127000000D01*
D17*
X157480000Y-85725000D02*
X157480000Y-83820000D01*
X157480000Y-85725000D02*
X146009360Y-97195640D01*
X146009360Y-97195640D02*
X146009360Y-98054160D01*
X120669999Y-107280001D02*
X127239998Y-113850000D01*
X121920000Y-101600000D02*
X120669999Y-102850001D01*
X120669999Y-102850001D02*
X120669999Y-107280001D01*
X127239998Y-113850000D02*
X129990000Y-113850000D01*
D18*
X123190000Y-129540000D02*
X120650000Y-129540000D01*
D17*
X139700000Y-110510000D02*
X139700000Y-111760000D01*
X134541580Y-105351580D02*
X139700000Y-110510000D01*
X131693920Y-105351580D02*
X134541580Y-105351580D01*
D19*
X127000000Y-124460000D02*
X139700000Y-111760000D01*
X123190000Y-124460000D02*
X127000000Y-124460000D01*
D17*
X127889000Y-104140000D02*
X124460000Y-104140000D01*
X129098040Y-105349040D02*
X127889000Y-104140000D01*
D18*
X123190000Y-124460000D02*
X120650000Y-124460000D01*
D17*
X139700000Y-98405000D02*
X139700000Y-97155000D01*
X135293420Y-102811580D02*
X139700000Y-98405000D01*
X131693920Y-102811580D02*
X135293420Y-102811580D01*
X124460000Y-99060000D02*
X125662081Y-99060000D01*
X125662081Y-99060000D02*
X129092960Y-99060000D01*
X129092960Y-99060000D02*
X129092960Y-99060000D01*
D18*
X120650000Y-121920000D02*
X123190000Y-121920000D01*
D17*
X123209999Y-107280001D02*
X127979999Y-112050001D01*
X121920000Y-104140000D02*
X123209999Y-105429999D01*
X123209999Y-105429999D02*
X123209999Y-107280001D01*
X127979999Y-112050001D02*
X128009998Y-112080000D01*
X129374003Y-112050001D02*
X127979999Y-112050001D01*
X130790001Y-113465999D02*
X129374003Y-112050001D01*
X130790001Y-114234001D02*
X130790001Y-113465999D01*
X126494001Y-118530001D02*
X130790001Y-114234001D01*
X124039999Y-118530001D02*
X126494001Y-118530001D01*
X123190000Y-119380000D02*
X124039999Y-118530001D01*
D19*
X122769999Y-103290001D02*
X121920000Y-104140000D01*
X123095001Y-102964999D02*
X122769999Y-103290001D01*
X123095001Y-98685997D02*
X123095001Y-102964999D01*
X149087840Y-91516200D02*
X148522155Y-91516200D01*
X148522155Y-91516200D02*
X148517075Y-91511120D01*
X148517075Y-91511120D02*
X131744720Y-91511120D01*
X131744720Y-91511120D02*
X125370841Y-97884999D01*
X125370841Y-97884999D02*
X123895999Y-97884999D01*
X123895999Y-97884999D02*
X123095001Y-98685997D01*
D18*
X123190000Y-119380000D02*
X120650000Y-119380000D01*
X123190000Y-114300000D02*
X120650000Y-114300000D01*
D17*
X148260000Y-83740000D02*
X153170000Y-88650000D01*
X153170000Y-88650000D02*
X153170000Y-88650000D01*
X153170000Y-88650000D02*
X153170000Y-88650000D01*
X133190710Y-124300710D02*
X132080000Y-123190000D01*
X137140001Y-128250001D02*
X133190710Y-124300710D01*
X144780001Y-128250001D02*
X137140001Y-128250001D01*
X146070000Y-129540000D02*
X144780001Y-128250001D01*
X147320000Y-129540000D02*
X146070000Y-129540000D01*
X147378420Y-105351580D02*
X149473920Y-105351580D01*
X142240000Y-111760000D02*
X142240000Y-110490000D01*
X142240000Y-110490000D02*
X147378420Y-105351580D01*
X148271839Y-102811580D02*
X149473920Y-102811580D01*
X146694499Y-102811580D02*
X148271839Y-102811580D01*
X142240000Y-98357081D02*
X146694499Y-102811580D01*
X142240000Y-97155000D02*
X142240000Y-98357081D01*
D19*
X151300000Y-93980000D02*
X152400000Y-93980000D01*
X150779990Y-94500010D02*
X151300000Y-93980000D01*
X150779990Y-101624890D02*
X150779990Y-94500010D01*
X150443299Y-101961581D02*
X150779990Y-101624890D01*
X150323919Y-101961581D02*
X150443299Y-101961581D01*
X149473920Y-102811580D02*
X150323919Y-101961581D01*
M02*
