G04 #@! TF.GenerationSoftware,KiCad,Pcbnew,(5.1.4)-1*
G04 #@! TF.CreationDate,2021-05-25T15:00:13+02:00*
G04 #@! TF.ProjectId,BCU_Breadboard_Adapter,4243555f-4272-4656-9164-626f6172645f,V00.01*
G04 #@! TF.SameCoordinates,Original*
G04 #@! TF.FileFunction,Profile,NP*
%FSLAX46Y46*%
G04 Gerber Fmt 4.6, Leading zero omitted, Abs format (unit mm)*
G04 Created by KiCad (PCBNEW (5.1.4)-1) date 2021-05-25 15:00:13*
%MOMM*%
%LPD*%
G04 APERTURE LIST*
%ADD10C,0.050000*%
G04 APERTURE END LIST*
D10*
X163830000Y-80010000D02*
X161290000Y-80010000D01*
X163830000Y-85090000D02*
X163830000Y-80010000D01*
X161290000Y-85090000D02*
X163830000Y-85090000D01*
X161290000Y-95250000D02*
X161290000Y-85090000D01*
X151765000Y-124460000D02*
G75*
G02X151130000Y-123825000I0J635000D01*
G01*
X151130000Y-95885000D02*
G75*
G02X151765000Y-95250000I635000J0D01*
G01*
X119380000Y-130810000D02*
X120015000Y-130810000D01*
X119380000Y-80010000D02*
X119380000Y-130810000D01*
X120015000Y-80010000D02*
X119380000Y-80010000D01*
X120015000Y-130810000D02*
X120650000Y-130810000D01*
X120650000Y-80010000D02*
X120015000Y-80010000D01*
X163830000Y-130810000D02*
X158750000Y-130810000D01*
X163830000Y-124460000D02*
X163830000Y-130810000D01*
X158750000Y-124460000D02*
X163830000Y-124460000D01*
X161290000Y-80010000D02*
X158750000Y-80010000D01*
X151765000Y-95250000D02*
X161290000Y-95250000D01*
X151130000Y-123825000D02*
X151130000Y-95885000D01*
X158750000Y-124460000D02*
X151765000Y-124460000D01*
X120650000Y-130810000D02*
X158750000Y-130810000D01*
X121920000Y-80010000D02*
X120650000Y-80010000D01*
X158750000Y-80010000D02*
X121920000Y-80010000D01*
M02*
