G04 #@! TF.GenerationSoftware,KiCad,Pcbnew,(5.1.4)-1*
G04 #@! TF.CreationDate,2022-02-17T11:55:16+01:00*
G04 #@! TF.ProjectId,ItsyBitsy_BCU_Connector,49747379-4269-4747-9379-5f4243555f43,V01.00*
G04 #@! TF.SameCoordinates,Original*
G04 #@! TF.FileFunction,Copper,L2,Bot*
G04 #@! TF.FilePolarity,Positive*
%FSLAX46Y46*%
G04 Gerber Fmt 4.6, Leading zero omitted, Abs format (unit mm)*
G04 Created by KiCad (PCBNEW (5.1.4)-1) date 2022-02-17 11:55:16*
%MOMM*%
%LPD*%
G04 APERTURE LIST*
%ADD10O,1.700000X1.700000*%
%ADD11R,1.700000X1.700000*%
%ADD12O,3.600000X2.080000*%
%ADD13C,0.100000*%
%ADD14C,2.080000*%
%ADD15C,2.500000*%
%ADD16R,1.800000X2.500000*%
%ADD17O,2.400000X1.600000*%
%ADD18O,1.600000X2.400000*%
%ADD19R,1.600000X2.400000*%
%ADD20C,0.800000*%
%ADD21C,0.400000*%
%ADD22C,0.254000*%
G04 APERTURE END LIST*
D10*
X205740000Y-91440000D03*
X203200000Y-91440000D03*
X200660000Y-91440000D03*
X198120000Y-91440000D03*
X195580000Y-91440000D03*
X193040000Y-91440000D03*
X190500000Y-91440000D03*
X187960000Y-91440000D03*
X185420000Y-91440000D03*
X182880000Y-91440000D03*
X180340000Y-91440000D03*
X177800000Y-91440000D03*
X175260000Y-91440000D03*
X172720000Y-91440000D03*
X170180000Y-91440000D03*
X167640000Y-91440000D03*
D11*
X165100000Y-91440000D03*
D12*
X147955000Y-86360000D03*
D13*
G36*
X149529505Y-80241204D02*
G01*
X149553773Y-80244804D01*
X149577572Y-80250765D01*
X149600671Y-80259030D01*
X149622850Y-80269520D01*
X149643893Y-80282132D01*
X149663599Y-80296747D01*
X149681777Y-80313223D01*
X149698253Y-80331401D01*
X149712868Y-80351107D01*
X149725480Y-80372150D01*
X149735970Y-80394329D01*
X149744235Y-80417428D01*
X149750196Y-80441227D01*
X149753796Y-80465495D01*
X149755000Y-80489999D01*
X149755000Y-82070001D01*
X149753796Y-82094505D01*
X149750196Y-82118773D01*
X149744235Y-82142572D01*
X149735970Y-82165671D01*
X149725480Y-82187850D01*
X149712868Y-82208893D01*
X149698253Y-82228599D01*
X149681777Y-82246777D01*
X149663599Y-82263253D01*
X149643893Y-82277868D01*
X149622850Y-82290480D01*
X149600671Y-82300970D01*
X149577572Y-82309235D01*
X149553773Y-82315196D01*
X149529505Y-82318796D01*
X149505001Y-82320000D01*
X146404999Y-82320000D01*
X146380495Y-82318796D01*
X146356227Y-82315196D01*
X146332428Y-82309235D01*
X146309329Y-82300970D01*
X146287150Y-82290480D01*
X146266107Y-82277868D01*
X146246401Y-82263253D01*
X146228223Y-82246777D01*
X146211747Y-82228599D01*
X146197132Y-82208893D01*
X146184520Y-82187850D01*
X146174030Y-82165671D01*
X146165765Y-82142572D01*
X146159804Y-82118773D01*
X146156204Y-82094505D01*
X146155000Y-82070001D01*
X146155000Y-80489999D01*
X146156204Y-80465495D01*
X146159804Y-80441227D01*
X146165765Y-80417428D01*
X146174030Y-80394329D01*
X146184520Y-80372150D01*
X146197132Y-80351107D01*
X146211747Y-80331401D01*
X146228223Y-80313223D01*
X146246401Y-80296747D01*
X146266107Y-80282132D01*
X146287150Y-80269520D01*
X146309329Y-80259030D01*
X146332428Y-80250765D01*
X146356227Y-80244804D01*
X146380495Y-80241204D01*
X146404999Y-80240000D01*
X149505001Y-80240000D01*
X149529505Y-80241204D01*
X149529505Y-80241204D01*
G37*
D14*
X147955000Y-81280000D03*
D15*
X146666000Y-72746000D03*
X146666000Y-78496000D03*
D10*
X168910000Y-88900000D03*
X168910000Y-86360000D03*
X168910000Y-83820000D03*
X168910000Y-81280000D03*
X168910000Y-78740000D03*
X168910000Y-76200000D03*
D11*
X168910000Y-73660000D03*
D16*
X150876000Y-77660000D03*
X150876000Y-73660000D03*
D17*
X172720000Y-86360000D03*
X172720000Y-83820000D03*
X172720000Y-81280000D03*
X172720000Y-78740000D03*
X172720000Y-76200000D03*
D18*
X205740000Y-88900000D03*
X172720000Y-73660000D03*
X203200000Y-88900000D03*
X175260000Y-73660000D03*
X200660000Y-88900000D03*
X177800000Y-73660000D03*
X198120000Y-88900000D03*
X180340000Y-73660000D03*
X195580000Y-88900000D03*
X182880000Y-73660000D03*
X193040000Y-88900000D03*
X185420000Y-73660000D03*
X190500000Y-88900000D03*
X187960000Y-73660000D03*
X187960000Y-88900000D03*
X190500000Y-73660000D03*
X185420000Y-88900000D03*
X193040000Y-73660000D03*
X182880000Y-88900000D03*
X195580000Y-73660000D03*
X180340000Y-88900000D03*
X198120000Y-73660000D03*
X177800000Y-88900000D03*
X200660000Y-73660000D03*
X175260000Y-88900000D03*
X203200000Y-73660000D03*
X172720000Y-88900000D03*
D19*
X205740000Y-73660000D03*
D10*
X165100000Y-71120000D03*
X167640000Y-71120000D03*
X170180000Y-71120000D03*
X172720000Y-71120000D03*
X175260000Y-71120000D03*
X177800000Y-71120000D03*
X180340000Y-71120000D03*
X182880000Y-71120000D03*
X185420000Y-71120000D03*
X187960000Y-71120000D03*
X190500000Y-71120000D03*
X193040000Y-71120000D03*
X195580000Y-71120000D03*
X198120000Y-71120000D03*
X200660000Y-71120000D03*
X203200000Y-71120000D03*
D11*
X205740000Y-71120000D03*
D20*
X179070000Y-83820000D03*
X187960000Y-82550000D03*
X190754000Y-78740000D03*
X170688000Y-78994000D03*
X202946000Y-83058000D03*
X200406000Y-83021500D03*
X205486000Y-83021500D03*
X182880000Y-77470000D03*
X188595000Y-76835000D03*
X178435000Y-85725000D03*
X189230000Y-85090000D03*
X198120000Y-83185000D03*
X198120000Y-76835000D03*
X160020000Y-78740000D03*
X160020000Y-86995000D03*
X158115000Y-71755000D03*
X161290000Y-71755000D03*
X163830000Y-76835000D03*
X176530000Y-81280000D03*
X194310000Y-86360000D03*
X177165000Y-76835000D03*
D21*
X171119990Y-81777060D02*
X171892930Y-82550000D01*
X168910000Y-78740000D02*
X171119990Y-80949990D01*
X171119990Y-80949990D02*
X171119990Y-81777060D01*
X171892930Y-82550000D02*
X177800000Y-82550000D01*
X177800000Y-82550000D02*
X179070000Y-83820000D01*
X179070000Y-83820000D02*
X179070000Y-83820000D01*
X190754000Y-79756000D02*
X187960000Y-82550000D01*
X190754000Y-78740000D02*
X190754000Y-79756000D01*
X170688000Y-79248000D02*
X172720000Y-81280000D01*
X170688000Y-78994000D02*
X170688000Y-79248000D01*
X172720000Y-88500000D02*
X172720000Y-88900000D01*
X170160001Y-85940001D02*
X172720000Y-88500000D01*
X170160001Y-85070001D02*
X170160001Y-85940001D01*
X168910000Y-83820000D02*
X170160001Y-85070001D01*
X175260000Y-87300000D02*
X175260000Y-88900000D01*
X173617060Y-85159990D02*
X175260000Y-86802930D01*
X175260000Y-86802930D02*
X175260000Y-87300000D01*
X171962920Y-85159990D02*
X173617060Y-85159990D01*
X170160001Y-83357071D02*
X171962920Y-85159990D01*
X170160001Y-82530001D02*
X170160001Y-83357071D01*
X168910000Y-81280000D02*
X170160001Y-82530001D01*
X205486000Y-83021500D02*
X200406000Y-83021500D01*
X202946000Y-88646000D02*
X203200000Y-88900000D01*
X203200000Y-88500000D02*
X203200000Y-88900000D01*
X202615990Y-87299990D02*
X202946000Y-87630000D01*
X202946000Y-87630000D02*
X202946000Y-88646000D01*
X202946000Y-83058000D02*
X202946000Y-87630000D01*
X168910000Y-76200000D02*
X170622930Y-76200000D01*
X170622930Y-76200000D02*
X171892930Y-77470000D01*
X187629990Y-87299990D02*
X202615990Y-87299990D01*
X171892930Y-77470000D02*
X177800000Y-77470000D01*
X177800000Y-77470000D02*
X187629990Y-87299990D01*
X147580000Y-73660000D02*
X146666000Y-72746000D01*
X150876000Y-73660000D02*
X147580000Y-73660000D01*
X150876000Y-77660000D02*
X150876000Y-78486000D01*
X168910000Y-73660000D02*
X159512000Y-73660000D01*
X155512000Y-77660000D02*
X150876000Y-77660000D01*
X159512000Y-73660000D02*
X155512000Y-77660000D01*
X150040000Y-78496000D02*
X150876000Y-77660000D01*
X146666000Y-78496000D02*
X150040000Y-78496000D01*
X146666000Y-79991000D02*
X147955000Y-81280000D01*
X146666000Y-78496000D02*
X146666000Y-79991000D01*
D22*
G36*
X171479294Y-71949014D02*
G01*
X171664866Y-72175134D01*
X171722388Y-72222341D01*
X171700393Y-72240392D01*
X171521068Y-72458899D01*
X171387818Y-72708192D01*
X171305764Y-72978691D01*
X171285000Y-73189508D01*
X171285000Y-74130491D01*
X171305764Y-74341308D01*
X171387818Y-74611807D01*
X171521068Y-74861100D01*
X171600251Y-74957585D01*
X171518899Y-75001068D01*
X171300392Y-75180392D01*
X171121068Y-75398899D01*
X170987818Y-75648192D01*
X170905764Y-75918691D01*
X170878057Y-76200000D01*
X170905764Y-76481309D01*
X170987818Y-76751808D01*
X171121068Y-77001101D01*
X171300392Y-77219608D01*
X171518899Y-77398932D01*
X171651858Y-77470000D01*
X171518899Y-77541068D01*
X171300392Y-77720392D01*
X171121068Y-77938899D01*
X171071088Y-78032404D01*
X170989898Y-77998774D01*
X170789939Y-77959000D01*
X170586061Y-77959000D01*
X170386102Y-77998774D01*
X170231794Y-78062691D01*
X170150706Y-77910986D01*
X169965134Y-77684866D01*
X169739014Y-77499294D01*
X169674477Y-77464799D01*
X169791355Y-77395178D01*
X170007588Y-77200269D01*
X170181641Y-76966920D01*
X170306825Y-76704099D01*
X170351476Y-76556890D01*
X170230155Y-76327000D01*
X169037000Y-76327000D01*
X169037000Y-76347000D01*
X168783000Y-76347000D01*
X168783000Y-76327000D01*
X167589845Y-76327000D01*
X167468524Y-76556890D01*
X167513175Y-76704099D01*
X167638359Y-76966920D01*
X167812412Y-77200269D01*
X168028645Y-77395178D01*
X168145523Y-77464799D01*
X168080986Y-77499294D01*
X167854866Y-77684866D01*
X167669294Y-77910986D01*
X167531401Y-78168966D01*
X167446487Y-78448889D01*
X167417815Y-78740000D01*
X167446487Y-79031111D01*
X167531401Y-79311034D01*
X167669294Y-79569014D01*
X167854866Y-79795134D01*
X168080986Y-79980706D01*
X168135791Y-80010000D01*
X168080986Y-80039294D01*
X167854866Y-80224866D01*
X167669294Y-80450986D01*
X167531401Y-80708966D01*
X167446487Y-80988889D01*
X167417815Y-81280000D01*
X167446487Y-81571111D01*
X167531401Y-81851034D01*
X167669294Y-82109014D01*
X167854866Y-82335134D01*
X168080986Y-82520706D01*
X168135791Y-82550000D01*
X168080986Y-82579294D01*
X167854866Y-82764866D01*
X167669294Y-82990986D01*
X167531401Y-83248966D01*
X167446487Y-83528889D01*
X167417815Y-83820000D01*
X167446487Y-84111111D01*
X167531401Y-84391034D01*
X167669294Y-84649014D01*
X167854866Y-84875134D01*
X168080986Y-85060706D01*
X168135791Y-85090000D01*
X168080986Y-85119294D01*
X167854866Y-85304866D01*
X167669294Y-85530986D01*
X167531401Y-85788966D01*
X167446487Y-86068889D01*
X167417815Y-86360000D01*
X167446487Y-86651111D01*
X167531401Y-86931034D01*
X167669294Y-87189014D01*
X167854866Y-87415134D01*
X168080986Y-87600706D01*
X168135791Y-87630000D01*
X168080986Y-87659294D01*
X167854866Y-87844866D01*
X167669294Y-88070986D01*
X167531401Y-88328966D01*
X167446487Y-88608889D01*
X167417815Y-88900000D01*
X167446487Y-89191111D01*
X167531401Y-89471034D01*
X167669294Y-89729014D01*
X167854866Y-89955134D01*
X167874035Y-89970865D01*
X167712950Y-89955000D01*
X167567050Y-89955000D01*
X167348889Y-89976487D01*
X167068966Y-90061401D01*
X166810986Y-90199294D01*
X166584866Y-90384866D01*
X166560393Y-90414687D01*
X166539502Y-90345820D01*
X166480537Y-90235506D01*
X166401185Y-90138815D01*
X166304494Y-90059463D01*
X166194180Y-90000498D01*
X166074482Y-89964188D01*
X165950000Y-89951928D01*
X164250000Y-89951928D01*
X164125518Y-89964188D01*
X164005820Y-90000498D01*
X163895506Y-90059463D01*
X163798815Y-90138815D01*
X163719463Y-90235506D01*
X163660498Y-90345820D01*
X163624188Y-90465518D01*
X163611928Y-90590000D01*
X163611928Y-91948000D01*
X156337000Y-91948000D01*
X156337000Y-78015867D01*
X159857868Y-74495000D01*
X167421928Y-74495000D01*
X167421928Y-74510000D01*
X167434188Y-74634482D01*
X167470498Y-74754180D01*
X167529463Y-74864494D01*
X167608815Y-74961185D01*
X167705506Y-75040537D01*
X167815820Y-75099502D01*
X167896466Y-75123966D01*
X167812412Y-75199731D01*
X167638359Y-75433080D01*
X167513175Y-75695901D01*
X167468524Y-75843110D01*
X167589845Y-76073000D01*
X168783000Y-76073000D01*
X168783000Y-76053000D01*
X169037000Y-76053000D01*
X169037000Y-76073000D01*
X170230155Y-76073000D01*
X170351476Y-75843110D01*
X170306825Y-75695901D01*
X170181641Y-75433080D01*
X170007588Y-75199731D01*
X169923534Y-75123966D01*
X170004180Y-75099502D01*
X170114494Y-75040537D01*
X170211185Y-74961185D01*
X170290537Y-74864494D01*
X170349502Y-74754180D01*
X170385812Y-74634482D01*
X170398072Y-74510000D01*
X170398072Y-72810000D01*
X170385812Y-72685518D01*
X170358241Y-72594630D01*
X170471111Y-72583513D01*
X170751034Y-72498599D01*
X171009014Y-72360706D01*
X171235134Y-72175134D01*
X171420706Y-71949014D01*
X171450000Y-71894209D01*
X171479294Y-71949014D01*
X171479294Y-71949014D01*
G37*
X171479294Y-71949014D02*
X171664866Y-72175134D01*
X171722388Y-72222341D01*
X171700393Y-72240392D01*
X171521068Y-72458899D01*
X171387818Y-72708192D01*
X171305764Y-72978691D01*
X171285000Y-73189508D01*
X171285000Y-74130491D01*
X171305764Y-74341308D01*
X171387818Y-74611807D01*
X171521068Y-74861100D01*
X171600251Y-74957585D01*
X171518899Y-75001068D01*
X171300392Y-75180392D01*
X171121068Y-75398899D01*
X170987818Y-75648192D01*
X170905764Y-75918691D01*
X170878057Y-76200000D01*
X170905764Y-76481309D01*
X170987818Y-76751808D01*
X171121068Y-77001101D01*
X171300392Y-77219608D01*
X171518899Y-77398932D01*
X171651858Y-77470000D01*
X171518899Y-77541068D01*
X171300392Y-77720392D01*
X171121068Y-77938899D01*
X171071088Y-78032404D01*
X170989898Y-77998774D01*
X170789939Y-77959000D01*
X170586061Y-77959000D01*
X170386102Y-77998774D01*
X170231794Y-78062691D01*
X170150706Y-77910986D01*
X169965134Y-77684866D01*
X169739014Y-77499294D01*
X169674477Y-77464799D01*
X169791355Y-77395178D01*
X170007588Y-77200269D01*
X170181641Y-76966920D01*
X170306825Y-76704099D01*
X170351476Y-76556890D01*
X170230155Y-76327000D01*
X169037000Y-76327000D01*
X169037000Y-76347000D01*
X168783000Y-76347000D01*
X168783000Y-76327000D01*
X167589845Y-76327000D01*
X167468524Y-76556890D01*
X167513175Y-76704099D01*
X167638359Y-76966920D01*
X167812412Y-77200269D01*
X168028645Y-77395178D01*
X168145523Y-77464799D01*
X168080986Y-77499294D01*
X167854866Y-77684866D01*
X167669294Y-77910986D01*
X167531401Y-78168966D01*
X167446487Y-78448889D01*
X167417815Y-78740000D01*
X167446487Y-79031111D01*
X167531401Y-79311034D01*
X167669294Y-79569014D01*
X167854866Y-79795134D01*
X168080986Y-79980706D01*
X168135791Y-80010000D01*
X168080986Y-80039294D01*
X167854866Y-80224866D01*
X167669294Y-80450986D01*
X167531401Y-80708966D01*
X167446487Y-80988889D01*
X167417815Y-81280000D01*
X167446487Y-81571111D01*
X167531401Y-81851034D01*
X167669294Y-82109014D01*
X167854866Y-82335134D01*
X168080986Y-82520706D01*
X168135791Y-82550000D01*
X168080986Y-82579294D01*
X167854866Y-82764866D01*
X167669294Y-82990986D01*
X167531401Y-83248966D01*
X167446487Y-83528889D01*
X167417815Y-83820000D01*
X167446487Y-84111111D01*
X167531401Y-84391034D01*
X167669294Y-84649014D01*
X167854866Y-84875134D01*
X168080986Y-85060706D01*
X168135791Y-85090000D01*
X168080986Y-85119294D01*
X167854866Y-85304866D01*
X167669294Y-85530986D01*
X167531401Y-85788966D01*
X167446487Y-86068889D01*
X167417815Y-86360000D01*
X167446487Y-86651111D01*
X167531401Y-86931034D01*
X167669294Y-87189014D01*
X167854866Y-87415134D01*
X168080986Y-87600706D01*
X168135791Y-87630000D01*
X168080986Y-87659294D01*
X167854866Y-87844866D01*
X167669294Y-88070986D01*
X167531401Y-88328966D01*
X167446487Y-88608889D01*
X167417815Y-88900000D01*
X167446487Y-89191111D01*
X167531401Y-89471034D01*
X167669294Y-89729014D01*
X167854866Y-89955134D01*
X167874035Y-89970865D01*
X167712950Y-89955000D01*
X167567050Y-89955000D01*
X167348889Y-89976487D01*
X167068966Y-90061401D01*
X166810986Y-90199294D01*
X166584866Y-90384866D01*
X166560393Y-90414687D01*
X166539502Y-90345820D01*
X166480537Y-90235506D01*
X166401185Y-90138815D01*
X166304494Y-90059463D01*
X166194180Y-90000498D01*
X166074482Y-89964188D01*
X165950000Y-89951928D01*
X164250000Y-89951928D01*
X164125518Y-89964188D01*
X164005820Y-90000498D01*
X163895506Y-90059463D01*
X163798815Y-90138815D01*
X163719463Y-90235506D01*
X163660498Y-90345820D01*
X163624188Y-90465518D01*
X163611928Y-90590000D01*
X163611928Y-91948000D01*
X156337000Y-91948000D01*
X156337000Y-78015867D01*
X159857868Y-74495000D01*
X167421928Y-74495000D01*
X167421928Y-74510000D01*
X167434188Y-74634482D01*
X167470498Y-74754180D01*
X167529463Y-74864494D01*
X167608815Y-74961185D01*
X167705506Y-75040537D01*
X167815820Y-75099502D01*
X167896466Y-75123966D01*
X167812412Y-75199731D01*
X167638359Y-75433080D01*
X167513175Y-75695901D01*
X167468524Y-75843110D01*
X167589845Y-76073000D01*
X168783000Y-76073000D01*
X168783000Y-76053000D01*
X169037000Y-76053000D01*
X169037000Y-76073000D01*
X170230155Y-76073000D01*
X170351476Y-75843110D01*
X170306825Y-75695901D01*
X170181641Y-75433080D01*
X170007588Y-75199731D01*
X169923534Y-75123966D01*
X170004180Y-75099502D01*
X170114494Y-75040537D01*
X170211185Y-74961185D01*
X170290537Y-74864494D01*
X170349502Y-74754180D01*
X170385812Y-74634482D01*
X170398072Y-74510000D01*
X170398072Y-72810000D01*
X170385812Y-72685518D01*
X170358241Y-72594630D01*
X170471111Y-72583513D01*
X170751034Y-72498599D01*
X171009014Y-72360706D01*
X171235134Y-72175134D01*
X171420706Y-71949014D01*
X171450000Y-71894209D01*
X171479294Y-71949014D01*
G36*
X202001068Y-74861100D02*
G01*
X202180392Y-75079607D01*
X202398899Y-75258932D01*
X202648192Y-75392182D01*
X202918691Y-75474236D01*
X203200000Y-75501943D01*
X203481308Y-75474236D01*
X203751807Y-75392182D01*
X204001100Y-75258932D01*
X204219607Y-75079608D01*
X204312419Y-74966517D01*
X204314188Y-74984482D01*
X204350498Y-75104180D01*
X204409463Y-75214494D01*
X204488815Y-75311185D01*
X204585506Y-75390537D01*
X204695820Y-75449502D01*
X204815518Y-75485812D01*
X204940000Y-75498072D01*
X206248000Y-75498072D01*
X206248000Y-87154529D01*
X206021309Y-87085764D01*
X205740000Y-87058057D01*
X205458692Y-87085764D01*
X205188193Y-87167818D01*
X204938900Y-87301068D01*
X204720393Y-87480392D01*
X204541068Y-87698899D01*
X204472735Y-87826741D01*
X204322601Y-87597161D01*
X204124895Y-87395500D01*
X203891646Y-87236285D01*
X203631818Y-87125633D01*
X203549039Y-87108096D01*
X203327000Y-87230085D01*
X203327000Y-88773000D01*
X203347000Y-88773000D01*
X203347000Y-89027000D01*
X203327000Y-89027000D01*
X203327000Y-91313000D01*
X203347000Y-91313000D01*
X203347000Y-91567000D01*
X203327000Y-91567000D01*
X203327000Y-91587000D01*
X203073000Y-91587000D01*
X203073000Y-91567000D01*
X203053000Y-91567000D01*
X203053000Y-91313000D01*
X203073000Y-91313000D01*
X203073000Y-89027000D01*
X203053000Y-89027000D01*
X203053000Y-88773000D01*
X203073000Y-88773000D01*
X203073000Y-87230085D01*
X202850961Y-87108096D01*
X202768182Y-87125633D01*
X202508354Y-87236285D01*
X202275105Y-87395500D01*
X202077399Y-87597161D01*
X201927265Y-87826741D01*
X201858932Y-87698899D01*
X201679608Y-87480392D01*
X201461101Y-87301068D01*
X201211808Y-87167818D01*
X200941309Y-87085764D01*
X200660000Y-87058057D01*
X200378692Y-87085764D01*
X200108193Y-87167818D01*
X199858900Y-87301068D01*
X199640393Y-87480392D01*
X199461068Y-87698899D01*
X199390000Y-87831858D01*
X199318932Y-87698899D01*
X199139608Y-87480392D01*
X198921101Y-87301068D01*
X198671808Y-87167818D01*
X198401309Y-87085764D01*
X198120000Y-87058057D01*
X197838692Y-87085764D01*
X197568193Y-87167818D01*
X197318900Y-87301068D01*
X197100393Y-87480392D01*
X196921068Y-87698899D01*
X196850000Y-87831858D01*
X196778932Y-87698899D01*
X196599608Y-87480392D01*
X196381101Y-87301068D01*
X196131808Y-87167818D01*
X195861309Y-87085764D01*
X195580000Y-87058057D01*
X195298692Y-87085764D01*
X195028193Y-87167818D01*
X194778900Y-87301068D01*
X194560393Y-87480392D01*
X194381068Y-87698899D01*
X194310000Y-87831858D01*
X194238932Y-87698899D01*
X194059608Y-87480392D01*
X193841101Y-87301068D01*
X193591808Y-87167818D01*
X193321309Y-87085764D01*
X193040000Y-87058057D01*
X192758692Y-87085764D01*
X192488193Y-87167818D01*
X192238900Y-87301068D01*
X192020393Y-87480392D01*
X191841068Y-87698899D01*
X191770000Y-87831858D01*
X191698932Y-87698899D01*
X191519608Y-87480392D01*
X191301101Y-87301068D01*
X191051808Y-87167818D01*
X190781309Y-87085764D01*
X190500000Y-87058057D01*
X190218692Y-87085764D01*
X189948193Y-87167818D01*
X189698900Y-87301068D01*
X189480393Y-87480392D01*
X189301068Y-87698899D01*
X189230000Y-87831858D01*
X189158932Y-87698899D01*
X188979608Y-87480392D01*
X188761101Y-87301068D01*
X188511808Y-87167818D01*
X188241309Y-87085764D01*
X187960000Y-87058057D01*
X187678692Y-87085764D01*
X187408193Y-87167818D01*
X187158900Y-87301068D01*
X186940393Y-87480392D01*
X186761068Y-87698899D01*
X186690000Y-87831858D01*
X186618932Y-87698899D01*
X186439608Y-87480392D01*
X186221101Y-87301068D01*
X185971808Y-87167818D01*
X185701309Y-87085764D01*
X185420000Y-87058057D01*
X185138692Y-87085764D01*
X184868193Y-87167818D01*
X184618900Y-87301068D01*
X184400393Y-87480392D01*
X184221068Y-87698899D01*
X184150000Y-87831858D01*
X184078932Y-87698899D01*
X183899608Y-87480392D01*
X183681101Y-87301068D01*
X183431808Y-87167818D01*
X183161309Y-87085764D01*
X182880000Y-87058057D01*
X182598692Y-87085764D01*
X182328193Y-87167818D01*
X182078900Y-87301068D01*
X181860393Y-87480392D01*
X181681068Y-87698899D01*
X181610000Y-87831858D01*
X181538932Y-87698899D01*
X181359608Y-87480392D01*
X181141101Y-87301068D01*
X180891808Y-87167818D01*
X180621309Y-87085764D01*
X180340000Y-87058057D01*
X180058692Y-87085764D01*
X179788193Y-87167818D01*
X179538900Y-87301068D01*
X179320393Y-87480392D01*
X179141068Y-87698899D01*
X179070000Y-87831858D01*
X178998932Y-87698899D01*
X178819608Y-87480392D01*
X178601101Y-87301068D01*
X178351808Y-87167818D01*
X178081309Y-87085764D01*
X177800000Y-87058057D01*
X177518692Y-87085764D01*
X177248193Y-87167818D01*
X176998900Y-87301068D01*
X176780393Y-87480392D01*
X176601068Y-87698899D01*
X176530000Y-87831858D01*
X176458932Y-87698899D01*
X176279608Y-87480392D01*
X176095000Y-87328888D01*
X176095000Y-86843948D01*
X176099040Y-86802929D01*
X176082918Y-86639241D01*
X176035172Y-86481843D01*
X175957636Y-86336784D01*
X175895513Y-86261087D01*
X175853291Y-86209639D01*
X175821428Y-86183490D01*
X174291935Y-84653997D01*
X174318932Y-84621101D01*
X174452182Y-84371808D01*
X174534236Y-84101309D01*
X174561943Y-83820000D01*
X174534236Y-83538691D01*
X174487615Y-83385000D01*
X177454133Y-83385000D01*
X178045908Y-83976775D01*
X178074774Y-84121898D01*
X178152795Y-84310256D01*
X178266063Y-84479774D01*
X178410226Y-84623937D01*
X178579744Y-84737205D01*
X178768102Y-84815226D01*
X178968061Y-84855000D01*
X179171939Y-84855000D01*
X179371898Y-84815226D01*
X179560256Y-84737205D01*
X179729774Y-84623937D01*
X179873937Y-84479774D01*
X179987205Y-84310256D01*
X180065226Y-84121898D01*
X180105000Y-83921939D01*
X180105000Y-83718061D01*
X180065226Y-83518102D01*
X179987205Y-83329744D01*
X179873937Y-83160226D01*
X179729774Y-83016063D01*
X179560256Y-82902795D01*
X179371898Y-82824774D01*
X179226775Y-82795908D01*
X178878928Y-82448061D01*
X186925000Y-82448061D01*
X186925000Y-82651939D01*
X186964774Y-82851898D01*
X187042795Y-83040256D01*
X187156063Y-83209774D01*
X187300226Y-83353937D01*
X187469744Y-83467205D01*
X187658102Y-83545226D01*
X187858061Y-83585000D01*
X188061939Y-83585000D01*
X188261898Y-83545226D01*
X188450256Y-83467205D01*
X188619774Y-83353937D01*
X188763937Y-83209774D01*
X188877205Y-83040256D01*
X188955226Y-82851898D01*
X188984093Y-82706775D01*
X191315432Y-80375437D01*
X191347291Y-80349291D01*
X191420249Y-80260392D01*
X191451636Y-80222146D01*
X191529172Y-80077087D01*
X191569047Y-79945636D01*
X191576918Y-79919689D01*
X191589000Y-79797019D01*
X191589000Y-79797018D01*
X191593040Y-79756000D01*
X191589000Y-79714982D01*
X191589000Y-79353285D01*
X191671205Y-79230256D01*
X191749226Y-79041898D01*
X191789000Y-78841939D01*
X191789000Y-78638061D01*
X191749226Y-78438102D01*
X191671205Y-78249744D01*
X191557937Y-78080226D01*
X191413774Y-77936063D01*
X191244256Y-77822795D01*
X191055898Y-77744774D01*
X190855939Y-77705000D01*
X190652061Y-77705000D01*
X190452102Y-77744774D01*
X190263744Y-77822795D01*
X190094226Y-77936063D01*
X189950063Y-78080226D01*
X189836795Y-78249744D01*
X189758774Y-78438102D01*
X189719000Y-78638061D01*
X189719000Y-78841939D01*
X189758774Y-79041898D01*
X189836795Y-79230256D01*
X189919001Y-79353286D01*
X189919001Y-79410131D01*
X187803225Y-81525907D01*
X187658102Y-81554774D01*
X187469744Y-81632795D01*
X187300226Y-81746063D01*
X187156063Y-81890226D01*
X187042795Y-82059744D01*
X186964774Y-82248102D01*
X186925000Y-82448061D01*
X178878928Y-82448061D01*
X178419446Y-81988579D01*
X178393291Y-81956709D01*
X178266146Y-81852364D01*
X178121087Y-81774828D01*
X177963689Y-81727082D01*
X177841019Y-81715000D01*
X177841018Y-81715000D01*
X177800000Y-81710960D01*
X177758982Y-81715000D01*
X174487615Y-81715000D01*
X174534236Y-81561309D01*
X174561943Y-81280000D01*
X174534236Y-80998691D01*
X174452182Y-80728192D01*
X174318932Y-80478899D01*
X174139608Y-80260392D01*
X173921101Y-80081068D01*
X173788142Y-80010000D01*
X173921101Y-79938932D01*
X174139608Y-79759608D01*
X174318932Y-79541101D01*
X174452182Y-79291808D01*
X174534236Y-79021309D01*
X174561943Y-78740000D01*
X174534236Y-78458691D01*
X174452182Y-78188192D01*
X174318932Y-77938899D01*
X174139608Y-77720392D01*
X173921101Y-77541068D01*
X173788142Y-77470000D01*
X173921101Y-77398932D01*
X174139608Y-77219608D01*
X174318932Y-77001101D01*
X174452182Y-76751808D01*
X174534236Y-76481309D01*
X174561943Y-76200000D01*
X174534236Y-75918691D01*
X174452182Y-75648192D01*
X174318932Y-75398899D01*
X174139608Y-75180392D01*
X173921101Y-75001068D01*
X173839749Y-74957585D01*
X173918932Y-74861101D01*
X173990000Y-74728142D01*
X174061068Y-74861100D01*
X174240392Y-75079607D01*
X174458899Y-75258932D01*
X174708192Y-75392182D01*
X174978691Y-75474236D01*
X175260000Y-75501943D01*
X175541308Y-75474236D01*
X175811807Y-75392182D01*
X176061100Y-75258932D01*
X176279607Y-75079608D01*
X176458932Y-74861101D01*
X176530000Y-74728142D01*
X176601068Y-74861100D01*
X176780392Y-75079607D01*
X176998899Y-75258932D01*
X177248192Y-75392182D01*
X177518691Y-75474236D01*
X177800000Y-75501943D01*
X178081308Y-75474236D01*
X178351807Y-75392182D01*
X178601100Y-75258932D01*
X178819607Y-75079608D01*
X178998932Y-74861101D01*
X179070000Y-74728142D01*
X179141068Y-74861100D01*
X179320392Y-75079607D01*
X179538899Y-75258932D01*
X179788192Y-75392182D01*
X180058691Y-75474236D01*
X180340000Y-75501943D01*
X180621308Y-75474236D01*
X180891807Y-75392182D01*
X181141100Y-75258932D01*
X181359607Y-75079608D01*
X181538932Y-74861101D01*
X181610000Y-74728142D01*
X181681068Y-74861100D01*
X181860392Y-75079607D01*
X182078899Y-75258932D01*
X182328192Y-75392182D01*
X182598691Y-75474236D01*
X182880000Y-75501943D01*
X183161308Y-75474236D01*
X183431807Y-75392182D01*
X183681100Y-75258932D01*
X183899607Y-75079608D01*
X184078932Y-74861101D01*
X184150000Y-74728142D01*
X184221068Y-74861100D01*
X184400392Y-75079607D01*
X184618899Y-75258932D01*
X184868192Y-75392182D01*
X185138691Y-75474236D01*
X185420000Y-75501943D01*
X185701308Y-75474236D01*
X185971807Y-75392182D01*
X186221100Y-75258932D01*
X186439607Y-75079608D01*
X186618932Y-74861101D01*
X186690000Y-74728142D01*
X186761068Y-74861100D01*
X186940392Y-75079607D01*
X187158899Y-75258932D01*
X187408192Y-75392182D01*
X187678691Y-75474236D01*
X187960000Y-75501943D01*
X188241308Y-75474236D01*
X188511807Y-75392182D01*
X188761100Y-75258932D01*
X188979607Y-75079608D01*
X189158932Y-74861101D01*
X189230000Y-74728142D01*
X189301068Y-74861100D01*
X189480392Y-75079607D01*
X189698899Y-75258932D01*
X189948192Y-75392182D01*
X190218691Y-75474236D01*
X190500000Y-75501943D01*
X190781308Y-75474236D01*
X191051807Y-75392182D01*
X191301100Y-75258932D01*
X191519607Y-75079608D01*
X191698932Y-74861101D01*
X191770000Y-74728142D01*
X191841068Y-74861100D01*
X192020392Y-75079607D01*
X192238899Y-75258932D01*
X192488192Y-75392182D01*
X192758691Y-75474236D01*
X193040000Y-75501943D01*
X193321308Y-75474236D01*
X193591807Y-75392182D01*
X193841100Y-75258932D01*
X194059607Y-75079608D01*
X194238932Y-74861101D01*
X194310000Y-74728142D01*
X194381068Y-74861100D01*
X194560392Y-75079607D01*
X194778899Y-75258932D01*
X195028192Y-75392182D01*
X195298691Y-75474236D01*
X195580000Y-75501943D01*
X195861308Y-75474236D01*
X196131807Y-75392182D01*
X196381100Y-75258932D01*
X196599607Y-75079608D01*
X196778932Y-74861101D01*
X196850000Y-74728142D01*
X196921068Y-74861100D01*
X197100392Y-75079607D01*
X197318899Y-75258932D01*
X197568192Y-75392182D01*
X197838691Y-75474236D01*
X198120000Y-75501943D01*
X198401308Y-75474236D01*
X198671807Y-75392182D01*
X198921100Y-75258932D01*
X199139607Y-75079608D01*
X199318932Y-74861101D01*
X199390000Y-74728142D01*
X199461068Y-74861100D01*
X199640392Y-75079607D01*
X199858899Y-75258932D01*
X200108192Y-75392182D01*
X200378691Y-75474236D01*
X200660000Y-75501943D01*
X200941308Y-75474236D01*
X201211807Y-75392182D01*
X201461100Y-75258932D01*
X201679607Y-75079608D01*
X201858932Y-74861101D01*
X201930000Y-74728142D01*
X202001068Y-74861100D01*
X202001068Y-74861100D01*
G37*
X202001068Y-74861100D02*
X202180392Y-75079607D01*
X202398899Y-75258932D01*
X202648192Y-75392182D01*
X202918691Y-75474236D01*
X203200000Y-75501943D01*
X203481308Y-75474236D01*
X203751807Y-75392182D01*
X204001100Y-75258932D01*
X204219607Y-75079608D01*
X204312419Y-74966517D01*
X204314188Y-74984482D01*
X204350498Y-75104180D01*
X204409463Y-75214494D01*
X204488815Y-75311185D01*
X204585506Y-75390537D01*
X204695820Y-75449502D01*
X204815518Y-75485812D01*
X204940000Y-75498072D01*
X206248000Y-75498072D01*
X206248000Y-87154529D01*
X206021309Y-87085764D01*
X205740000Y-87058057D01*
X205458692Y-87085764D01*
X205188193Y-87167818D01*
X204938900Y-87301068D01*
X204720393Y-87480392D01*
X204541068Y-87698899D01*
X204472735Y-87826741D01*
X204322601Y-87597161D01*
X204124895Y-87395500D01*
X203891646Y-87236285D01*
X203631818Y-87125633D01*
X203549039Y-87108096D01*
X203327000Y-87230085D01*
X203327000Y-88773000D01*
X203347000Y-88773000D01*
X203347000Y-89027000D01*
X203327000Y-89027000D01*
X203327000Y-91313000D01*
X203347000Y-91313000D01*
X203347000Y-91567000D01*
X203327000Y-91567000D01*
X203327000Y-91587000D01*
X203073000Y-91587000D01*
X203073000Y-91567000D01*
X203053000Y-91567000D01*
X203053000Y-91313000D01*
X203073000Y-91313000D01*
X203073000Y-89027000D01*
X203053000Y-89027000D01*
X203053000Y-88773000D01*
X203073000Y-88773000D01*
X203073000Y-87230085D01*
X202850961Y-87108096D01*
X202768182Y-87125633D01*
X202508354Y-87236285D01*
X202275105Y-87395500D01*
X202077399Y-87597161D01*
X201927265Y-87826741D01*
X201858932Y-87698899D01*
X201679608Y-87480392D01*
X201461101Y-87301068D01*
X201211808Y-87167818D01*
X200941309Y-87085764D01*
X200660000Y-87058057D01*
X200378692Y-87085764D01*
X200108193Y-87167818D01*
X199858900Y-87301068D01*
X199640393Y-87480392D01*
X199461068Y-87698899D01*
X199390000Y-87831858D01*
X199318932Y-87698899D01*
X199139608Y-87480392D01*
X198921101Y-87301068D01*
X198671808Y-87167818D01*
X198401309Y-87085764D01*
X198120000Y-87058057D01*
X197838692Y-87085764D01*
X197568193Y-87167818D01*
X197318900Y-87301068D01*
X197100393Y-87480392D01*
X196921068Y-87698899D01*
X196850000Y-87831858D01*
X196778932Y-87698899D01*
X196599608Y-87480392D01*
X196381101Y-87301068D01*
X196131808Y-87167818D01*
X195861309Y-87085764D01*
X195580000Y-87058057D01*
X195298692Y-87085764D01*
X195028193Y-87167818D01*
X194778900Y-87301068D01*
X194560393Y-87480392D01*
X194381068Y-87698899D01*
X194310000Y-87831858D01*
X194238932Y-87698899D01*
X194059608Y-87480392D01*
X193841101Y-87301068D01*
X193591808Y-87167818D01*
X193321309Y-87085764D01*
X193040000Y-87058057D01*
X192758692Y-87085764D01*
X192488193Y-87167818D01*
X192238900Y-87301068D01*
X192020393Y-87480392D01*
X191841068Y-87698899D01*
X191770000Y-87831858D01*
X191698932Y-87698899D01*
X191519608Y-87480392D01*
X191301101Y-87301068D01*
X191051808Y-87167818D01*
X190781309Y-87085764D01*
X190500000Y-87058057D01*
X190218692Y-87085764D01*
X189948193Y-87167818D01*
X189698900Y-87301068D01*
X189480393Y-87480392D01*
X189301068Y-87698899D01*
X189230000Y-87831858D01*
X189158932Y-87698899D01*
X188979608Y-87480392D01*
X188761101Y-87301068D01*
X188511808Y-87167818D01*
X188241309Y-87085764D01*
X187960000Y-87058057D01*
X187678692Y-87085764D01*
X187408193Y-87167818D01*
X187158900Y-87301068D01*
X186940393Y-87480392D01*
X186761068Y-87698899D01*
X186690000Y-87831858D01*
X186618932Y-87698899D01*
X186439608Y-87480392D01*
X186221101Y-87301068D01*
X185971808Y-87167818D01*
X185701309Y-87085764D01*
X185420000Y-87058057D01*
X185138692Y-87085764D01*
X184868193Y-87167818D01*
X184618900Y-87301068D01*
X184400393Y-87480392D01*
X184221068Y-87698899D01*
X184150000Y-87831858D01*
X184078932Y-87698899D01*
X183899608Y-87480392D01*
X183681101Y-87301068D01*
X183431808Y-87167818D01*
X183161309Y-87085764D01*
X182880000Y-87058057D01*
X182598692Y-87085764D01*
X182328193Y-87167818D01*
X182078900Y-87301068D01*
X181860393Y-87480392D01*
X181681068Y-87698899D01*
X181610000Y-87831858D01*
X181538932Y-87698899D01*
X181359608Y-87480392D01*
X181141101Y-87301068D01*
X180891808Y-87167818D01*
X180621309Y-87085764D01*
X180340000Y-87058057D01*
X180058692Y-87085764D01*
X179788193Y-87167818D01*
X179538900Y-87301068D01*
X179320393Y-87480392D01*
X179141068Y-87698899D01*
X179070000Y-87831858D01*
X178998932Y-87698899D01*
X178819608Y-87480392D01*
X178601101Y-87301068D01*
X178351808Y-87167818D01*
X178081309Y-87085764D01*
X177800000Y-87058057D01*
X177518692Y-87085764D01*
X177248193Y-87167818D01*
X176998900Y-87301068D01*
X176780393Y-87480392D01*
X176601068Y-87698899D01*
X176530000Y-87831858D01*
X176458932Y-87698899D01*
X176279608Y-87480392D01*
X176095000Y-87328888D01*
X176095000Y-86843948D01*
X176099040Y-86802929D01*
X176082918Y-86639241D01*
X176035172Y-86481843D01*
X175957636Y-86336784D01*
X175895513Y-86261087D01*
X175853291Y-86209639D01*
X175821428Y-86183490D01*
X174291935Y-84653997D01*
X174318932Y-84621101D01*
X174452182Y-84371808D01*
X174534236Y-84101309D01*
X174561943Y-83820000D01*
X174534236Y-83538691D01*
X174487615Y-83385000D01*
X177454133Y-83385000D01*
X178045908Y-83976775D01*
X178074774Y-84121898D01*
X178152795Y-84310256D01*
X178266063Y-84479774D01*
X178410226Y-84623937D01*
X178579744Y-84737205D01*
X178768102Y-84815226D01*
X178968061Y-84855000D01*
X179171939Y-84855000D01*
X179371898Y-84815226D01*
X179560256Y-84737205D01*
X179729774Y-84623937D01*
X179873937Y-84479774D01*
X179987205Y-84310256D01*
X180065226Y-84121898D01*
X180105000Y-83921939D01*
X180105000Y-83718061D01*
X180065226Y-83518102D01*
X179987205Y-83329744D01*
X179873937Y-83160226D01*
X179729774Y-83016063D01*
X179560256Y-82902795D01*
X179371898Y-82824774D01*
X179226775Y-82795908D01*
X178878928Y-82448061D01*
X186925000Y-82448061D01*
X186925000Y-82651939D01*
X186964774Y-82851898D01*
X187042795Y-83040256D01*
X187156063Y-83209774D01*
X187300226Y-83353937D01*
X187469744Y-83467205D01*
X187658102Y-83545226D01*
X187858061Y-83585000D01*
X188061939Y-83585000D01*
X188261898Y-83545226D01*
X188450256Y-83467205D01*
X188619774Y-83353937D01*
X188763937Y-83209774D01*
X188877205Y-83040256D01*
X188955226Y-82851898D01*
X188984093Y-82706775D01*
X191315432Y-80375437D01*
X191347291Y-80349291D01*
X191420249Y-80260392D01*
X191451636Y-80222146D01*
X191529172Y-80077087D01*
X191569047Y-79945636D01*
X191576918Y-79919689D01*
X191589000Y-79797019D01*
X191589000Y-79797018D01*
X191593040Y-79756000D01*
X191589000Y-79714982D01*
X191589000Y-79353285D01*
X191671205Y-79230256D01*
X191749226Y-79041898D01*
X191789000Y-78841939D01*
X191789000Y-78638061D01*
X191749226Y-78438102D01*
X191671205Y-78249744D01*
X191557937Y-78080226D01*
X191413774Y-77936063D01*
X191244256Y-77822795D01*
X191055898Y-77744774D01*
X190855939Y-77705000D01*
X190652061Y-77705000D01*
X190452102Y-77744774D01*
X190263744Y-77822795D01*
X190094226Y-77936063D01*
X189950063Y-78080226D01*
X189836795Y-78249744D01*
X189758774Y-78438102D01*
X189719000Y-78638061D01*
X189719000Y-78841939D01*
X189758774Y-79041898D01*
X189836795Y-79230256D01*
X189919001Y-79353286D01*
X189919001Y-79410131D01*
X187803225Y-81525907D01*
X187658102Y-81554774D01*
X187469744Y-81632795D01*
X187300226Y-81746063D01*
X187156063Y-81890226D01*
X187042795Y-82059744D01*
X186964774Y-82248102D01*
X186925000Y-82448061D01*
X178878928Y-82448061D01*
X178419446Y-81988579D01*
X178393291Y-81956709D01*
X178266146Y-81852364D01*
X178121087Y-81774828D01*
X177963689Y-81727082D01*
X177841019Y-81715000D01*
X177841018Y-81715000D01*
X177800000Y-81710960D01*
X177758982Y-81715000D01*
X174487615Y-81715000D01*
X174534236Y-81561309D01*
X174561943Y-81280000D01*
X174534236Y-80998691D01*
X174452182Y-80728192D01*
X174318932Y-80478899D01*
X174139608Y-80260392D01*
X173921101Y-80081068D01*
X173788142Y-80010000D01*
X173921101Y-79938932D01*
X174139608Y-79759608D01*
X174318932Y-79541101D01*
X174452182Y-79291808D01*
X174534236Y-79021309D01*
X174561943Y-78740000D01*
X174534236Y-78458691D01*
X174452182Y-78188192D01*
X174318932Y-77938899D01*
X174139608Y-77720392D01*
X173921101Y-77541068D01*
X173788142Y-77470000D01*
X173921101Y-77398932D01*
X174139608Y-77219608D01*
X174318932Y-77001101D01*
X174452182Y-76751808D01*
X174534236Y-76481309D01*
X174561943Y-76200000D01*
X174534236Y-75918691D01*
X174452182Y-75648192D01*
X174318932Y-75398899D01*
X174139608Y-75180392D01*
X173921101Y-75001068D01*
X173839749Y-74957585D01*
X173918932Y-74861101D01*
X173990000Y-74728142D01*
X174061068Y-74861100D01*
X174240392Y-75079607D01*
X174458899Y-75258932D01*
X174708192Y-75392182D01*
X174978691Y-75474236D01*
X175260000Y-75501943D01*
X175541308Y-75474236D01*
X175811807Y-75392182D01*
X176061100Y-75258932D01*
X176279607Y-75079608D01*
X176458932Y-74861101D01*
X176530000Y-74728142D01*
X176601068Y-74861100D01*
X176780392Y-75079607D01*
X176998899Y-75258932D01*
X177248192Y-75392182D01*
X177518691Y-75474236D01*
X177800000Y-75501943D01*
X178081308Y-75474236D01*
X178351807Y-75392182D01*
X178601100Y-75258932D01*
X178819607Y-75079608D01*
X178998932Y-74861101D01*
X179070000Y-74728142D01*
X179141068Y-74861100D01*
X179320392Y-75079607D01*
X179538899Y-75258932D01*
X179788192Y-75392182D01*
X180058691Y-75474236D01*
X180340000Y-75501943D01*
X180621308Y-75474236D01*
X180891807Y-75392182D01*
X181141100Y-75258932D01*
X181359607Y-75079608D01*
X181538932Y-74861101D01*
X181610000Y-74728142D01*
X181681068Y-74861100D01*
X181860392Y-75079607D01*
X182078899Y-75258932D01*
X182328192Y-75392182D01*
X182598691Y-75474236D01*
X182880000Y-75501943D01*
X183161308Y-75474236D01*
X183431807Y-75392182D01*
X183681100Y-75258932D01*
X183899607Y-75079608D01*
X184078932Y-74861101D01*
X184150000Y-74728142D01*
X184221068Y-74861100D01*
X184400392Y-75079607D01*
X184618899Y-75258932D01*
X184868192Y-75392182D01*
X185138691Y-75474236D01*
X185420000Y-75501943D01*
X185701308Y-75474236D01*
X185971807Y-75392182D01*
X186221100Y-75258932D01*
X186439607Y-75079608D01*
X186618932Y-74861101D01*
X186690000Y-74728142D01*
X186761068Y-74861100D01*
X186940392Y-75079607D01*
X187158899Y-75258932D01*
X187408192Y-75392182D01*
X187678691Y-75474236D01*
X187960000Y-75501943D01*
X188241308Y-75474236D01*
X188511807Y-75392182D01*
X188761100Y-75258932D01*
X188979607Y-75079608D01*
X189158932Y-74861101D01*
X189230000Y-74728142D01*
X189301068Y-74861100D01*
X189480392Y-75079607D01*
X189698899Y-75258932D01*
X189948192Y-75392182D01*
X190218691Y-75474236D01*
X190500000Y-75501943D01*
X190781308Y-75474236D01*
X191051807Y-75392182D01*
X191301100Y-75258932D01*
X191519607Y-75079608D01*
X191698932Y-74861101D01*
X191770000Y-74728142D01*
X191841068Y-74861100D01*
X192020392Y-75079607D01*
X192238899Y-75258932D01*
X192488192Y-75392182D01*
X192758691Y-75474236D01*
X193040000Y-75501943D01*
X193321308Y-75474236D01*
X193591807Y-75392182D01*
X193841100Y-75258932D01*
X194059607Y-75079608D01*
X194238932Y-74861101D01*
X194310000Y-74728142D01*
X194381068Y-74861100D01*
X194560392Y-75079607D01*
X194778899Y-75258932D01*
X195028192Y-75392182D01*
X195298691Y-75474236D01*
X195580000Y-75501943D01*
X195861308Y-75474236D01*
X196131807Y-75392182D01*
X196381100Y-75258932D01*
X196599607Y-75079608D01*
X196778932Y-74861101D01*
X196850000Y-74728142D01*
X196921068Y-74861100D01*
X197100392Y-75079607D01*
X197318899Y-75258932D01*
X197568192Y-75392182D01*
X197838691Y-75474236D01*
X198120000Y-75501943D01*
X198401308Y-75474236D01*
X198671807Y-75392182D01*
X198921100Y-75258932D01*
X199139607Y-75079608D01*
X199318932Y-74861101D01*
X199390000Y-74728142D01*
X199461068Y-74861100D01*
X199640392Y-75079607D01*
X199858899Y-75258932D01*
X200108192Y-75392182D01*
X200378691Y-75474236D01*
X200660000Y-75501943D01*
X200941308Y-75474236D01*
X201211807Y-75392182D01*
X201461100Y-75258932D01*
X201679607Y-75079608D01*
X201858932Y-74861101D01*
X201930000Y-74728142D01*
X202001068Y-74861100D01*
G36*
X163636487Y-70828889D02*
G01*
X163607815Y-71120000D01*
X163636487Y-71411111D01*
X163721401Y-71691034D01*
X163859294Y-71949014D01*
X164044866Y-72175134D01*
X164270986Y-72360706D01*
X164528966Y-72498599D01*
X164808889Y-72583513D01*
X165027050Y-72605000D01*
X165172950Y-72605000D01*
X165391111Y-72583513D01*
X165671034Y-72498599D01*
X165929014Y-72360706D01*
X166155134Y-72175134D01*
X166340706Y-71949014D01*
X166370000Y-71894209D01*
X166399294Y-71949014D01*
X166584866Y-72175134D01*
X166810986Y-72360706D01*
X167068966Y-72498599D01*
X167348889Y-72583513D01*
X167461759Y-72594630D01*
X167434188Y-72685518D01*
X167421928Y-72810000D01*
X167421928Y-72825000D01*
X159553015Y-72825000D01*
X159511999Y-72820960D01*
X159470983Y-72825000D01*
X159470981Y-72825000D01*
X159348311Y-72837082D01*
X159190913Y-72884828D01*
X159045854Y-72962364D01*
X158918709Y-73066709D01*
X158892559Y-73098573D01*
X156337000Y-75654133D01*
X156337000Y-70612000D01*
X163702280Y-70612000D01*
X163636487Y-70828889D01*
X163636487Y-70828889D01*
G37*
X163636487Y-70828889D02*
X163607815Y-71120000D01*
X163636487Y-71411111D01*
X163721401Y-71691034D01*
X163859294Y-71949014D01*
X164044866Y-72175134D01*
X164270986Y-72360706D01*
X164528966Y-72498599D01*
X164808889Y-72583513D01*
X165027050Y-72605000D01*
X165172950Y-72605000D01*
X165391111Y-72583513D01*
X165671034Y-72498599D01*
X165929014Y-72360706D01*
X166155134Y-72175134D01*
X166340706Y-71949014D01*
X166370000Y-71894209D01*
X166399294Y-71949014D01*
X166584866Y-72175134D01*
X166810986Y-72360706D01*
X167068966Y-72498599D01*
X167348889Y-72583513D01*
X167461759Y-72594630D01*
X167434188Y-72685518D01*
X167421928Y-72810000D01*
X167421928Y-72825000D01*
X159553015Y-72825000D01*
X159511999Y-72820960D01*
X159470983Y-72825000D01*
X159470981Y-72825000D01*
X159348311Y-72837082D01*
X159190913Y-72884828D01*
X159045854Y-72962364D01*
X158918709Y-73066709D01*
X158892559Y-73098573D01*
X156337000Y-75654133D01*
X156337000Y-70612000D01*
X163702280Y-70612000D01*
X163636487Y-70828889D01*
M02*
