M48
; DRILL file {KiCad (5.1.4)-1} date 25/05/2021 15:00:15
; FORMAT={-:-/ absolute / inch / decimal}
; #@! TF.CreationDate,2021-05-25T15:00:15+02:00
; #@! TF.GenerationSoftware,Kicad,Pcbnew,(5.1.4)-1
; #@! TF.FileFunction,Plated,1,2,PTH
FMAT,2
INCH
T1C0.0157
T2C0.0394
T3C0.0433
T4C0.0551
%
G90
G05
T1
X5.0824Y-3.9
X5.0826Y-4.1476
X5.0862Y-4.338
X5.1177Y-4.4823
X5.7484Y-3.8604
X5.837Y-3.2969
X5.8696Y-3.603
X6.0303Y-3.4902
X6.0303Y-3.4902
T2
X6.4Y-5.0
X6.4Y-5.1
X5.5Y-4.4
X5.6Y-4.4
X5.8Y-4.9
X5.8Y-5.0
X5.8Y-5.1
X5.5Y-3.7
X5.6Y-3.7
X5.5Y-4.55
X5.6Y-4.55
X4.75Y-4.5
X4.75Y-4.6
X4.75Y-4.7
X4.75Y-4.8
X4.75Y-4.9
X4.75Y-5.0
X4.75Y-5.1
X6.4Y-3.2
X6.4Y-3.3
X5.8848Y-3.9477
X5.8848Y-4.0477
X5.8848Y-4.1477
X5.8848Y-4.2477
X4.8Y-3.8
X4.8Y-3.9
X4.8Y-4.0
X4.8Y-4.1
X4.8Y-4.2
X4.9Y-3.8
X4.9Y-3.9
X4.9Y-4.0
X4.9Y-4.1
X4.9Y-4.2
X6.0Y-3.7
X6.1Y-3.7
X6.2Y-3.7
X6.3Y-3.7
X5.5Y-3.85
X5.6Y-3.85
X6.2Y-5.0
X6.2Y-5.1
X5.1848Y-3.9477
X5.1848Y-4.0477
X5.1848Y-4.1477
X5.1848Y-4.2477
X4.85Y-4.5
X4.85Y-4.6
X4.85Y-4.7
X4.85Y-4.8
X4.85Y-4.9
X4.85Y-5.0
X4.85Y-5.1
X5.65Y-4.9
X5.65Y-5.0
X5.65Y-5.1
X6.2Y-3.2
X6.2Y-3.3
T3
X5.0222Y-3.4442
X5.2486Y-3.4442
T4
X5.55Y-3.45
X5.75Y-3.45
X5.2Y-4.85
X5.4Y-4.85
T0
M30
