G04 #@! TF.GenerationSoftware,KiCad,Pcbnew,(5.1.4)-1*
G04 #@! TF.CreationDate,2021-05-25T15:00:13+02:00*
G04 #@! TF.ProjectId,BCU_Breadboard_Adapter,4243555f-4272-4656-9164-626f6172645f,V00.01*
G04 #@! TF.SameCoordinates,Original*
G04 #@! TF.FileFunction,Legend,Bot*
G04 #@! TF.FilePolarity,Positive*
%FSLAX46Y46*%
G04 Gerber Fmt 4.6, Leading zero omitted, Abs format (unit mm)*
G04 Created by KiCad (PCBNEW (5.1.4)-1) date 2021-05-25 15:00:13*
%MOMM*%
%LPD*%
G04 APERTURE LIST*
%ADD10C,0.120000*%
%ADD11C,0.150000*%
G04 APERTURE END LIST*
D10*
X163890000Y-79950000D02*
X162560000Y-79950000D01*
X163890000Y-81280000D02*
X163890000Y-79950000D01*
X163890000Y-82550000D02*
X161230000Y-82550000D01*
X161230000Y-82550000D02*
X161230000Y-85150000D01*
X163890000Y-82550000D02*
X163890000Y-85150000D01*
X163890000Y-85150000D02*
X161230000Y-85150000D01*
X163890000Y-125670000D02*
X162560000Y-125670000D01*
X163890000Y-127000000D02*
X163890000Y-125670000D01*
X163890000Y-128270000D02*
X161230000Y-128270000D01*
X161230000Y-128270000D02*
X161230000Y-130870000D01*
X163890000Y-128270000D02*
X163890000Y-130870000D01*
X163890000Y-130870000D02*
X161230000Y-130870000D01*
X151070000Y-92650000D02*
X151070000Y-93980000D01*
X152400000Y-92650000D02*
X151070000Y-92650000D01*
X153670000Y-92650000D02*
X153670000Y-95310000D01*
X153670000Y-95310000D02*
X161350000Y-95310000D01*
X153670000Y-92650000D02*
X161350000Y-92650000D01*
X161350000Y-92650000D02*
X161350000Y-95310000D01*
X158810000Y-79950000D02*
X157480000Y-79950000D01*
X158810000Y-81280000D02*
X158810000Y-79950000D01*
X158810000Y-82550000D02*
X156150000Y-82550000D01*
X156150000Y-82550000D02*
X156150000Y-85150000D01*
X158810000Y-82550000D02*
X158810000Y-85150000D01*
X158810000Y-85150000D02*
X156150000Y-85150000D01*
X158810000Y-125670000D02*
X157480000Y-125670000D01*
X158810000Y-127000000D02*
X158810000Y-125670000D01*
X158810000Y-128270000D02*
X156150000Y-128270000D01*
X156150000Y-128270000D02*
X156150000Y-130870000D01*
X158810000Y-128270000D02*
X158810000Y-130870000D01*
X158810000Y-130870000D02*
X156150000Y-130870000D01*
D11*
X159685740Y-83183196D02*
X160400026Y-83183196D01*
X160542883Y-83135577D01*
X160638121Y-83040339D01*
X160685740Y-82897481D01*
X160685740Y-82802243D01*
X159685740Y-84135577D02*
X159685740Y-83659386D01*
X160161931Y-83611767D01*
X160114312Y-83659386D01*
X160066693Y-83754624D01*
X160066693Y-83992720D01*
X160114312Y-84087958D01*
X160161931Y-84135577D01*
X160257169Y-84183196D01*
X160495264Y-84183196D01*
X160590502Y-84135577D01*
X160638121Y-84087958D01*
X160685740Y-83992720D01*
X160685740Y-83754624D01*
X160638121Y-83659386D01*
X160590502Y-83611767D01*
X160685740Y-85135577D02*
X160685740Y-84564148D01*
X160685740Y-84849862D02*
X159685740Y-84849862D01*
X159828598Y-84754624D01*
X159923836Y-84659386D01*
X159971455Y-84564148D01*
X159553660Y-128760956D02*
X160267946Y-128760956D01*
X160410803Y-128713337D01*
X160506041Y-128618099D01*
X160553660Y-128475241D01*
X160553660Y-128380003D01*
X159886994Y-129665718D02*
X160553660Y-129665718D01*
X159506041Y-129427622D02*
X160220327Y-129189527D01*
X160220327Y-129808575D01*
X160553660Y-130713337D02*
X160553660Y-130141908D01*
X160553660Y-130427622D02*
X159553660Y-130427622D01*
X159696518Y-130332384D01*
X159791756Y-130237146D01*
X159839375Y-130141908D01*
X149979973Y-93391740D02*
X149979973Y-94106026D01*
X150027592Y-94248883D01*
X150122830Y-94344121D01*
X150265687Y-94391740D01*
X150360925Y-94391740D01*
X149075211Y-93391740D02*
X149265687Y-93391740D01*
X149360925Y-93439360D01*
X149408544Y-93486979D01*
X149503782Y-93629836D01*
X149551401Y-93820312D01*
X149551401Y-94201264D01*
X149503782Y-94296502D01*
X149456163Y-94344121D01*
X149360925Y-94391740D01*
X149170449Y-94391740D01*
X149075211Y-94344121D01*
X149027592Y-94296502D01*
X148979973Y-94201264D01*
X148979973Y-93963169D01*
X149027592Y-93867931D01*
X149075211Y-93820312D01*
X149170449Y-93772693D01*
X149360925Y-93772693D01*
X149456163Y-93820312D01*
X149503782Y-93867931D01*
X149551401Y-93963169D01*
X154326340Y-84055626D02*
X155040626Y-84055626D01*
X155183483Y-84008007D01*
X155278721Y-83912769D01*
X155326340Y-83769912D01*
X155326340Y-83674674D01*
X154326340Y-85008007D02*
X154326340Y-84531817D01*
X154802531Y-84484198D01*
X154754912Y-84531817D01*
X154707293Y-84627055D01*
X154707293Y-84865150D01*
X154754912Y-84960388D01*
X154802531Y-85008007D01*
X154897769Y-85055626D01*
X155135864Y-85055626D01*
X155231102Y-85008007D01*
X155278721Y-84960388D01*
X155326340Y-84865150D01*
X155326340Y-84627055D01*
X155278721Y-84531817D01*
X155231102Y-84484198D01*
X154392380Y-129206666D02*
X155106666Y-129206666D01*
X155249523Y-129159047D01*
X155344761Y-129063809D01*
X155392380Y-128920952D01*
X155392380Y-128825714D01*
X154725714Y-130111428D02*
X155392380Y-130111428D01*
X154344761Y-129873333D02*
X155059047Y-129635238D01*
X155059047Y-130254285D01*
M02*
