G04 #@! TF.GenerationSoftware,KiCad,Pcbnew,(5.1.4)-1*
G04 #@! TF.CreationDate,2021-05-25T15:00:13+02:00*
G04 #@! TF.ProjectId,BCU_Breadboard_Adapter,4243555f-4272-4656-9164-626f6172645f,V00.01*
G04 #@! TF.SameCoordinates,Original*
G04 #@! TF.FileFunction,Soldermask,Bot*
G04 #@! TF.FilePolarity,Negative*
%FSLAX46Y46*%
G04 Gerber Fmt 4.6, Leading zero omitted, Abs format (unit mm)*
G04 Created by KiCad (PCBNEW (5.1.4)-1) date 2021-05-25 15:00:13*
%MOMM*%
%LPD*%
G04 APERTURE LIST*
%ADD10C,0.100000*%
G04 APERTURE END LIST*
D10*
G36*
X162670443Y-128645519D02*
G01*
X162736627Y-128652037D01*
X162906466Y-128703557D01*
X163062991Y-128787222D01*
X163098729Y-128816552D01*
X163200186Y-128899814D01*
X163283448Y-129001271D01*
X163312778Y-129037009D01*
X163396443Y-129193534D01*
X163447963Y-129363373D01*
X163465359Y-129540000D01*
X163447963Y-129716627D01*
X163396443Y-129886466D01*
X163312778Y-130042991D01*
X163283448Y-130078729D01*
X163200186Y-130180186D01*
X163098729Y-130263448D01*
X163062991Y-130292778D01*
X162906466Y-130376443D01*
X162736627Y-130427963D01*
X162670443Y-130434481D01*
X162604260Y-130441000D01*
X162515740Y-130441000D01*
X162449557Y-130434481D01*
X162383373Y-130427963D01*
X162213534Y-130376443D01*
X162057009Y-130292778D01*
X162021271Y-130263448D01*
X161919814Y-130180186D01*
X161836552Y-130078729D01*
X161807222Y-130042991D01*
X161723557Y-129886466D01*
X161672037Y-129716627D01*
X161654641Y-129540000D01*
X161672037Y-129363373D01*
X161723557Y-129193534D01*
X161807222Y-129037009D01*
X161836552Y-129001271D01*
X161919814Y-128899814D01*
X162021271Y-128816552D01*
X162057009Y-128787222D01*
X162213534Y-128703557D01*
X162383373Y-128652037D01*
X162449557Y-128645519D01*
X162515740Y-128639000D01*
X162604260Y-128639000D01*
X162670443Y-128645519D01*
X162670443Y-128645519D01*
G37*
G36*
X157590443Y-128645519D02*
G01*
X157656627Y-128652037D01*
X157826466Y-128703557D01*
X157982991Y-128787222D01*
X158018729Y-128816552D01*
X158120186Y-128899814D01*
X158203448Y-129001271D01*
X158232778Y-129037009D01*
X158316443Y-129193534D01*
X158367963Y-129363373D01*
X158385359Y-129540000D01*
X158367963Y-129716627D01*
X158316443Y-129886466D01*
X158232778Y-130042991D01*
X158203448Y-130078729D01*
X158120186Y-130180186D01*
X158018729Y-130263448D01*
X157982991Y-130292778D01*
X157826466Y-130376443D01*
X157656627Y-130427963D01*
X157590443Y-130434481D01*
X157524260Y-130441000D01*
X157435740Y-130441000D01*
X157369557Y-130434481D01*
X157303373Y-130427963D01*
X157133534Y-130376443D01*
X156977009Y-130292778D01*
X156941271Y-130263448D01*
X156839814Y-130180186D01*
X156756552Y-130078729D01*
X156727222Y-130042991D01*
X156643557Y-129886466D01*
X156592037Y-129716627D01*
X156574641Y-129540000D01*
X156592037Y-129363373D01*
X156643557Y-129193534D01*
X156727222Y-129037009D01*
X156756552Y-129001271D01*
X156839814Y-128899814D01*
X156941271Y-128816552D01*
X156977009Y-128787222D01*
X157133534Y-128703557D01*
X157303373Y-128652037D01*
X157369557Y-128645519D01*
X157435740Y-128639000D01*
X157524260Y-128639000D01*
X157590443Y-128645519D01*
X157590443Y-128645519D01*
G37*
G36*
X123300443Y-128645519D02*
G01*
X123366627Y-128652037D01*
X123536466Y-128703557D01*
X123692991Y-128787222D01*
X123728729Y-128816552D01*
X123830186Y-128899814D01*
X123913448Y-129001271D01*
X123942778Y-129037009D01*
X124026443Y-129193534D01*
X124077963Y-129363373D01*
X124095359Y-129540000D01*
X124077963Y-129716627D01*
X124026443Y-129886466D01*
X123942778Y-130042991D01*
X123913448Y-130078729D01*
X123830186Y-130180186D01*
X123728729Y-130263448D01*
X123692991Y-130292778D01*
X123536466Y-130376443D01*
X123366627Y-130427963D01*
X123300443Y-130434481D01*
X123234260Y-130441000D01*
X123145740Y-130441000D01*
X123079557Y-130434481D01*
X123013373Y-130427963D01*
X122843534Y-130376443D01*
X122687009Y-130292778D01*
X122651271Y-130263448D01*
X122549814Y-130180186D01*
X122466552Y-130078729D01*
X122437222Y-130042991D01*
X122353557Y-129886466D01*
X122302037Y-129716627D01*
X122284641Y-129540000D01*
X122302037Y-129363373D01*
X122353557Y-129193534D01*
X122437222Y-129037009D01*
X122466552Y-129001271D01*
X122549814Y-128899814D01*
X122651271Y-128816552D01*
X122687009Y-128787222D01*
X122843534Y-128703557D01*
X123013373Y-128652037D01*
X123079557Y-128645519D01*
X123145740Y-128639000D01*
X123234260Y-128639000D01*
X123300443Y-128645519D01*
X123300443Y-128645519D01*
G37*
G36*
X148221000Y-130441000D02*
G01*
X146419000Y-130441000D01*
X146419000Y-128639000D01*
X148221000Y-128639000D01*
X148221000Y-130441000D01*
X148221000Y-130441000D01*
G37*
G36*
X120760443Y-128645519D02*
G01*
X120826627Y-128652037D01*
X120996466Y-128703557D01*
X121152991Y-128787222D01*
X121188729Y-128816552D01*
X121290186Y-128899814D01*
X121373448Y-129001271D01*
X121402778Y-129037009D01*
X121486443Y-129193534D01*
X121537963Y-129363373D01*
X121555359Y-129540000D01*
X121537963Y-129716627D01*
X121486443Y-129886466D01*
X121402778Y-130042991D01*
X121373448Y-130078729D01*
X121290186Y-130180186D01*
X121188729Y-130263448D01*
X121152991Y-130292778D01*
X120996466Y-130376443D01*
X120826627Y-130427963D01*
X120760443Y-130434481D01*
X120694260Y-130441000D01*
X120605740Y-130441000D01*
X120539557Y-130434481D01*
X120473373Y-130427963D01*
X120303534Y-130376443D01*
X120147009Y-130292778D01*
X120111271Y-130263448D01*
X120009814Y-130180186D01*
X119926552Y-130078729D01*
X119897222Y-130042991D01*
X119813557Y-129886466D01*
X119762037Y-129716627D01*
X119744641Y-129540000D01*
X119762037Y-129363373D01*
X119813557Y-129193534D01*
X119897222Y-129037009D01*
X119926552Y-129001271D01*
X120009814Y-128899814D01*
X120111271Y-128816552D01*
X120147009Y-128787222D01*
X120303534Y-128703557D01*
X120473373Y-128652037D01*
X120539557Y-128645519D01*
X120605740Y-128639000D01*
X120694260Y-128639000D01*
X120760443Y-128645519D01*
X120760443Y-128645519D01*
G37*
G36*
X144411000Y-130441000D02*
G01*
X142609000Y-130441000D01*
X142609000Y-128639000D01*
X144411000Y-128639000D01*
X144411000Y-130441000D01*
X144411000Y-130441000D01*
G37*
G36*
X143620443Y-126105519D02*
G01*
X143686627Y-126112037D01*
X143856466Y-126163557D01*
X144012991Y-126247222D01*
X144048729Y-126276552D01*
X144150186Y-126359814D01*
X144233448Y-126461271D01*
X144262778Y-126497009D01*
X144346443Y-126653534D01*
X144397963Y-126823373D01*
X144415359Y-127000000D01*
X144397963Y-127176627D01*
X144346443Y-127346466D01*
X144262778Y-127502991D01*
X144233448Y-127538729D01*
X144150186Y-127640186D01*
X144048729Y-127723448D01*
X144012991Y-127752778D01*
X143856466Y-127836443D01*
X143686627Y-127887963D01*
X143620442Y-127894482D01*
X143554260Y-127901000D01*
X143465740Y-127901000D01*
X143399558Y-127894482D01*
X143333373Y-127887963D01*
X143163534Y-127836443D01*
X143007009Y-127752778D01*
X142971271Y-127723448D01*
X142869814Y-127640186D01*
X142786552Y-127538729D01*
X142757222Y-127502991D01*
X142673557Y-127346466D01*
X142622037Y-127176627D01*
X142604641Y-127000000D01*
X142622037Y-126823373D01*
X142673557Y-126653534D01*
X142757222Y-126497009D01*
X142786552Y-126461271D01*
X142869814Y-126359814D01*
X142971271Y-126276552D01*
X143007009Y-126247222D01*
X143163534Y-126163557D01*
X143333373Y-126112037D01*
X143399557Y-126105519D01*
X143465740Y-126099000D01*
X143554260Y-126099000D01*
X143620443Y-126105519D01*
X143620443Y-126105519D01*
G37*
G36*
X163461000Y-127901000D02*
G01*
X161659000Y-127901000D01*
X161659000Y-126099000D01*
X163461000Y-126099000D01*
X163461000Y-127901000D01*
X163461000Y-127901000D01*
G37*
G36*
X120760443Y-126105519D02*
G01*
X120826627Y-126112037D01*
X120996466Y-126163557D01*
X121152991Y-126247222D01*
X121188729Y-126276552D01*
X121290186Y-126359814D01*
X121373448Y-126461271D01*
X121402778Y-126497009D01*
X121486443Y-126653534D01*
X121537963Y-126823373D01*
X121555359Y-127000000D01*
X121537963Y-127176627D01*
X121486443Y-127346466D01*
X121402778Y-127502991D01*
X121373448Y-127538729D01*
X121290186Y-127640186D01*
X121188729Y-127723448D01*
X121152991Y-127752778D01*
X120996466Y-127836443D01*
X120826627Y-127887963D01*
X120760442Y-127894482D01*
X120694260Y-127901000D01*
X120605740Y-127901000D01*
X120539558Y-127894482D01*
X120473373Y-127887963D01*
X120303534Y-127836443D01*
X120147009Y-127752778D01*
X120111271Y-127723448D01*
X120009814Y-127640186D01*
X119926552Y-127538729D01*
X119897222Y-127502991D01*
X119813557Y-127346466D01*
X119762037Y-127176627D01*
X119744641Y-127000000D01*
X119762037Y-126823373D01*
X119813557Y-126653534D01*
X119897222Y-126497009D01*
X119926552Y-126461271D01*
X120009814Y-126359814D01*
X120111271Y-126276552D01*
X120147009Y-126247222D01*
X120303534Y-126163557D01*
X120473373Y-126112037D01*
X120539557Y-126105519D01*
X120605740Y-126099000D01*
X120694260Y-126099000D01*
X120760443Y-126105519D01*
X120760443Y-126105519D01*
G37*
G36*
X147430443Y-126105519D02*
G01*
X147496627Y-126112037D01*
X147666466Y-126163557D01*
X147822991Y-126247222D01*
X147858729Y-126276552D01*
X147960186Y-126359814D01*
X148043448Y-126461271D01*
X148072778Y-126497009D01*
X148156443Y-126653534D01*
X148207963Y-126823373D01*
X148225359Y-127000000D01*
X148207963Y-127176627D01*
X148156443Y-127346466D01*
X148072778Y-127502991D01*
X148043448Y-127538729D01*
X147960186Y-127640186D01*
X147858729Y-127723448D01*
X147822991Y-127752778D01*
X147666466Y-127836443D01*
X147496627Y-127887963D01*
X147430442Y-127894482D01*
X147364260Y-127901000D01*
X147275740Y-127901000D01*
X147209558Y-127894482D01*
X147143373Y-127887963D01*
X146973534Y-127836443D01*
X146817009Y-127752778D01*
X146781271Y-127723448D01*
X146679814Y-127640186D01*
X146596552Y-127538729D01*
X146567222Y-127502991D01*
X146483557Y-127346466D01*
X146432037Y-127176627D01*
X146414641Y-127000000D01*
X146432037Y-126823373D01*
X146483557Y-126653534D01*
X146567222Y-126497009D01*
X146596552Y-126461271D01*
X146679814Y-126359814D01*
X146781271Y-126276552D01*
X146817009Y-126247222D01*
X146973534Y-126163557D01*
X147143373Y-126112037D01*
X147209557Y-126105519D01*
X147275740Y-126099000D01*
X147364260Y-126099000D01*
X147430443Y-126105519D01*
X147430443Y-126105519D01*
G37*
G36*
X158381000Y-127901000D02*
G01*
X156579000Y-127901000D01*
X156579000Y-126099000D01*
X158381000Y-126099000D01*
X158381000Y-127901000D01*
X158381000Y-127901000D01*
G37*
G36*
X123300443Y-126105519D02*
G01*
X123366627Y-126112037D01*
X123536466Y-126163557D01*
X123692991Y-126247222D01*
X123728729Y-126276552D01*
X123830186Y-126359814D01*
X123913448Y-126461271D01*
X123942778Y-126497009D01*
X124026443Y-126653534D01*
X124077963Y-126823373D01*
X124095359Y-127000000D01*
X124077963Y-127176627D01*
X124026443Y-127346466D01*
X123942778Y-127502991D01*
X123913448Y-127538729D01*
X123830186Y-127640186D01*
X123728729Y-127723448D01*
X123692991Y-127752778D01*
X123536466Y-127836443D01*
X123366627Y-127887963D01*
X123300442Y-127894482D01*
X123234260Y-127901000D01*
X123145740Y-127901000D01*
X123079558Y-127894482D01*
X123013373Y-127887963D01*
X122843534Y-127836443D01*
X122687009Y-127752778D01*
X122651271Y-127723448D01*
X122549814Y-127640186D01*
X122466552Y-127538729D01*
X122437222Y-127502991D01*
X122353557Y-127346466D01*
X122302037Y-127176627D01*
X122284641Y-127000000D01*
X122302037Y-126823373D01*
X122353557Y-126653534D01*
X122437222Y-126497009D01*
X122466552Y-126461271D01*
X122549814Y-126359814D01*
X122651271Y-126276552D01*
X122687009Y-126247222D01*
X122843534Y-126163557D01*
X123013373Y-126112037D01*
X123079557Y-126105519D01*
X123145740Y-126099000D01*
X123234260Y-126099000D01*
X123300443Y-126105519D01*
X123300443Y-126105519D01*
G37*
G36*
X120760442Y-123565518D02*
G01*
X120826627Y-123572037D01*
X120996466Y-123623557D01*
X121152991Y-123707222D01*
X121188729Y-123736552D01*
X121290186Y-123819814D01*
X121373448Y-123921271D01*
X121402778Y-123957009D01*
X121486443Y-124113534D01*
X121537963Y-124283373D01*
X121555359Y-124460000D01*
X121537963Y-124636627D01*
X121486443Y-124806466D01*
X121402778Y-124962991D01*
X121379324Y-124991570D01*
X121290186Y-125100186D01*
X121188729Y-125183448D01*
X121152991Y-125212778D01*
X120996466Y-125296443D01*
X120826627Y-125347963D01*
X120760442Y-125354482D01*
X120694260Y-125361000D01*
X120605740Y-125361000D01*
X120539558Y-125354482D01*
X120473373Y-125347963D01*
X120303534Y-125296443D01*
X120147009Y-125212778D01*
X120111271Y-125183448D01*
X120009814Y-125100186D01*
X119920676Y-124991570D01*
X119897222Y-124962991D01*
X119813557Y-124806466D01*
X119762037Y-124636627D01*
X119744641Y-124460000D01*
X119762037Y-124283373D01*
X119813557Y-124113534D01*
X119897222Y-123957009D01*
X119926552Y-123921271D01*
X120009814Y-123819814D01*
X120111271Y-123736552D01*
X120147009Y-123707222D01*
X120303534Y-123623557D01*
X120473373Y-123572037D01*
X120539558Y-123565518D01*
X120605740Y-123559000D01*
X120694260Y-123559000D01*
X120760442Y-123565518D01*
X120760442Y-123565518D01*
G37*
G36*
X143620442Y-123565518D02*
G01*
X143686627Y-123572037D01*
X143856466Y-123623557D01*
X144012991Y-123707222D01*
X144048729Y-123736552D01*
X144150186Y-123819814D01*
X144233448Y-123921271D01*
X144262778Y-123957009D01*
X144346443Y-124113534D01*
X144397963Y-124283373D01*
X144415359Y-124460000D01*
X144397963Y-124636627D01*
X144346443Y-124806466D01*
X144262778Y-124962991D01*
X144239324Y-124991570D01*
X144150186Y-125100186D01*
X144048729Y-125183448D01*
X144012991Y-125212778D01*
X143856466Y-125296443D01*
X143686627Y-125347963D01*
X143620442Y-125354482D01*
X143554260Y-125361000D01*
X143465740Y-125361000D01*
X143399558Y-125354482D01*
X143333373Y-125347963D01*
X143163534Y-125296443D01*
X143007009Y-125212778D01*
X142971271Y-125183448D01*
X142869814Y-125100186D01*
X142780676Y-124991570D01*
X142757222Y-124962991D01*
X142673557Y-124806466D01*
X142622037Y-124636627D01*
X142604641Y-124460000D01*
X142622037Y-124283373D01*
X142673557Y-124113534D01*
X142757222Y-123957009D01*
X142786552Y-123921271D01*
X142869814Y-123819814D01*
X142971271Y-123736552D01*
X143007009Y-123707222D01*
X143163534Y-123623557D01*
X143333373Y-123572037D01*
X143399558Y-123565518D01*
X143465740Y-123559000D01*
X143554260Y-123559000D01*
X143620442Y-123565518D01*
X143620442Y-123565518D01*
G37*
G36*
X147430442Y-123565518D02*
G01*
X147496627Y-123572037D01*
X147666466Y-123623557D01*
X147822991Y-123707222D01*
X147858729Y-123736552D01*
X147960186Y-123819814D01*
X148043448Y-123921271D01*
X148072778Y-123957009D01*
X148156443Y-124113534D01*
X148207963Y-124283373D01*
X148225359Y-124460000D01*
X148207963Y-124636627D01*
X148156443Y-124806466D01*
X148072778Y-124962991D01*
X148049324Y-124991570D01*
X147960186Y-125100186D01*
X147858729Y-125183448D01*
X147822991Y-125212778D01*
X147666466Y-125296443D01*
X147496627Y-125347963D01*
X147430442Y-125354482D01*
X147364260Y-125361000D01*
X147275740Y-125361000D01*
X147209558Y-125354482D01*
X147143373Y-125347963D01*
X146973534Y-125296443D01*
X146817009Y-125212778D01*
X146781271Y-125183448D01*
X146679814Y-125100186D01*
X146590676Y-124991570D01*
X146567222Y-124962991D01*
X146483557Y-124806466D01*
X146432037Y-124636627D01*
X146414641Y-124460000D01*
X146432037Y-124283373D01*
X146483557Y-124113534D01*
X146567222Y-123957009D01*
X146596552Y-123921271D01*
X146679814Y-123819814D01*
X146781271Y-123736552D01*
X146817009Y-123707222D01*
X146973534Y-123623557D01*
X147143373Y-123572037D01*
X147209558Y-123565518D01*
X147275740Y-123559000D01*
X147364260Y-123559000D01*
X147430442Y-123565518D01*
X147430442Y-123565518D01*
G37*
G36*
X123300442Y-123565518D02*
G01*
X123366627Y-123572037D01*
X123536466Y-123623557D01*
X123692991Y-123707222D01*
X123728729Y-123736552D01*
X123830186Y-123819814D01*
X123913448Y-123921271D01*
X123942778Y-123957009D01*
X124026443Y-124113534D01*
X124077963Y-124283373D01*
X124095359Y-124460000D01*
X124077963Y-124636627D01*
X124026443Y-124806466D01*
X123942778Y-124962991D01*
X123919324Y-124991570D01*
X123830186Y-125100186D01*
X123728729Y-125183448D01*
X123692991Y-125212778D01*
X123536466Y-125296443D01*
X123366627Y-125347963D01*
X123300442Y-125354482D01*
X123234260Y-125361000D01*
X123145740Y-125361000D01*
X123079558Y-125354482D01*
X123013373Y-125347963D01*
X122843534Y-125296443D01*
X122687009Y-125212778D01*
X122651271Y-125183448D01*
X122549814Y-125100186D01*
X122460676Y-124991570D01*
X122437222Y-124962991D01*
X122353557Y-124806466D01*
X122302037Y-124636627D01*
X122284641Y-124460000D01*
X122302037Y-124283373D01*
X122353557Y-124113534D01*
X122437222Y-123957009D01*
X122466552Y-123921271D01*
X122549814Y-123819814D01*
X122651271Y-123736552D01*
X122687009Y-123707222D01*
X122843534Y-123623557D01*
X123013373Y-123572037D01*
X123079558Y-123565518D01*
X123145740Y-123559000D01*
X123234260Y-123559000D01*
X123300442Y-123565518D01*
X123300442Y-123565518D01*
G37*
G36*
X137373870Y-121354786D02*
G01*
X137484779Y-121388430D01*
X137578999Y-121417011D01*
X137579529Y-121417172D01*
X137736165Y-121500896D01*
X137769059Y-121518478D01*
X137935186Y-121654814D01*
X138071522Y-121820941D01*
X138071525Y-121820945D01*
X138172828Y-122010470D01*
X138235214Y-122216129D01*
X138251000Y-122376409D01*
X138251000Y-124003591D01*
X138235214Y-124163871D01*
X138172828Y-124369530D01*
X138071525Y-124559055D01*
X138071523Y-124559058D01*
X138071522Y-124559059D01*
X137935186Y-124725186D01*
X137807583Y-124829906D01*
X137769055Y-124861525D01*
X137579530Y-124962828D01*
X137579527Y-124962829D01*
X137568058Y-124966308D01*
X137373871Y-125025214D01*
X137160000Y-125046278D01*
X136946130Y-125025214D01*
X136751943Y-124966308D01*
X136740474Y-124962829D01*
X136740471Y-124962828D01*
X136550946Y-124861525D01*
X136512418Y-124829906D01*
X136384815Y-124725186D01*
X136248479Y-124559059D01*
X136248478Y-124559058D01*
X136248476Y-124559055D01*
X136147171Y-124369527D01*
X136084786Y-124163874D01*
X136069000Y-124003591D01*
X136069000Y-122376410D01*
X136084786Y-122216130D01*
X136147172Y-122010471D01*
X136248477Y-121820943D01*
X136248478Y-121820941D01*
X136384814Y-121654814D01*
X136550941Y-121518478D01*
X136550942Y-121518477D01*
X136550945Y-121518475D01*
X136740470Y-121417172D01*
X136741001Y-121417011D01*
X136835220Y-121388430D01*
X136946129Y-121354786D01*
X137160000Y-121333722D01*
X137373870Y-121354786D01*
X137373870Y-121354786D01*
G37*
G36*
X133036217Y-121342808D02*
G01*
X133067489Y-121352294D01*
X133096308Y-121367698D01*
X133121570Y-121388430D01*
X133142302Y-121413692D01*
X133157706Y-121442511D01*
X133167192Y-121473783D01*
X133171000Y-121512448D01*
X133171000Y-124867552D01*
X133167192Y-124906217D01*
X133157706Y-124937489D01*
X133142302Y-124966308D01*
X133121570Y-124991570D01*
X133096308Y-125012302D01*
X133067489Y-125027706D01*
X133036217Y-125037192D01*
X132997552Y-125041000D01*
X131162448Y-125041000D01*
X131123783Y-125037192D01*
X131092511Y-125027706D01*
X131063692Y-125012302D01*
X131038430Y-124991570D01*
X131017698Y-124966308D01*
X131002294Y-124937489D01*
X130992808Y-124906217D01*
X130989000Y-124867552D01*
X130989000Y-121512448D01*
X130992808Y-121473783D01*
X131002294Y-121442511D01*
X131017698Y-121413692D01*
X131038430Y-121388430D01*
X131063692Y-121367698D01*
X131092511Y-121352294D01*
X131123783Y-121342808D01*
X131162448Y-121339000D01*
X132997552Y-121339000D01*
X133036217Y-121342808D01*
X133036217Y-121342808D01*
G37*
G36*
X120760442Y-121025518D02*
G01*
X120826627Y-121032037D01*
X120996466Y-121083557D01*
X121152991Y-121167222D01*
X121188729Y-121196552D01*
X121290186Y-121279814D01*
X121355141Y-121358963D01*
X121402778Y-121417009D01*
X121486443Y-121573534D01*
X121537963Y-121743373D01*
X121555359Y-121920000D01*
X121537963Y-122096627D01*
X121486443Y-122266466D01*
X121402778Y-122422991D01*
X121373448Y-122458729D01*
X121290186Y-122560186D01*
X121188729Y-122643448D01*
X121152991Y-122672778D01*
X120996466Y-122756443D01*
X120826627Y-122807963D01*
X120760443Y-122814481D01*
X120694260Y-122821000D01*
X120605740Y-122821000D01*
X120539557Y-122814481D01*
X120473373Y-122807963D01*
X120303534Y-122756443D01*
X120147009Y-122672778D01*
X120111271Y-122643448D01*
X120009814Y-122560186D01*
X119926552Y-122458729D01*
X119897222Y-122422991D01*
X119813557Y-122266466D01*
X119762037Y-122096627D01*
X119744641Y-121920000D01*
X119762037Y-121743373D01*
X119813557Y-121573534D01*
X119897222Y-121417009D01*
X119944859Y-121358963D01*
X120009814Y-121279814D01*
X120111271Y-121196552D01*
X120147009Y-121167222D01*
X120303534Y-121083557D01*
X120473373Y-121032037D01*
X120539558Y-121025518D01*
X120605740Y-121019000D01*
X120694260Y-121019000D01*
X120760442Y-121025518D01*
X120760442Y-121025518D01*
G37*
G36*
X123300442Y-121025518D02*
G01*
X123366627Y-121032037D01*
X123536466Y-121083557D01*
X123692991Y-121167222D01*
X123728729Y-121196552D01*
X123830186Y-121279814D01*
X123895141Y-121358963D01*
X123942778Y-121417009D01*
X124026443Y-121573534D01*
X124077963Y-121743373D01*
X124095359Y-121920000D01*
X124077963Y-122096627D01*
X124026443Y-122266466D01*
X123942778Y-122422991D01*
X123913448Y-122458729D01*
X123830186Y-122560186D01*
X123728729Y-122643448D01*
X123692991Y-122672778D01*
X123536466Y-122756443D01*
X123366627Y-122807963D01*
X123300443Y-122814481D01*
X123234260Y-122821000D01*
X123145740Y-122821000D01*
X123079557Y-122814481D01*
X123013373Y-122807963D01*
X122843534Y-122756443D01*
X122687009Y-122672778D01*
X122651271Y-122643448D01*
X122549814Y-122560186D01*
X122466552Y-122458729D01*
X122437222Y-122422991D01*
X122353557Y-122266466D01*
X122302037Y-122096627D01*
X122284641Y-121920000D01*
X122302037Y-121743373D01*
X122353557Y-121573534D01*
X122437222Y-121417009D01*
X122484859Y-121358963D01*
X122549814Y-121279814D01*
X122651271Y-121196552D01*
X122687009Y-121167222D01*
X122843534Y-121083557D01*
X123013373Y-121032037D01*
X123079558Y-121025518D01*
X123145740Y-121019000D01*
X123234260Y-121019000D01*
X123300442Y-121025518D01*
X123300442Y-121025518D01*
G37*
G36*
X120760442Y-118485518D02*
G01*
X120826627Y-118492037D01*
X120996466Y-118543557D01*
X121152991Y-118627222D01*
X121188729Y-118656552D01*
X121290186Y-118739814D01*
X121373448Y-118841271D01*
X121402778Y-118877009D01*
X121486443Y-119033534D01*
X121537963Y-119203373D01*
X121555359Y-119380000D01*
X121537963Y-119556627D01*
X121486443Y-119726466D01*
X121402778Y-119882991D01*
X121373448Y-119918729D01*
X121290186Y-120020186D01*
X121188729Y-120103448D01*
X121152991Y-120132778D01*
X120996466Y-120216443D01*
X120826627Y-120267963D01*
X120760442Y-120274482D01*
X120694260Y-120281000D01*
X120605740Y-120281000D01*
X120539558Y-120274482D01*
X120473373Y-120267963D01*
X120303534Y-120216443D01*
X120147009Y-120132778D01*
X120111271Y-120103448D01*
X120009814Y-120020186D01*
X119926552Y-119918729D01*
X119897222Y-119882991D01*
X119813557Y-119726466D01*
X119762037Y-119556627D01*
X119744641Y-119380000D01*
X119762037Y-119203373D01*
X119813557Y-119033534D01*
X119897222Y-118877009D01*
X119926552Y-118841271D01*
X120009814Y-118739814D01*
X120111271Y-118656552D01*
X120147009Y-118627222D01*
X120303534Y-118543557D01*
X120473373Y-118492037D01*
X120539558Y-118485518D01*
X120605740Y-118479000D01*
X120694260Y-118479000D01*
X120760442Y-118485518D01*
X120760442Y-118485518D01*
G37*
G36*
X123300442Y-118485518D02*
G01*
X123366627Y-118492037D01*
X123536466Y-118543557D01*
X123692991Y-118627222D01*
X123728729Y-118656552D01*
X123830186Y-118739814D01*
X123913448Y-118841271D01*
X123942778Y-118877009D01*
X124026443Y-119033534D01*
X124077963Y-119203373D01*
X124095359Y-119380000D01*
X124077963Y-119556627D01*
X124026443Y-119726466D01*
X123942778Y-119882991D01*
X123913448Y-119918729D01*
X123830186Y-120020186D01*
X123728729Y-120103448D01*
X123692991Y-120132778D01*
X123536466Y-120216443D01*
X123366627Y-120267963D01*
X123300442Y-120274482D01*
X123234260Y-120281000D01*
X123145740Y-120281000D01*
X123079558Y-120274482D01*
X123013373Y-120267963D01*
X122843534Y-120216443D01*
X122687009Y-120132778D01*
X122651271Y-120103448D01*
X122549814Y-120020186D01*
X122466552Y-119918729D01*
X122437222Y-119882991D01*
X122353557Y-119726466D01*
X122302037Y-119556627D01*
X122284641Y-119380000D01*
X122302037Y-119203373D01*
X122353557Y-119033534D01*
X122437222Y-118877009D01*
X122466552Y-118841271D01*
X122549814Y-118739814D01*
X122651271Y-118656552D01*
X122687009Y-118627222D01*
X122843534Y-118543557D01*
X123013373Y-118492037D01*
X123079558Y-118485518D01*
X123145740Y-118479000D01*
X123234260Y-118479000D01*
X123300442Y-118485518D01*
X123300442Y-118485518D01*
G37*
G36*
X123300442Y-115945518D02*
G01*
X123366627Y-115952037D01*
X123536466Y-116003557D01*
X123692991Y-116087222D01*
X123728729Y-116116552D01*
X123830186Y-116199814D01*
X123913448Y-116301271D01*
X123942778Y-116337009D01*
X124026443Y-116493534D01*
X124077963Y-116663373D01*
X124095359Y-116840000D01*
X124077963Y-117016627D01*
X124026443Y-117186466D01*
X123942778Y-117342991D01*
X123913448Y-117378729D01*
X123830186Y-117480186D01*
X123728729Y-117563448D01*
X123692991Y-117592778D01*
X123536466Y-117676443D01*
X123366627Y-117727963D01*
X123300442Y-117734482D01*
X123234260Y-117741000D01*
X123145740Y-117741000D01*
X123079558Y-117734482D01*
X123013373Y-117727963D01*
X122843534Y-117676443D01*
X122687009Y-117592778D01*
X122651271Y-117563448D01*
X122549814Y-117480186D01*
X122466552Y-117378729D01*
X122437222Y-117342991D01*
X122353557Y-117186466D01*
X122302037Y-117016627D01*
X122284641Y-116840000D01*
X122302037Y-116663373D01*
X122353557Y-116493534D01*
X122437222Y-116337009D01*
X122466552Y-116301271D01*
X122549814Y-116199814D01*
X122651271Y-116116552D01*
X122687009Y-116087222D01*
X122843534Y-116003557D01*
X123013373Y-115952037D01*
X123079558Y-115945518D01*
X123145740Y-115939000D01*
X123234260Y-115939000D01*
X123300442Y-115945518D01*
X123300442Y-115945518D01*
G37*
G36*
X120760442Y-115945518D02*
G01*
X120826627Y-115952037D01*
X120996466Y-116003557D01*
X121152991Y-116087222D01*
X121188729Y-116116552D01*
X121290186Y-116199814D01*
X121373448Y-116301271D01*
X121402778Y-116337009D01*
X121486443Y-116493534D01*
X121537963Y-116663373D01*
X121555359Y-116840000D01*
X121537963Y-117016627D01*
X121486443Y-117186466D01*
X121402778Y-117342991D01*
X121373448Y-117378729D01*
X121290186Y-117480186D01*
X121188729Y-117563448D01*
X121152991Y-117592778D01*
X120996466Y-117676443D01*
X120826627Y-117727963D01*
X120760442Y-117734482D01*
X120694260Y-117741000D01*
X120605740Y-117741000D01*
X120539558Y-117734482D01*
X120473373Y-117727963D01*
X120303534Y-117676443D01*
X120147009Y-117592778D01*
X120111271Y-117563448D01*
X120009814Y-117480186D01*
X119926552Y-117378729D01*
X119897222Y-117342991D01*
X119813557Y-117186466D01*
X119762037Y-117016627D01*
X119744641Y-116840000D01*
X119762037Y-116663373D01*
X119813557Y-116493534D01*
X119897222Y-116337009D01*
X119926552Y-116301271D01*
X120009814Y-116199814D01*
X120111271Y-116116552D01*
X120147009Y-116087222D01*
X120303534Y-116003557D01*
X120473373Y-115952037D01*
X120539558Y-115945518D01*
X120605740Y-115939000D01*
X120694260Y-115939000D01*
X120760442Y-115945518D01*
X120760442Y-115945518D01*
G37*
G36*
X140601000Y-116471000D02*
G01*
X138799000Y-116471000D01*
X138799000Y-114669000D01*
X140601000Y-114669000D01*
X140601000Y-116471000D01*
X140601000Y-116471000D01*
G37*
G36*
X142350443Y-114675519D02*
G01*
X142416627Y-114682037D01*
X142586466Y-114733557D01*
X142742991Y-114817222D01*
X142778729Y-114846552D01*
X142880186Y-114929814D01*
X142963448Y-115031271D01*
X142992778Y-115067009D01*
X143076443Y-115223534D01*
X143127963Y-115393373D01*
X143145359Y-115570000D01*
X143127963Y-115746627D01*
X143076443Y-115916466D01*
X142992778Y-116072991D01*
X142963448Y-116108729D01*
X142880186Y-116210186D01*
X142778729Y-116293448D01*
X142742991Y-116322778D01*
X142586466Y-116406443D01*
X142416627Y-116457963D01*
X142350442Y-116464482D01*
X142284260Y-116471000D01*
X142195740Y-116471000D01*
X142129558Y-116464482D01*
X142063373Y-116457963D01*
X141893534Y-116406443D01*
X141737009Y-116322778D01*
X141701271Y-116293448D01*
X141599814Y-116210186D01*
X141516552Y-116108729D01*
X141487222Y-116072991D01*
X141403557Y-115916466D01*
X141352037Y-115746627D01*
X141334641Y-115570000D01*
X141352037Y-115393373D01*
X141403557Y-115223534D01*
X141487222Y-115067009D01*
X141516552Y-115031271D01*
X141599814Y-114929814D01*
X141701271Y-114846552D01*
X141737009Y-114817222D01*
X141893534Y-114733557D01*
X142063373Y-114682037D01*
X142129557Y-114675519D01*
X142195740Y-114669000D01*
X142284260Y-114669000D01*
X142350443Y-114675519D01*
X142350443Y-114675519D01*
G37*
G36*
X121551000Y-115201000D02*
G01*
X119749000Y-115201000D01*
X119749000Y-113399000D01*
X121551000Y-113399000D01*
X121551000Y-115201000D01*
X121551000Y-115201000D01*
G37*
G36*
X124091000Y-115201000D02*
G01*
X122289000Y-115201000D01*
X122289000Y-113399000D01*
X124091000Y-113399000D01*
X124091000Y-115201000D01*
X124091000Y-115201000D01*
G37*
G36*
X142350442Y-110865518D02*
G01*
X142416627Y-110872037D01*
X142586466Y-110923557D01*
X142742991Y-111007222D01*
X142778729Y-111036552D01*
X142880186Y-111119814D01*
X142963448Y-111221271D01*
X142992778Y-111257009D01*
X143076443Y-111413534D01*
X143127963Y-111583373D01*
X143145359Y-111760000D01*
X143127963Y-111936627D01*
X143076443Y-112106466D01*
X142992778Y-112262991D01*
X142963448Y-112298729D01*
X142880186Y-112400186D01*
X142778729Y-112483448D01*
X142742991Y-112512778D01*
X142586466Y-112596443D01*
X142416627Y-112647963D01*
X142350442Y-112654482D01*
X142284260Y-112661000D01*
X142195740Y-112661000D01*
X142129558Y-112654482D01*
X142063373Y-112647963D01*
X141893534Y-112596443D01*
X141737009Y-112512778D01*
X141701271Y-112483448D01*
X141599814Y-112400186D01*
X141516552Y-112298729D01*
X141487222Y-112262991D01*
X141403557Y-112106466D01*
X141352037Y-111936627D01*
X141334641Y-111760000D01*
X141352037Y-111583373D01*
X141403557Y-111413534D01*
X141487222Y-111257009D01*
X141516552Y-111221271D01*
X141599814Y-111119814D01*
X141701271Y-111036552D01*
X141737009Y-111007222D01*
X141893534Y-110923557D01*
X142063373Y-110872037D01*
X142129558Y-110865518D01*
X142195740Y-110859000D01*
X142284260Y-110859000D01*
X142350442Y-110865518D01*
X142350442Y-110865518D01*
G37*
G36*
X140601000Y-112661000D02*
G01*
X138799000Y-112661000D01*
X138799000Y-110859000D01*
X140601000Y-110859000D01*
X140601000Y-112661000D01*
X140601000Y-112661000D01*
G37*
G36*
X149584363Y-106997099D02*
G01*
X149650547Y-107003617D01*
X149820386Y-107055137D01*
X149976911Y-107138802D01*
X150012649Y-107168132D01*
X150114106Y-107251394D01*
X150170560Y-107320185D01*
X150226698Y-107388589D01*
X150310363Y-107545114D01*
X150361883Y-107714953D01*
X150379279Y-107891580D01*
X150361883Y-108068207D01*
X150310363Y-108238046D01*
X150226698Y-108394571D01*
X150197368Y-108430309D01*
X150114106Y-108531766D01*
X150012649Y-108615028D01*
X149976911Y-108644358D01*
X149820386Y-108728023D01*
X149650547Y-108779543D01*
X149584363Y-108786061D01*
X149518180Y-108792580D01*
X149429660Y-108792580D01*
X149363477Y-108786061D01*
X149297293Y-108779543D01*
X149127454Y-108728023D01*
X148970929Y-108644358D01*
X148935191Y-108615028D01*
X148833734Y-108531766D01*
X148750472Y-108430309D01*
X148721142Y-108394571D01*
X148637477Y-108238046D01*
X148585957Y-108068207D01*
X148568561Y-107891580D01*
X148585957Y-107714953D01*
X148637477Y-107545114D01*
X148721142Y-107388589D01*
X148777280Y-107320185D01*
X148833734Y-107251394D01*
X148935191Y-107168132D01*
X148970929Y-107138802D01*
X149127454Y-107055137D01*
X149297293Y-107003617D01*
X149363477Y-106997099D01*
X149429660Y-106990580D01*
X149518180Y-106990580D01*
X149584363Y-106997099D01*
X149584363Y-106997099D01*
G37*
G36*
X131804363Y-106997099D02*
G01*
X131870547Y-107003617D01*
X132040386Y-107055137D01*
X132196911Y-107138802D01*
X132232649Y-107168132D01*
X132334106Y-107251394D01*
X132390560Y-107320185D01*
X132446698Y-107388589D01*
X132530363Y-107545114D01*
X132581883Y-107714953D01*
X132599279Y-107891580D01*
X132581883Y-108068207D01*
X132530363Y-108238046D01*
X132446698Y-108394571D01*
X132417368Y-108430309D01*
X132334106Y-108531766D01*
X132232649Y-108615028D01*
X132196911Y-108644358D01*
X132040386Y-108728023D01*
X131870547Y-108779543D01*
X131804363Y-108786061D01*
X131738180Y-108792580D01*
X131649660Y-108792580D01*
X131583477Y-108786061D01*
X131517293Y-108779543D01*
X131347454Y-108728023D01*
X131190929Y-108644358D01*
X131155191Y-108615028D01*
X131053734Y-108531766D01*
X130970472Y-108430309D01*
X130941142Y-108394571D01*
X130857477Y-108238046D01*
X130805957Y-108068207D01*
X130788561Y-107891580D01*
X130805957Y-107714953D01*
X130857477Y-107545114D01*
X130941142Y-107388589D01*
X130997280Y-107320185D01*
X131053734Y-107251394D01*
X131155191Y-107168132D01*
X131190929Y-107138802D01*
X131347454Y-107055137D01*
X131517293Y-107003617D01*
X131583477Y-106997099D01*
X131649660Y-106990580D01*
X131738180Y-106990580D01*
X131804363Y-106997099D01*
X131804363Y-106997099D01*
G37*
G36*
X124570443Y-105785519D02*
G01*
X124636627Y-105792037D01*
X124806466Y-105843557D01*
X124962991Y-105927222D01*
X124998729Y-105956552D01*
X125100186Y-106039814D01*
X125183448Y-106141271D01*
X125212778Y-106177009D01*
X125296443Y-106333534D01*
X125347963Y-106503373D01*
X125365359Y-106680000D01*
X125347963Y-106856627D01*
X125296443Y-107026466D01*
X125212778Y-107182991D01*
X125183448Y-107218729D01*
X125100186Y-107320186D01*
X125016835Y-107388589D01*
X124962991Y-107432778D01*
X124806466Y-107516443D01*
X124636627Y-107567963D01*
X124570443Y-107574481D01*
X124504260Y-107581000D01*
X124415740Y-107581000D01*
X124349557Y-107574481D01*
X124283373Y-107567963D01*
X124113534Y-107516443D01*
X123957009Y-107432778D01*
X123903165Y-107388589D01*
X123819814Y-107320186D01*
X123736552Y-107218729D01*
X123707222Y-107182991D01*
X123623557Y-107026466D01*
X123572037Y-106856627D01*
X123554641Y-106680000D01*
X123572037Y-106503373D01*
X123623557Y-106333534D01*
X123707222Y-106177009D01*
X123736552Y-106141271D01*
X123819814Y-106039814D01*
X123921271Y-105956552D01*
X123957009Y-105927222D01*
X124113534Y-105843557D01*
X124283373Y-105792037D01*
X124349557Y-105785519D01*
X124415740Y-105779000D01*
X124504260Y-105779000D01*
X124570443Y-105785519D01*
X124570443Y-105785519D01*
G37*
G36*
X122030443Y-105785519D02*
G01*
X122096627Y-105792037D01*
X122266466Y-105843557D01*
X122422991Y-105927222D01*
X122458729Y-105956552D01*
X122560186Y-106039814D01*
X122643448Y-106141271D01*
X122672778Y-106177009D01*
X122756443Y-106333534D01*
X122807963Y-106503373D01*
X122825359Y-106680000D01*
X122807963Y-106856627D01*
X122756443Y-107026466D01*
X122672778Y-107182991D01*
X122643448Y-107218729D01*
X122560186Y-107320186D01*
X122476835Y-107388589D01*
X122422991Y-107432778D01*
X122266466Y-107516443D01*
X122096627Y-107567963D01*
X122030443Y-107574481D01*
X121964260Y-107581000D01*
X121875740Y-107581000D01*
X121809557Y-107574481D01*
X121743373Y-107567963D01*
X121573534Y-107516443D01*
X121417009Y-107432778D01*
X121363165Y-107388589D01*
X121279814Y-107320186D01*
X121196552Y-107218729D01*
X121167222Y-107182991D01*
X121083557Y-107026466D01*
X121032037Y-106856627D01*
X121014641Y-106680000D01*
X121032037Y-106503373D01*
X121083557Y-106333534D01*
X121167222Y-106177009D01*
X121196552Y-106141271D01*
X121279814Y-106039814D01*
X121381271Y-105956552D01*
X121417009Y-105927222D01*
X121573534Y-105843557D01*
X121743373Y-105792037D01*
X121809557Y-105785519D01*
X121875740Y-105779000D01*
X121964260Y-105779000D01*
X122030443Y-105785519D01*
X122030443Y-105785519D01*
G37*
G36*
X131804363Y-104457099D02*
G01*
X131870547Y-104463617D01*
X132040386Y-104515137D01*
X132196911Y-104598802D01*
X132232649Y-104628132D01*
X132334106Y-104711394D01*
X132390560Y-104780185D01*
X132446698Y-104848589D01*
X132530363Y-105005114D01*
X132581883Y-105174953D01*
X132599279Y-105351580D01*
X132581883Y-105528207D01*
X132530363Y-105698046D01*
X132446698Y-105854571D01*
X132417368Y-105890309D01*
X132334106Y-105991766D01*
X132232649Y-106075028D01*
X132196911Y-106104358D01*
X132040386Y-106188023D01*
X131870547Y-106239543D01*
X131804363Y-106246061D01*
X131738180Y-106252580D01*
X131649660Y-106252580D01*
X131583477Y-106246061D01*
X131517293Y-106239543D01*
X131347454Y-106188023D01*
X131190929Y-106104358D01*
X131155191Y-106075028D01*
X131053734Y-105991766D01*
X130970472Y-105890309D01*
X130941142Y-105854571D01*
X130857477Y-105698046D01*
X130805957Y-105528207D01*
X130788561Y-105351580D01*
X130805957Y-105174953D01*
X130857477Y-105005114D01*
X130941142Y-104848589D01*
X130997280Y-104780185D01*
X131053734Y-104711394D01*
X131155191Y-104628132D01*
X131190929Y-104598802D01*
X131347454Y-104515137D01*
X131517293Y-104463617D01*
X131583477Y-104457099D01*
X131649660Y-104450580D01*
X131738180Y-104450580D01*
X131804363Y-104457099D01*
X131804363Y-104457099D01*
G37*
G36*
X149584363Y-104457099D02*
G01*
X149650547Y-104463617D01*
X149820386Y-104515137D01*
X149976911Y-104598802D01*
X150012649Y-104628132D01*
X150114106Y-104711394D01*
X150170560Y-104780185D01*
X150226698Y-104848589D01*
X150310363Y-105005114D01*
X150361883Y-105174953D01*
X150379279Y-105351580D01*
X150361883Y-105528207D01*
X150310363Y-105698046D01*
X150226698Y-105854571D01*
X150197368Y-105890309D01*
X150114106Y-105991766D01*
X150012649Y-106075028D01*
X149976911Y-106104358D01*
X149820386Y-106188023D01*
X149650547Y-106239543D01*
X149584363Y-106246061D01*
X149518180Y-106252580D01*
X149429660Y-106252580D01*
X149363477Y-106246061D01*
X149297293Y-106239543D01*
X149127454Y-106188023D01*
X148970929Y-106104358D01*
X148935191Y-106075028D01*
X148833734Y-105991766D01*
X148750472Y-105890309D01*
X148721142Y-105854571D01*
X148637477Y-105698046D01*
X148585957Y-105528207D01*
X148568561Y-105351580D01*
X148585957Y-105174953D01*
X148637477Y-105005114D01*
X148721142Y-104848589D01*
X148777280Y-104780185D01*
X148833734Y-104711394D01*
X148935191Y-104628132D01*
X148970929Y-104598802D01*
X149127454Y-104515137D01*
X149297293Y-104463617D01*
X149363477Y-104457099D01*
X149429660Y-104450580D01*
X149518180Y-104450580D01*
X149584363Y-104457099D01*
X149584363Y-104457099D01*
G37*
G36*
X124570443Y-103245519D02*
G01*
X124636627Y-103252037D01*
X124806466Y-103303557D01*
X124962991Y-103387222D01*
X124998729Y-103416552D01*
X125100186Y-103499814D01*
X125183448Y-103601271D01*
X125212778Y-103637009D01*
X125296443Y-103793534D01*
X125347963Y-103963373D01*
X125365359Y-104140000D01*
X125347963Y-104316627D01*
X125296443Y-104486466D01*
X125212778Y-104642991D01*
X125183448Y-104678729D01*
X125100186Y-104780186D01*
X125016835Y-104848589D01*
X124962991Y-104892778D01*
X124806466Y-104976443D01*
X124636627Y-105027963D01*
X124570442Y-105034482D01*
X124504260Y-105041000D01*
X124415740Y-105041000D01*
X124349557Y-105034481D01*
X124283373Y-105027963D01*
X124113534Y-104976443D01*
X123957009Y-104892778D01*
X123903165Y-104848589D01*
X123819814Y-104780186D01*
X123736552Y-104678729D01*
X123707222Y-104642991D01*
X123623557Y-104486466D01*
X123572037Y-104316627D01*
X123554641Y-104140000D01*
X123572037Y-103963373D01*
X123623557Y-103793534D01*
X123707222Y-103637009D01*
X123736552Y-103601271D01*
X123819814Y-103499814D01*
X123921271Y-103416552D01*
X123957009Y-103387222D01*
X124113534Y-103303557D01*
X124283373Y-103252037D01*
X124349558Y-103245518D01*
X124415740Y-103239000D01*
X124504260Y-103239000D01*
X124570443Y-103245519D01*
X124570443Y-103245519D01*
G37*
G36*
X122030443Y-103245519D02*
G01*
X122096627Y-103252037D01*
X122266466Y-103303557D01*
X122422991Y-103387222D01*
X122458729Y-103416552D01*
X122560186Y-103499814D01*
X122643448Y-103601271D01*
X122672778Y-103637009D01*
X122756443Y-103793534D01*
X122807963Y-103963373D01*
X122825359Y-104140000D01*
X122807963Y-104316627D01*
X122756443Y-104486466D01*
X122672778Y-104642991D01*
X122643448Y-104678729D01*
X122560186Y-104780186D01*
X122476835Y-104848589D01*
X122422991Y-104892778D01*
X122266466Y-104976443D01*
X122096627Y-105027963D01*
X122030442Y-105034482D01*
X121964260Y-105041000D01*
X121875740Y-105041000D01*
X121809557Y-105034481D01*
X121743373Y-105027963D01*
X121573534Y-104976443D01*
X121417009Y-104892778D01*
X121363165Y-104848589D01*
X121279814Y-104780186D01*
X121196552Y-104678729D01*
X121167222Y-104642991D01*
X121083557Y-104486466D01*
X121032037Y-104316627D01*
X121014641Y-104140000D01*
X121032037Y-103963373D01*
X121083557Y-103793534D01*
X121167222Y-103637009D01*
X121196552Y-103601271D01*
X121279814Y-103499814D01*
X121381271Y-103416552D01*
X121417009Y-103387222D01*
X121573534Y-103303557D01*
X121743373Y-103252037D01*
X121809558Y-103245518D01*
X121875740Y-103239000D01*
X121964260Y-103239000D01*
X122030443Y-103245519D01*
X122030443Y-103245519D01*
G37*
G36*
X131804362Y-101917098D02*
G01*
X131870547Y-101923617D01*
X132040386Y-101975137D01*
X132196911Y-102058802D01*
X132232649Y-102088132D01*
X132334106Y-102171394D01*
X132390560Y-102240185D01*
X132446698Y-102308589D01*
X132530363Y-102465114D01*
X132581883Y-102634953D01*
X132599279Y-102811580D01*
X132581883Y-102988207D01*
X132530363Y-103158046D01*
X132446698Y-103314571D01*
X132417368Y-103350309D01*
X132334106Y-103451766D01*
X132232649Y-103535028D01*
X132196911Y-103564358D01*
X132040386Y-103648023D01*
X131870547Y-103699543D01*
X131804363Y-103706061D01*
X131738180Y-103712580D01*
X131649660Y-103712580D01*
X131583477Y-103706061D01*
X131517293Y-103699543D01*
X131347454Y-103648023D01*
X131190929Y-103564358D01*
X131155191Y-103535028D01*
X131053734Y-103451766D01*
X130970472Y-103350309D01*
X130941142Y-103314571D01*
X130857477Y-103158046D01*
X130805957Y-102988207D01*
X130788561Y-102811580D01*
X130805957Y-102634953D01*
X130857477Y-102465114D01*
X130941142Y-102308589D01*
X130997280Y-102240185D01*
X131053734Y-102171394D01*
X131155191Y-102088132D01*
X131190929Y-102058802D01*
X131347454Y-101975137D01*
X131517293Y-101923617D01*
X131583478Y-101917098D01*
X131649660Y-101910580D01*
X131738180Y-101910580D01*
X131804362Y-101917098D01*
X131804362Y-101917098D01*
G37*
G36*
X149584362Y-101917098D02*
G01*
X149650547Y-101923617D01*
X149820386Y-101975137D01*
X149976911Y-102058802D01*
X150012649Y-102088132D01*
X150114106Y-102171394D01*
X150170560Y-102240185D01*
X150226698Y-102308589D01*
X150310363Y-102465114D01*
X150361883Y-102634953D01*
X150379279Y-102811580D01*
X150361883Y-102988207D01*
X150310363Y-103158046D01*
X150226698Y-103314571D01*
X150197368Y-103350309D01*
X150114106Y-103451766D01*
X150012649Y-103535028D01*
X149976911Y-103564358D01*
X149820386Y-103648023D01*
X149650547Y-103699543D01*
X149584363Y-103706061D01*
X149518180Y-103712580D01*
X149429660Y-103712580D01*
X149363477Y-103706061D01*
X149297293Y-103699543D01*
X149127454Y-103648023D01*
X148970929Y-103564358D01*
X148935191Y-103535028D01*
X148833734Y-103451766D01*
X148750472Y-103350309D01*
X148721142Y-103314571D01*
X148637477Y-103158046D01*
X148585957Y-102988207D01*
X148568561Y-102811580D01*
X148585957Y-102634953D01*
X148637477Y-102465114D01*
X148721142Y-102308589D01*
X148777280Y-102240185D01*
X148833734Y-102171394D01*
X148935191Y-102088132D01*
X148970929Y-102058802D01*
X149127454Y-101975137D01*
X149297293Y-101923617D01*
X149363478Y-101917098D01*
X149429660Y-101910580D01*
X149518180Y-101910580D01*
X149584362Y-101917098D01*
X149584362Y-101917098D01*
G37*
G36*
X124570443Y-100705519D02*
G01*
X124636627Y-100712037D01*
X124806466Y-100763557D01*
X124962991Y-100847222D01*
X124998729Y-100876552D01*
X125100186Y-100959814D01*
X125183448Y-101061271D01*
X125212778Y-101097009D01*
X125296443Y-101253534D01*
X125347963Y-101423373D01*
X125365359Y-101600000D01*
X125347963Y-101776627D01*
X125296443Y-101946466D01*
X125212778Y-102102991D01*
X125183448Y-102138729D01*
X125100186Y-102240186D01*
X125016835Y-102308589D01*
X124962991Y-102352778D01*
X124806466Y-102436443D01*
X124636627Y-102487963D01*
X124570442Y-102494482D01*
X124504260Y-102501000D01*
X124415740Y-102501000D01*
X124349558Y-102494482D01*
X124283373Y-102487963D01*
X124113534Y-102436443D01*
X123957009Y-102352778D01*
X123903165Y-102308589D01*
X123819814Y-102240186D01*
X123736552Y-102138729D01*
X123707222Y-102102991D01*
X123623557Y-101946466D01*
X123572037Y-101776627D01*
X123554641Y-101600000D01*
X123572037Y-101423373D01*
X123623557Y-101253534D01*
X123707222Y-101097009D01*
X123736552Y-101061271D01*
X123819814Y-100959814D01*
X123921271Y-100876552D01*
X123957009Y-100847222D01*
X124113534Y-100763557D01*
X124283373Y-100712037D01*
X124349557Y-100705519D01*
X124415740Y-100699000D01*
X124504260Y-100699000D01*
X124570443Y-100705519D01*
X124570443Y-100705519D01*
G37*
G36*
X122030443Y-100705519D02*
G01*
X122096627Y-100712037D01*
X122266466Y-100763557D01*
X122422991Y-100847222D01*
X122458729Y-100876552D01*
X122560186Y-100959814D01*
X122643448Y-101061271D01*
X122672778Y-101097009D01*
X122756443Y-101253534D01*
X122807963Y-101423373D01*
X122825359Y-101600000D01*
X122807963Y-101776627D01*
X122756443Y-101946466D01*
X122672778Y-102102991D01*
X122643448Y-102138729D01*
X122560186Y-102240186D01*
X122476835Y-102308589D01*
X122422991Y-102352778D01*
X122266466Y-102436443D01*
X122096627Y-102487963D01*
X122030442Y-102494482D01*
X121964260Y-102501000D01*
X121875740Y-102501000D01*
X121809558Y-102494482D01*
X121743373Y-102487963D01*
X121573534Y-102436443D01*
X121417009Y-102352778D01*
X121363165Y-102308589D01*
X121279814Y-102240186D01*
X121196552Y-102138729D01*
X121167222Y-102102991D01*
X121083557Y-101946466D01*
X121032037Y-101776627D01*
X121014641Y-101600000D01*
X121032037Y-101423373D01*
X121083557Y-101253534D01*
X121167222Y-101097009D01*
X121196552Y-101061271D01*
X121279814Y-100959814D01*
X121381271Y-100876552D01*
X121417009Y-100847222D01*
X121573534Y-100763557D01*
X121743373Y-100712037D01*
X121809557Y-100705519D01*
X121875740Y-100699000D01*
X121964260Y-100699000D01*
X122030443Y-100705519D01*
X122030443Y-100705519D01*
G37*
G36*
X132594920Y-101172580D02*
G01*
X130792920Y-101172580D01*
X130792920Y-99370580D01*
X132594920Y-99370580D01*
X132594920Y-101172580D01*
X132594920Y-101172580D01*
G37*
G36*
X150374920Y-101172580D02*
G01*
X148572920Y-101172580D01*
X148572920Y-99370580D01*
X150374920Y-99370580D01*
X150374920Y-101172580D01*
X150374920Y-101172580D01*
G37*
G36*
X122030443Y-98165519D02*
G01*
X122096627Y-98172037D01*
X122266466Y-98223557D01*
X122422991Y-98307222D01*
X122458729Y-98336552D01*
X122560186Y-98419814D01*
X122643448Y-98521271D01*
X122672778Y-98557009D01*
X122756443Y-98713534D01*
X122807963Y-98883373D01*
X122825359Y-99060000D01*
X122807963Y-99236627D01*
X122756443Y-99406466D01*
X122672778Y-99562991D01*
X122643448Y-99598729D01*
X122560186Y-99700186D01*
X122458729Y-99783448D01*
X122422991Y-99812778D01*
X122266466Y-99896443D01*
X122096627Y-99947963D01*
X122030443Y-99954481D01*
X121964260Y-99961000D01*
X121875740Y-99961000D01*
X121809557Y-99954481D01*
X121743373Y-99947963D01*
X121573534Y-99896443D01*
X121417009Y-99812778D01*
X121381271Y-99783448D01*
X121279814Y-99700186D01*
X121196552Y-99598729D01*
X121167222Y-99562991D01*
X121083557Y-99406466D01*
X121032037Y-99236627D01*
X121014641Y-99060000D01*
X121032037Y-98883373D01*
X121083557Y-98713534D01*
X121167222Y-98557009D01*
X121196552Y-98521271D01*
X121279814Y-98419814D01*
X121381271Y-98336552D01*
X121417009Y-98307222D01*
X121573534Y-98223557D01*
X121743373Y-98172037D01*
X121809557Y-98165519D01*
X121875740Y-98159000D01*
X121964260Y-98159000D01*
X122030443Y-98165519D01*
X122030443Y-98165519D01*
G37*
G36*
X124570443Y-98165519D02*
G01*
X124636627Y-98172037D01*
X124806466Y-98223557D01*
X124962991Y-98307222D01*
X124998729Y-98336552D01*
X125100186Y-98419814D01*
X125183448Y-98521271D01*
X125212778Y-98557009D01*
X125296443Y-98713534D01*
X125347963Y-98883373D01*
X125365359Y-99060000D01*
X125347963Y-99236627D01*
X125296443Y-99406466D01*
X125212778Y-99562991D01*
X125183448Y-99598729D01*
X125100186Y-99700186D01*
X124998729Y-99783448D01*
X124962991Y-99812778D01*
X124806466Y-99896443D01*
X124636627Y-99947963D01*
X124570443Y-99954481D01*
X124504260Y-99961000D01*
X124415740Y-99961000D01*
X124349557Y-99954481D01*
X124283373Y-99947963D01*
X124113534Y-99896443D01*
X123957009Y-99812778D01*
X123921271Y-99783448D01*
X123819814Y-99700186D01*
X123736552Y-99598729D01*
X123707222Y-99562991D01*
X123623557Y-99406466D01*
X123572037Y-99236627D01*
X123554641Y-99060000D01*
X123572037Y-98883373D01*
X123623557Y-98713534D01*
X123707222Y-98557009D01*
X123736552Y-98521271D01*
X123819814Y-98419814D01*
X123921271Y-98336552D01*
X123957009Y-98307222D01*
X124113534Y-98223557D01*
X124283373Y-98172037D01*
X124349557Y-98165519D01*
X124415740Y-98159000D01*
X124504260Y-98159000D01*
X124570443Y-98165519D01*
X124570443Y-98165519D01*
G37*
G36*
X142350442Y-96895518D02*
G01*
X142416627Y-96902037D01*
X142586466Y-96953557D01*
X142742991Y-97037222D01*
X142778729Y-97066552D01*
X142880186Y-97149814D01*
X142963448Y-97251271D01*
X142992778Y-97287009D01*
X143076443Y-97443534D01*
X143127963Y-97613373D01*
X143145359Y-97790000D01*
X143127963Y-97966627D01*
X143076443Y-98136466D01*
X142992778Y-98292991D01*
X142963448Y-98328729D01*
X142880186Y-98430186D01*
X142778729Y-98513448D01*
X142742991Y-98542778D01*
X142586466Y-98626443D01*
X142416627Y-98677963D01*
X142350442Y-98684482D01*
X142284260Y-98691000D01*
X142195740Y-98691000D01*
X142129558Y-98684482D01*
X142063373Y-98677963D01*
X141893534Y-98626443D01*
X141737009Y-98542778D01*
X141701271Y-98513448D01*
X141599814Y-98430186D01*
X141516552Y-98328729D01*
X141487222Y-98292991D01*
X141403557Y-98136466D01*
X141352037Y-97966627D01*
X141334641Y-97790000D01*
X141352037Y-97613373D01*
X141403557Y-97443534D01*
X141487222Y-97287009D01*
X141516552Y-97251271D01*
X141599814Y-97149814D01*
X141701271Y-97066552D01*
X141737009Y-97037222D01*
X141893534Y-96953557D01*
X142063373Y-96902037D01*
X142129558Y-96895518D01*
X142195740Y-96889000D01*
X142284260Y-96889000D01*
X142350442Y-96895518D01*
X142350442Y-96895518D01*
G37*
G36*
X140601000Y-98691000D02*
G01*
X138799000Y-98691000D01*
X138799000Y-96889000D01*
X140601000Y-96889000D01*
X140601000Y-98691000D01*
X140601000Y-98691000D01*
G37*
G36*
X122030442Y-95625518D02*
G01*
X122096627Y-95632037D01*
X122266466Y-95683557D01*
X122422991Y-95767222D01*
X122458729Y-95796552D01*
X122560186Y-95879814D01*
X122643448Y-95981271D01*
X122672778Y-96017009D01*
X122756443Y-96173534D01*
X122807963Y-96343373D01*
X122825359Y-96520000D01*
X122807963Y-96696627D01*
X122756443Y-96866466D01*
X122672778Y-97022991D01*
X122643448Y-97058729D01*
X122560186Y-97160186D01*
X122458729Y-97243448D01*
X122422991Y-97272778D01*
X122266466Y-97356443D01*
X122096627Y-97407963D01*
X122030442Y-97414482D01*
X121964260Y-97421000D01*
X121875740Y-97421000D01*
X121809558Y-97414482D01*
X121743373Y-97407963D01*
X121573534Y-97356443D01*
X121417009Y-97272778D01*
X121381271Y-97243448D01*
X121279814Y-97160186D01*
X121196552Y-97058729D01*
X121167222Y-97022991D01*
X121083557Y-96866466D01*
X121032037Y-96696627D01*
X121014641Y-96520000D01*
X121032037Y-96343373D01*
X121083557Y-96173534D01*
X121167222Y-96017009D01*
X121196552Y-95981271D01*
X121279814Y-95879814D01*
X121381271Y-95796552D01*
X121417009Y-95767222D01*
X121573534Y-95683557D01*
X121743373Y-95632037D01*
X121809558Y-95625518D01*
X121875740Y-95619000D01*
X121964260Y-95619000D01*
X122030442Y-95625518D01*
X122030442Y-95625518D01*
G37*
G36*
X125361000Y-97421000D02*
G01*
X123559000Y-97421000D01*
X123559000Y-95619000D01*
X125361000Y-95619000D01*
X125361000Y-97421000D01*
X125361000Y-97421000D01*
G37*
G36*
X140601000Y-94881000D02*
G01*
X138799000Y-94881000D01*
X138799000Y-93079000D01*
X140601000Y-93079000D01*
X140601000Y-94881000D01*
X140601000Y-94881000D01*
G37*
G36*
X160130443Y-93085519D02*
G01*
X160196627Y-93092037D01*
X160366466Y-93143557D01*
X160522991Y-93227222D01*
X160558729Y-93256552D01*
X160660186Y-93339814D01*
X160743448Y-93441271D01*
X160772778Y-93477009D01*
X160856443Y-93633534D01*
X160907963Y-93803373D01*
X160925359Y-93980000D01*
X160907963Y-94156627D01*
X160856443Y-94326466D01*
X160772778Y-94482991D01*
X160743448Y-94518729D01*
X160660186Y-94620186D01*
X160558729Y-94703448D01*
X160522991Y-94732778D01*
X160366466Y-94816443D01*
X160196627Y-94867963D01*
X160130443Y-94874481D01*
X160064260Y-94881000D01*
X159975740Y-94881000D01*
X159909557Y-94874481D01*
X159843373Y-94867963D01*
X159673534Y-94816443D01*
X159517009Y-94732778D01*
X159481271Y-94703448D01*
X159379814Y-94620186D01*
X159296552Y-94518729D01*
X159267222Y-94482991D01*
X159183557Y-94326466D01*
X159132037Y-94156627D01*
X159114641Y-93980000D01*
X159132037Y-93803373D01*
X159183557Y-93633534D01*
X159267222Y-93477009D01*
X159296552Y-93441271D01*
X159379814Y-93339814D01*
X159481271Y-93256552D01*
X159517009Y-93227222D01*
X159673534Y-93143557D01*
X159843373Y-93092037D01*
X159909557Y-93085519D01*
X159975740Y-93079000D01*
X160064260Y-93079000D01*
X160130443Y-93085519D01*
X160130443Y-93085519D01*
G37*
G36*
X157590443Y-93085519D02*
G01*
X157656627Y-93092037D01*
X157826466Y-93143557D01*
X157982991Y-93227222D01*
X158018729Y-93256552D01*
X158120186Y-93339814D01*
X158203448Y-93441271D01*
X158232778Y-93477009D01*
X158316443Y-93633534D01*
X158367963Y-93803373D01*
X158385359Y-93980000D01*
X158367963Y-94156627D01*
X158316443Y-94326466D01*
X158232778Y-94482991D01*
X158203448Y-94518729D01*
X158120186Y-94620186D01*
X158018729Y-94703448D01*
X157982991Y-94732778D01*
X157826466Y-94816443D01*
X157656627Y-94867963D01*
X157590443Y-94874481D01*
X157524260Y-94881000D01*
X157435740Y-94881000D01*
X157369557Y-94874481D01*
X157303373Y-94867963D01*
X157133534Y-94816443D01*
X156977009Y-94732778D01*
X156941271Y-94703448D01*
X156839814Y-94620186D01*
X156756552Y-94518729D01*
X156727222Y-94482991D01*
X156643557Y-94326466D01*
X156592037Y-94156627D01*
X156574641Y-93980000D01*
X156592037Y-93803373D01*
X156643557Y-93633534D01*
X156727222Y-93477009D01*
X156756552Y-93441271D01*
X156839814Y-93339814D01*
X156941271Y-93256552D01*
X156977009Y-93227222D01*
X157133534Y-93143557D01*
X157303373Y-93092037D01*
X157369557Y-93085519D01*
X157435740Y-93079000D01*
X157524260Y-93079000D01*
X157590443Y-93085519D01*
X157590443Y-93085519D01*
G37*
G36*
X155050443Y-93085519D02*
G01*
X155116627Y-93092037D01*
X155286466Y-93143557D01*
X155442991Y-93227222D01*
X155478729Y-93256552D01*
X155580186Y-93339814D01*
X155663448Y-93441271D01*
X155692778Y-93477009D01*
X155776443Y-93633534D01*
X155827963Y-93803373D01*
X155845359Y-93980000D01*
X155827963Y-94156627D01*
X155776443Y-94326466D01*
X155692778Y-94482991D01*
X155663448Y-94518729D01*
X155580186Y-94620186D01*
X155478729Y-94703448D01*
X155442991Y-94732778D01*
X155286466Y-94816443D01*
X155116627Y-94867963D01*
X155050443Y-94874481D01*
X154984260Y-94881000D01*
X154895740Y-94881000D01*
X154829557Y-94874481D01*
X154763373Y-94867963D01*
X154593534Y-94816443D01*
X154437009Y-94732778D01*
X154401271Y-94703448D01*
X154299814Y-94620186D01*
X154216552Y-94518729D01*
X154187222Y-94482991D01*
X154103557Y-94326466D01*
X154052037Y-94156627D01*
X154034641Y-93980000D01*
X154052037Y-93803373D01*
X154103557Y-93633534D01*
X154187222Y-93477009D01*
X154216552Y-93441271D01*
X154299814Y-93339814D01*
X154401271Y-93256552D01*
X154437009Y-93227222D01*
X154593534Y-93143557D01*
X154763373Y-93092037D01*
X154829557Y-93085519D01*
X154895740Y-93079000D01*
X154984260Y-93079000D01*
X155050443Y-93085519D01*
X155050443Y-93085519D01*
G37*
G36*
X153301000Y-94881000D02*
G01*
X151499000Y-94881000D01*
X151499000Y-93079000D01*
X153301000Y-93079000D01*
X153301000Y-94881000D01*
X153301000Y-94881000D01*
G37*
G36*
X142350443Y-93085519D02*
G01*
X142416627Y-93092037D01*
X142586466Y-93143557D01*
X142742991Y-93227222D01*
X142778729Y-93256552D01*
X142880186Y-93339814D01*
X142963448Y-93441271D01*
X142992778Y-93477009D01*
X143076443Y-93633534D01*
X143127963Y-93803373D01*
X143145359Y-93980000D01*
X143127963Y-94156627D01*
X143076443Y-94326466D01*
X142992778Y-94482991D01*
X142963448Y-94518729D01*
X142880186Y-94620186D01*
X142778729Y-94703448D01*
X142742991Y-94732778D01*
X142586466Y-94816443D01*
X142416627Y-94867963D01*
X142350443Y-94874481D01*
X142284260Y-94881000D01*
X142195740Y-94881000D01*
X142129557Y-94874481D01*
X142063373Y-94867963D01*
X141893534Y-94816443D01*
X141737009Y-94732778D01*
X141701271Y-94703448D01*
X141599814Y-94620186D01*
X141516552Y-94518729D01*
X141487222Y-94482991D01*
X141403557Y-94326466D01*
X141352037Y-94156627D01*
X141334641Y-93980000D01*
X141352037Y-93803373D01*
X141403557Y-93633534D01*
X141487222Y-93477009D01*
X141516552Y-93441271D01*
X141599814Y-93339814D01*
X141701271Y-93256552D01*
X141737009Y-93227222D01*
X141893534Y-93143557D01*
X142063373Y-93092037D01*
X142129557Y-93085519D01*
X142195740Y-93079000D01*
X142284260Y-93079000D01*
X142350443Y-93085519D01*
X142350443Y-93085519D01*
G37*
G36*
X141183871Y-85794786D02*
G01*
X141294780Y-85828430D01*
X141385054Y-85855814D01*
X141389530Y-85857172D01*
X141579055Y-85958475D01*
X141579058Y-85958477D01*
X141579059Y-85958478D01*
X141745186Y-86094814D01*
X141881522Y-86260941D01*
X141881525Y-86260945D01*
X141982828Y-86450470D01*
X142045214Y-86656129D01*
X142061000Y-86816409D01*
X142061000Y-88443591D01*
X142045214Y-88603871D01*
X141982828Y-88809530D01*
X141881525Y-88999055D01*
X141881523Y-88999057D01*
X141881522Y-88999059D01*
X141745186Y-89165186D01*
X141579059Y-89301522D01*
X141579057Y-89301523D01*
X141389529Y-89402828D01*
X141389526Y-89402829D01*
X141378057Y-89406308D01*
X141183870Y-89465214D01*
X140970000Y-89486278D01*
X140756129Y-89465214D01*
X140561942Y-89406308D01*
X140550473Y-89402829D01*
X140550470Y-89402828D01*
X140360945Y-89301525D01*
X140322417Y-89269906D01*
X140194814Y-89165186D01*
X140058478Y-88999059D01*
X139957173Y-88809530D01*
X139957172Y-88809529D01*
X139894786Y-88603870D01*
X139879000Y-88443590D01*
X139879000Y-86816409D01*
X139894786Y-86656126D01*
X139957171Y-86450473D01*
X140058476Y-86260945D01*
X140058479Y-86260941D01*
X140194815Y-86094814D01*
X140360942Y-85958478D01*
X140360943Y-85958477D01*
X140360946Y-85958475D01*
X140550471Y-85857172D01*
X140554948Y-85855814D01*
X140645221Y-85828430D01*
X140756130Y-85794786D01*
X140970000Y-85773722D01*
X141183871Y-85794786D01*
X141183871Y-85794786D01*
G37*
G36*
X147006217Y-85782808D02*
G01*
X147037489Y-85792294D01*
X147066308Y-85807698D01*
X147091570Y-85828430D01*
X147112302Y-85853692D01*
X147127706Y-85882511D01*
X147137192Y-85913783D01*
X147141000Y-85952448D01*
X147141000Y-89307552D01*
X147137192Y-89346217D01*
X147127706Y-89377489D01*
X147112302Y-89406308D01*
X147091570Y-89431570D01*
X147066308Y-89452302D01*
X147037489Y-89467706D01*
X147006217Y-89477192D01*
X146967552Y-89481000D01*
X145132448Y-89481000D01*
X145093783Y-89477192D01*
X145062511Y-89467706D01*
X145033692Y-89452302D01*
X145008430Y-89431570D01*
X144987698Y-89406308D01*
X144972294Y-89377489D01*
X144962808Y-89346217D01*
X144959000Y-89307552D01*
X144959000Y-85952448D01*
X144962808Y-85913783D01*
X144972294Y-85882511D01*
X144987698Y-85853692D01*
X145008430Y-85828430D01*
X145033692Y-85807698D01*
X145062511Y-85792294D01*
X145093783Y-85782808D01*
X145132448Y-85779000D01*
X146967552Y-85779000D01*
X147006217Y-85782808D01*
X147006217Y-85782808D01*
G37*
G36*
X127943927Y-86231676D02*
G01*
X128180693Y-86329748D01*
X128180695Y-86329749D01*
X128361367Y-86450470D01*
X128393779Y-86472127D01*
X128574993Y-86653341D01*
X128717372Y-86866427D01*
X128815444Y-87103193D01*
X128865440Y-87354541D01*
X128865440Y-87610819D01*
X128815444Y-87862167D01*
X128717372Y-88098933D01*
X128717371Y-88098935D01*
X128574993Y-88312019D01*
X128393779Y-88493233D01*
X128180695Y-88635611D01*
X128180694Y-88635612D01*
X128180693Y-88635612D01*
X127943927Y-88733684D01*
X127692579Y-88783680D01*
X127436301Y-88783680D01*
X127184953Y-88733684D01*
X126948187Y-88635612D01*
X126948186Y-88635612D01*
X126948185Y-88635611D01*
X126735101Y-88493233D01*
X126553887Y-88312019D01*
X126411509Y-88098935D01*
X126411508Y-88098933D01*
X126313436Y-87862167D01*
X126263440Y-87610819D01*
X126263440Y-87354541D01*
X126313436Y-87103193D01*
X126411508Y-86866427D01*
X126553887Y-86653341D01*
X126735101Y-86472127D01*
X126767513Y-86450470D01*
X126948185Y-86329749D01*
X126948187Y-86329748D01*
X127184953Y-86231676D01*
X127436301Y-86181680D01*
X127692579Y-86181680D01*
X127943927Y-86231676D01*
X127943927Y-86231676D01*
G37*
G36*
X133693927Y-86231676D02*
G01*
X133930693Y-86329748D01*
X133930695Y-86329749D01*
X134111367Y-86450470D01*
X134143779Y-86472127D01*
X134324993Y-86653341D01*
X134467372Y-86866427D01*
X134565444Y-87103193D01*
X134615440Y-87354541D01*
X134615440Y-87610819D01*
X134565444Y-87862167D01*
X134467372Y-88098933D01*
X134467371Y-88098935D01*
X134324993Y-88312019D01*
X134143779Y-88493233D01*
X133930695Y-88635611D01*
X133930694Y-88635612D01*
X133930693Y-88635612D01*
X133693927Y-88733684D01*
X133442579Y-88783680D01*
X133186301Y-88783680D01*
X132934953Y-88733684D01*
X132698187Y-88635612D01*
X132698186Y-88635612D01*
X132698185Y-88635611D01*
X132485101Y-88493233D01*
X132303887Y-88312019D01*
X132161509Y-88098935D01*
X132161508Y-88098933D01*
X132063436Y-87862167D01*
X132013440Y-87610819D01*
X132013440Y-87354541D01*
X132063436Y-87103193D01*
X132161508Y-86866427D01*
X132303887Y-86653341D01*
X132485101Y-86472127D01*
X132517513Y-86450470D01*
X132698185Y-86329749D01*
X132698187Y-86329748D01*
X132934953Y-86231676D01*
X133186301Y-86181680D01*
X133442579Y-86181680D01*
X133693927Y-86231676D01*
X133693927Y-86231676D01*
G37*
G36*
X157590443Y-82925519D02*
G01*
X157656627Y-82932037D01*
X157826466Y-82983557D01*
X157982991Y-83067222D01*
X158018729Y-83096552D01*
X158120186Y-83179814D01*
X158203448Y-83281271D01*
X158232778Y-83317009D01*
X158316443Y-83473534D01*
X158367963Y-83643373D01*
X158385359Y-83820000D01*
X158367963Y-83996627D01*
X158316443Y-84166466D01*
X158232778Y-84322991D01*
X158203448Y-84358729D01*
X158120186Y-84460186D01*
X158018729Y-84543448D01*
X157982991Y-84572778D01*
X157826466Y-84656443D01*
X157656627Y-84707963D01*
X157590443Y-84714481D01*
X157524260Y-84721000D01*
X157435740Y-84721000D01*
X157369557Y-84714481D01*
X157303373Y-84707963D01*
X157133534Y-84656443D01*
X156977009Y-84572778D01*
X156941271Y-84543448D01*
X156839814Y-84460186D01*
X156756552Y-84358729D01*
X156727222Y-84322991D01*
X156643557Y-84166466D01*
X156592037Y-83996627D01*
X156574641Y-83820000D01*
X156592037Y-83643373D01*
X156643557Y-83473534D01*
X156727222Y-83317009D01*
X156756552Y-83281271D01*
X156839814Y-83179814D01*
X156941271Y-83096552D01*
X156977009Y-83067222D01*
X157133534Y-82983557D01*
X157303373Y-82932037D01*
X157369557Y-82925519D01*
X157435740Y-82919000D01*
X157524260Y-82919000D01*
X157590443Y-82925519D01*
X157590443Y-82925519D01*
G37*
G36*
X162670443Y-82925519D02*
G01*
X162736627Y-82932037D01*
X162906466Y-82983557D01*
X163062991Y-83067222D01*
X163098729Y-83096552D01*
X163200186Y-83179814D01*
X163283448Y-83281271D01*
X163312778Y-83317009D01*
X163396443Y-83473534D01*
X163447963Y-83643373D01*
X163465359Y-83820000D01*
X163447963Y-83996627D01*
X163396443Y-84166466D01*
X163312778Y-84322991D01*
X163283448Y-84358729D01*
X163200186Y-84460186D01*
X163098729Y-84543448D01*
X163062991Y-84572778D01*
X162906466Y-84656443D01*
X162736627Y-84707963D01*
X162670443Y-84714481D01*
X162604260Y-84721000D01*
X162515740Y-84721000D01*
X162449557Y-84714481D01*
X162383373Y-84707963D01*
X162213534Y-84656443D01*
X162057009Y-84572778D01*
X162021271Y-84543448D01*
X161919814Y-84460186D01*
X161836552Y-84358729D01*
X161807222Y-84322991D01*
X161723557Y-84166466D01*
X161672037Y-83996627D01*
X161654641Y-83820000D01*
X161672037Y-83643373D01*
X161723557Y-83473534D01*
X161807222Y-83317009D01*
X161836552Y-83281271D01*
X161919814Y-83179814D01*
X162021271Y-83096552D01*
X162057009Y-83067222D01*
X162213534Y-82983557D01*
X162383373Y-82932037D01*
X162449557Y-82925519D01*
X162515740Y-82919000D01*
X162604260Y-82919000D01*
X162670443Y-82925519D01*
X162670443Y-82925519D01*
G37*
G36*
X158381000Y-82181000D02*
G01*
X156579000Y-82181000D01*
X156579000Y-80379000D01*
X158381000Y-80379000D01*
X158381000Y-82181000D01*
X158381000Y-82181000D01*
G37*
G36*
X163461000Y-82181000D02*
G01*
X161659000Y-82181000D01*
X161659000Y-80379000D01*
X163461000Y-80379000D01*
X163461000Y-82181000D01*
X163461000Y-82181000D01*
G37*
M02*
