G04 #@! TF.GenerationSoftware,KiCad,Pcbnew,(5.1.4)-1*
G04 #@! TF.CreationDate,2022-10-10T15:45:04+02:00*
G04 #@! TF.ProjectId,PiPico_BCU_Connector,50695069-636f-45f4-9243-555f436f6e6e,V00.03*
G04 #@! TF.SameCoordinates,Original*
G04 #@! TF.FileFunction,Soldermask,Top*
G04 #@! TF.FilePolarity,Negative*
%FSLAX46Y46*%
G04 Gerber Fmt 4.6, Leading zero omitted, Abs format (unit mm)*
G04 Created by KiCad (PCBNEW (5.1.4)-1) date 2022-10-10 15:45:04*
%MOMM*%
%LPD*%
G04 APERTURE LIST*
%ADD10C,0.100000*%
G04 APERTURE END LIST*
D10*
G36*
X162191000Y-90119600D02*
G01*
X162191602Y-90131852D01*
X162195359Y-90170000D01*
X162191602Y-90208148D01*
X162191000Y-90220400D01*
X162191000Y-92871000D01*
X160389000Y-92871000D01*
X160389000Y-90220400D01*
X160388398Y-90208148D01*
X160384641Y-90170000D01*
X160388398Y-90131852D01*
X160389000Y-90119600D01*
X160389000Y-89269000D01*
X162191000Y-89269000D01*
X162191000Y-90119600D01*
X162191000Y-90119600D01*
G37*
G36*
X187591000Y-90119600D02*
G01*
X187591602Y-90131852D01*
X187595359Y-90170000D01*
X187591602Y-90208148D01*
X187591000Y-90220400D01*
X187591000Y-92871000D01*
X185789000Y-92871000D01*
X185789000Y-90220400D01*
X185788398Y-90208148D01*
X185784641Y-90170000D01*
X185788398Y-90131852D01*
X185789000Y-90119600D01*
X185789000Y-89269000D01*
X187591000Y-89269000D01*
X187591000Y-90119600D01*
X187591000Y-90119600D01*
G37*
G36*
X210451000Y-90119600D02*
G01*
X210451602Y-90131852D01*
X210455359Y-90170000D01*
X210451602Y-90208148D01*
X210451000Y-90220400D01*
X210451000Y-92871000D01*
X208649000Y-92871000D01*
X208649000Y-90220400D01*
X208648398Y-90208148D01*
X208644641Y-90170000D01*
X208648398Y-90131852D01*
X208649000Y-90119600D01*
X208649000Y-89269000D01*
X210451000Y-89269000D01*
X210451000Y-90119600D01*
X210451000Y-90119600D01*
G37*
G36*
X205371000Y-92871000D02*
G01*
X203569000Y-92871000D01*
X203569000Y-89269000D01*
X205371000Y-89269000D01*
X205371000Y-92871000D01*
X205371000Y-92871000D01*
G37*
G36*
X202831000Y-90119600D02*
G01*
X202831602Y-90131852D01*
X202835359Y-90170000D01*
X202831602Y-90208148D01*
X202831000Y-90220400D01*
X202831000Y-92871000D01*
X201029000Y-92871000D01*
X201029000Y-90220400D01*
X201028398Y-90208148D01*
X201024641Y-90170000D01*
X201028398Y-90131852D01*
X201029000Y-90119600D01*
X201029000Y-89269000D01*
X202831000Y-89269000D01*
X202831000Y-90119600D01*
X202831000Y-90119600D01*
G37*
G36*
X200291000Y-90119600D02*
G01*
X200291602Y-90131852D01*
X200295359Y-90170000D01*
X200291602Y-90208148D01*
X200291000Y-90220400D01*
X200291000Y-92871000D01*
X198489000Y-92871000D01*
X198489000Y-90220400D01*
X198488398Y-90208148D01*
X198484641Y-90170000D01*
X198488398Y-90131852D01*
X198489000Y-90119600D01*
X198489000Y-89269000D01*
X200291000Y-89269000D01*
X200291000Y-90119600D01*
X200291000Y-90119600D01*
G37*
G36*
X197751000Y-90119600D02*
G01*
X197751602Y-90131852D01*
X197755359Y-90170000D01*
X197751602Y-90208148D01*
X197751000Y-90220400D01*
X197751000Y-92871000D01*
X195949000Y-92871000D01*
X195949000Y-90220400D01*
X195948398Y-90208148D01*
X195944641Y-90170000D01*
X195948398Y-90131852D01*
X195949000Y-90119600D01*
X195949000Y-89269000D01*
X197751000Y-89269000D01*
X197751000Y-90119600D01*
X197751000Y-90119600D01*
G37*
G36*
X195211000Y-90119600D02*
G01*
X195211602Y-90131852D01*
X195215359Y-90170000D01*
X195211602Y-90208148D01*
X195211000Y-90220400D01*
X195211000Y-92871000D01*
X193409000Y-92871000D01*
X193409000Y-90220400D01*
X193408398Y-90208148D01*
X193404641Y-90170000D01*
X193408398Y-90131852D01*
X193409000Y-90119600D01*
X193409000Y-89269000D01*
X195211000Y-89269000D01*
X195211000Y-90119600D01*
X195211000Y-90119600D01*
G37*
G36*
X192671000Y-92871000D02*
G01*
X190869000Y-92871000D01*
X190869000Y-89269000D01*
X192671000Y-89269000D01*
X192671000Y-92871000D01*
X192671000Y-92871000D01*
G37*
G36*
X190131000Y-90119600D02*
G01*
X190131602Y-90131852D01*
X190135359Y-90170000D01*
X190131602Y-90208148D01*
X190131000Y-90220400D01*
X190131000Y-92871000D01*
X188329000Y-92871000D01*
X188329000Y-90220400D01*
X188328398Y-90208148D01*
X188324641Y-90170000D01*
X188328398Y-90131852D01*
X188329000Y-90119600D01*
X188329000Y-89269000D01*
X190131000Y-89269000D01*
X190131000Y-90119600D01*
X190131000Y-90119600D01*
G37*
G36*
X207911000Y-90119600D02*
G01*
X207911602Y-90131852D01*
X207915359Y-90170000D01*
X207911602Y-90208148D01*
X207911000Y-90220400D01*
X207911000Y-92871000D01*
X206109000Y-92871000D01*
X206109000Y-90220400D01*
X206108398Y-90208148D01*
X206104641Y-90170000D01*
X206108398Y-90131852D01*
X206109000Y-90119600D01*
X206109000Y-89269000D01*
X207911000Y-89269000D01*
X207911000Y-90119600D01*
X207911000Y-90119600D01*
G37*
G36*
X182511000Y-90119600D02*
G01*
X182511602Y-90131852D01*
X182515359Y-90170000D01*
X182511602Y-90208148D01*
X182511000Y-90220400D01*
X182511000Y-92871000D01*
X180709000Y-92871000D01*
X180709000Y-90220400D01*
X180708398Y-90208148D01*
X180704641Y-90170000D01*
X180708398Y-90131852D01*
X180709000Y-90119600D01*
X180709000Y-89269000D01*
X182511000Y-89269000D01*
X182511000Y-90119600D01*
X182511000Y-90119600D01*
G37*
G36*
X179971000Y-92871000D02*
G01*
X178169000Y-92871000D01*
X178169000Y-89269000D01*
X179971000Y-89269000D01*
X179971000Y-92871000D01*
X179971000Y-92871000D01*
G37*
G36*
X177431000Y-90119600D02*
G01*
X177431602Y-90131852D01*
X177435359Y-90170000D01*
X177431602Y-90208148D01*
X177431000Y-90220400D01*
X177431000Y-92871000D01*
X175629000Y-92871000D01*
X175629000Y-90220400D01*
X175628398Y-90208148D01*
X175624641Y-90170000D01*
X175628398Y-90131852D01*
X175629000Y-90119600D01*
X175629000Y-89269000D01*
X177431000Y-89269000D01*
X177431000Y-90119600D01*
X177431000Y-90119600D01*
G37*
G36*
X174891000Y-90119600D02*
G01*
X174891602Y-90131852D01*
X174895359Y-90170000D01*
X174891602Y-90208148D01*
X174891000Y-90220400D01*
X174891000Y-92871000D01*
X173089000Y-92871000D01*
X173089000Y-90220400D01*
X173088398Y-90208148D01*
X173084641Y-90170000D01*
X173088398Y-90131852D01*
X173089000Y-90119600D01*
X173089000Y-89269000D01*
X174891000Y-89269000D01*
X174891000Y-90119600D01*
X174891000Y-90119600D01*
G37*
G36*
X172351000Y-90119600D02*
G01*
X172351602Y-90131852D01*
X172355359Y-90170000D01*
X172351602Y-90208148D01*
X172351000Y-90220400D01*
X172351000Y-92871000D01*
X170549000Y-92871000D01*
X170549000Y-90220400D01*
X170548398Y-90208148D01*
X170544641Y-90170000D01*
X170548398Y-90131852D01*
X170549000Y-90119600D01*
X170549000Y-89269000D01*
X172351000Y-89269000D01*
X172351000Y-90119600D01*
X172351000Y-90119600D01*
G37*
G36*
X169811000Y-90119600D02*
G01*
X169811602Y-90131852D01*
X169815359Y-90170000D01*
X169811602Y-90208148D01*
X169811000Y-90220400D01*
X169811000Y-92871000D01*
X168009000Y-92871000D01*
X168009000Y-90220400D01*
X168008398Y-90208148D01*
X168004641Y-90170000D01*
X168008398Y-90131852D01*
X168009000Y-90119600D01*
X168009000Y-89269000D01*
X169811000Y-89269000D01*
X169811000Y-90119600D01*
X169811000Y-90119600D01*
G37*
G36*
X167271000Y-92871000D02*
G01*
X165469000Y-92871000D01*
X165469000Y-89269000D01*
X167271000Y-89269000D01*
X167271000Y-92871000D01*
X167271000Y-92871000D01*
G37*
G36*
X164731000Y-90119600D02*
G01*
X164731602Y-90131852D01*
X164735359Y-90170000D01*
X164731602Y-90208148D01*
X164731000Y-90220400D01*
X164731000Y-92871000D01*
X162929000Y-92871000D01*
X162929000Y-90220400D01*
X162928398Y-90208148D01*
X162924641Y-90170000D01*
X162928398Y-90131852D01*
X162929000Y-90119600D01*
X162929000Y-89269000D01*
X164731000Y-89269000D01*
X164731000Y-90119600D01*
X164731000Y-90119600D01*
G37*
G36*
X185051000Y-90119600D02*
G01*
X185051602Y-90131852D01*
X185055359Y-90170000D01*
X185051602Y-90208148D01*
X185051000Y-90220400D01*
X185051000Y-92871000D01*
X183249000Y-92871000D01*
X183249000Y-90220400D01*
X183248398Y-90208148D01*
X183244641Y-90170000D01*
X183248398Y-90131852D01*
X183249000Y-90119600D01*
X183249000Y-89269000D01*
X185051000Y-89269000D01*
X185051000Y-90119600D01*
X185051000Y-90119600D01*
G37*
G36*
X153351000Y-92201000D02*
G01*
X151449000Y-92201000D01*
X151449000Y-89599000D01*
X153351000Y-89599000D01*
X153351000Y-92201000D01*
X153351000Y-92201000D01*
G37*
G36*
X145394487Y-87023996D02*
G01*
X145631253Y-87122068D01*
X145631255Y-87122069D01*
X145844339Y-87264447D01*
X146025553Y-87445661D01*
X146167932Y-87658747D01*
X146266004Y-87895513D01*
X146316000Y-88146861D01*
X146316000Y-88403139D01*
X146266004Y-88654487D01*
X146167932Y-88891253D01*
X146167931Y-88891255D01*
X146025553Y-89104339D01*
X145844339Y-89285553D01*
X145631255Y-89427931D01*
X145631254Y-89427932D01*
X145631253Y-89427932D01*
X145394487Y-89526004D01*
X145143139Y-89576000D01*
X144886861Y-89576000D01*
X144635513Y-89526004D01*
X144398747Y-89427932D01*
X144398746Y-89427932D01*
X144398745Y-89427931D01*
X144185661Y-89285553D01*
X144004447Y-89104339D01*
X143862069Y-88891255D01*
X143862068Y-88891253D01*
X143763996Y-88654487D01*
X143714000Y-88403139D01*
X143714000Y-88146861D01*
X143763996Y-87895513D01*
X143862068Y-87658747D01*
X144004447Y-87445661D01*
X144185661Y-87264447D01*
X144398745Y-87122069D01*
X144398747Y-87122068D01*
X144635513Y-87023996D01*
X144886861Y-86974000D01*
X145143139Y-86974000D01*
X145394487Y-87023996D01*
X145394487Y-87023996D01*
G37*
G36*
X157111000Y-88531000D02*
G01*
X155309000Y-88531000D01*
X155309000Y-86729000D01*
X157111000Y-86729000D01*
X157111000Y-88531000D01*
X157111000Y-88531000D01*
G37*
G36*
X153351000Y-88201000D02*
G01*
X151449000Y-88201000D01*
X151449000Y-85599000D01*
X153351000Y-85599000D01*
X153351000Y-88201000D01*
X153351000Y-88201000D01*
G37*
G36*
X156320442Y-84195518D02*
G01*
X156386627Y-84202037D01*
X156556466Y-84253557D01*
X156712991Y-84337222D01*
X156748729Y-84366552D01*
X156850186Y-84449814D01*
X156920836Y-84535903D01*
X156962778Y-84587009D01*
X157046443Y-84743534D01*
X157097963Y-84913373D01*
X157115359Y-85090000D01*
X157097963Y-85266627D01*
X157046443Y-85436466D01*
X156962778Y-85592991D01*
X156933448Y-85628729D01*
X156850186Y-85730186D01*
X156748729Y-85813448D01*
X156712991Y-85842778D01*
X156556466Y-85926443D01*
X156386627Y-85977963D01*
X156320442Y-85984482D01*
X156254260Y-85991000D01*
X156165740Y-85991000D01*
X156099558Y-85984482D01*
X156033373Y-85977963D01*
X155863534Y-85926443D01*
X155707009Y-85842778D01*
X155671271Y-85813448D01*
X155569814Y-85730186D01*
X155486552Y-85628729D01*
X155457222Y-85592991D01*
X155373557Y-85436466D01*
X155322037Y-85266627D01*
X155304641Y-85090000D01*
X155322037Y-84913373D01*
X155373557Y-84743534D01*
X155457222Y-84587009D01*
X155499164Y-84535903D01*
X155569814Y-84449814D01*
X155671271Y-84366552D01*
X155707009Y-84337222D01*
X155863534Y-84253557D01*
X156033373Y-84202037D01*
X156099558Y-84195518D01*
X156165740Y-84189000D01*
X156254260Y-84189000D01*
X156320442Y-84195518D01*
X156320442Y-84195518D01*
G37*
G36*
X209606425Y-83067760D02*
G01*
X209606428Y-83067761D01*
X209606429Y-83067761D01*
X209785693Y-83122140D01*
X209785696Y-83122142D01*
X209785697Y-83122142D01*
X209950903Y-83210446D01*
X210095712Y-83329288D01*
X210214554Y-83474097D01*
X210302858Y-83639303D01*
X210302860Y-83639307D01*
X210344326Y-83776003D01*
X210357240Y-83818575D01*
X210375601Y-84005000D01*
X210357240Y-84191425D01*
X210357239Y-84191428D01*
X210357239Y-84191429D01*
X210302860Y-84370693D01*
X210302858Y-84370696D01*
X210302858Y-84370697D01*
X210214554Y-84535903D01*
X210095712Y-84680712D01*
X209950903Y-84799554D01*
X209785697Y-84887858D01*
X209785693Y-84887860D01*
X209606429Y-84942239D01*
X209606428Y-84942239D01*
X209606425Y-84942240D01*
X209466718Y-84956000D01*
X209373282Y-84956000D01*
X209233575Y-84942240D01*
X209233572Y-84942239D01*
X209233571Y-84942239D01*
X209054307Y-84887860D01*
X209054303Y-84887858D01*
X208889097Y-84799554D01*
X208744288Y-84680712D01*
X208625446Y-84535903D01*
X208537142Y-84370697D01*
X208537142Y-84370696D01*
X208537140Y-84370693D01*
X208482761Y-84191429D01*
X208482761Y-84191428D01*
X208482760Y-84191425D01*
X208464399Y-84005000D01*
X208482760Y-83818575D01*
X208495674Y-83776003D01*
X208537140Y-83639307D01*
X208537142Y-83639303D01*
X208625446Y-83474097D01*
X208744288Y-83329288D01*
X208889097Y-83210446D01*
X209054303Y-83122142D01*
X209054304Y-83122142D01*
X209054307Y-83122140D01*
X209233571Y-83067761D01*
X209233572Y-83067761D01*
X209233575Y-83067760D01*
X209373282Y-83054000D01*
X209466718Y-83054000D01*
X209606425Y-83067760D01*
X209606425Y-83067760D01*
G37*
G36*
X162421000Y-83769600D02*
G01*
X162421602Y-83781852D01*
X162425359Y-83820000D01*
X162421602Y-83858148D01*
X162421000Y-83870400D01*
X162421000Y-84721000D01*
X158819000Y-84721000D01*
X158819000Y-82919000D01*
X162421000Y-82919000D01*
X162421000Y-83769600D01*
X162421000Y-83769600D01*
G37*
G36*
X206468571Y-82907863D02*
G01*
X206547023Y-82915590D01*
X206647682Y-82946125D01*
X206698013Y-82961392D01*
X206837165Y-83035771D01*
X206959133Y-83135867D01*
X207059229Y-83257835D01*
X207133608Y-83396987D01*
X207133608Y-83396988D01*
X207179410Y-83547977D01*
X207194875Y-83705000D01*
X207179410Y-83862023D01*
X207148875Y-83962682D01*
X207133608Y-84013013D01*
X207059229Y-84152165D01*
X206959133Y-84274133D01*
X206837165Y-84374229D01*
X206698013Y-84448608D01*
X206659848Y-84460185D01*
X206547023Y-84494410D01*
X206468571Y-84502137D01*
X206429346Y-84506000D01*
X206350654Y-84506000D01*
X206311429Y-84502137D01*
X206232977Y-84494410D01*
X206120152Y-84460185D01*
X206081987Y-84448608D01*
X205942835Y-84374229D01*
X205820867Y-84274133D01*
X205720771Y-84152165D01*
X205646392Y-84013013D01*
X205631125Y-83962682D01*
X205600590Y-83862023D01*
X205585125Y-83705000D01*
X205600590Y-83547977D01*
X205646392Y-83396988D01*
X205646392Y-83396987D01*
X205720771Y-83257835D01*
X205820867Y-83135867D01*
X205942835Y-83035771D01*
X206081987Y-82961392D01*
X206132318Y-82946125D01*
X206232977Y-82915590D01*
X206311429Y-82907863D01*
X206350654Y-82904000D01*
X206429346Y-82904000D01*
X206468571Y-82907863D01*
X206468571Y-82907863D01*
G37*
G36*
X145394487Y-81273996D02*
G01*
X145631253Y-81372068D01*
X145631255Y-81372069D01*
X145844339Y-81514447D01*
X146025553Y-81695661D01*
X146167932Y-81908747D01*
X146266004Y-82145513D01*
X146316000Y-82396861D01*
X146316000Y-82653139D01*
X146266004Y-82904487D01*
X146198374Y-83067760D01*
X146167931Y-83141255D01*
X146025553Y-83354339D01*
X145844339Y-83535553D01*
X145631255Y-83677931D01*
X145631254Y-83677932D01*
X145631253Y-83677932D01*
X145394487Y-83776004D01*
X145143139Y-83826000D01*
X144886861Y-83826000D01*
X144635513Y-83776004D01*
X144398747Y-83677932D01*
X144398746Y-83677932D01*
X144398745Y-83677931D01*
X144185661Y-83535553D01*
X144004447Y-83354339D01*
X143862069Y-83141255D01*
X143831626Y-83067760D01*
X143763996Y-82904487D01*
X143714000Y-82653139D01*
X143714000Y-82396861D01*
X143763996Y-82145513D01*
X143862068Y-81908747D01*
X144004447Y-81695661D01*
X144185661Y-81514447D01*
X144398745Y-81372069D01*
X144398747Y-81372068D01*
X144635513Y-81273996D01*
X144886861Y-81224000D01*
X145143139Y-81224000D01*
X145394487Y-81273996D01*
X145394487Y-81273996D01*
G37*
G36*
X156320443Y-81655519D02*
G01*
X156386627Y-81662037D01*
X156556466Y-81713557D01*
X156712991Y-81797222D01*
X156748729Y-81826552D01*
X156850186Y-81909814D01*
X156933448Y-82011271D01*
X156962778Y-82047009D01*
X157046443Y-82203534D01*
X157097963Y-82373373D01*
X157115359Y-82550000D01*
X157097963Y-82726627D01*
X157046443Y-82896466D01*
X156962778Y-83052991D01*
X156950657Y-83067760D01*
X156850186Y-83190186D01*
X156767754Y-83257835D01*
X156712991Y-83302778D01*
X156556466Y-83386443D01*
X156386627Y-83437963D01*
X156320443Y-83444481D01*
X156254260Y-83451000D01*
X156165740Y-83451000D01*
X156099557Y-83444481D01*
X156033373Y-83437963D01*
X155863534Y-83386443D01*
X155707009Y-83302778D01*
X155652246Y-83257835D01*
X155569814Y-83190186D01*
X155469343Y-83067760D01*
X155457222Y-83052991D01*
X155373557Y-82896466D01*
X155322037Y-82726627D01*
X155304641Y-82550000D01*
X155322037Y-82373373D01*
X155373557Y-82203534D01*
X155457222Y-82047009D01*
X155486552Y-82011271D01*
X155569814Y-81909814D01*
X155671271Y-81826552D01*
X155707009Y-81797222D01*
X155863534Y-81713557D01*
X156033373Y-81662037D01*
X156099557Y-81655519D01*
X156165740Y-81649000D01*
X156254260Y-81649000D01*
X156320443Y-81655519D01*
X156320443Y-81655519D01*
G37*
G36*
X162421000Y-82181000D02*
G01*
X158819000Y-82181000D01*
X158819000Y-80379000D01*
X162421000Y-80379000D01*
X162421000Y-82181000D01*
X162421000Y-82181000D01*
G37*
G36*
X156320443Y-79115519D02*
G01*
X156386627Y-79122037D01*
X156556466Y-79173557D01*
X156712991Y-79257222D01*
X156748729Y-79286552D01*
X156850186Y-79369814D01*
X156933448Y-79471271D01*
X156962778Y-79507009D01*
X157046443Y-79663534D01*
X157097963Y-79833373D01*
X157115359Y-80010000D01*
X157097963Y-80186627D01*
X157046443Y-80356466D01*
X156962778Y-80512991D01*
X156933448Y-80548729D01*
X156850186Y-80650186D01*
X156748729Y-80733448D01*
X156712991Y-80762778D01*
X156556466Y-80846443D01*
X156386627Y-80897963D01*
X156320442Y-80904482D01*
X156254260Y-80911000D01*
X156165740Y-80911000D01*
X156099558Y-80904482D01*
X156033373Y-80897963D01*
X155863534Y-80846443D01*
X155707009Y-80762778D01*
X155671271Y-80733448D01*
X155569814Y-80650186D01*
X155486552Y-80548729D01*
X155457222Y-80512991D01*
X155373557Y-80356466D01*
X155322037Y-80186627D01*
X155304641Y-80010000D01*
X155322037Y-79833373D01*
X155373557Y-79663534D01*
X155457222Y-79507009D01*
X155486552Y-79471271D01*
X155569814Y-79369814D01*
X155671271Y-79286552D01*
X155707009Y-79257222D01*
X155863534Y-79173557D01*
X156033373Y-79122037D01*
X156099557Y-79115519D01*
X156165740Y-79109000D01*
X156254260Y-79109000D01*
X156320443Y-79115519D01*
X156320443Y-79115519D01*
G37*
G36*
X206468571Y-78057863D02*
G01*
X206547023Y-78065590D01*
X206647682Y-78096125D01*
X206698013Y-78111392D01*
X206837165Y-78185771D01*
X206959133Y-78285867D01*
X207059229Y-78407835D01*
X207133608Y-78546987D01*
X207144783Y-78583827D01*
X207179410Y-78697977D01*
X207194875Y-78855000D01*
X207179410Y-79012023D01*
X207156999Y-79085903D01*
X207133608Y-79163013D01*
X207059229Y-79302165D01*
X206959133Y-79424133D01*
X206837165Y-79524229D01*
X206698013Y-79598608D01*
X206647682Y-79613875D01*
X206547023Y-79644410D01*
X206468571Y-79652137D01*
X206429346Y-79656000D01*
X206350654Y-79656000D01*
X206311429Y-79652137D01*
X206232977Y-79644410D01*
X206132318Y-79613875D01*
X206081987Y-79598608D01*
X205942835Y-79524229D01*
X205820867Y-79424133D01*
X205720771Y-79302165D01*
X205646392Y-79163013D01*
X205623001Y-79085903D01*
X205600590Y-79012023D01*
X205585125Y-78855000D01*
X205600590Y-78697977D01*
X205635217Y-78583827D01*
X205646392Y-78546987D01*
X205720771Y-78407835D01*
X205820867Y-78285867D01*
X205942835Y-78185771D01*
X206081987Y-78111392D01*
X206132318Y-78096125D01*
X206232977Y-78065590D01*
X206311429Y-78057863D01*
X206350654Y-78054000D01*
X206429346Y-78054000D01*
X206468571Y-78057863D01*
X206468571Y-78057863D01*
G37*
G36*
X162421000Y-78689600D02*
G01*
X162421602Y-78701852D01*
X162425359Y-78740000D01*
X162421602Y-78778148D01*
X162421000Y-78790400D01*
X162421000Y-79641000D01*
X158819000Y-79641000D01*
X158819000Y-77839000D01*
X162421000Y-77839000D01*
X162421000Y-78689600D01*
X162421000Y-78689600D01*
G37*
G36*
X209606425Y-77617760D02*
G01*
X209606428Y-77617761D01*
X209606429Y-77617761D01*
X209785693Y-77672140D01*
X209785696Y-77672142D01*
X209785697Y-77672142D01*
X209950903Y-77760446D01*
X210095712Y-77879288D01*
X210214554Y-78024097D01*
X210300970Y-78185771D01*
X210302860Y-78189307D01*
X210354021Y-78357963D01*
X210357240Y-78368575D01*
X210375601Y-78555000D01*
X210357240Y-78741425D01*
X210357239Y-78741428D01*
X210357239Y-78741429D01*
X210302860Y-78920693D01*
X210302858Y-78920696D01*
X210302858Y-78920697D01*
X210214554Y-79085903D01*
X210095712Y-79230712D01*
X209950903Y-79349554D01*
X209785697Y-79437858D01*
X209785693Y-79437860D01*
X209606429Y-79492239D01*
X209606428Y-79492239D01*
X209606425Y-79492240D01*
X209466718Y-79506000D01*
X209373282Y-79506000D01*
X209233575Y-79492240D01*
X209233572Y-79492239D01*
X209233571Y-79492239D01*
X209054307Y-79437860D01*
X209054303Y-79437858D01*
X208889097Y-79349554D01*
X208744288Y-79230712D01*
X208625446Y-79085903D01*
X208537142Y-78920697D01*
X208537142Y-78920696D01*
X208537140Y-78920693D01*
X208482761Y-78741429D01*
X208482761Y-78741428D01*
X208482760Y-78741425D01*
X208464399Y-78555000D01*
X208482760Y-78368575D01*
X208485979Y-78357963D01*
X208537140Y-78189307D01*
X208539030Y-78185771D01*
X208625446Y-78024097D01*
X208744288Y-77879288D01*
X208889097Y-77760446D01*
X209054303Y-77672142D01*
X209054304Y-77672142D01*
X209054307Y-77672140D01*
X209233571Y-77617761D01*
X209233572Y-77617761D01*
X209233575Y-77617760D01*
X209373282Y-77604000D01*
X209466718Y-77604000D01*
X209606425Y-77617760D01*
X209606425Y-77617760D01*
G37*
G36*
X148173674Y-77358465D02*
G01*
X148211367Y-77369899D01*
X148246103Y-77388466D01*
X148276548Y-77413452D01*
X148301534Y-77443897D01*
X148320101Y-77478633D01*
X148331535Y-77516326D01*
X148336000Y-77561661D01*
X148336000Y-78648339D01*
X148331535Y-78693674D01*
X148320101Y-78731367D01*
X148301534Y-78766103D01*
X148276548Y-78796548D01*
X148246103Y-78821534D01*
X148211367Y-78840101D01*
X148173674Y-78851535D01*
X148128339Y-78856000D01*
X147291661Y-78856000D01*
X147246326Y-78851535D01*
X147208633Y-78840101D01*
X147173897Y-78821534D01*
X147143452Y-78796548D01*
X147118466Y-78766103D01*
X147099899Y-78731367D01*
X147088465Y-78693674D01*
X147084000Y-78648339D01*
X147084000Y-77561661D01*
X147088465Y-77516326D01*
X147099899Y-77478633D01*
X147118466Y-77443897D01*
X147143452Y-77413452D01*
X147173897Y-77388466D01*
X147208633Y-77369899D01*
X147246326Y-77358465D01*
X147291661Y-77354000D01*
X148128339Y-77354000D01*
X148173674Y-77358465D01*
X148173674Y-77358465D01*
G37*
G36*
X146123674Y-77358465D02*
G01*
X146161367Y-77369899D01*
X146196103Y-77388466D01*
X146226548Y-77413452D01*
X146251534Y-77443897D01*
X146270101Y-77478633D01*
X146281535Y-77516326D01*
X146286000Y-77561661D01*
X146286000Y-78648339D01*
X146281535Y-78693674D01*
X146270101Y-78731367D01*
X146251534Y-78766103D01*
X146226548Y-78796548D01*
X146196103Y-78821534D01*
X146161367Y-78840101D01*
X146123674Y-78851535D01*
X146078339Y-78856000D01*
X145241661Y-78856000D01*
X145196326Y-78851535D01*
X145158633Y-78840101D01*
X145123897Y-78821534D01*
X145093452Y-78796548D01*
X145068466Y-78766103D01*
X145049899Y-78731367D01*
X145038465Y-78693674D01*
X145034000Y-78648339D01*
X145034000Y-77561661D01*
X145038465Y-77516326D01*
X145049899Y-77478633D01*
X145068466Y-77443897D01*
X145093452Y-77413452D01*
X145123897Y-77388466D01*
X145158633Y-77369899D01*
X145196326Y-77358465D01*
X145241661Y-77354000D01*
X146078339Y-77354000D01*
X146123674Y-77358465D01*
X146123674Y-77358465D01*
G37*
G36*
X141678674Y-77358465D02*
G01*
X141716367Y-77369899D01*
X141751103Y-77388466D01*
X141781548Y-77413452D01*
X141806534Y-77443897D01*
X141825101Y-77478633D01*
X141836535Y-77516326D01*
X141841000Y-77561661D01*
X141841000Y-78648339D01*
X141836535Y-78693674D01*
X141825101Y-78731367D01*
X141806534Y-78766103D01*
X141781548Y-78796548D01*
X141751103Y-78821534D01*
X141716367Y-78840101D01*
X141678674Y-78851535D01*
X141633339Y-78856000D01*
X140796661Y-78856000D01*
X140751326Y-78851535D01*
X140713633Y-78840101D01*
X140678897Y-78821534D01*
X140648452Y-78796548D01*
X140623466Y-78766103D01*
X140604899Y-78731367D01*
X140593465Y-78693674D01*
X140589000Y-78648339D01*
X140589000Y-77561661D01*
X140593465Y-77516326D01*
X140604899Y-77478633D01*
X140623466Y-77443897D01*
X140648452Y-77413452D01*
X140678897Y-77388466D01*
X140713633Y-77369899D01*
X140751326Y-77358465D01*
X140796661Y-77354000D01*
X141633339Y-77354000D01*
X141678674Y-77358465D01*
X141678674Y-77358465D01*
G37*
G36*
X143728674Y-77358465D02*
G01*
X143766367Y-77369899D01*
X143801103Y-77388466D01*
X143831548Y-77413452D01*
X143856534Y-77443897D01*
X143875101Y-77478633D01*
X143886535Y-77516326D01*
X143891000Y-77561661D01*
X143891000Y-78648339D01*
X143886535Y-78693674D01*
X143875101Y-78731367D01*
X143856534Y-78766103D01*
X143831548Y-78796548D01*
X143801103Y-78821534D01*
X143766367Y-78840101D01*
X143728674Y-78851535D01*
X143683339Y-78856000D01*
X142846661Y-78856000D01*
X142801326Y-78851535D01*
X142763633Y-78840101D01*
X142728897Y-78821534D01*
X142698452Y-78796548D01*
X142673466Y-78766103D01*
X142654899Y-78731367D01*
X142643465Y-78693674D01*
X142639000Y-78648339D01*
X142639000Y-77561661D01*
X142643465Y-77516326D01*
X142654899Y-77478633D01*
X142673466Y-77443897D01*
X142698452Y-77413452D01*
X142728897Y-77388466D01*
X142763633Y-77369899D01*
X142801326Y-77358465D01*
X142846661Y-77354000D01*
X143683339Y-77354000D01*
X143728674Y-77358465D01*
X143728674Y-77358465D01*
G37*
G36*
X156320443Y-76575519D02*
G01*
X156386627Y-76582037D01*
X156556466Y-76633557D01*
X156712991Y-76717222D01*
X156748729Y-76746552D01*
X156850186Y-76829814D01*
X156933448Y-76931271D01*
X156962778Y-76967009D01*
X157046443Y-77123534D01*
X157097963Y-77293373D01*
X157115359Y-77470000D01*
X157097963Y-77646627D01*
X157046443Y-77816466D01*
X156962778Y-77972991D01*
X156933448Y-78008729D01*
X156850186Y-78110186D01*
X156758084Y-78185771D01*
X156712991Y-78222778D01*
X156556466Y-78306443D01*
X156386627Y-78357963D01*
X156320443Y-78364481D01*
X156254260Y-78371000D01*
X156165740Y-78371000D01*
X156099557Y-78364481D01*
X156033373Y-78357963D01*
X155863534Y-78306443D01*
X155707009Y-78222778D01*
X155661916Y-78185771D01*
X155569814Y-78110186D01*
X155486552Y-78008729D01*
X155457222Y-77972991D01*
X155373557Y-77816466D01*
X155322037Y-77646627D01*
X155304641Y-77470000D01*
X155322037Y-77293373D01*
X155373557Y-77123534D01*
X155457222Y-76967009D01*
X155486552Y-76931271D01*
X155569814Y-76829814D01*
X155671271Y-76746552D01*
X155707009Y-76717222D01*
X155863534Y-76633557D01*
X156033373Y-76582037D01*
X156099557Y-76575519D01*
X156165740Y-76569000D01*
X156254260Y-76569000D01*
X156320443Y-76575519D01*
X156320443Y-76575519D01*
G37*
G36*
X150949674Y-76088465D02*
G01*
X150987367Y-76099899D01*
X151022103Y-76118466D01*
X151052548Y-76143452D01*
X151077534Y-76173897D01*
X151096101Y-76208633D01*
X151107535Y-76246326D01*
X151112000Y-76291661D01*
X151112000Y-77378339D01*
X151107535Y-77423674D01*
X151096101Y-77461367D01*
X151077534Y-77496103D01*
X151052548Y-77526548D01*
X151022103Y-77551534D01*
X150987367Y-77570101D01*
X150949674Y-77581535D01*
X150904339Y-77586000D01*
X150067661Y-77586000D01*
X150022326Y-77581535D01*
X149984633Y-77570101D01*
X149949897Y-77551534D01*
X149919452Y-77526548D01*
X149894466Y-77496103D01*
X149875899Y-77461367D01*
X149864465Y-77423674D01*
X149860000Y-77378339D01*
X149860000Y-76291661D01*
X149864465Y-76246326D01*
X149875899Y-76208633D01*
X149894466Y-76173897D01*
X149919452Y-76143452D01*
X149949897Y-76118466D01*
X149984633Y-76099899D01*
X150022326Y-76088465D01*
X150067661Y-76084000D01*
X150904339Y-76084000D01*
X150949674Y-76088465D01*
X150949674Y-76088465D01*
G37*
G36*
X152999674Y-76088465D02*
G01*
X153037367Y-76099899D01*
X153072103Y-76118466D01*
X153102548Y-76143452D01*
X153127534Y-76173897D01*
X153146101Y-76208633D01*
X153157535Y-76246326D01*
X153162000Y-76291661D01*
X153162000Y-77378339D01*
X153157535Y-77423674D01*
X153146101Y-77461367D01*
X153127534Y-77496103D01*
X153102548Y-77526548D01*
X153072103Y-77551534D01*
X153037367Y-77570101D01*
X152999674Y-77581535D01*
X152954339Y-77586000D01*
X152117661Y-77586000D01*
X152072326Y-77581535D01*
X152034633Y-77570101D01*
X151999897Y-77551534D01*
X151969452Y-77526548D01*
X151944466Y-77496103D01*
X151925899Y-77461367D01*
X151914465Y-77423674D01*
X151910000Y-77378339D01*
X151910000Y-76291661D01*
X151914465Y-76246326D01*
X151925899Y-76208633D01*
X151944466Y-76173897D01*
X151969452Y-76143452D01*
X151999897Y-76118466D01*
X152034633Y-76099899D01*
X152072326Y-76088465D01*
X152117661Y-76084000D01*
X152954339Y-76084000D01*
X152999674Y-76088465D01*
X152999674Y-76088465D01*
G37*
G36*
X142122000Y-76861000D02*
G01*
X140970000Y-76861000D01*
X140970000Y-75159000D01*
X142122000Y-75159000D01*
X142122000Y-76861000D01*
X142122000Y-76861000D01*
G37*
G36*
X144272000Y-76861000D02*
G01*
X143120000Y-76861000D01*
X143120000Y-75159000D01*
X144272000Y-75159000D01*
X144272000Y-76861000D01*
X144272000Y-76861000D01*
G37*
G36*
X148336000Y-76861000D02*
G01*
X147184000Y-76861000D01*
X147184000Y-75159000D01*
X148336000Y-75159000D01*
X148336000Y-76861000D01*
X148336000Y-76861000D01*
G37*
G36*
X146186000Y-76861000D02*
G01*
X145034000Y-76861000D01*
X145034000Y-75159000D01*
X146186000Y-75159000D01*
X146186000Y-76861000D01*
X146186000Y-76861000D01*
G37*
G36*
X156320442Y-74035518D02*
G01*
X156386627Y-74042037D01*
X156556466Y-74093557D01*
X156712991Y-74177222D01*
X156748729Y-74206552D01*
X156850186Y-74289814D01*
X156933448Y-74391271D01*
X156962778Y-74427009D01*
X157046443Y-74583534D01*
X157097963Y-74753373D01*
X157115359Y-74930000D01*
X157097963Y-75106627D01*
X157046443Y-75276466D01*
X156962778Y-75432991D01*
X156933448Y-75468729D01*
X156850186Y-75570186D01*
X156748729Y-75653448D01*
X156712991Y-75682778D01*
X156556466Y-75766443D01*
X156386627Y-75817963D01*
X156320442Y-75824482D01*
X156254260Y-75831000D01*
X156165740Y-75831000D01*
X156099558Y-75824482D01*
X156033373Y-75817963D01*
X155863534Y-75766443D01*
X155707009Y-75682778D01*
X155671271Y-75653448D01*
X155569814Y-75570186D01*
X155486552Y-75468729D01*
X155457222Y-75432991D01*
X155373557Y-75276466D01*
X155322037Y-75106627D01*
X155304641Y-74930000D01*
X155322037Y-74753373D01*
X155373557Y-74583534D01*
X155457222Y-74427009D01*
X155486552Y-74391271D01*
X155569814Y-74289814D01*
X155671271Y-74206552D01*
X155707009Y-74177222D01*
X155863534Y-74093557D01*
X156033373Y-74042037D01*
X156099558Y-74035518D01*
X156165740Y-74029000D01*
X156254260Y-74029000D01*
X156320442Y-74035518D01*
X156320442Y-74035518D01*
G37*
G36*
X152999674Y-73548465D02*
G01*
X153037367Y-73559899D01*
X153072103Y-73578466D01*
X153102548Y-73603452D01*
X153127534Y-73633897D01*
X153146101Y-73668633D01*
X153157535Y-73706326D01*
X153162000Y-73751661D01*
X153162000Y-74838339D01*
X153157535Y-74883674D01*
X153146101Y-74921367D01*
X153127534Y-74956103D01*
X153102548Y-74986548D01*
X153072103Y-75011534D01*
X153037367Y-75030101D01*
X152999674Y-75041535D01*
X152954339Y-75046000D01*
X152117661Y-75046000D01*
X152072326Y-75041535D01*
X152034633Y-75030101D01*
X151999897Y-75011534D01*
X151969452Y-74986548D01*
X151944466Y-74956103D01*
X151925899Y-74921367D01*
X151914465Y-74883674D01*
X151910000Y-74838339D01*
X151910000Y-73751661D01*
X151914465Y-73706326D01*
X151925899Y-73668633D01*
X151944466Y-73633897D01*
X151969452Y-73603452D01*
X151999897Y-73578466D01*
X152034633Y-73559899D01*
X152072326Y-73548465D01*
X152117661Y-73544000D01*
X152954339Y-73544000D01*
X152999674Y-73548465D01*
X152999674Y-73548465D01*
G37*
G36*
X150949674Y-73548465D02*
G01*
X150987367Y-73559899D01*
X151022103Y-73578466D01*
X151052548Y-73603452D01*
X151077534Y-73633897D01*
X151096101Y-73668633D01*
X151107535Y-73706326D01*
X151112000Y-73751661D01*
X151112000Y-74838339D01*
X151107535Y-74883674D01*
X151096101Y-74921367D01*
X151077534Y-74956103D01*
X151052548Y-74986548D01*
X151022103Y-75011534D01*
X150987367Y-75030101D01*
X150949674Y-75041535D01*
X150904339Y-75046000D01*
X150067661Y-75046000D01*
X150022326Y-75041535D01*
X149984633Y-75030101D01*
X149949897Y-75011534D01*
X149919452Y-74986548D01*
X149894466Y-74956103D01*
X149875899Y-74921367D01*
X149864465Y-74883674D01*
X149860000Y-74838339D01*
X149860000Y-73751661D01*
X149864465Y-73706326D01*
X149875899Y-73668633D01*
X149894466Y-73633897D01*
X149919452Y-73603452D01*
X149949897Y-73578466D01*
X149984633Y-73559899D01*
X150022326Y-73548465D01*
X150067661Y-73544000D01*
X150904339Y-73544000D01*
X150949674Y-73548465D01*
X150949674Y-73548465D01*
G37*
G36*
X169811000Y-72339600D02*
G01*
X169811602Y-72351852D01*
X169815359Y-72390000D01*
X169811602Y-72428148D01*
X169811000Y-72440400D01*
X169811000Y-73291000D01*
X168009000Y-73291000D01*
X168009000Y-72440400D01*
X168008398Y-72428148D01*
X168004641Y-72390000D01*
X168008398Y-72351852D01*
X168009000Y-72339600D01*
X168009000Y-69689000D01*
X169811000Y-69689000D01*
X169811000Y-72339600D01*
X169811000Y-72339600D01*
G37*
G36*
X162191000Y-72339600D02*
G01*
X162191602Y-72351852D01*
X162195359Y-72390000D01*
X162191602Y-72428148D01*
X162191000Y-72440400D01*
X162191000Y-73291000D01*
X160389000Y-73291000D01*
X160389000Y-72440400D01*
X160388398Y-72428148D01*
X160384641Y-72390000D01*
X160388398Y-72351852D01*
X160389000Y-72339600D01*
X160389000Y-69689000D01*
X162191000Y-69689000D01*
X162191000Y-72339600D01*
X162191000Y-72339600D01*
G37*
G36*
X167271000Y-73291000D02*
G01*
X165469000Y-73291000D01*
X165469000Y-69689000D01*
X167271000Y-69689000D01*
X167271000Y-73291000D01*
X167271000Y-73291000D01*
G37*
G36*
X156320443Y-71495519D02*
G01*
X156386627Y-71502037D01*
X156556466Y-71553557D01*
X156712991Y-71637222D01*
X156748729Y-71666552D01*
X156850186Y-71749814D01*
X156933448Y-71851271D01*
X156962778Y-71887009D01*
X157046443Y-72043534D01*
X157097963Y-72213373D01*
X157115359Y-72390000D01*
X157097963Y-72566627D01*
X157046443Y-72736466D01*
X156962778Y-72892991D01*
X156933448Y-72928729D01*
X156850186Y-73030186D01*
X156748729Y-73113448D01*
X156712991Y-73142778D01*
X156556466Y-73226443D01*
X156386627Y-73277963D01*
X156320443Y-73284481D01*
X156254260Y-73291000D01*
X156165740Y-73291000D01*
X156099557Y-73284481D01*
X156033373Y-73277963D01*
X155863534Y-73226443D01*
X155707009Y-73142778D01*
X155671271Y-73113448D01*
X155569814Y-73030186D01*
X155486552Y-72928729D01*
X155457222Y-72892991D01*
X155373557Y-72736466D01*
X155322037Y-72566627D01*
X155304641Y-72390000D01*
X155322037Y-72213373D01*
X155373557Y-72043534D01*
X155457222Y-71887009D01*
X155486552Y-71851271D01*
X155569814Y-71749814D01*
X155671271Y-71666552D01*
X155707009Y-71637222D01*
X155863534Y-71553557D01*
X156033373Y-71502037D01*
X156099557Y-71495519D01*
X156165740Y-71489000D01*
X156254260Y-71489000D01*
X156320443Y-71495519D01*
X156320443Y-71495519D01*
G37*
G36*
X210451000Y-72339600D02*
G01*
X210451602Y-72351852D01*
X210455359Y-72390000D01*
X210451602Y-72428148D01*
X210451000Y-72440400D01*
X210451000Y-73291000D01*
X208649000Y-73291000D01*
X208649000Y-72440400D01*
X208648398Y-72428148D01*
X208644641Y-72390000D01*
X208648398Y-72351852D01*
X208649000Y-72339600D01*
X208649000Y-69689000D01*
X210451000Y-69689000D01*
X210451000Y-72339600D01*
X210451000Y-72339600D01*
G37*
G36*
X207911000Y-72339600D02*
G01*
X207911602Y-72351852D01*
X207915359Y-72390000D01*
X207911602Y-72428148D01*
X207911000Y-72440400D01*
X207911000Y-73291000D01*
X206109000Y-73291000D01*
X206109000Y-72440400D01*
X206108398Y-72428148D01*
X206104641Y-72390000D01*
X206108398Y-72351852D01*
X206109000Y-72339600D01*
X206109000Y-69689000D01*
X207911000Y-69689000D01*
X207911000Y-72339600D01*
X207911000Y-72339600D01*
G37*
G36*
X205371000Y-73291000D02*
G01*
X203569000Y-73291000D01*
X203569000Y-69689000D01*
X205371000Y-69689000D01*
X205371000Y-73291000D01*
X205371000Y-73291000D01*
G37*
G36*
X202831000Y-72339600D02*
G01*
X202831602Y-72351852D01*
X202835359Y-72390000D01*
X202831602Y-72428148D01*
X202831000Y-72440400D01*
X202831000Y-73291000D01*
X201029000Y-73291000D01*
X201029000Y-72440400D01*
X201028398Y-72428148D01*
X201024641Y-72390000D01*
X201028398Y-72351852D01*
X201029000Y-72339600D01*
X201029000Y-69689000D01*
X202831000Y-69689000D01*
X202831000Y-72339600D01*
X202831000Y-72339600D01*
G37*
G36*
X174891000Y-72339600D02*
G01*
X174891602Y-72351852D01*
X174895359Y-72390000D01*
X174891602Y-72428148D01*
X174891000Y-72440400D01*
X174891000Y-73291000D01*
X173089000Y-73291000D01*
X173089000Y-72440400D01*
X173088398Y-72428148D01*
X173084641Y-72390000D01*
X173088398Y-72351852D01*
X173089000Y-72339600D01*
X173089000Y-69689000D01*
X174891000Y-69689000D01*
X174891000Y-72339600D01*
X174891000Y-72339600D01*
G37*
G36*
X172351000Y-72339600D02*
G01*
X172351602Y-72351852D01*
X172355359Y-72390000D01*
X172351602Y-72428148D01*
X172351000Y-72440400D01*
X172351000Y-73291000D01*
X170549000Y-73291000D01*
X170549000Y-72440400D01*
X170548398Y-72428148D01*
X170544641Y-72390000D01*
X170548398Y-72351852D01*
X170549000Y-72339600D01*
X170549000Y-69689000D01*
X172351000Y-69689000D01*
X172351000Y-72339600D01*
X172351000Y-72339600D01*
G37*
G36*
X164731000Y-72339600D02*
G01*
X164731602Y-72351852D01*
X164735359Y-72390000D01*
X164731602Y-72428148D01*
X164731000Y-72440400D01*
X164731000Y-73291000D01*
X162929000Y-73291000D01*
X162929000Y-72440400D01*
X162928398Y-72428148D01*
X162924641Y-72390000D01*
X162928398Y-72351852D01*
X162929000Y-72339600D01*
X162929000Y-69689000D01*
X164731000Y-69689000D01*
X164731000Y-72339600D01*
X164731000Y-72339600D01*
G37*
G36*
X177431000Y-72339600D02*
G01*
X177431602Y-72351852D01*
X177435359Y-72390000D01*
X177431602Y-72428148D01*
X177431000Y-72440400D01*
X177431000Y-73291000D01*
X175629000Y-73291000D01*
X175629000Y-72440400D01*
X175628398Y-72428148D01*
X175624641Y-72390000D01*
X175628398Y-72351852D01*
X175629000Y-72339600D01*
X175629000Y-69689000D01*
X177431000Y-69689000D01*
X177431000Y-72339600D01*
X177431000Y-72339600D01*
G37*
G36*
X179971000Y-73291000D02*
G01*
X178169000Y-73291000D01*
X178169000Y-69689000D01*
X179971000Y-69689000D01*
X179971000Y-73291000D01*
X179971000Y-73291000D01*
G37*
G36*
X182511000Y-72339600D02*
G01*
X182511602Y-72351852D01*
X182515359Y-72390000D01*
X182511602Y-72428148D01*
X182511000Y-72440400D01*
X182511000Y-73291000D01*
X180709000Y-73291000D01*
X180709000Y-72440400D01*
X180708398Y-72428148D01*
X180704641Y-72390000D01*
X180708398Y-72351852D01*
X180709000Y-72339600D01*
X180709000Y-69689000D01*
X182511000Y-69689000D01*
X182511000Y-72339600D01*
X182511000Y-72339600D01*
G37*
G36*
X187591000Y-72339600D02*
G01*
X187591602Y-72351852D01*
X187595359Y-72390000D01*
X187591602Y-72428148D01*
X187591000Y-72440400D01*
X187591000Y-73291000D01*
X185789000Y-73291000D01*
X185789000Y-72440400D01*
X185788398Y-72428148D01*
X185784641Y-72390000D01*
X185788398Y-72351852D01*
X185789000Y-72339600D01*
X185789000Y-69689000D01*
X187591000Y-69689000D01*
X187591000Y-72339600D01*
X187591000Y-72339600D01*
G37*
G36*
X190131000Y-72339600D02*
G01*
X190131602Y-72351852D01*
X190135359Y-72390000D01*
X190131602Y-72428148D01*
X190131000Y-72440400D01*
X190131000Y-73291000D01*
X188329000Y-73291000D01*
X188329000Y-72440400D01*
X188328398Y-72428148D01*
X188324641Y-72390000D01*
X188328398Y-72351852D01*
X188329000Y-72339600D01*
X188329000Y-69689000D01*
X190131000Y-69689000D01*
X190131000Y-72339600D01*
X190131000Y-72339600D01*
G37*
G36*
X192671000Y-73291000D02*
G01*
X190869000Y-73291000D01*
X190869000Y-69689000D01*
X192671000Y-69689000D01*
X192671000Y-73291000D01*
X192671000Y-73291000D01*
G37*
G36*
X195211000Y-72339600D02*
G01*
X195211602Y-72351852D01*
X195215359Y-72390000D01*
X195211602Y-72428148D01*
X195211000Y-72440400D01*
X195211000Y-73291000D01*
X193409000Y-73291000D01*
X193409000Y-72440400D01*
X193408398Y-72428148D01*
X193404641Y-72390000D01*
X193408398Y-72351852D01*
X193409000Y-72339600D01*
X193409000Y-69689000D01*
X195211000Y-69689000D01*
X195211000Y-72339600D01*
X195211000Y-72339600D01*
G37*
G36*
X185051000Y-72339600D02*
G01*
X185051602Y-72351852D01*
X185055359Y-72390000D01*
X185051602Y-72428148D01*
X185051000Y-72440400D01*
X185051000Y-73291000D01*
X183249000Y-73291000D01*
X183249000Y-72440400D01*
X183248398Y-72428148D01*
X183244641Y-72390000D01*
X183248398Y-72351852D01*
X183249000Y-72339600D01*
X183249000Y-69689000D01*
X185051000Y-69689000D01*
X185051000Y-72339600D01*
X185051000Y-72339600D01*
G37*
G36*
X200291000Y-72339600D02*
G01*
X200291602Y-72351852D01*
X200295359Y-72390000D01*
X200291602Y-72428148D01*
X200291000Y-72440400D01*
X200291000Y-73291000D01*
X198489000Y-73291000D01*
X198489000Y-72440400D01*
X198488398Y-72428148D01*
X198484641Y-72390000D01*
X198488398Y-72351852D01*
X198489000Y-72339600D01*
X198489000Y-69689000D01*
X200291000Y-69689000D01*
X200291000Y-72339600D01*
X200291000Y-72339600D01*
G37*
G36*
X197751000Y-72339600D02*
G01*
X197751602Y-72351852D01*
X197755359Y-72390000D01*
X197751602Y-72428148D01*
X197751000Y-72440400D01*
X197751000Y-73291000D01*
X195949000Y-73291000D01*
X195949000Y-72440400D01*
X195948398Y-72428148D01*
X195944641Y-72390000D01*
X195948398Y-72351852D01*
X195949000Y-72339600D01*
X195949000Y-69689000D01*
X197751000Y-69689000D01*
X197751000Y-72339600D01*
X197751000Y-72339600D01*
G37*
G36*
X150949674Y-71008465D02*
G01*
X150987367Y-71019899D01*
X151022103Y-71038466D01*
X151052548Y-71063452D01*
X151077534Y-71093897D01*
X151096101Y-71128633D01*
X151107535Y-71166326D01*
X151112000Y-71211661D01*
X151112000Y-72298339D01*
X151107535Y-72343674D01*
X151096101Y-72381367D01*
X151077534Y-72416103D01*
X151052548Y-72446548D01*
X151022103Y-72471534D01*
X150987367Y-72490101D01*
X150949674Y-72501535D01*
X150904339Y-72506000D01*
X150067661Y-72506000D01*
X150022326Y-72501535D01*
X149984633Y-72490101D01*
X149949897Y-72471534D01*
X149919452Y-72446548D01*
X149894466Y-72416103D01*
X149875899Y-72381367D01*
X149864465Y-72343674D01*
X149860000Y-72298339D01*
X149860000Y-71211661D01*
X149864465Y-71166326D01*
X149875899Y-71128633D01*
X149894466Y-71093897D01*
X149919452Y-71063452D01*
X149949897Y-71038466D01*
X149984633Y-71019899D01*
X150022326Y-71008465D01*
X150067661Y-71004000D01*
X150904339Y-71004000D01*
X150949674Y-71008465D01*
X150949674Y-71008465D01*
G37*
G36*
X152999674Y-71008465D02*
G01*
X153037367Y-71019899D01*
X153072103Y-71038466D01*
X153102548Y-71063452D01*
X153127534Y-71093897D01*
X153146101Y-71128633D01*
X153157535Y-71166326D01*
X153162000Y-71211661D01*
X153162000Y-72298339D01*
X153157535Y-72343674D01*
X153146101Y-72381367D01*
X153127534Y-72416103D01*
X153102548Y-72446548D01*
X153072103Y-72471534D01*
X153037367Y-72490101D01*
X152999674Y-72501535D01*
X152954339Y-72506000D01*
X152117661Y-72506000D01*
X152072326Y-72501535D01*
X152034633Y-72490101D01*
X151999897Y-72471534D01*
X151969452Y-72446548D01*
X151944466Y-72416103D01*
X151925899Y-72381367D01*
X151914465Y-72343674D01*
X151910000Y-72298339D01*
X151910000Y-71211661D01*
X151914465Y-71166326D01*
X151925899Y-71128633D01*
X151944466Y-71093897D01*
X151969452Y-71063452D01*
X151999897Y-71038466D01*
X152034633Y-71019899D01*
X152072326Y-71008465D01*
X152117661Y-71004000D01*
X152954339Y-71004000D01*
X152999674Y-71008465D01*
X152999674Y-71008465D01*
G37*
G36*
X148336000Y-72161000D02*
G01*
X147184000Y-72161000D01*
X147184000Y-70459000D01*
X148336000Y-70459000D01*
X148336000Y-72161000D01*
X148336000Y-72161000D01*
G37*
G36*
X142122000Y-72161000D02*
G01*
X140970000Y-72161000D01*
X140970000Y-70459000D01*
X142122000Y-70459000D01*
X142122000Y-72161000D01*
X142122000Y-72161000D01*
G37*
G36*
X144272000Y-72161000D02*
G01*
X143120000Y-72161000D01*
X143120000Y-70459000D01*
X144272000Y-70459000D01*
X144272000Y-72161000D01*
X144272000Y-72161000D01*
G37*
G36*
X146186000Y-72161000D02*
G01*
X145034000Y-72161000D01*
X145034000Y-70459000D01*
X146186000Y-70459000D01*
X146186000Y-72161000D01*
X146186000Y-72161000D01*
G37*
M02*
