solid CATIA STL
  facet normal  0.000000e+000  0.000000e+000  1.000000e+000
    outer loop
      vertex  3.584142e+001 -1.170000e+001  5.000000e+000
      vertex  3.750000e+001 -1.230416e+001  5.000000e+000
      vertex  3.590000e+001 -1.164142e+001  5.000000e+000
    endloop
  endfacet
  facet normal  0.000000e+000  0.000000e+000  1.000000e+000
    outer loop
      vertex  3.750000e+001  1.230416e+001  5.000000e+000
      vertex  3.650417e+001  1.330000e+001  5.000000e+000
      vertex -3.650417e+001  1.330000e+001  5.000000e+000
    endloop
  endfacet
  facet normal  0.000000e+000  0.000000e+000  1.000000e+000
    outer loop
      vertex  3.750000e+001  1.230416e+001  5.000000e+000
      vertex -3.650417e+001  1.330000e+001  5.000000e+000
      vertex -3.750000e+001  1.230416e+001  5.000000e+000
    endloop
  endfacet
  facet normal  -0.000000e+000  0.000000e+000  9.999999e-001
    outer loop
      vertex  3.750000e+001  1.230416e+001  5.000000e+000
      vertex -3.750000e+001  1.230416e+001  5.000000e+000
      vertex -3.590000e+001  1.170000e+001  5.000000e+000
    endloop
  endfacet
  facet normal  0.000000e+000  0.000000e+000  1.000000e+000
    outer loop
      vertex  3.750000e+001  1.230416e+001  5.000000e+000
      vertex -3.590000e+001  1.170000e+001  5.000000e+000
      vertex -3.150000e+001  1.170000e+001  5.000000e+000
    endloop
  endfacet
  facet normal  0.000000e+000  0.000000e+000  1.000000e+000
    outer loop
      vertex  3.750000e+001  1.230416e+001  5.000000e+000
      vertex -3.150000e+001  1.170000e+001  5.000000e+000
      vertex -2.780000e+001  1.170000e+001  5.000000e+000
    endloop
  endfacet
  facet normal  0.000000e+000  0.000000e+000  1.000000e+000
    outer loop
      vertex  3.750000e+001  1.230416e+001  5.000000e+000
      vertex -2.780000e+001  1.170000e+001  5.000000e+000
      vertex  3.584142e+001  1.170000e+001  5.000000e+000
    endloop
  endfacet
  facet normal  -0.000000e+000  0.000000e+000  1.000000e+000
    outer loop
      vertex  3.750000e+001  1.230416e+001  5.000000e+000
      vertex  3.584142e+001  1.170000e+001  5.000000e+000
      vertex  3.590000e+001  1.164142e+001  5.000000e+000
    endloop
  endfacet
  facet normal  -0.000000e+000  0.000000e+000  1.000000e+000
    outer loop
      vertex  3.750000e+001  1.230416e+001  5.000000e+000
      vertex  3.590000e+001  1.164142e+001  5.000000e+000
      vertex  3.590000e+001  4.500000e+000  5.000000e+000
    endloop
  endfacet
  facet normal  -0.000000e+000  0.000000e+000  9.999999e-001
    outer loop
      vertex  3.750000e+001  1.230416e+001  5.000000e+000
      vertex  3.590000e+001  4.500000e+000  5.000000e+000
      vertex  3.590000e+001 -4.500000e+000  5.000000e+000
    endloop
  endfacet
  facet normal  -0.000000e+000  0.000000e+000  1.000000e+000
    outer loop
      vertex  3.750000e+001  1.230416e+001  5.000000e+000
      vertex  3.590000e+001 -4.500000e+000  5.000000e+000
      vertex  3.590000e+001 -1.164142e+001  5.000000e+000
    endloop
  endfacet
  facet normal  -0.000000e+000  0.000000e+000  1.000000e+000
    outer loop
      vertex  3.750000e+001  1.230416e+001  5.000000e+000
      vertex  3.590000e+001 -1.164142e+001  5.000000e+000
      vertex  3.750000e+001 -1.230416e+001  5.000000e+000
    endloop
  endfacet
  facet normal  0.000000e+000  0.000000e+000  9.999999e-001
    outer loop
      vertex -3.750000e+001  1.040000e+001  5.000000e+000
      vertex -3.590000e+001  1.040000e+001  5.000000e+000
      vertex -3.750000e+001  1.230416e+001  5.000000e+000
    endloop
  endfacet
  facet normal  0.000000e+000  0.000000e+000  1.000000e+000
    outer loop
      vertex -3.750000e+001  1.230416e+001  5.000000e+000
      vertex -3.590000e+001  1.040000e+001  5.000000e+000
      vertex -3.590000e+001  1.170000e+001  5.000000e+000
    endloop
  endfacet
  facet normal  0.000000e+000  0.000000e+000  1.000000e+000
    outer loop
      vertex  3.490000e+001  4.500000e+000  5.000000e+000
      vertex  3.490000e+001 -4.500000e+000  5.000000e+000
      vertex  3.590000e+001  4.500000e+000  5.000000e+000
    endloop
  endfacet
  facet normal  0.000000e+000  0.000000e+000  1.000000e+000
    outer loop
      vertex  3.590000e+001  4.500000e+000  5.000000e+000
      vertex  3.490000e+001 -4.500000e+000  5.000000e+000
      vertex  3.590000e+001 -4.500000e+000  5.000000e+000
    endloop
  endfacet
  facet normal  -0.000000e+000  0.000000e+000  1.000000e+000
    outer loop
      vertex -3.590000e+001 -1.600000e+000  5.000000e+000
      vertex -3.750000e+001 -1.600000e+000  5.000000e+000
      vertex -3.590000e+001 -1.164142e+001  5.000000e+000
    endloop
  endfacet
  facet normal  0.000000e+000  0.000000e+000  1.000000e+000
    outer loop
      vertex -3.590000e+001 -1.164142e+001  5.000000e+000
      vertex -3.750000e+001 -1.600000e+000  5.000000e+000
      vertex -3.750000e+001 -1.230416e+001  5.000000e+000
    endloop
  endfacet
  facet normal  0.000000e+000  0.000000e+000  1.000000e+000
    outer loop
      vertex -3.590000e+001 -1.164142e+001  5.000000e+000
      vertex -3.750000e+001 -1.230416e+001  5.000000e+000
      vertex -3.584142e+001 -1.170000e+001  5.000000e+000
    endloop
  endfacet
  facet normal  -0.000000e+000  0.000000e+000  1.000000e+000
    outer loop
      vertex  3.584142e+001 -1.170000e+001  5.000000e+000
      vertex -3.584142e+001 -1.170000e+001  5.000000e+000
      vertex  3.750000e+001 -1.230416e+001  5.000000e+000
    endloop
  endfacet
  facet normal  0.000000e+000  0.000000e+000  9.999999e-001
    outer loop
      vertex  3.750000e+001 -1.230416e+001  5.000000e+000
      vertex -3.584142e+001 -1.170000e+001  5.000000e+000
      vertex -3.750000e+001 -1.230416e+001  5.000000e+000
    endloop
  endfacet
  facet normal  -0.000000e+000  0.000000e+000  1.000000e+000
    outer loop
      vertex  3.750000e+001 -1.230416e+001  5.000000e+000
      vertex -3.750000e+001 -1.230416e+001  5.000000e+000
      vertex  3.650417e+001 -1.330000e+001  5.000000e+000
    endloop
  endfacet
  facet normal  0.000000e+000  0.000000e+000  1.000000e+000
    outer loop
      vertex  3.650417e+001 -1.330000e+001  5.000000e+000
      vertex -3.750000e+001 -1.230416e+001  5.000000e+000
      vertex -3.650417e+001 -1.330000e+001  5.000000e+000
    endloop
  endfacet
  facet normal  0.000000e+000  1.000000e+000  -0.000000e+000
    outer loop
      vertex  3.590000e+001 -4.500000e+000  1.000000e+001
      vertex  3.590000e+001 -4.500000e+000  5.000000e+000
      vertex  3.490000e+001 -4.500000e+000  1.000000e+001
    endloop
  endfacet
  facet normal  0.000000e+000  1.000000e+000  0.000000e+000
    outer loop
      vertex  3.490000e+001 -4.500000e+000  1.000000e+001
      vertex  3.590000e+001 -4.500000e+000  5.000000e+000
      vertex  3.490000e+001 -4.500000e+000  5.000000e+000
    endloop
  endfacet
  facet normal  0.000000e+000 -1.000000e+000  0.000000e+000
    outer loop
      vertex  3.490000e+001  4.500000e+000  1.000000e+001
      vertex  3.490000e+001  4.500000e+000  5.000000e+000
      vertex  3.590000e+001  4.500000e+000  1.000000e+001
    endloop
  endfacet
  facet normal  0.000000e+000 -1.000000e+000  -0.000000e+000
    outer loop
      vertex  3.590000e+001  4.500000e+000  1.000000e+001
      vertex  3.490000e+001  4.500000e+000  5.000000e+000
      vertex  3.590000e+001  4.500000e+000  5.000000e+000
    endloop
  endfacet
  facet normal -1.000000e+000  -0.000000e+000  0.000000e+000
    outer loop
      vertex  3.490000e+001 -1.070000e+001  1.000000e+001
      vertex  3.490000e+001 -4.500000e+000  1.000000e+001
      vertex  3.490000e+001 -1.070000e+001  0.000000e+000
    endloop
  endfacet
  facet normal -1.000000e+000  0.000000e+000  0.000000e+000
    outer loop
      vertex  3.490000e+001 -1.070000e+001  0.000000e+000
      vertex  3.490000e+001 -4.500000e+000  1.000000e+001
      vertex  3.490000e+001 -4.500000e+000  5.000000e+000
    endloop
  endfacet
  facet normal -9.999999e-001  0.000000e+000  -0.000000e+000
    outer loop
      vertex  3.490000e+001 -1.070000e+001  0.000000e+000
      vertex  3.490000e+001 -4.500000e+000  5.000000e+000
      vertex  3.490000e+001  1.070000e+001  0.000000e+000
    endloop
  endfacet
  facet normal -1.000000e+000  0.000000e+000  0.000000e+000
    outer loop
      vertex  3.490000e+001  1.070000e+001  0.000000e+000
      vertex  3.490000e+001 -4.500000e+000  5.000000e+000
      vertex  3.490000e+001  4.500000e+000  5.000000e+000
    endloop
  endfacet
  facet normal -1.000000e+000  0.000000e+000  0.000000e+000
    outer loop
      vertex  3.490000e+001  1.070000e+001  0.000000e+000
      vertex  3.490000e+001  4.500000e+000  5.000000e+000
      vertex  3.490000e+001  1.070000e+001  1.000000e+001
    endloop
  endfacet
  facet normal -1.000000e+000  -0.000000e+000  0.000000e+000
    outer loop
      vertex  3.490000e+001  1.070000e+001  1.000000e+001
      vertex  3.490000e+001  4.500000e+000  5.000000e+000
      vertex  3.490000e+001  4.500000e+000  1.000000e+001
    endloop
  endfacet
  facet normal  9.999999e-001  -0.000000e+000  0.000000e+000
    outer loop
      vertex  3.590000e+001 -4.500000e+000  1.000000e+001
      vertex  3.590000e+001 -1.164142e+001  1.000000e+001
      vertex  3.590000e+001 -4.500000e+000  5.000000e+000
    endloop
  endfacet
  facet normal  9.999999e-001  0.000000e+000  0.000000e+000
    outer loop
      vertex  3.590000e+001 -4.500000e+000  5.000000e+000
      vertex  3.590000e+001 -1.164142e+001  1.000000e+001
      vertex  3.590000e+001 -1.164142e+001  5.000000e+000
    endloop
  endfacet
  facet normal  9.999999e-001  -0.000000e+000  0.000000e+000
    outer loop
      vertex  3.590000e+001  1.164142e+001  1.000000e+001
      vertex  3.590000e+001  4.500000e+000  1.000000e+001
      vertex  3.590000e+001  1.164142e+001  5.000000e+000
    endloop
  endfacet
  facet normal  9.999999e-001  0.000000e+000  0.000000e+000
    outer loop
      vertex  3.590000e+001  1.164142e+001  5.000000e+000
      vertex  3.590000e+001  4.500000e+000  1.000000e+001
      vertex  3.590000e+001  4.500000e+000  5.000000e+000
    endloop
  endfacet
  facet normal  -0.000000e+000  0.000000e+000  1.000000e+000
    outer loop
      vertex  3.590000e+001 -4.500000e+000  1.000000e+001
      vertex  3.490000e+001 -4.500000e+000  1.000000e+001
      vertex  3.590000e+001 -1.164142e+001  1.000000e+001
    endloop
  endfacet
  facet normal  0.000000e+000  0.000000e+000  1.000000e+000
    outer loop
      vertex  3.590000e+001 -1.164142e+001  1.000000e+001
      vertex  3.490000e+001 -4.500000e+000  1.000000e+001
      vertex  3.490000e+001 -1.070000e+001  1.000000e+001
    endloop
  endfacet
  facet normal  0.000000e+000  0.000000e+000  1.000000e+000
    outer loop
      vertex  3.590000e+001 -1.164142e+001  1.000000e+001
      vertex  3.490000e+001 -1.070000e+001  1.000000e+001
      vertex -3.590000e+001 -1.164142e+001  1.000000e+001
    endloop
  endfacet
  facet normal  0.000000e+000  0.000000e+000  1.000000e+000
    outer loop
      vertex -3.590000e+001 -1.164142e+001  1.000000e+001
      vertex  3.490000e+001 -1.070000e+001  1.000000e+001
      vertex -3.490000e+001 -1.070000e+001  1.000000e+001
    endloop
  endfacet
  facet normal  0.000000e+000  0.000000e+000  1.000000e+000
    outer loop
      vertex -3.590000e+001 -1.164142e+001  1.000000e+001
      vertex -3.490000e+001 -1.070000e+001  1.000000e+001
      vertex -3.590000e+001 -1.600000e+000  1.000000e+001
    endloop
  endfacet
  facet normal  0.000000e+000  0.000000e+000  1.000000e+000
    outer loop
      vertex -3.590000e+001 -1.600000e+000  1.000000e+001
      vertex -3.490000e+001 -1.070000e+001  1.000000e+001
      vertex -3.490000e+001 -2.600000e+000  1.000000e+001
    endloop
  endfacet
  facet normal  0.000000e+000  -0.000000e+000  9.999999e-001
    outer loop
      vertex -3.590000e+001 -1.600000e+000  1.000000e+001
      vertex -3.490000e+001 -2.600000e+000  1.000000e+001
      vertex -2.640000e+001 -1.600000e+000  1.000000e+001
    endloop
  endfacet
  facet normal  0.000000e+000  0.000000e+000  9.999999e-001
    outer loop
      vertex -2.640000e+001 -1.600000e+000  1.000000e+001
      vertex -3.490000e+001 -2.600000e+000  1.000000e+001
      vertex -2.540000e+001 -2.600000e+000  1.000000e+001
    endloop
  endfacet
  facet normal  0.000000e+000  0.000000e+000  1.000000e+000
    outer loop
      vertex -2.640000e+001 -1.600000e+000  1.000000e+001
      vertex -2.540000e+001 -2.600000e+000  1.000000e+001
      vertex -2.640000e+001  1.040000e+001  1.000000e+001
    endloop
  endfacet
  facet normal  -0.000000e+000  0.000000e+000  9.999999e-001
    outer loop
      vertex -2.640000e+001  1.040000e+001  1.000000e+001
      vertex -2.540000e+001 -2.600000e+000  1.000000e+001
      vertex -2.540000e+001  1.070000e+001  1.000000e+001
    endloop
  endfacet
  facet normal  0.000000e+000  0.000000e+000  1.000000e+000
    outer loop
      vertex -2.640000e+001  1.040000e+001  1.000000e+001
      vertex -2.540000e+001  1.070000e+001  1.000000e+001
      vertex -2.780000e+001  1.040000e+001  1.000000e+001
    endloop
  endfacet
  facet normal  0.000000e+000  0.000000e+000  1.000000e+000
    outer loop
      vertex -2.780000e+001  1.040000e+001  1.000000e+001
      vertex -2.540000e+001  1.070000e+001  1.000000e+001
      vertex -2.780000e+001  1.170000e+001  1.000000e+001
    endloop
  endfacet
  facet normal  0.000000e+000  0.000000e+000  1.000000e+000
    outer loop
      vertex -3.584142e+001 -1.170000e+001  1.000000e+001
      vertex  3.584142e+001 -1.170000e+001  1.000000e+001
      vertex -3.590000e+001 -1.164142e+001  1.000000e+001
    endloop
  endfacet
  facet normal  -0.000000e+000  0.000000e+000  1.000000e+000
    outer loop
      vertex -3.590000e+001 -1.164142e+001  1.000000e+001
      vertex  3.584142e+001 -1.170000e+001  1.000000e+001
      vertex  3.590000e+001 -1.164142e+001  1.000000e+001
    endloop
  endfacet
  facet normal  0.000000e+000  0.000000e+000  1.000000e+000
    outer loop
      vertex  3.490000e+001  4.500000e+000  1.000000e+001
      vertex  3.590000e+001  4.500000e+000  1.000000e+001
      vertex  3.490000e+001  1.070000e+001  1.000000e+001
    endloop
  endfacet
  facet normal  -0.000000e+000  0.000000e+000  1.000000e+000
    outer loop
      vertex  3.490000e+001  1.070000e+001  1.000000e+001
      vertex  3.590000e+001  4.500000e+000  1.000000e+001
      vertex  3.590000e+001  1.164142e+001  1.000000e+001
    endloop
  endfacet
  facet normal  0.000000e+000  0.000000e+000  9.999999e-001
    outer loop
      vertex  3.490000e+001  1.070000e+001  1.000000e+001
      vertex  3.590000e+001  1.164142e+001  1.000000e+001
      vertex -2.540000e+001  1.070000e+001  1.000000e+001
    endloop
  endfacet
  facet normal  0.000000e+000  0.000000e+000  1.000000e+000
    outer loop
      vertex -2.540000e+001  1.070000e+001  1.000000e+001
      vertex  3.590000e+001  1.164142e+001  1.000000e+001
      vertex  3.584142e+001  1.170000e+001  1.000000e+001
    endloop
  endfacet
  facet normal  0.000000e+000  0.000000e+000  9.999999e-001
    outer loop
      vertex -2.540000e+001  1.070000e+001  1.000000e+001
      vertex  3.584142e+001  1.170000e+001  1.000000e+001
      vertex -2.780000e+001  1.170000e+001  1.000000e+001
    endloop
  endfacet
  facet normal -1.000000e+000  0.000000e+000  0.000000e+000
    outer loop
      vertex -3.750000e+001 -1.600000e+000  5.000000e+000
      vertex -3.750000e+001 -1.600000e+000 -1.000000e+000
      vertex -3.750000e+001 -1.230416e+001  5.000000e+000
    endloop
  endfacet
  facet normal -1.000000e+000  0.000000e+000  0.000000e+000
    outer loop
      vertex -3.750000e+001 -1.230416e+001  5.000000e+000
      vertex -3.750000e+001 -1.600000e+000 -1.000000e+000
      vertex -3.750000e+001 -1.230416e+001 -1.000000e+000
    endloop
  endfacet
  facet normal -1.000000e+000  0.000000e+000  0.000000e+000
    outer loop
      vertex -3.750000e+001  1.230416e+001  5.000000e+000
      vertex -3.750000e+001  1.230416e+001 -1.000000e+000
      vertex -3.750000e+001  1.040000e+001  5.000000e+000
    endloop
  endfacet
  facet normal -1.000000e+000  0.000000e+000  0.000000e+000
    outer loop
      vertex -3.750000e+001  1.040000e+001  5.000000e+000
      vertex -3.750000e+001  1.230416e+001 -1.000000e+000
      vertex -3.750000e+001  1.040000e+001 -1.000000e+000
    endloop
  endfacet
  facet normal  0.000000e+000  -0.000000e+000 -1.000000e+000
    outer loop
      vertex -3.750000e+001  1.230416e+001 -1.000000e+000
      vertex -3.650417e+001  1.330000e+001 -1.000000e+000
      vertex  3.650417e+001  1.330000e+001 -1.000000e+000
    endloop
  endfacet
  facet normal  0.000000e+000  -0.000000e+000 -1.000000e+000
    outer loop
      vertex -3.750000e+001  1.230416e+001 -1.000000e+000
      vertex  3.650417e+001  1.330000e+001 -1.000000e+000
      vertex  3.750000e+001  1.230416e+001 -1.000000e+000
    endloop
  endfacet
  facet normal  -0.000000e+000  0.000000e+000 -9.999999e-001
    outer loop
      vertex -3.750000e+001  1.230416e+001 -1.000000e+000
      vertex  3.750000e+001  1.230416e+001 -1.000000e+000
      vertex -2.780000e+001  1.170000e+001 -1.000000e+000
    endloop
  endfacet
  facet normal  0.000000e+000  0.000000e+000 -1.000000e+000
    outer loop
      vertex -3.750000e+001  1.230416e+001 -1.000000e+000
      vertex -2.780000e+001  1.170000e+001 -1.000000e+000
      vertex -3.150000e+001  1.170000e+001 -1.000000e+000
    endloop
  endfacet
  facet normal  -0.000000e+000  -0.000000e+000 -1.000000e+000
    outer loop
      vertex -3.750000e+001  1.230416e+001 -1.000000e+000
      vertex -3.150000e+001  1.170000e+001 -1.000000e+000
      vertex -3.150000e+001  1.040000e+001 -1.000000e+000
    endloop
  endfacet
  facet normal  0.000000e+000  0.000000e+000 -1.000000e+000
    outer loop
      vertex -3.750000e+001  1.230416e+001 -1.000000e+000
      vertex -3.150000e+001  1.040000e+001 -1.000000e+000
      vertex -3.750000e+001  1.040000e+001 -1.000000e+000
    endloop
  endfacet
  facet normal  0.000000e+000  0.000000e+000 -1.000000e+000
    outer loop
      vertex  3.650417e+001 -1.330000e+001 -1.000000e+000
      vertex -3.650417e+001 -1.330000e+001 -1.000000e+000
      vertex  3.750000e+001 -1.230416e+001 -1.000000e+000
    endloop
  endfacet
  facet normal  -0.000000e+000  0.000000e+000 -1.000000e+000
    outer loop
      vertex  3.750000e+001 -1.230416e+001 -1.000000e+000
      vertex -3.650417e+001 -1.330000e+001 -1.000000e+000
      vertex -3.750000e+001 -1.230416e+001 -1.000000e+000
    endloop
  endfacet
  facet normal  0.000000e+000  0.000000e+000 -9.999999e-001
    outer loop
      vertex  3.750000e+001 -1.230416e+001 -1.000000e+000
      vertex -3.750000e+001 -1.230416e+001 -1.000000e+000
      vertex -2.640000e+001 -1.600000e+000 -1.000000e+000
    endloop
  endfacet
  facet normal  -0.000000e+000  0.000000e+000 -1.000000e+000
    outer loop
      vertex -2.640000e+001 -1.600000e+000 -1.000000e+000
      vertex -3.750000e+001 -1.230416e+001 -1.000000e+000
      vertex -3.750000e+001 -1.600000e+000 -1.000000e+000
    endloop
  endfacet
  facet normal  0.000000e+000  0.000000e+000 -1.000000e+000
    outer loop
      vertex  3.750000e+001 -1.230416e+001 -1.000000e+000
      vertex -2.640000e+001 -1.600000e+000 -1.000000e+000
      vertex  3.750000e+001  1.230416e+001 -1.000000e+000
    endloop
  endfacet
  facet normal  0.000000e+000  0.000000e+000 -1.000000e+000
    outer loop
      vertex  3.750000e+001  1.230416e+001 -1.000000e+000
      vertex -2.640000e+001 -1.600000e+000 -1.000000e+000
      vertex -2.640000e+001  1.040000e+001 -1.000000e+000
    endloop
  endfacet
  facet normal  0.000000e+000  0.000000e+000 -1.000000e+000
    outer loop
      vertex  3.750000e+001  1.230416e+001 -1.000000e+000
      vertex -2.640000e+001  1.040000e+001 -1.000000e+000
      vertex -2.780000e+001  1.170000e+001 -1.000000e+000
    endloop
  endfacet
  facet normal  0.000000e+000  0.000000e+000 -9.999999e-001
    outer loop
      vertex -2.780000e+001  1.170000e+001 -1.000000e+000
      vertex -2.640000e+001  1.040000e+001 -1.000000e+000
      vertex -2.780000e+001  1.040000e+001 -1.000000e+000
    endloop
  endfacet
  facet normal  0.000000e+000  9.999999e-001  -0.000000e+000
    outer loop
      vertex -3.150000e+001  1.170000e+001  1.000000e+001
      vertex -3.150000e+001  1.170000e+001  5.000000e+000
      vertex -3.590000e+001  1.170000e+001  1.000000e+001
    endloop
  endfacet
  facet normal  0.000000e+000  9.999999e-001  0.000000e+000
    outer loop
      vertex -3.590000e+001  1.170000e+001  1.000000e+001
      vertex -3.150000e+001  1.170000e+001  5.000000e+000
      vertex -3.590000e+001  1.170000e+001  5.000000e+000
    endloop
  endfacet
  facet normal  0.000000e+000  1.000000e+000  -0.000000e+000
    outer loop
      vertex  3.584142e+001  1.170000e+001  1.000000e+001
      vertex  3.584142e+001  1.170000e+001  5.000000e+000
      vertex -2.780000e+001  1.170000e+001  1.000000e+001
    endloop
  endfacet
  facet normal  0.000000e+000  1.000000e+000  0.000000e+000
    outer loop
      vertex -2.780000e+001  1.170000e+001  1.000000e+001
      vertex  3.584142e+001  1.170000e+001  5.000000e+000
      vertex -2.780000e+001  1.170000e+001  5.000000e+000
    endloop
  endfacet
  facet normal  0.000000e+000  0.000000e+000  9.999999e-001
    outer loop
      vertex -3.590000e+001  1.040000e+001  1.000000e+001
      vertex -3.150000e+001  1.040000e+001  1.000000e+001
      vertex -3.590000e+001  1.170000e+001  1.000000e+001
    endloop
  endfacet
  facet normal  -0.000000e+000  0.000000e+000  9.999999e-001
    outer loop
      vertex -3.590000e+001  1.170000e+001  1.000000e+001
      vertex -3.150000e+001  1.040000e+001  1.000000e+001
      vertex -3.150000e+001  1.170000e+001  1.000000e+001
    endloop
  endfacet
  facet normal -1.000000e+000  -0.000000e+000  0.000000e+000
    outer loop
      vertex -3.590000e+001 -1.164142e+001  1.000000e+001
      vertex -3.590000e+001 -1.600000e+000  1.000000e+001
      vertex -3.590000e+001 -1.164142e+001  5.000000e+000
    endloop
  endfacet
  facet normal -1.000000e+000  0.000000e+000  0.000000e+000
    outer loop
      vertex -3.590000e+001 -1.164142e+001  5.000000e+000
      vertex -3.590000e+001 -1.600000e+000  1.000000e+001
      vertex -3.590000e+001 -1.600000e+000  5.000000e+000
    endloop
  endfacet
  facet normal -1.000000e+000  -0.000000e+000  0.000000e+000
    outer loop
      vertex -3.590000e+001  1.040000e+001  1.000000e+001
      vertex -3.590000e+001  1.170000e+001  1.000000e+001
      vertex -3.590000e+001  1.040000e+001  5.000000e+000
    endloop
  endfacet
  facet normal -1.000000e+000  0.000000e+000  0.000000e+000
    outer loop
      vertex -3.590000e+001  1.040000e+001  5.000000e+000
      vertex -3.590000e+001  1.170000e+001  1.000000e+001
      vertex -3.590000e+001  1.170000e+001  5.000000e+000
    endloop
  endfacet
  facet normal  0.000000e+000  1.000000e+000  0.000000e+000
    outer loop
      vertex -3.750000e+001 -1.600000e+000 -1.000000e+000
      vertex -3.750000e+001 -1.600000e+000  5.000000e+000
      vertex -2.640000e+001 -1.600000e+000 -1.000000e+000
    endloop
  endfacet
  facet normal  0.000000e+000  1.000000e+000  0.000000e+000
    outer loop
      vertex -2.640000e+001 -1.600000e+000 -1.000000e+000
      vertex -3.750000e+001 -1.600000e+000  5.000000e+000
      vertex -3.590000e+001 -1.600000e+000  5.000000e+000
    endloop
  endfacet
  facet normal  -0.000000e+000  1.000000e+000  0.000000e+000
    outer loop
      vertex -2.640000e+001 -1.600000e+000 -1.000000e+000
      vertex -3.590000e+001 -1.600000e+000  5.000000e+000
      vertex -2.640000e+001 -1.600000e+000  1.000000e+001
    endloop
  endfacet
  facet normal  0.000000e+000  1.000000e+000  0.000000e+000
    outer loop
      vertex -2.640000e+001 -1.600000e+000  1.000000e+001
      vertex -3.590000e+001 -1.600000e+000  5.000000e+000
      vertex -3.590000e+001 -1.600000e+000  1.000000e+001
    endloop
  endfacet
  facet normal  0.000000e+000 -1.000000e+000  0.000000e+000
    outer loop
      vertex -2.780000e+001  1.170000e+001  5.000000e+000
      vertex -3.150000e+001  1.170000e+001  5.000000e+000
      vertex -2.780000e+001  1.170000e+001 -1.000000e+000
    endloop
  endfacet
  facet normal  0.000000e+000 -1.000000e+000  0.000000e+000
    outer loop
      vertex -2.780000e+001  1.170000e+001 -1.000000e+000
      vertex -3.150000e+001  1.170000e+001  5.000000e+000
      vertex -3.150000e+001  1.170000e+001 -1.000000e+000
    endloop
  endfacet
  facet normal  0.000000e+000 -9.999999e-001  0.000000e+000
    outer loop
      vertex -3.150000e+001  1.040000e+001  1.000000e+001
      vertex -3.590000e+001  1.040000e+001  1.000000e+001
      vertex -3.150000e+001  1.040000e+001 -1.000000e+000
    endloop
  endfacet
  facet normal  0.000000e+000 -9.999999e-001  0.000000e+000
    outer loop
      vertex -3.150000e+001  1.040000e+001 -1.000000e+000
      vertex -3.590000e+001  1.040000e+001  1.000000e+001
      vertex -3.590000e+001  1.040000e+001  5.000000e+000
    endloop
  endfacet
  facet normal  0.000000e+000 -1.000000e+000  -0.000000e+000
    outer loop
      vertex -3.150000e+001  1.040000e+001 -1.000000e+000
      vertex -3.590000e+001  1.040000e+001  5.000000e+000
      vertex -3.750000e+001  1.040000e+001 -1.000000e+000
    endloop
  endfacet
  facet normal  0.000000e+000 -1.000000e+000  0.000000e+000
    outer loop
      vertex -3.750000e+001  1.040000e+001 -1.000000e+000
      vertex -3.590000e+001  1.040000e+001  5.000000e+000
      vertex -3.750000e+001  1.040000e+001  5.000000e+000
    endloop
  endfacet
  facet normal  1.000000e+000  -0.000000e+000  0.000000e+000
    outer loop
      vertex -3.150000e+001  1.170000e+001  1.000000e+001
      vertex -3.150000e+001  1.040000e+001  1.000000e+001
      vertex -3.150000e+001  1.170000e+001  5.000000e+000
    endloop
  endfacet
  facet normal  1.000000e+000  0.000000e+000  0.000000e+000
    outer loop
      vertex -3.150000e+001  1.170000e+001  5.000000e+000
      vertex -3.150000e+001  1.040000e+001  1.000000e+001
      vertex -3.150000e+001  1.040000e+001 -1.000000e+000
    endloop
  endfacet
  facet normal  1.000000e+000  0.000000e+000  0.000000e+000
    outer loop
      vertex -3.150000e+001  1.170000e+001  5.000000e+000
      vertex -3.150000e+001  1.040000e+001 -1.000000e+000
      vertex -3.150000e+001  1.170000e+001 -1.000000e+000
    endloop
  endfacet
  facet normal -1.000000e+000  -0.000000e+000  0.000000e+000
    outer loop
      vertex -2.780000e+001  1.040000e+001  1.000000e+001
      vertex -2.780000e+001  1.170000e+001  1.000000e+001
      vertex -2.780000e+001  1.040000e+001 -1.000000e+000
    endloop
  endfacet
  facet normal -1.000000e+000  0.000000e+000  0.000000e+000
    outer loop
      vertex -2.780000e+001  1.040000e+001 -1.000000e+000
      vertex -2.780000e+001  1.170000e+001  1.000000e+001
      vertex -2.780000e+001  1.170000e+001  5.000000e+000
    endloop
  endfacet
  facet normal -1.000000e+000  0.000000e+000  -0.000000e+000
    outer loop
      vertex -2.780000e+001  1.040000e+001 -1.000000e+000
      vertex -2.780000e+001  1.170000e+001  5.000000e+000
      vertex -2.780000e+001  1.170000e+001 -1.000000e+000
    endloop
  endfacet
  facet normal  0.000000e+000 -1.000000e+000  0.000000e+000
    outer loop
      vertex -2.780000e+001  1.040000e+001  1.000000e+001
      vertex -2.780000e+001  1.040000e+001 -1.000000e+000
      vertex -2.640000e+001  1.040000e+001  1.000000e+001
    endloop
  endfacet
  facet normal  0.000000e+000 -1.000000e+000  -0.000000e+000
    outer loop
      vertex -2.640000e+001  1.040000e+001  1.000000e+001
      vertex -2.780000e+001  1.040000e+001 -1.000000e+000
      vertex -2.640000e+001  1.040000e+001 -1.000000e+000
    endloop
  endfacet
  facet normal -1.000000e+000  -0.000000e+000  0.000000e+000
    outer loop
      vertex -2.640000e+001 -1.600000e+000  1.000000e+001
      vertex -2.640000e+001  1.040000e+001  1.000000e+001
      vertex -2.640000e+001 -1.600000e+000 -1.000000e+000
    endloop
  endfacet
  facet normal -1.000000e+000  0.000000e+000  0.000000e+000
    outer loop
      vertex -2.640000e+001 -1.600000e+000 -1.000000e+000
      vertex -2.640000e+001  1.040000e+001  1.000000e+001
      vertex -2.640000e+001  1.040000e+001 -1.000000e+000
    endloop
  endfacet
  facet normal  7.071068e-001  7.071068e-001  0.000000e+000
    outer loop
      vertex  3.584142e+001  1.170000e+001  5.000000e+000
      vertex  3.584142e+001  1.170000e+001  1.000000e+001
      vertex  3.590000e+001  1.164142e+001  5.000000e+000
    endloop
  endfacet
  facet normal  7.071068e-001  7.071068e-001  -0.000000e+000
    outer loop
      vertex  3.590000e+001  1.164142e+001  5.000000e+000
      vertex  3.584142e+001  1.170000e+001  1.000000e+001
      vertex  3.590000e+001  1.164142e+001  1.000000e+001
    endloop
  endfacet
  facet normal -7.071068e-001 -7.071068e-001  -0.000000e+000
    outer loop
      vertex -3.584142e+001 -1.170000e+001  5.000000e+000
      vertex -3.584142e+001 -1.170000e+001  1.000000e+001
      vertex -3.590000e+001 -1.164142e+001  5.000000e+000
    endloop
  endfacet
  facet normal -7.071068e-001 -7.071068e-001  0.000000e+000
    outer loop
      vertex -3.590000e+001 -1.164142e+001  5.000000e+000
      vertex -3.584142e+001 -1.170000e+001  1.000000e+001
      vertex -3.590000e+001 -1.164142e+001  1.000000e+001
    endloop
  endfacet
  facet normal  1.000000e+000  -0.000000e+000  0.000000e+000
    outer loop
      vertex -2.540000e+001  1.070000e+001  1.000000e+001
      vertex -2.540000e+001 -2.600000e+000  1.000000e+001
      vertex -2.540000e+001  1.070000e+001  0.000000e+000
    endloop
  endfacet
  facet normal  1.000000e+000  0.000000e+000  0.000000e+000
    outer loop
      vertex -2.540000e+001  1.070000e+001  0.000000e+000
      vertex -2.540000e+001 -2.600000e+000  1.000000e+001
      vertex -2.540000e+001 -2.600000e+000  0.000000e+000
    endloop
  endfacet
  facet normal  0.000000e+000 -1.000000e+000  0.000000e+000
    outer loop
      vertex -2.540000e+001 -2.600000e+000  1.000000e+001
      vertex -3.490000e+001 -2.600000e+000  1.000000e+001
      vertex -2.540000e+001 -2.600000e+000  0.000000e+000
    endloop
  endfacet
  facet normal  0.000000e+000 -1.000000e+000  0.000000e+000
    outer loop
      vertex -2.540000e+001 -2.600000e+000  0.000000e+000
      vertex -3.490000e+001 -2.600000e+000  1.000000e+001
      vertex -3.490000e+001 -2.600000e+000  0.000000e+000
    endloop
  endfacet
  facet normal  0.000000e+000 -1.000000e+000  0.000000e+000
    outer loop
      vertex -2.540000e+001  1.070000e+001  1.000000e+001
      vertex -2.540000e+001  1.070000e+001  0.000000e+000
      vertex  3.490000e+001  1.070000e+001  1.000000e+001
    endloop
  endfacet
  facet normal  0.000000e+000 -1.000000e+000  -0.000000e+000
    outer loop
      vertex  3.490000e+001  1.070000e+001  1.000000e+001
      vertex -2.540000e+001  1.070000e+001  0.000000e+000
      vertex  3.490000e+001  1.070000e+001  0.000000e+000
    endloop
  endfacet
  facet normal  1.000000e+000  0.000000e+000  0.000000e+000
    outer loop
      vertex -3.490000e+001 -1.070000e+001  1.000000e+001
      vertex -3.490000e+001 -1.070000e+001  0.000000e+000
      vertex -3.490000e+001 -2.600000e+000  1.000000e+001
    endloop
  endfacet
  facet normal  1.000000e+000  0.000000e+000  0.000000e+000
    outer loop
      vertex -3.490000e+001 -2.600000e+000  1.000000e+001
      vertex -3.490000e+001 -1.070000e+001  0.000000e+000
      vertex -3.490000e+001 -2.600000e+000  0.000000e+000
    endloop
  endfacet
  facet normal  -0.000000e+000  0.000000e+000  1.000000e+000
    outer loop
      vertex  3.490000e+001  1.070000e+001  0.000000e+000
      vertex -2.540000e+001  1.070000e+001  0.000000e+000
      vertex  3.490000e+001 -1.070000e+001  0.000000e+000
    endloop
  endfacet
  facet normal  0.000000e+000  0.000000e+000  1.000000e+000
    outer loop
      vertex  3.490000e+001 -1.070000e+001  0.000000e+000
      vertex -2.540000e+001  1.070000e+001  0.000000e+000
      vertex -2.540000e+001 -2.600000e+000  0.000000e+000
    endloop
  endfacet
  facet normal  0.000000e+000  0.000000e+000  1.000000e+000
    outer loop
      vertex  3.490000e+001 -1.070000e+001  0.000000e+000
      vertex -2.540000e+001 -2.600000e+000  0.000000e+000
      vertex -3.490000e+001 -1.070000e+001  0.000000e+000
    endloop
  endfacet
  facet normal  0.000000e+000  0.000000e+000  1.000000e+000
    outer loop
      vertex -3.490000e+001 -1.070000e+001  0.000000e+000
      vertex -2.540000e+001 -2.600000e+000  0.000000e+000
      vertex -3.490000e+001 -2.600000e+000  0.000000e+000
    endloop
  endfacet
  facet normal  7.071068e-001 -7.071068e-001  0.000000e+000
    outer loop
      vertex  3.584142e+001 -1.170000e+001  5.000000e+000
      vertex  3.590000e+001 -1.164142e+001  5.000000e+000
      vertex  3.584142e+001 -1.170000e+001  1.000000e+001
    endloop
  endfacet
  facet normal  7.071068e-001 -7.071068e-001  0.000000e+000
    outer loop
      vertex  3.584142e+001 -1.170000e+001  1.000000e+001
      vertex  3.590000e+001 -1.164142e+001  5.000000e+000
      vertex  3.590000e+001 -1.164142e+001  1.000000e+001
    endloop
  endfacet
  facet normal  0.000000e+000 -9.999999e-001  0.000000e+000
    outer loop
      vertex  3.584142e+001 -1.170000e+001  1.000000e+001
      vertex -3.584142e+001 -1.170000e+001  1.000000e+001
      vertex  3.584142e+001 -1.170000e+001  5.000000e+000
    endloop
  endfacet
  facet normal  0.000000e+000 -9.999999e-001  0.000000e+000
    outer loop
      vertex  3.584142e+001 -1.170000e+001  5.000000e+000
      vertex -3.584142e+001 -1.170000e+001  1.000000e+001
      vertex -3.584142e+001 -1.170000e+001  5.000000e+000
    endloop
  endfacet
  facet normal  0.000000e+000  1.000000e+000  -0.000000e+000
    outer loop
      vertex  3.490000e+001 -1.070000e+001  1.000000e+001
      vertex  3.490000e+001 -1.070000e+001  0.000000e+000
      vertex -3.490000e+001 -1.070000e+001  1.000000e+001
    endloop
  endfacet
  facet normal  0.000000e+000  1.000000e+000  0.000000e+000
    outer loop
      vertex -3.490000e+001 -1.070000e+001  1.000000e+001
      vertex  3.490000e+001 -1.070000e+001  0.000000e+000
      vertex -3.490000e+001 -1.070000e+001  0.000000e+000
    endloop
  endfacet
  facet normal -7.071084e-001 -7.071050e-001  -0.000000e+000
    outer loop
      vertex -3.650417e+001 -1.330000e+001 -1.000000e+000
      vertex -3.650417e+001 -1.330000e+001  5.000000e+000
      vertex -3.750000e+001 -1.230416e+001 -1.000000e+000
    endloop
  endfacet
  facet normal -7.071084e-001 -7.071050e-001  0.000000e+000
    outer loop
      vertex -3.750000e+001 -1.230416e+001 -1.000000e+000
      vertex -3.650417e+001 -1.330000e+001  5.000000e+000
      vertex -3.750000e+001 -1.230416e+001  5.000000e+000
    endloop
  endfacet
  facet normal  0.000000e+000 -9.999999e-001  0.000000e+000
    outer loop
      vertex  3.650417e+001 -1.330000e+001  5.000000e+000
      vertex -3.650417e+001 -1.330000e+001  5.000000e+000
      vertex  3.650417e+001 -1.330000e+001 -1.000000e+000
    endloop
  endfacet
  facet normal  0.000000e+000 -9.999999e-001  0.000000e+000
    outer loop
      vertex  3.650417e+001 -1.330000e+001 -1.000000e+000
      vertex -3.650417e+001 -1.330000e+001  5.000000e+000
      vertex -3.650417e+001 -1.330000e+001 -1.000000e+000
    endloop
  endfacet
  facet normal -7.071084e-001  7.071050e-001  0.000000e+000
    outer loop
      vertex -3.650417e+001  1.330000e+001 -1.000000e+000
      vertex -3.750000e+001  1.230416e+001 -1.000000e+000
      vertex -3.650417e+001  1.330000e+001  5.000000e+000
    endloop
  endfacet
  facet normal -7.071084e-001  7.071050e-001  0.000000e+000
    outer loop
      vertex -3.650417e+001  1.330000e+001  5.000000e+000
      vertex -3.750000e+001  1.230416e+001 -1.000000e+000
      vertex -3.750000e+001  1.230416e+001  5.000000e+000
    endloop
  endfacet
  facet normal  0.000000e+000  9.999999e-001  -0.000000e+000
    outer loop
      vertex  3.650417e+001  1.330000e+001  5.000000e+000
      vertex  3.650417e+001  1.330000e+001 -1.000000e+000
      vertex -3.650417e+001  1.330000e+001  5.000000e+000
    endloop
  endfacet
  facet normal  0.000000e+000  9.999999e-001  0.000000e+000
    outer loop
      vertex -3.650417e+001  1.330000e+001  5.000000e+000
      vertex  3.650417e+001  1.330000e+001 -1.000000e+000
      vertex -3.650417e+001  1.330000e+001 -1.000000e+000
    endloop
  endfacet
  facet normal  7.071084e-001  7.071050e-001  0.000000e+000
    outer loop
      vertex  3.650417e+001  1.330000e+001 -1.000000e+000
      vertex  3.650417e+001  1.330000e+001  5.000000e+000
      vertex  3.750000e+001  1.230416e+001 -1.000000e+000
    endloop
  endfacet
  facet normal  7.071084e-001  7.071050e-001  -0.000000e+000
    outer loop
      vertex  3.750000e+001  1.230416e+001 -1.000000e+000
      vertex  3.650417e+001  1.330000e+001  5.000000e+000
      vertex  3.750000e+001  1.230416e+001  5.000000e+000
    endloop
  endfacet
  facet normal  1.000000e+000  0.000000e+000  0.000000e+000
    outer loop
      vertex  3.750000e+001 -1.230416e+001  5.000000e+000
      vertex  3.750000e+001 -1.230416e+001 -1.000000e+000
      vertex  3.750000e+001  1.230416e+001  5.000000e+000
    endloop
  endfacet
  facet normal  1.000000e+000  0.000000e+000  0.000000e+000
    outer loop
      vertex  3.750000e+001  1.230416e+001  5.000000e+000
      vertex  3.750000e+001 -1.230416e+001 -1.000000e+000
      vertex  3.750000e+001  1.230416e+001 -1.000000e+000
    endloop
  endfacet
  facet normal  7.071084e-001 -7.071050e-001  0.000000e+000
    outer loop
      vertex  3.650417e+001 -1.330000e+001 -1.000000e+000
      vertex  3.750000e+001 -1.230416e+001 -1.000000e+000
      vertex  3.650417e+001 -1.330000e+001  5.000000e+000
    endloop
  endfacet
  facet normal  7.071084e-001 -7.071050e-001  0.000000e+000
    outer loop
      vertex  3.650417e+001 -1.330000e+001  5.000000e+000
      vertex  3.750000e+001 -1.230416e+001 -1.000000e+000
      vertex  3.750000e+001 -1.230416e+001  5.000000e+000
    endloop
  endfacet
endsolid CATIA STL
