M48
; DRILL file {KiCad (5.1.4)-1} date 17/02/2022 11:55:18
; FORMAT={-:-/ absolute / inch / decimal}
; #@! TF.CreationDate,2022-02-17T11:55:18+01:00
; #@! TF.GenerationSoftware,Kicad,Pcbnew,(5.1.4)-1
; #@! TF.FileFunction,Plated,1,2,PTH
FMAT,2
INCH
T1C0.0157
T2C0.0315
T3C0.0394
T4C0.0433
T5C0.0551
%
G90
G05
T1
X6.225Y-2.825
X6.3Y-3.1
X6.3Y-3.425
X6.35Y-2.825
X6.45Y-3.025
X6.72Y-3.11
X6.95Y-3.2
X6.975Y-3.025
X7.025Y-3.375
X7.05Y-3.3
X7.2Y-3.05
X7.4Y-3.25
X7.425Y-3.025
X7.45Y-3.35
X7.51Y-3.1
X7.65Y-3.4
X7.8Y-3.025
X7.8Y-3.275
X7.89Y-3.2686
X7.99Y-3.27
X8.09Y-3.2686
T2
X6.8Y-2.9
X6.8Y-3.0
X6.8Y-3.1
X6.8Y-3.2
X6.8Y-3.3
X6.8Y-3.4
X6.8Y-3.5
X6.9Y-2.9
X6.9Y-3.5
X7.0Y-2.9
X7.0Y-3.5
X7.1Y-2.9
X7.1Y-3.5
X7.2Y-2.9
X7.2Y-3.5
X7.3Y-2.9
X7.3Y-3.5
X7.4Y-2.9
X7.4Y-3.5
X7.5Y-2.9
X7.5Y-3.5
X7.6Y-2.9
X7.6Y-3.5
X7.7Y-2.9
X7.7Y-3.5
X7.8Y-2.9
X7.8Y-3.5
X7.9Y-2.9
X7.9Y-3.5
X8.0Y-2.9
X8.0Y-3.5
X8.1Y-2.9
X8.1Y-3.5
T3
X6.5Y-2.8
X6.6Y-2.8
X6.7Y-2.8
X6.8Y-2.8
X6.9Y-2.8
X7.0Y-2.8
X7.1Y-2.8
X7.2Y-2.8
X7.3Y-2.8
X7.4Y-2.8
X7.5Y-2.8
X7.6Y-2.8
X7.7Y-2.8
X7.8Y-2.8
X7.9Y-2.8
X8.0Y-2.8
X8.1Y-2.8
X6.5Y-3.6
X6.6Y-3.6
X6.7Y-3.6
X6.8Y-3.6
X6.9Y-3.6
X7.0Y-3.6
X7.1Y-3.6
X7.2Y-3.6
X7.3Y-3.6
X7.4Y-3.6
X7.5Y-3.6
X7.6Y-3.6
X7.7Y-3.6
X7.8Y-3.6
X7.9Y-3.6
X8.0Y-3.6
X8.1Y-3.6
X6.65Y-2.9
X6.65Y-3.0
X6.65Y-3.1
X6.65Y-3.2
X6.65Y-3.3
X6.65Y-3.4
X6.65Y-3.5
T4
X5.7743Y-2.864
X5.7743Y-3.0904
T5
X5.825Y-3.2
X5.825Y-3.4
T0
M30
